<svg xmlns="http://www.w3.org/2000/svg" xmlns:xlink="http://www.w3.org/1999/xlink" width="480" zoomAndPan="magnify" viewBox="0 0 360 359.999987" height="480" preserveAspectRatio="xMidYMid meet" version="1.0"><defs><clipPath id="id1"><path d="M 215 279 L 221 279 L 221 353.550781 L 215 353.550781 Z M 215 279 " clip-rule="nonzero"/></clipPath><clipPath id="id2"><path d="M 166 349 L 216 349 L 216 353.550781 L 166 353.550781 Z M 166 349 " clip-rule="nonzero"/></clipPath><clipPath id="id3"><path d="M 96 349 L 167 349 L 167 353.550781 L 96 353.550781 Z M 96 349 " clip-rule="nonzero"/></clipPath><clipPath id="id4"><path d="M 139 140 L 254 140 L 254 261.765625 L 139 261.765625 Z M 139 140 " clip-rule="nonzero"/></clipPath><clipPath id="id5"><path d="M 138 173 L 150 173 L 150 261.765625 L 138 261.765625 Z M 138 173 " clip-rule="nonzero"/></clipPath><clipPath id="id6"><path d="M 24 6.300781 L 117 6.300781 L 117 78 L 24 78 Z M 24 6.300781 " clip-rule="nonzero"/></clipPath></defs><g clip-path="url(#id1)"><path fill="#bcbec0" d="M 215.960938 279.082031 L 220.570312 279.082031 L 220.570312 353.535156 L 215.960938 353.535156 Z M 215.960938 279.082031 " fill-opacity="1" fill-rule="nonzero"/></g><path fill="#d1d3d4" d="M 145.992188 279.082031 L 215.960938 279.082031 L 215.960938 349.023438 L 145.992188 349.023438 Z M 145.992188 279.082031 " fill-opacity="1" fill-rule="nonzero"/><path fill="#bcbec0" d="M 145.992188 279.082031 L 215.960938 279.082031 L 215.960938 310.570312 L 145.992188 310.570312 Z M 145.992188 279.082031 " fill-opacity="1" fill-rule="nonzero"/><g clip-path="url(#id2)"><path fill="#bcbec0" d="M 166.207031 349.03125 L 215.960938 349.03125 L 215.960938 353.535156 L 166.207031 353.535156 Z M 166.207031 349.03125 " fill-opacity="1" fill-rule="nonzero"/></g><g clip-path="url(#id3)"><path fill="#d1d3d4" d="M 96.238281 349.03125 L 166.207031 349.03125 L 166.207031 353.535156 L 96.238281 353.535156 Z M 96.238281 349.03125 " fill-opacity="1" fill-rule="nonzero"/></g><path fill="#bcbec0" d="M 339.578125 293.28125 L 31.25 293.28125 C 30.804688 293.289062 30.363281 293.25 29.925781 293.164062 C 29.488281 293.078125 29.066406 292.945312 28.65625 292.773438 C 28.246094 292.597656 27.859375 292.382812 27.492188 292.128906 C 27.128906 291.875 26.792969 291.585938 26.488281 291.261719 C 26.183594 290.9375 25.914062 290.585938 25.683594 290.203125 C 25.453125 289.824219 25.261719 289.421875 25.113281 289.003906 C 24.964844 288.585938 24.863281 288.152344 24.804688 287.710938 C 24.746094 287.269531 24.730469 286.828125 24.765625 286.382812 L 37.738281 71.144531 C 37.773438 70.683594 37.847656 70.230469 37.964844 69.78125 C 38.082031 69.335938 38.238281 68.902344 38.4375 68.484375 C 38.636719 68.070312 38.871094 67.671875 39.140625 67.300781 C 39.414062 66.925781 39.71875 66.582031 40.054688 66.265625 C 40.390625 65.945312 40.753906 65.664062 41.144531 65.414062 C 41.53125 65.167969 41.941406 64.957031 42.371094 64.78125 C 42.796875 64.609375 43.238281 64.480469 43.691406 64.386719 C 44.144531 64.296875 44.601562 64.25 45.066406 64.246094 L 353.386719 64.246094 C 353.832031 64.238281 354.273438 64.28125 354.710938 64.367188 C 355.148438 64.453125 355.570312 64.582031 355.980469 64.757812 C 356.390625 64.929688 356.777344 65.144531 357.144531 65.398438 C 357.507812 65.652344 357.84375 65.941406 358.148438 66.269531 C 358.453125 66.59375 358.722656 66.945312 358.953125 67.324219 C 359.183594 67.703125 359.375 68.105469 359.523438 68.523438 C 359.671875 68.945312 359.773438 69.375 359.832031 69.816406 C 359.890625 70.257812 359.90625 70.699219 359.871094 71.144531 L 346.898438 286.382812 C 346.863281 286.84375 346.789062 287.300781 346.671875 287.746094 C 346.554688 288.191406 346.398438 288.625 346.199219 289.042969 C 346.003906 289.457031 345.769531 289.855469 345.496094 290.226562 C 345.226562 290.601562 344.921875 290.945312 344.585938 291.261719 C 344.25 291.578125 343.886719 291.863281 343.496094 292.109375 C 343.109375 292.359375 342.699219 292.570312 342.273438 292.742188 C 341.84375 292.917969 341.402344 293.046875 340.949219 293.140625 C 340.496094 293.230469 340.039062 293.277344 339.578125 293.28125 Z M 339.578125 293.28125 " fill-opacity="1" fill-rule="nonzero"/><path fill="#d1d3d4" d="M 331.5625 293.28125 L 23.234375 293.28125 C 22.789062 293.289062 22.347656 293.25 21.910156 293.164062 C 21.472656 293.078125 21.050781 292.945312 20.640625 292.773438 C 20.230469 292.597656 19.84375 292.382812 19.476562 292.128906 C 19.113281 291.875 18.777344 291.585938 18.472656 291.261719 C 18.164062 290.9375 17.898438 290.585938 17.664062 290.203125 C 17.433594 289.824219 17.242188 289.425781 17.09375 289.003906 C 16.945312 288.585938 16.84375 288.152344 16.78125 287.710938 C 16.722656 287.269531 16.710938 286.828125 16.742188 286.382812 L 29.71875 71.144531 C 29.75 70.683594 29.824219 70.226562 29.941406 69.78125 C 30.058594 69.332031 30.214844 68.902344 30.410156 68.484375 C 30.609375 68.066406 30.84375 67.667969 31.113281 67.292969 C 31.386719 66.921875 31.691406 66.574219 32.027344 66.257812 C 32.363281 65.9375 32.726562 65.65625 33.113281 65.40625 C 33.503906 65.15625 33.910156 64.941406 34.339844 64.769531 C 34.769531 64.59375 35.210938 64.460938 35.664062 64.371094 C 36.117188 64.277344 36.574219 64.230469 37.035156 64.222656 L 345.375 64.222656 C 345.816406 64.21875 346.257812 64.257812 346.695312 64.34375 C 347.132812 64.433594 347.554688 64.5625 347.964844 64.734375 C 348.375 64.910156 348.761719 65.125 349.128906 65.378906 C 349.492188 65.632812 349.828125 65.925781 350.132812 66.25 C 350.4375 66.574219 350.703125 66.925781 350.9375 67.304688 C 351.167969 67.683594 351.359375 68.085938 351.507812 68.503906 C 351.65625 68.921875 351.757812 69.355469 351.816406 69.792969 C 351.875 70.234375 351.890625 70.679688 351.855469 71.121094 L 338.882812 286.382812 C 338.851562 286.84375 338.777344 287.300781 338.660156 287.746094 C 338.542969 288.191406 338.382812 288.625 338.1875 289.042969 C 337.988281 289.457031 337.753906 289.855469 337.480469 290.226562 C 337.210938 290.601562 336.90625 290.945312 336.570312 291.261719 C 336.234375 291.578125 335.871094 291.863281 335.484375 292.109375 C 335.09375 292.359375 334.6875 292.570312 334.257812 292.742188 C 333.828125 292.917969 333.390625 293.046875 332.9375 293.140625 C 332.484375 293.230469 332.027344 293.277344 331.5625 293.28125 Z M 331.5625 293.28125 " fill-opacity="1" fill-rule="nonzero"/><path fill="#f1f2f2" d="M 330.558594 261.757812 L 28.039062 261.757812 L 39.292969 75.070312 L 341.8125 75.070312 Z M 330.558594 261.757812 " fill-opacity="1" fill-rule="nonzero"/><path fill="#f6c6b3" d="M 60.136719 219.378906 C 60.136719 219.378906 44.195312 203.035156 40.664062 201.46875 C 37.132812 199.902344 24.546875 198.136719 21.394531 197.332031 C 17.285156 196.292969 18.003906 201.945312 23.089844 203.34375 C 27.417969 204.539062 34.332031 206.105469 34.851562 206.601562 C 35.375 207.101562 34.714844 207.5625 32.917969 207.699219 C 30.714844 207.859375 28.519531 207.800781 26.328125 207.515625 C 23.503906 207.230469 17.894531 206.566406 16.070312 206.925781 C 14.246094 207.285156 6.289062 209.230469 4.398438 209.855469 C 2.136719 210.636719 3.542969 213.609375 6.78125 213.339844 C 9.273438 213.15625 16.738281 211.832031 16.738281 211.832031 L 26.171875 213.375 C 26.171875 213.375 14.664062 214.402344 12.832031 214.679688 C 11 214.957031 5.273438 216.09375 2.664062 216.671875 C 0.0546875 217.25 0.574219 219.929688 3.21875 220.195312 C 1.609375 220.484375 1.894531 222.582031 3.894531 223.121094 C 5.894531 223.664062 12.742188 224.734375 13.417969 224.84375 C 14.09375 224.953125 24.179688 225.515625 24.179688 225.515625 L 24.273438 226.441406 L 15.785156 228.402344 C 15.785156 228.402344 11.03125 228.746094 9.191406 228.863281 C 6.261719 229.054688 5.402344 231.46875 7.453125 231.960938 C 10.425781 232.371094 13.410156 232.617188 16.40625 232.695312 C 17.492188 232.636719 25.929688 232.285156 25.929688 232.285156 C 25.929688 232.285156 44.910156 235.269531 47.570312 235.109375 C 50.230469 234.949219 56.296875 231.492188 56.296875 231.492188 L 67.90625 233.175781 L 70.28125 220.726562 Z M 60.136719 219.378906 " fill-opacity="1" fill-rule="nonzero"/><path fill="#ca8f91" d="M 3.191406 220.40625 C 3.054688 220.40625 2.984375 220.335938 2.980469 220.199219 C 2.96875 220.058594 3.035156 219.988281 3.175781 219.988281 L 24.78125 219.066406 C 24.847656 219.054688 24.902344 219.070312 24.957031 219.109375 C 25.007812 219.152344 25.03125 219.207031 25.03125 219.273438 C 25.03125 219.339844 25.007812 219.394531 24.957031 219.4375 C 24.902344 219.480469 24.847656 219.496094 24.78125 219.484375 L 3.199219 220.40625 Z M 3.191406 220.40625 " fill-opacity="1" fill-rule="nonzero"/><path fill="#ca8f91" d="M 50.734375 223.546875 C 44.925781 223.027344 40.320312 218.949219 36.632812 211.097656 C 36.578125 210.972656 36.613281 210.878906 36.734375 210.820312 C 36.859375 210.769531 36.953125 210.804688 37.015625 210.921875 C 40.625 218.648438 45.125 222.640625 50.773438 223.152344 C 50.910156 223.164062 50.972656 223.242188 50.964844 223.378906 C 50.941406 223.507812 50.863281 223.5625 50.734375 223.546875 Z M 50.734375 223.546875 " fill-opacity="1" fill-rule="nonzero"/><path fill="#ca8f91" d="M 32.195312 227.625 C 32.050781 227.613281 31.988281 227.535156 32.011719 227.390625 C 32.664062 222.265625 33.34375 216.925781 34.992188 211.890625 C 35.039062 211.761719 35.125 211.714844 35.257812 211.757812 C 35.390625 211.800781 35.433594 211.886719 35.386719 212.019531 C 33.753906 217.015625 33.082031 222.316406 32.457031 227.449219 C 32.453125 227.515625 32.421875 227.566406 32.367188 227.601562 C 32.3125 227.636719 32.257812 227.644531 32.195312 227.625 Z M 32.195312 227.625 " fill-opacity="1" fill-rule="nonzero"/><path fill="#ca8f91" d="M 35.351562 227.179688 C 35.222656 227.179688 35.15625 227.117188 35.144531 226.988281 C 35.15625 226.859375 35.222656 226.796875 35.351562 226.792969 L 45.25 225.890625 C 45.386719 225.875 45.460938 225.9375 45.476562 226.074219 C 45.492188 226.210938 45.429688 226.285156 45.292969 226.300781 L 35.394531 227.207031 Z M 35.351562 227.179688 " fill-opacity="1" fill-rule="nonzero"/><path fill="#e28c97" d="M 154.089844 147.851562 C 142.859375 151.8125 123.460938 217.417969 121.855469 224.625 C 118.5 239.648438 131.09375 253.484375 144.734375 236.910156 C 153.339844 226.445312 182.292969 168.078125 182.292969 168.078125 C 182.292969 168.078125 163.144531 144.652344 154.089844 147.851562 Z M 154.089844 147.851562 " fill-opacity="1" fill-rule="nonzero"/><path fill="#e28c97" d="M 59.652344 235.152344 C 59.652344 235.152344 128.691406 253.378906 138.375 243.210938 C 148.058594 233.039062 136.226562 223.640625 129.640625 220.339844 C 123.054688 217.039062 67.078125 219.050781 61.027344 218.472656 C 64.316406 223.570312 61.722656 230.519531 59.652344 235.152344 Z M 59.652344 235.152344 " fill-opacity="1" fill-rule="nonzero"/><path fill="#da6b79" d="M 129.640625 220.742188 C 129.574219 220.738281 129.511719 220.722656 129.453125 220.691406 C 124.960938 218.4375 96.425781 218.714844 77.546875 218.90625 C 69.335938 218.984375 62.84375 219.042969 60.992188 218.867188 C 60.871094 218.859375 60.773438 218.808594 60.699219 218.714844 C 60.621094 218.625 60.589844 218.519531 60.605469 218.398438 C 60.617188 218.28125 60.671875 218.1875 60.761719 218.113281 C 60.851562 218.039062 60.957031 218.003906 61.074219 218.011719 C 62.890625 218.1875 69.351562 218.121094 77.542969 218.011719 C 96.5 217.820312 125.160156 217.542969 129.839844 219.894531 C 130.046875 219.996094 130.125 220.15625 130.070312 220.382812 C 130.015625 220.605469 129.875 220.71875 129.640625 220.714844 Z M 129.640625 220.742188 " fill-opacity="1" fill-rule="nonzero"/><path fill="#372940" d="M 249.601562 127.933594 C 251.113281 116.382812 243.132812 105.582031 243.808594 87.003906 C 244.503906 67.644531 244.648438 52.996094 230.554688 47.628906 C 224.988281 18.75 167.707031 23.332031 153.214844 43.238281 C 139.839844 61.609375 142.292969 74.59375 138.566406 85.957031 C 134.835938 97.207031 127.882812 105.539062 126.660156 110.722656 C 115.460938 157.957031 243.40625 175.019531 249.601562 127.933594 Z M 249.601562 127.933594 " fill-opacity="1" fill-rule="evenodd"/><path fill="#f6c6b3" d="M 206.277344 101.109375 C 205.382812 111.53125 209.289062 137.796875 211.089844 140.566406 C 212.894531 143.332031 221.707031 145.542969 221.707031 145.542969 C 208.988281 151.785156 195.332031 165.316406 180.375 164.203125 C 172.199219 163.574219 169.429688 151.519531 168.453125 145.574219 C 168.453125 145.574219 175.421875 144.351562 178.410156 141.144531 C 181.398438 137.9375 180.445312 111.457031 178.140625 102.164062 C 187.492188 101.136719 196.871094 100.785156 206.277344 101.109375 Z M 206.277344 101.109375 " fill-opacity="1" fill-rule="nonzero"/><g clip-path="url(#id4)"><path fill="#e28c97" d="M 154.089844 147.851562 C 147.65625 151.320312 149.261719 166.605469 146.910156 176.167969 C 145.160156 183.292969 140.164062 193.925781 139.210938 202.757812 C 138.257812 211.589844 142.542969 219.394531 148.929688 225.597656 C 147.546875 249.894531 147.597656 274.023438 145.445312 298.246094 L 238.480469 298.246094 C 234.613281 289.070312 228.335938 270.726562 227.960938 261.882812 C 227.015625 239.503906 237.484375 214.9375 242.949219 197.726562 C 248.738281 179.492188 258.636719 162.394531 251.296875 154.273438 C 244.546875 146.804688 230.511719 145.53125 216.761719 142.71875 C 204.988281 148.972656 193.496094 155.078125 181.957031 161.492188 C 178.976562 154.917969 176.992188 148.054688 176.007812 140.902344 C 164.351562 143.5 160.527344 144.371094 154.089844 147.851562 Z M 154.089844 147.851562 " fill-opacity="1" fill-rule="nonzero"/></g><path fill="#da6b79" d="M 188.300781 208.101562 C 188.089844 208.101562 187.953125 208 187.890625 207.800781 C 187.828125 207.601562 187.878906 207.441406 188.050781 207.320312 L 219.890625 185.5625 L 205.875 172.242188 C 205.746094 172.113281 205.714844 171.960938 205.78125 171.789062 C 205.847656 171.617188 205.96875 171.523438 206.152344 171.511719 L 224.402344 170.582031 L 225.714844 148.914062 C 225.71875 148.792969 225.769531 148.695312 225.859375 148.613281 C 225.949219 148.535156 226.050781 148.5 226.171875 148.507812 C 226.289062 148.511719 226.390625 148.5625 226.46875 148.652344 C 226.546875 148.742188 226.585938 148.84375 226.578125 148.964844 L 225.246094 171.011719 C 225.238281 171.125 225.195312 171.21875 225.117188 171.296875 C 225.039062 171.375 224.945312 171.417969 224.835938 171.421875 L 207.199219 172.316406 L 220.863281 185.316406 C 220.96875 185.40625 221.015625 185.523438 221.003906 185.660156 C 220.992188 185.800781 220.929688 185.90625 220.8125 185.980469 L 188.542969 208.039062 C 188.46875 208.085938 188.386719 208.105469 188.300781 208.101562 Z M 188.300781 208.101562 " fill-opacity="1" fill-rule="nonzero"/><path fill="#da6b79" d="M 169.914062 208.101562 C 169.738281 208.105469 169.613281 208.027344 169.53125 207.875 L 153.414062 177.902344 C 153.363281 177.808594 153.351562 177.707031 153.375 177.601562 C 153.398438 177.496094 153.457031 177.410156 153.546875 177.347656 L 163.464844 170.347656 L 154.484375 168.882812 C 154.339844 168.855469 154.234375 168.773438 154.167969 168.640625 C 154.097656 168.511719 154.097656 168.382812 154.167969 168.253906 L 165.449219 147.382812 C 165.507812 147.273438 165.589844 147.203125 165.707031 147.167969 C 165.820312 147.136719 165.933594 147.148438 166.035156 147.207031 C 166.140625 147.261719 166.210938 147.347656 166.246094 147.464844 C 166.28125 147.578125 166.269531 147.6875 166.210938 147.792969 L 155.222656 168.128906 L 164.660156 169.671875 C 164.851562 169.699219 164.964844 169.808594 165.003906 169.996094 C 165.050781 170.183594 164.996094 170.335938 164.835938 170.449219 L 154.367188 177.832031 L 170.292969 207.464844 C 170.347656 207.570312 170.359375 207.679688 170.324219 207.792969 C 170.289062 207.910156 170.222656 207.996094 170.117188 208.050781 C 170.054688 208.085938 169.984375 208.105469 169.914062 208.101562 Z M 169.914062 208.101562 " fill-opacity="1" fill-rule="nonzero"/><path fill="#ffffff" d="M 221.707031 143.675781 C 201.140625 170.589844 186.152344 197.144531 176.738281 223.34375 C 169.503906 195.515625 166.785156 168.421875 169.566406 142.359375 L 182.292969 160.195312 Z M 221.707031 143.675781 " fill-opacity="1" fill-rule="nonzero"/><path fill="#da6b79" d="M 174.542969 162.519531 L 181.992188 161.492188 L 191.472656 163.46875 L 184.878906 170.792969 L 187.414062 198.230469 C 184.484375 204.632812 179.238281 216.539062 176.738281 223.371094 C 174.5 214.980469 172.710938 206.492188 171.371094 197.910156 L 178.03125 170.15625 Z M 174.542969 162.519531 " fill-opacity="1" fill-rule="nonzero"/><path fill="#f5e6e5" d="M 176.335938 139.898438 L 169.566406 142.359375 C 167.589844 149.34375 167.121094 158.167969 167.730469 168.296875 L 181.867188 162.300781 L 198.871094 172.5 C 209.078125 165.023438 216.453125 155.226562 221.734375 143.675781 L 214.578125 139.203125 C 206.972656 147.097656 193.648438 154.808594 182.34375 160.195312 C 179.472656 154.53125 177.507812 147.703125 176.335938 139.898438 Z M 176.335938 139.898438 " fill-opacity="1" fill-rule="nonzero"/><g clip-path="url(#id5)"><path fill="#da6b79" d="M 145.445312 298.679688 L 145.398438 298.679688 C 145.28125 298.667969 145.183594 298.617188 145.109375 298.527344 C 145.035156 298.433594 145 298.328125 145.011719 298.210938 C 146.332031 283.425781 146.835938 268.363281 147.328125 253.804688 C 147.632812 244.652344 147.949219 235.183594 148.46875 225.867188 C 142.457031 218.851562 137.597656 212.21875 138.871094 202.332031 C 139.570312 196.90625 141.394531 191.707031 143.152344 186.675781 C 144.703125 182.5625 145.960938 178.359375 146.925781 174.066406 C 146.957031 173.960938 147.019531 173.882812 147.117188 173.824219 C 147.210938 173.769531 147.3125 173.753906 147.421875 173.773438 C 147.527344 173.796875 147.617188 173.851562 147.679688 173.9375 C 147.746094 174.027344 147.777344 174.125 147.765625 174.234375 C 146.800781 178.574219 145.53125 182.824219 143.964844 186.984375 C 142.222656 191.972656 140.410156 197.125 139.730469 202.464844 C 138.492188 212.078125 143.09375 218.3125 149.253906 225.457031 C 149.328125 225.542969 149.363281 225.644531 149.355469 225.757812 C 148.828125 235.125 148.511719 244.652344 148.207031 253.855469 C 147.714844 268.429688 147.210938 283.5 145.882812 298.3125 C 145.867188 298.421875 145.816406 298.511719 145.734375 298.578125 C 145.648438 298.648438 145.554688 298.683594 145.445312 298.679688 Z M 145.445312 298.679688 " fill-opacity="1" fill-rule="nonzero"/></g><path fill="#f6c6b3" d="M 213.734375 99.761719 C 207.808594 116.675781 195.875 124.695312 185.320312 127.046875 C 173.917969 129.582031 153.992188 120.015625 155.203125 102.425781 C 156.25 87.1875 155.496094 61.984375 159.78125 56.007812 C 166.859375 46.164062 205.722656 48.0625 210.546875 59.667969 C 214.835938 69.964844 213.734375 99.761719 213.734375 99.761719 Z M 213.734375 99.761719 " fill-opacity="1" fill-rule="nonzero"/><path fill="#372940" d="M 167.65625 53.839844 C 157.921875 60.210938 154.902344 68.984375 152.117188 83 C 152.117188 83 152.03125 55.722656 158.160156 48.941406 C 164.292969 42.160156 207.851562 38.566406 214.964844 48.582031 C 222.078125 58.601562 221.230469 87.285156 221.230469 87.285156 C 201.023438 84.308594 170.082031 70.175781 167.65625 53.839844 Z M 167.65625 53.839844 " fill-opacity="1" fill-rule="evenodd"/><path fill="#281932" d="M 197.105469 73.949219 C 196.832031 73.949219 196.632812 73.828125 196.511719 73.582031 C 195.609375 71.78125 194.496094 70.652344 193.207031 70.242188 C 191.917969 69.832031 190.34375 70.089844 188.550781 71.027344 C 188.382812 71.128906 188.210938 71.152344 188.023438 71.101562 C 187.835938 71.046875 187.699219 70.9375 187.609375 70.765625 C 187.523438 70.59375 187.507812 70.417969 187.574219 70.238281 C 187.636719 70.054688 187.757812 69.925781 187.933594 69.847656 C 190.058594 68.734375 191.96875 68.441406 193.617188 68.976562 C 195.265625 69.511719 196.636719 70.859375 197.699219 72.980469 C 197.78125 73.144531 197.792969 73.316406 197.738281 73.488281 C 197.679688 73.664062 197.570312 73.792969 197.40625 73.875 C 197.3125 73.925781 197.210938 73.949219 197.105469 73.949219 Z M 197.105469 73.949219 " fill-opacity="1" fill-rule="nonzero"/><path fill="#281932" d="M 159.890625 71.035156 C 159.769531 71.03125 159.660156 71.003906 159.554688 70.945312 C 159.394531 70.851562 159.292969 70.714844 159.25 70.535156 C 159.203125 70.359375 159.226562 70.191406 159.320312 70.03125 C 160.25 68.441406 161.386719 67.503906 162.683594 67.242188 C 163.976562 66.976562 165.539062 67.429688 167.15625 68.632812 C 167.320312 68.734375 167.417969 68.882812 167.453125 69.074219 C 167.488281 69.261719 167.449219 69.433594 167.332031 69.589844 C 167.21875 69.742188 167.066406 69.832031 166.875 69.855469 C 166.683594 69.878906 166.515625 69.824219 166.367188 69.703125 C 165.0625 68.734375 163.914062 68.347656 162.945312 68.542969 C 161.976562 68.742188 161.203125 69.460938 160.46875 70.703125 C 160.339844 70.925781 160.144531 71.035156 159.890625 71.035156 Z M 159.890625 71.035156 " fill-opacity="1" fill-rule="nonzero"/><path fill="#e7a8a2" d="M 166.125 98.347656 C 166.125 98.667969 166.09375 98.980469 166.03125 99.292969 C 165.96875 99.605469 165.878906 99.90625 165.757812 100.199219 C 165.632812 100.496094 165.484375 100.773438 165.308594 101.039062 C 165.132812 101.300781 164.929688 101.546875 164.707031 101.769531 C 164.480469 101.996094 164.238281 102.195312 163.972656 102.371094 C 163.707031 102.550781 163.429688 102.699219 163.136719 102.820312 C 162.84375 102.941406 162.539062 103.035156 162.226562 103.097656 C 161.914062 103.15625 161.601562 103.1875 161.28125 103.1875 C 160.964844 103.1875 160.648438 103.15625 160.335938 103.097656 C 160.027344 103.035156 159.722656 102.941406 159.429688 102.820312 C 159.136719 102.699219 158.855469 102.550781 158.59375 102.371094 C 158.328125 102.195312 158.082031 101.996094 157.859375 101.769531 C 157.632812 101.546875 157.433594 101.300781 157.257812 101.039062 C 157.078125 100.773438 156.929688 100.496094 156.808594 100.199219 C 156.6875 99.90625 156.59375 99.605469 156.53125 99.292969 C 156.472656 98.980469 156.441406 98.667969 156.441406 98.347656 C 156.441406 98.03125 156.472656 97.714844 156.53125 97.402344 C 156.59375 97.09375 156.6875 96.789062 156.808594 96.496094 C 156.929688 96.203125 157.078125 95.921875 157.257812 95.660156 C 157.433594 95.394531 157.632812 95.152344 157.859375 94.925781 C 158.082031 94.699219 158.328125 94.5 158.59375 94.324219 C 158.855469 94.148438 159.136719 93.996094 159.429688 93.875 C 159.722656 93.753906 160.027344 93.664062 160.335938 93.601562 C 160.648438 93.539062 160.964844 93.507812 161.28125 93.507812 C 161.601562 93.507812 161.914062 93.539062 162.226562 93.601562 C 162.539062 93.664062 162.84375 93.753906 163.136719 93.875 C 163.429688 93.996094 163.707031 94.148438 163.972656 94.324219 C 164.238281 94.5 164.480469 94.699219 164.707031 94.925781 C 164.929688 95.148438 165.132812 95.394531 165.308594 95.660156 C 165.484375 95.921875 165.632812 96.203125 165.757812 96.496094 C 165.878906 96.789062 165.96875 97.09375 166.03125 97.402344 C 166.09375 97.714844 166.125 98.03125 166.125 98.347656 Z M 166.125 98.347656 " fill-opacity="1" fill-rule="nonzero"/><path fill="#e7a8a2" d="M 201.273438 98.992188 C 201.273438 99.3125 201.242188 99.625 201.179688 99.9375 C 201.117188 100.25 201.027344 100.550781 200.90625 100.84375 C 200.785156 101.140625 200.632812 101.417969 200.457031 101.683594 C 200.28125 101.945312 200.082031 102.191406 199.855469 102.414062 C 199.632812 102.640625 199.386719 102.839844 199.121094 103.015625 C 198.859375 103.195312 198.578125 103.34375 198.285156 103.464844 C 197.992188 103.585938 197.6875 103.679688 197.375 103.738281 C 197.066406 103.800781 196.75 103.832031 196.433594 103.832031 C 196.113281 103.832031 195.800781 103.800781 195.488281 103.738281 C 195.175781 103.679688 194.871094 103.585938 194.578125 103.464844 C 194.285156 103.34375 194.007812 103.195312 193.742188 103.015625 C 193.476562 102.839844 193.234375 102.640625 193.007812 102.414062 C 192.78125 102.191406 192.582031 101.945312 192.40625 101.683594 C 192.230469 101.417969 192.078125 101.140625 191.957031 100.84375 C 191.835938 100.550781 191.746094 100.25 191.683594 99.9375 C 191.621094 99.625 191.589844 99.3125 191.589844 98.992188 C 191.589844 98.675781 191.621094 98.359375 191.683594 98.046875 C 191.746094 97.738281 191.835938 97.433594 191.957031 97.140625 C 192.078125 96.847656 192.230469 96.566406 192.40625 96.304688 C 192.582031 96.039062 192.78125 95.792969 193.007812 95.570312 C 193.234375 95.34375 193.476562 95.144531 193.742188 94.96875 C 194.007812 94.792969 194.285156 94.640625 194.578125 94.519531 C 194.871094 94.398438 195.175781 94.308594 195.488281 94.246094 C 195.800781 94.183594 196.113281 94.152344 196.433594 94.152344 C 196.75 94.152344 197.066406 94.183594 197.375 94.246094 C 197.6875 94.308594 197.992188 94.398438 198.285156 94.519531 C 198.578125 94.640625 198.859375 94.792969 199.121094 94.96875 C 199.386719 95.144531 199.632812 95.34375 199.855469 95.570312 C 200.082031 95.792969 200.28125 96.039062 200.457031 96.304688 C 200.632812 96.566406 200.785156 96.847656 200.90625 97.140625 C 201.027344 97.433594 201.117188 97.738281 201.179688 98.046875 C 201.242188 98.359375 201.273438 98.675781 201.273438 98.992188 Z M 201.273438 98.992188 " fill-opacity="1" fill-rule="nonzero"/><path fill="#ca8f91" d="M 183.0625 127.5 C 182.914062 127.5 182.84375 127.425781 182.84375 127.28125 C 182.84375 127.132812 182.914062 127.0625 183.0625 127.0625 C 183.804688 127.0625 184.535156 126.984375 185.261719 126.828125 C 188.769531 126.042969 192.078125 124.746094 195.1875 122.9375 C 195.3125 122.871094 195.410156 122.898438 195.488281 123.019531 C 195.519531 123.070312 195.527344 123.128906 195.511719 123.1875 C 195.496094 123.246094 195.460938 123.289062 195.40625 123.320312 C 192.257812 125.148438 188.90625 126.460938 185.355469 127.257812 C 184.601562 127.421875 183.835938 127.503906 183.0625 127.5 Z M 183.0625 127.5 " fill-opacity="1" fill-rule="nonzero"/><path fill="#f6c6b3" d="M 225.011719 98.640625 C 224.761719 103.871094 218.921875 108.953125 214.167969 108.71875 C 209.414062 108.484375 207.507812 103.035156 207.78125 97.761719 C 208.050781 92.488281 212.09375 88.484375 216.855469 88.71875 C 221.617188 88.953125 225.265625 93.375 225.011719 98.640625 Z M 225.011719 98.640625 " fill-opacity="1" fill-rule="nonzero"/><path fill="#ca8f91" d="M 212.476562 103.804688 C 212.382812 103.800781 212.316406 103.757812 212.277344 103.671875 C 212.097656 103.253906 211.953125 102.820312 211.847656 102.378906 C 211.742188 101.933594 211.671875 101.484375 211.644531 101.03125 C 211.613281 100.574219 211.621094 100.121094 211.671875 99.667969 C 211.71875 99.214844 211.804688 98.769531 211.929688 98.328125 C 212.054688 97.890625 212.21875 97.464844 212.414062 97.054688 C 212.613281 96.644531 212.84375 96.253906 213.109375 95.882812 C 213.375 95.507812 213.667969 95.164062 213.992188 94.84375 C 214.316406 94.519531 214.664062 94.230469 215.039062 93.96875 C 217.558594 92.308594 220.410156 92.78125 222.6875 95.222656 C 222.789062 95.328125 222.789062 95.429688 222.6875 95.535156 C 222.582031 95.644531 222.476562 95.644531 222.371094 95.535156 C 220.261719 93.265625 217.617188 92.828125 215.304688 94.355469 C 214.949219 94.601562 214.621094 94.878906 214.316406 95.179688 C 214.007812 95.480469 213.730469 95.808594 213.480469 96.160156 C 213.230469 96.507812 213.011719 96.878906 212.824219 97.265625 C 212.640625 97.652344 212.488281 98.050781 212.371094 98.464844 C 212.25 98.878906 212.167969 99.300781 212.125 99.726562 C 212.078125 100.15625 212.070312 100.582031 212.097656 101.011719 C 212.125 101.441406 212.1875 101.867188 212.289062 102.285156 C 212.390625 102.703125 212.523438 103.109375 212.695312 103.503906 C 212.757812 103.636719 212.722656 103.734375 212.585938 103.796875 C 212.550781 103.808594 212.511719 103.8125 212.476562 103.804688 Z M 212.476562 103.804688 " fill-opacity="1" fill-rule="nonzero"/><path fill="#3c2415" d="M 189.878906 80.609375 C 190.167969 80.621094 190.457031 80.675781 190.742188 80.761719 C 191.023438 80.851562 191.296875 80.976562 191.5625 81.132812 C 191.824219 81.292969 192.070312 81.484375 192.304688 81.710938 C 192.539062 81.933594 192.75 82.1875 192.945312 82.46875 C 193.140625 82.746094 193.308594 83.050781 193.457031 83.375 C 193.601562 83.703125 193.722656 84.042969 193.820312 84.402344 C 193.914062 84.761719 193.980469 85.128906 194.019531 85.507812 C 194.058594 85.886719 194.066406 86.265625 194.050781 86.648438 C 194.03125 87.03125 193.984375 87.40625 193.910156 87.777344 C 193.832031 88.152344 193.730469 88.511719 193.601562 88.859375 C 193.472656 89.207031 193.320312 89.535156 193.140625 89.84375 C 192.960938 90.15625 192.765625 90.441406 192.542969 90.699219 C 192.324219 90.960938 192.085938 91.191406 191.832031 91.390625 C 191.578125 91.59375 191.3125 91.757812 191.035156 91.890625 C 190.757812 92.027344 190.476562 92.121094 190.183594 92.183594 C 189.894531 92.242188 189.601562 92.265625 189.308594 92.253906 C 189.015625 92.238281 188.730469 92.1875 188.445312 92.097656 C 188.164062 92.007812 187.890625 91.886719 187.625 91.726562 C 187.363281 91.566406 187.113281 91.375 186.882812 91.152344 C 186.648438 90.925781 186.433594 90.675781 186.242188 90.394531 C 186.046875 90.113281 185.878906 89.808594 185.730469 89.484375 C 185.582031 89.160156 185.460938 88.816406 185.367188 88.457031 C 185.273438 88.097656 185.207031 87.730469 185.167969 87.351562 C 185.128906 86.976562 185.117188 86.59375 185.136719 86.214844 C 185.15625 85.832031 185.203125 85.453125 185.277344 85.082031 C 185.355469 84.710938 185.457031 84.347656 185.585938 84 C 185.714844 83.652344 185.867188 83.324219 186.046875 83.015625 C 186.222656 82.707031 186.421875 82.421875 186.644531 82.160156 C 186.863281 81.898438 187.101562 81.667969 187.355469 81.46875 C 187.605469 81.269531 187.871094 81.101562 188.148438 80.96875 C 188.429688 80.835938 188.710938 80.738281 189.003906 80.679688 C 189.292969 80.617188 189.585938 80.59375 189.878906 80.609375 Z M 189.878906 80.609375 " fill-opacity="1" fill-rule="nonzero"/><path fill="#3c2415" d="M 163.457031 80.796875 C 163.75 80.8125 164.035156 80.863281 164.320312 80.953125 C 164.601562 81.042969 164.875 81.164062 165.140625 81.324219 C 165.402344 81.484375 165.652344 81.675781 165.882812 81.902344 C 166.117188 82.125 166.328125 82.375 166.523438 82.65625 C 166.71875 82.9375 166.886719 83.242188 167.035156 83.566406 C 167.183594 83.890625 167.300781 84.234375 167.398438 84.59375 C 167.492188 84.953125 167.558594 85.320312 167.597656 85.699219 C 167.636719 86.074219 167.648438 86.457031 167.628906 86.835938 C 167.609375 87.21875 167.5625 87.597656 167.488281 87.96875 C 167.410156 88.339844 167.308594 88.703125 167.179688 89.050781 C 167.050781 89.398438 166.898438 89.726562 166.71875 90.035156 C 166.542969 90.34375 166.34375 90.628906 166.121094 90.890625 C 165.902344 91.152344 165.664062 91.382812 165.410156 91.582031 C 165.15625 91.78125 164.890625 91.949219 164.613281 92.082031 C 164.335938 92.214844 164.054688 92.3125 163.761719 92.375 C 163.472656 92.433594 163.179688 92.457031 162.886719 92.441406 C 162.59375 92.429688 162.308594 92.378906 162.023438 92.289062 C 161.742188 92.199219 161.46875 92.074219 161.203125 91.917969 C 160.941406 91.757812 160.691406 91.566406 160.460938 91.339844 C 160.226562 91.117188 160.015625 90.863281 159.820312 90.585938 C 159.625 90.304688 159.457031 90 159.308594 89.675781 C 159.160156 89.347656 159.039062 89.007812 158.945312 88.648438 C 158.851562 88.289062 158.785156 87.921875 158.746094 87.542969 C 158.707031 87.164062 158.695312 86.785156 158.714844 86.402344 C 158.734375 86.019531 158.78125 85.644531 158.855469 85.273438 C 158.933594 84.898438 159.035156 84.539062 159.164062 84.191406 C 159.292969 83.84375 159.445312 83.515625 159.625 83.207031 C 159.800781 82.894531 160 82.609375 160.222656 82.351562 C 160.441406 82.089844 160.679688 81.859375 160.933594 81.660156 C 161.1875 81.457031 161.453125 81.292969 161.730469 81.160156 C 162.007812 81.027344 162.289062 80.929688 162.582031 80.867188 C 162.871094 80.808594 163.164062 80.785156 163.457031 80.796875 Z M 163.457031 80.796875 " fill-opacity="1" fill-rule="nonzero"/><path fill="#ca8f91" d="M 171.449219 101.71875 C 169.683594 101.460938 167.898438 100.089844 167.457031 98.664062 C 167.335938 98.3125 167.324219 97.960938 167.417969 97.601562 C 167.511719 97.246094 167.699219 96.945312 167.976562 96.699219 C 169.339844 95.46875 170.617188 94.15625 171.808594 92.761719 C 171.914062 92.664062 172.019531 92.664062 172.125 92.761719 C 172.226562 92.867188 172.226562 92.972656 172.125 93.074219 C 170.917969 94.484375 169.625 95.8125 168.25 97.058594 C 168.03125 97.242188 167.886719 97.472656 167.8125 97.746094 C 167.742188 98.023438 167.753906 98.292969 167.855469 98.5625 C 168.234375 99.820312 169.898438 101.078125 171.515625 101.3125 C 171.578125 101.320312 171.625 101.351562 171.660156 101.398438 C 171.699219 101.449219 171.710938 101.503906 171.699219 101.5625 C 171.664062 101.6875 171.578125 101.738281 171.449219 101.71875 Z M 171.449219 101.71875 " fill-opacity="1" fill-rule="nonzero"/><path fill="#ffffff" d="M 172.929688 108.199219 C 181.398438 119.183594 188.828125 116.589844 187.320312 106.902344 Z M 172.929688 108.199219 " fill-opacity="1" fill-rule="nonzero"/><path fill="#f5e6e5" d="M 216.75 82.5625 C 217.597656 82.640625 218.429688 82.820312 219.242188 83.097656 C 220.058594 83.378906 220.835938 83.75 221.585938 84.214844 C 222.332031 84.679688 223.03125 85.230469 223.683594 85.867188 C 224.335938 86.503906 224.929688 87.210938 225.460938 87.996094 C 225.992188 88.777344 226.453125 89.617188 226.847656 90.511719 C 227.238281 91.410156 227.550781 92.347656 227.789062 93.324219 C 228.023438 94.304688 228.175781 95.304688 228.25 96.324219 C 228.320312 97.347656 228.308594 98.371094 228.210938 99.398438 C 228.113281 100.421875 227.9375 101.429688 227.675781 102.421875 C 227.417969 103.414062 227.082031 104.367188 226.667969 105.285156 C 226.253906 106.203125 225.769531 107.066406 225.21875 107.875 C 224.667969 108.683594 224.058594 109.421875 223.390625 110.089844 C 222.722656 110.761719 222.007812 111.347656 221.25 111.851562 C 220.492188 112.355469 219.699219 112.765625 218.878906 113.085938 C 218.058594 113.40625 217.222656 113.625 216.371094 113.746094 C 215.519531 113.871094 214.671875 113.890625 213.824219 113.8125 C 212.972656 113.730469 212.144531 113.554688 211.328125 113.277344 C 210.515625 112.996094 209.734375 112.625 208.988281 112.160156 C 208.242188 111.691406 207.539062 111.140625 206.886719 110.507812 C 206.238281 109.871094 205.644531 109.160156 205.113281 108.378906 C 204.578125 107.597656 204.117188 106.757812 203.726562 105.863281 C 203.335938 104.964844 203.019531 104.027344 202.785156 103.046875 C 202.550781 102.070312 202.394531 101.070312 202.324219 100.046875 C 202.253906 99.027344 202.265625 98.003906 202.363281 96.976562 C 202.457031 95.953125 202.636719 94.941406 202.894531 93.953125 C 203.15625 92.960938 203.492188 92.007812 203.90625 91.089844 C 204.320312 90.171875 204.800781 89.308594 205.351562 88.5 C 205.90625 87.691406 206.515625 86.953125 207.183594 86.285156 C 207.851562 85.613281 208.5625 85.027344 209.324219 84.523438 C 210.082031 84.019531 210.871094 83.609375 211.691406 83.289062 C 212.511719 82.96875 213.347656 82.75 214.199219 82.625 C 215.050781 82.503906 215.902344 82.484375 216.75 82.5625 Z M 216.75 82.5625 " fill-opacity="1" fill-rule="nonzero"/><path fill="#e28c97" d="M 220.71875 84.742188 C 221.398438 84.804688 222.070312 84.957031 222.722656 85.195312 C 223.375 85.4375 224.003906 85.757812 224.601562 86.167969 C 225.199219 86.574219 225.761719 87.054688 226.28125 87.613281 C 226.800781 88.171875 227.273438 88.792969 227.695312 89.480469 C 228.121094 90.171875 228.484375 90.910156 228.796875 91.699219 C 229.105469 92.492188 229.351562 93.320312 229.53125 94.183594 C 229.714844 95.046875 229.832031 95.929688 229.882812 96.835938 C 229.929688 97.738281 229.914062 98.644531 229.828125 99.554688 C 229.742188 100.460938 229.59375 101.355469 229.375 102.234375 C 229.160156 103.113281 228.878906 103.960938 228.539062 104.773438 C 228.199219 105.589844 227.804688 106.355469 227.355469 107.078125 C 226.902344 107.796875 226.40625 108.457031 225.863281 109.050781 C 225.320312 109.648438 224.742188 110.175781 224.125 110.625 C 223.507812 111.078125 222.871094 111.449219 222.207031 111.734375 C 221.542969 112.023438 220.867188 112.226562 220.179688 112.339844 C 219.492188 112.457031 218.808594 112.480469 218.125 112.417969 C 217.441406 112.351562 216.773438 112.199219 216.117188 111.960938 C 215.464844 111.722656 214.839844 111.398438 214.238281 110.992188 C 213.640625 110.582031 213.082031 110.101562 212.558594 109.542969 C 212.039062 108.984375 211.566406 108.363281 211.144531 107.675781 C 210.722656 106.988281 210.355469 106.246094 210.046875 105.457031 C 209.738281 104.664062 209.492188 103.839844 209.308594 102.972656 C 209.125 102.109375 209.007812 101.226562 208.960938 100.324219 C 208.910156 99.417969 208.925781 98.511719 209.011719 97.605469 C 209.097656 96.695312 209.25 95.800781 209.464844 94.921875 C 209.683594 94.042969 209.960938 93.199219 210.300781 92.382812 C 210.640625 91.566406 211.035156 90.800781 211.488281 90.082031 C 211.9375 89.359375 212.433594 88.703125 212.976562 88.105469 C 213.519531 87.507812 214.101562 86.984375 214.714844 86.53125 C 215.332031 86.078125 215.972656 85.710938 216.636719 85.421875 C 217.300781 85.132812 217.972656 84.929688 218.660156 84.816406 C 219.347656 84.703125 220.035156 84.675781 220.71875 84.742188 Z M 220.71875 84.742188 " fill-opacity="1" fill-rule="nonzero"/><path fill="#dd7986" d="M 213.96875 107.824219 C 213.96875 107.980469 213.941406 108.132812 213.878906 108.28125 C 213.816406 108.425781 213.730469 108.554688 213.621094 108.667969 C 213.507812 108.78125 213.378906 108.867188 213.234375 108.925781 C 213.085938 108.988281 212.933594 109.019531 212.777344 109.019531 C 212.617188 109.019531 212.464844 108.988281 212.320312 108.925781 C 212.171875 108.867188 212.042969 108.78125 211.929688 108.667969 C 211.820312 108.554688 211.734375 108.425781 211.671875 108.28125 C 211.613281 108.132812 211.582031 107.980469 211.582031 107.824219 C 211.582031 107.664062 211.613281 107.511719 211.671875 107.367188 C 211.734375 107.222656 211.820312 107.09375 211.929688 106.980469 C 212.042969 106.867188 212.171875 106.78125 212.320312 106.722656 C 212.464844 106.660156 212.617188 106.628906 212.777344 106.628906 C 212.933594 106.628906 213.085938 106.660156 213.234375 106.722656 C 213.378906 106.78125 213.507812 106.867188 213.621094 106.980469 C 213.730469 107.09375 213.816406 107.222656 213.878906 107.367188 C 213.941406 107.511719 213.96875 107.664062 213.96875 107.824219 Z M 213.96875 107.824219 " fill-opacity="1" fill-rule="nonzero"/><path fill="#58595b" d="M 187.605469 121.226562 C 187.429688 121.222656 187.332031 121.132812 187.3125 120.960938 C 187.300781 120.878906 187.320312 120.808594 187.371094 120.742188 C 187.421875 120.679688 187.484375 120.640625 187.566406 120.632812 C 197.640625 119.363281 206.007812 115.023438 212.429688 107.730469 C 212.492188 107.671875 212.5625 107.644531 212.644531 107.644531 C 212.726562 107.644531 212.796875 107.671875 212.855469 107.730469 C 212.914062 107.789062 212.941406 107.855469 212.941406 107.9375 C 212.941406 108.019531 212.914062 108.089844 212.855469 108.144531 C 206.328125 115.550781 197.839844 119.957031 187.617188 121.238281 Z M 187.605469 121.226562 " fill-opacity="1" fill-rule="nonzero"/><path fill="#58595b" d="M 192.261719 123.617188 L 183.71875 124.628906 C 183.558594 124.648438 183.398438 124.636719 183.242188 124.59375 C 183.082031 124.550781 182.941406 124.476562 182.8125 124.375 C 182.683594 124.273438 182.582031 124.152344 182.5 124.011719 C 182.421875 123.867188 182.371094 123.714844 182.351562 123.554688 L 181.882812 119.597656 C 181.863281 119.4375 181.875 119.277344 181.921875 119.121094 C 181.964844 118.960938 182.039062 118.820312 182.136719 118.691406 C 182.238281 118.5625 182.359375 118.460938 182.503906 118.378906 C 182.644531 118.300781 182.796875 118.25 182.960938 118.230469 L 191.5 117.21875 C 191.664062 117.199219 191.820312 117.210938 191.980469 117.253906 C 192.136719 117.300781 192.277344 117.371094 192.40625 117.472656 C 192.535156 117.574219 192.640625 117.695312 192.71875 117.839844 C 192.800781 117.980469 192.847656 118.132812 192.867188 118.292969 L 193.335938 122.25 C 193.355469 122.414062 193.34375 122.570312 193.300781 122.730469 C 193.253906 122.886719 193.183594 123.027344 193.082031 123.15625 C 192.980469 123.285156 192.859375 123.390625 192.71875 123.46875 C 192.574219 123.546875 192.421875 123.597656 192.261719 123.617188 Z M 192.261719 123.617188 " fill-opacity="1" fill-rule="nonzero"/><path fill="#e9a8b0" d="M 229.023438 99.484375 C 228.554688 104.542969 224.871094 108.34375 220.796875 107.964844 C 216.722656 107.582031 214.042969 103.1875 214.519531 98.121094 C 214.996094 93.054688 218.445312 89.238281 222.511719 89.621094 C 226.578125 90 229.484375 94.414062 229.023438 99.484375 Z M 229.023438 99.484375 " fill-opacity="1" fill-rule="nonzero"/><path fill="#e28c97" d="M 224.007812 99.015625 C 224.164062 99.023438 224.320312 99.003906 224.472656 98.953125 C 224.625 98.90625 224.761719 98.828125 224.882812 98.726562 C 225.003906 98.621094 225.101562 98.5 225.175781 98.359375 C 225.25 98.21875 225.292969 98.066406 225.308594 97.910156 C 232.167969 52.242188 210.367188 26.296875 174.25 35.363281 C 171.679688 36.007812 167.320312 39.171875 167.320312 39.171875 C 202.484375 24.042969 228.539062 55.679688 220.878906 97.527344 C 220.859375 97.683594 220.871094 97.835938 220.917969 97.984375 C 220.960938 98.136719 221.03125 98.269531 221.132812 98.390625 C 221.230469 98.511719 221.351562 98.605469 221.492188 98.679688 C 221.628906 98.75 221.777344 98.792969 221.933594 98.800781 Z M 224.007812 99.015625 " fill-opacity="1" fill-rule="nonzero"/><path fill="#f6c6b3" d="M 195.839844 259.320312 L 202.863281 249.84375 L 188.746094 244.71875 C 179.554688 235.753906 161.496094 218.253906 160.316406 218.203125 L 156.082031 223.699219 L 162.089844 239.335938 C 169.949219 243.957031 169.011719 247.390625 173.554688 250.757812 C 174.683594 251.5625 175.917969 252.152344 177.253906 252.53125 C 178.589844 252.90625 179.949219 253.050781 181.332031 252.957031 Z M 195.839844 259.320312 " fill-opacity="1" fill-rule="nonzero"/><path fill="#f6c6b3" d="M 140.96875 231.476562 C 136.652344 233.675781 133.832031 230.476562 135.503906 229.171875 C 141.488281 224.492188 143.984375 221.363281 145.027344 220.925781 C 148.960938 219.285156 158.617188 217.914062 160.292969 218.195312 C 161.867188 220.734375 161.203125 224.25 157.289062 224.785156 L 147.121094 226.792969 C 145.5625 228.058594 143.1875 230.335938 140.96875 231.476562 Z M 140.96875 231.476562 " fill-opacity="1" fill-rule="nonzero"/><path fill="#f6c6b3" d="M 144.691406 243.707031 C 141.230469 247.785156 136.996094 245.699219 138.148438 243.671875 C 142.257812 236.347656 143.515625 232.171875 144.382812 231.222656 C 146.160156 229.273438 158.769531 221.988281 158.769531 221.988281 C 161.445312 223.914062 162.25 227.773438 158.492188 229.96875 L 148.96875 236.28125 C 147.921875 238.28125 146.460938 241.605469 144.691406 243.707031 Z M 144.691406 243.707031 " fill-opacity="1" fill-rule="nonzero"/><path fill="#ca8f91" d="M 152.566406 225.914062 C 152.492188 225.910156 152.433594 225.878906 152.390625 225.816406 C 152.316406 225.695312 152.339844 225.597656 152.460938 225.523438 C 155.679688 223.5625 158.652344 221.863281 158.683594 221.820312 C 158.804688 221.753906 158.898438 221.78125 158.96875 221.898438 C 159.042969 222.019531 159.015625 222.117188 158.894531 222.183594 C 158.894531 222.183594 155.898438 223.921875 152.675781 225.882812 C 152.640625 225.90625 152.605469 225.914062 152.566406 225.914062 Z M 152.566406 225.914062 " fill-opacity="1" fill-rule="nonzero"/><path fill="#f6c6b3" d="M 147.6875 246.8125 C 143.972656 250.472656 140.03125 248.085938 141.320312 246.210938 C 145.957031 239.472656 147.554688 235.492188 148.46875 234.65625 C 150.375 232.921875 163.269531 226.921875 163.269531 226.921875 C 165.707031 229.023438 166.152344 232.855469 162.308594 234.664062 L 152.484375 239.972656 C 151.296875 241.816406 149.632812 244.921875 147.6875 246.8125 Z M 147.6875 246.8125 " fill-opacity="1" fill-rule="nonzero"/><path fill="#ca8f91" d="M 141.320312 246.417969 C 141.277344 246.417969 141.238281 246.40625 141.203125 246.378906 C 141.089844 246.300781 141.074219 246.207031 141.152344 246.09375 C 143.121094 243.226562 144.945312 240.265625 146.617188 237.210938 C 147.078125 236.242188 147.648438 235.339844 148.324219 234.503906 C 149.574219 233.367188 155.28125 230.511719 159.855469 228.3125 C 159.980469 228.253906 160.070312 228.285156 160.132812 228.410156 C 160.195312 228.535156 160.160156 228.625 160.039062 228.6875 C 156.316406 230.476562 149.882812 233.644531 148.609375 234.816406 C 147.96875 235.621094 147.425781 236.488281 146.984375 237.417969 C 145.304688 240.480469 143.476562 243.453125 141.496094 246.328125 C 141.453125 246.386719 141.394531 246.417969 141.320312 246.417969 Z M 141.320312 246.417969 " fill-opacity="1" fill-rule="nonzero"/><path fill="#f6c6b3" d="M 154.761719 250.464844 C 152.84375 253.710938 149.632812 252.757812 150.214844 251.199219 C 152.207031 245.648438 152.585938 242.578125 153.078125 241.824219 C 154.089844 240.265625 161.984375 233.710938 161.984375 233.710938 C 164.074219 234.730469 165.09375 237.320312 162.71875 239.292969 L 156.859375 244.804688 C 156.390625 246.3125 155.765625 248.796875 154.761719 250.464844 Z M 154.761719 250.464844 " fill-opacity="1" fill-rule="nonzero"/><path fill="#ca8f91" d="M 156.265625 238.875 C 156.171875 238.871094 156.105469 238.824219 156.074219 238.738281 C 156.039062 238.648438 156.058594 238.574219 156.125 238.507812 C 158.683594 236.207031 161.839844 233.585938 161.875 233.558594 C 161.984375 233.46875 162.082031 233.476562 162.171875 233.585938 C 162.257812 233.695312 162.25 233.792969 162.140625 233.878906 C 162.140625 233.878906 158.953125 236.523438 156.402344 238.824219 C 156.363281 238.859375 156.316406 238.875 156.265625 238.875 Z M 156.265625 238.875 " fill-opacity="1" fill-rule="nonzero"/><path fill="#e28c97" d="M 247.273438 152.097656 C 262.554688 153.402344 284.839844 259.121094 277.039062 268.691406 C 263.71875 285.03125 182.09375 260.082031 182.09375 260.082031 L 188.300781 241.042969 C 208.8125 245.691406 229.472656 243.867188 244.414062 243.179688 C 244.414062 243.179688 236.578125 205.972656 234.109375 197.207031 C 231.882812 189.296875 235.550781 151.117188 247.273438 152.097656 Z M 247.273438 152.097656 " fill-opacity="1" fill-rule="nonzero"/><path fill="#da6b79" d="M 256.972656 274.703125 C 248.511719 274.703125 237.6875 273.453125 224.488281 270.949219 C 202.652344 266.796875 182.175781 260.570312 182 260.503906 C 181.902344 260.460938 181.828125 260.390625 181.785156 260.289062 C 181.738281 260.191406 181.730469 260.089844 181.761719 259.984375 C 181.796875 259.882812 181.855469 259.800781 181.949219 259.746094 C 182.042969 259.6875 182.140625 259.667969 182.25 259.6875 C 183.0625 259.933594 263.75 284.363281 276.753906 268.4375 C 276.820312 268.328125 276.921875 268.265625 277.046875 268.242188 C 277.175781 268.222656 277.289062 268.253906 277.386719 268.335938 C 277.488281 268.417969 277.539062 268.519531 277.546875 268.648438 C 277.554688 268.777344 277.511719 268.886719 277.417969 268.976562 C 274.261719 272.792969 267.433594 274.703125 256.972656 274.703125 Z M 256.972656 274.703125 " fill-opacity="1" fill-rule="nonzero"/><path fill="#da6b79" d="M 219.230469 244.550781 C 209.375 244.550781 198.804688 243.867188 188.21875 241.464844 C 188.097656 241.445312 188.003906 241.382812 187.9375 241.28125 C 187.871094 241.175781 187.847656 241.066406 187.875 240.945312 C 187.902344 240.828125 187.96875 240.734375 188.074219 240.671875 C 188.179688 240.609375 188.292969 240.59375 188.410156 240.625 C 206.503906 244.730469 224.585938 243.78125 239.113281 243.011719 L 243.902344 242.769531 C 242.964844 238.324219 235.992188 205.421875 233.707031 197.324219 C 233.675781 197.210938 233.6875 197.101562 233.746094 196.996094 C 233.804688 196.890625 233.890625 196.824219 234.007812 196.789062 C 234.121094 196.761719 234.230469 196.777344 234.332031 196.832031 C 234.4375 196.890625 234.503906 196.976562 234.539062 197.089844 C 236.980469 205.765625 244.796875 242.71875 244.855469 243.085938 C 244.878906 243.214844 244.851562 243.335938 244.773438 243.445312 C 244.691406 243.546875 244.585938 243.601562 244.453125 243.605469 L 239.15625 243.875 C 233.039062 244.199219 226.3125 244.550781 219.230469 244.550781 Z M 219.230469 244.550781 " fill-opacity="1" fill-rule="nonzero"/><g clip-path="url(#id6)"><path fill="#f5e6e5" d="M 116.171875 41.875 C 116.171875 43.039062 116.097656 44.199219 115.949219 45.359375 C 115.800781 46.519531 115.582031 47.667969 115.289062 48.8125 C 114.996094 49.953125 114.632812 51.082031 114.195312 52.195312 C 113.761719 53.3125 113.253906 54.40625 112.679688 55.484375 C 112.105469 56.558594 111.464844 57.609375 110.757812 58.636719 C 110.050781 59.664062 109.277344 60.660156 108.445312 61.628906 C 107.609375 62.597656 106.714844 63.53125 105.765625 64.433594 C 104.8125 65.332031 103.804688 66.195312 102.742188 67.019531 C 101.679688 67.84375 100.570312 68.625 99.410156 69.363281 C 98.25 70.101562 97.042969 70.792969 95.796875 71.441406 C 94.546875 72.089844 93.261719 72.6875 91.9375 73.234375 C 90.613281 73.785156 89.257812 74.28125 87.871094 74.726562 C 86.480469 75.171875 85.070312 75.566406 83.632812 75.902344 C 82.195312 76.242188 80.742188 76.523438 79.269531 76.75 C 77.796875 76.976562 76.3125 77.148438 74.820312 77.261719 C 73.324219 77.378906 71.828125 77.433594 70.324219 77.433594 C 68.824219 77.433594 67.324219 77.378906 65.832031 77.261719 C 64.335938 77.148438 62.855469 76.976562 61.382812 76.75 C 59.910156 76.523438 58.453125 76.242188 57.015625 75.902344 C 55.582031 75.566406 54.167969 75.171875 52.78125 74.726562 C 51.394531 74.28125 50.039062 73.785156 48.714844 73.234375 C 47.390625 72.6875 46.101562 72.089844 44.855469 71.441406 C 43.605469 70.792969 42.402344 70.101562 41.242188 69.363281 C 40.082031 68.625 38.96875 67.84375 37.90625 67.019531 C 36.847656 66.195312 35.839844 65.332031 34.886719 64.433594 C 33.933594 63.53125 33.039062 62.597656 32.207031 61.628906 C 31.371094 60.660156 30.601562 59.664062 29.894531 58.636719 C 29.1875 57.609375 28.542969 56.558594 27.96875 55.484375 C 27.394531 54.40625 26.890625 53.3125 26.453125 52.195312 C 26.019531 51.082031 25.652344 49.953125 25.359375 48.8125 C 25.066406 47.667969 24.847656 46.519531 24.699219 45.359375 C 24.554688 44.199219 24.480469 43.039062 24.480469 41.875 C 24.480469 40.710938 24.554688 39.546875 24.699219 38.390625 C 24.847656 37.230469 25.066406 36.078125 25.359375 34.9375 C 25.652344 33.792969 26.019531 32.667969 26.453125 31.550781 C 26.890625 30.4375 27.394531 29.34375 27.96875 28.265625 C 28.542969 27.191406 29.1875 26.140625 29.894531 25.113281 C 30.601562 24.085938 31.371094 23.085938 32.207031 22.117188 C 33.039062 21.148438 33.933594 20.214844 34.886719 19.316406 C 35.839844 18.414062 36.847656 17.554688 37.90625 16.730469 C 38.96875 15.90625 40.082031 15.125 41.242188 14.386719 C 42.402344 13.648438 43.605469 12.953125 44.855469 12.308594 C 46.101562 11.660156 47.390625 11.0625 48.714844 10.511719 C 50.039062 9.964844 51.394531 9.46875 52.78125 9.019531 C 54.167969 8.574219 55.582031 8.183594 57.015625 7.847656 C 58.453125 7.507812 59.910156 7.226562 61.382812 6.996094 C 62.855469 6.769531 64.335938 6.601562 65.832031 6.484375 C 67.324219 6.371094 68.824219 6.316406 70.324219 6.316406 C 71.828125 6.316406 73.324219 6.371094 74.820312 6.484375 C 76.3125 6.601562 77.796875 6.769531 79.269531 6.996094 C 80.742188 7.226562 82.195312 7.507812 83.632812 7.847656 C 85.070312 8.183594 86.480469 8.574219 87.871094 9.019531 C 89.257812 9.46875 90.613281 9.964844 91.9375 10.511719 C 93.261719 11.0625 94.546875 11.660156 95.796875 12.308594 C 97.042969 12.953125 98.25 13.648438 99.410156 14.386719 C 100.570312 15.125 101.679688 15.90625 102.742188 16.730469 C 103.804688 17.554688 104.8125 18.414062 105.765625 19.316406 C 106.714844 20.214844 107.609375 21.148438 108.445312 22.117188 C 109.277344 23.085938 110.050781 24.085938 110.757812 25.113281 C 111.464844 26.140625 112.105469 27.191406 112.679688 28.265625 C 113.253906 29.34375 113.761719 30.4375 114.195312 31.550781 C 114.632812 32.667969 114.996094 33.792969 115.289062 34.9375 C 115.582031 36.078125 115.800781 37.230469 115.949219 38.390625 C 116.097656 39.546875 116.171875 40.710938 116.171875 41.875 Z M 116.171875 41.875 " fill-opacity="1" fill-rule="nonzero"/></g><path fill="#f5e6e5" d="M 104.148438 65.753906 C 105.179688 72.929688 109.53125 79.167969 116.171875 84.792969 C 103.445312 84.441406 93.011719 79.625 85.058594 70.015625 Z M 104.148438 65.753906 " fill-opacity="1" fill-rule="nonzero"/><path fill="#e28c97" d="M 75.519531 41.875 C 75.519531 42.214844 75.484375 42.554688 75.417969 42.886719 C 75.351562 43.222656 75.253906 43.546875 75.125 43.859375 C 74.992188 44.175781 74.832031 44.476562 74.644531 44.757812 C 74.453125 45.042969 74.238281 45.304688 73.996094 45.546875 C 73.757812 45.785156 73.496094 46.003906 73.210938 46.191406 C 72.925781 46.378906 72.628906 46.539062 72.3125 46.671875 C 71.996094 46.800781 71.671875 46.898438 71.339844 46.964844 C 71.003906 47.03125 70.667969 47.066406 70.324219 47.066406 C 69.984375 47.066406 69.644531 47.03125 69.3125 46.964844 C 68.976562 46.898438 68.652344 46.800781 68.335938 46.671875 C 68.023438 46.539062 67.722656 46.378906 67.4375 46.191406 C 67.15625 46.003906 66.894531 45.785156 66.652344 45.546875 C 66.410156 45.304688 66.195312 45.042969 66.007812 44.757812 C 65.816406 44.476562 65.65625 44.175781 65.527344 43.859375 C 65.394531 43.546875 65.296875 43.222656 65.230469 42.886719 C 65.164062 42.554688 65.132812 42.214844 65.132812 41.875 C 65.132812 41.535156 65.164062 41.195312 65.230469 40.863281 C 65.296875 40.527344 65.394531 40.203125 65.527344 39.886719 C 65.65625 39.574219 65.816406 39.273438 66.007812 38.988281 C 66.195312 38.707031 66.410156 38.445312 66.652344 38.203125 C 66.894531 37.960938 67.15625 37.746094 67.4375 37.558594 C 67.722656 37.367188 68.023438 37.207031 68.335938 37.078125 C 68.652344 36.949219 68.976562 36.847656 69.3125 36.78125 C 69.644531 36.714844 69.984375 36.683594 70.324219 36.683594 C 70.667969 36.683594 71.003906 36.714844 71.339844 36.78125 C 71.671875 36.847656 71.996094 36.949219 72.3125 37.078125 C 72.628906 37.207031 72.925781 37.367188 73.210938 37.558594 C 73.496094 37.746094 73.757812 37.960938 73.996094 38.203125 C 74.238281 38.445312 74.453125 38.707031 74.644531 38.988281 C 74.832031 39.273438 74.992188 39.574219 75.125 39.886719 C 75.253906 40.203125 75.351562 40.527344 75.417969 40.863281 C 75.484375 41.195312 75.519531 41.535156 75.519531 41.875 Z M 75.519531 41.875 " fill-opacity="1" fill-rule="nonzero"/><path fill="#e28c97" d="M 52.902344 41.875 C 52.902344 42.214844 52.871094 42.554688 52.804688 42.886719 C 52.738281 43.222656 52.640625 43.546875 52.507812 43.859375 C 52.378906 44.175781 52.21875 44.476562 52.027344 44.757812 C 51.839844 45.042969 51.625 45.304688 51.382812 45.546875 C 51.140625 45.785156 50.878906 46.003906 50.597656 46.191406 C 50.3125 46.378906 50.011719 46.539062 49.699219 46.671875 C 49.382812 46.800781 49.058594 46.898438 48.722656 46.964844 C 48.390625 47.03125 48.050781 47.066406 47.710938 47.066406 C 47.371094 47.066406 47.03125 47.03125 46.695312 46.964844 C 46.363281 46.898438 46.039062 46.800781 45.722656 46.671875 C 45.40625 46.539062 45.109375 46.378906 44.824219 46.191406 C 44.542969 46.003906 44.277344 45.785156 44.039062 45.546875 C 43.796875 45.304688 43.582031 45.042969 43.390625 44.757812 C 43.203125 44.476562 43.042969 44.175781 42.910156 43.859375 C 42.78125 43.546875 42.683594 43.222656 42.617188 42.886719 C 42.550781 42.554688 42.515625 42.214844 42.515625 41.875 C 42.515625 41.535156 42.550781 41.195312 42.617188 40.863281 C 42.683594 40.527344 42.78125 40.203125 42.910156 39.886719 C 43.042969 39.574219 43.203125 39.273438 43.390625 38.988281 C 43.582031 38.707031 43.796875 38.445312 44.039062 38.203125 C 44.277344 37.960938 44.542969 37.746094 44.824219 37.558594 C 45.109375 37.367188 45.40625 37.207031 45.722656 37.078125 C 46.039062 36.949219 46.363281 36.847656 46.695312 36.78125 C 47.03125 36.714844 47.371094 36.683594 47.710938 36.683594 C 48.050781 36.683594 48.390625 36.714844 48.722656 36.78125 C 49.058594 36.847656 49.382812 36.949219 49.699219 37.078125 C 50.011719 37.207031 50.3125 37.367188 50.597656 37.558594 C 50.878906 37.746094 51.140625 37.960938 51.382812 38.203125 C 51.625 38.445312 51.839844 38.707031 52.027344 38.988281 C 52.21875 39.273438 52.378906 39.574219 52.507812 39.886719 C 52.640625 40.203125 52.738281 40.527344 52.804688 40.863281 C 52.871094 41.195312 52.902344 41.535156 52.902344 41.875 Z M 52.902344 41.875 " fill-opacity="1" fill-rule="nonzero"/><path fill="#e28c97" d="M 98.125 41.875 C 98.125 42.214844 98.09375 42.554688 98.027344 42.886719 C 97.960938 43.222656 97.863281 43.546875 97.730469 43.859375 C 97.601562 44.175781 97.441406 44.476562 97.25 44.757812 C 97.0625 45.042969 96.847656 45.304688 96.605469 45.546875 C 96.363281 45.785156 96.101562 46.003906 95.816406 46.191406 C 95.535156 46.378906 95.234375 46.539062 94.921875 46.671875 C 94.605469 46.800781 94.28125 46.898438 93.945312 46.964844 C 93.613281 47.03125 93.273438 47.066406 92.933594 47.066406 C 92.589844 47.066406 92.253906 47.03125 91.917969 46.964844 C 91.585938 46.898438 91.261719 46.800781 90.945312 46.671875 C 90.628906 46.539062 90.332031 46.378906 90.046875 46.191406 C 89.761719 46.003906 89.5 45.785156 89.261719 45.546875 C 89.019531 45.304688 88.804688 45.042969 88.613281 44.757812 C 88.425781 44.476562 88.265625 44.175781 88.132812 43.859375 C 88.003906 43.546875 87.90625 43.222656 87.839844 42.886719 C 87.773438 42.554688 87.738281 42.214844 87.738281 41.875 C 87.738281 41.535156 87.773438 41.195312 87.839844 40.863281 C 87.90625 40.527344 88.003906 40.203125 88.132812 39.886719 C 88.265625 39.574219 88.425781 39.273438 88.613281 38.988281 C 88.804688 38.707031 89.019531 38.445312 89.261719 38.203125 C 89.5 37.960938 89.761719 37.746094 90.046875 37.558594 C 90.332031 37.367188 90.628906 37.207031 90.945312 37.078125 C 91.261719 36.949219 91.585938 36.847656 91.917969 36.78125 C 92.253906 36.714844 92.589844 36.683594 92.933594 36.683594 C 93.273438 36.683594 93.613281 36.714844 93.945312 36.78125 C 94.28125 36.847656 94.605469 36.949219 94.921875 37.078125 C 95.234375 37.207031 95.535156 37.367188 95.816406 37.558594 C 96.101562 37.746094 96.363281 37.960938 96.605469 38.203125 C 96.847656 38.445312 97.0625 38.707031 97.25 38.988281 C 97.441406 39.273438 97.601562 39.574219 97.730469 39.886719 C 97.863281 40.203125 97.960938 40.527344 98.027344 40.863281 C 98.09375 41.195312 98.125 41.535156 98.125 41.875 Z M 98.125 41.875 " fill-opacity="1" fill-rule="nonzero"/></svg>