<svg xmlns="http://www.w3.org/2000/svg" xmlns:xlink="http://www.w3.org/1999/xlink" width="50" zoomAndPan="magnify" viewBox="0 0 37.5 37.499999" height="50" preserveAspectRatio="xMidYMid meet" version="1.0"><defs><clipPath id="id1"><path d="M 0.90625 1.183594 L 36.90625 1.183594 L 36.90625 36.433594 L 0.90625 36.433594 Z M 0.90625 1.183594 " clip-rule="nonzero"/></clipPath><clipPath id="id2"><path d="M 29 27 L 36.90625 27 L 36.90625 34 L 29 34 Z M 29 27 " clip-rule="nonzero"/></clipPath></defs><g clip-path="url(#id1)"><path fill="#560216" d="M 33.816406 1.164062 L 3.996094 1.164062 C 2.308594 1.164062 0.933594 2.527344 0.933594 4.210938 L 0.933594 13.148438 C 0.933594 14.832031 2.308594 16.195312 3.996094 16.195312 L 4.925781 16.195312 C 5.21875 16.800781 5.769531 17.246094 6.4375 17.414062 C 6.535156 18.605469 7.066406 19.734375 7.933594 20.570312 L 8.824219 21.417969 L 8.824219 23.085938 L 6.972656 24.441406 C 4.054688 24.546875 1.71875 26.929688 1.71875 29.851562 C 1.71875 31.195312 1.710938 34.484375 1.707031 35.824219 C 1.707031 36.140625 1.96875 36.394531 2.28125 36.394531 C 2.339844 36.394531 25.523438 36.386719 24.042969 36.394531 C 24.570312 36.394531 24.78125 36.125 24.78125 35.824219 L 24.78125 29.851562 C 24.78125 29.675781 24.769531 29.5 24.753906 29.328125 C 24.792969 29.339844 24.828125 29.351562 24.867188 29.359375 L 24.925781 29.667969 C 24.988281 29.964844 25.253906 30.183594 25.5625 30.183594 L 26.417969 30.183594 C 26.734375 30.183594 27.003906 29.964844 27.058594 29.664062 L 27.121094 29.355469 C 27.417969 29.269531 27.699219 29.152344 27.964844 29.003906 L 28.222656 29.175781 C 28.488281 29.34375 28.832031 29.3125 29.042969 29.085938 L 29.644531 28.492188 C 29.863281 28.28125 29.902344 27.933594 29.730469 27.675781 L 29.554688 27.421875 C 29.707031 27.144531 29.824219 26.859375 29.902344 26.566406 L 30.203125 26.507812 C 30.507812 26.453125 30.730469 26.183594 30.730469 25.871094 L 30.730469 25.027344 C 30.730469 24.714844 30.507812 24.449219 30.203125 24.390625 L 29.898438 24.328125 C 29.8125 24.035156 29.695312 23.757812 29.539062 23.484375 L 29.714844 23.226562 C 29.882812 22.96875 29.855469 22.628906 29.628906 22.410156 L 29.03125 21.816406 C 28.820312 21.597656 28.46875 21.558594 28.207031 21.726562 L 27.941406 21.90625 C 27.671875 21.75 27.386719 21.636719 27.085938 21.554688 L 27.03125 21.261719 C 26.980469 20.964844 26.703125 20.738281 26.394531 20.738281 L 25.539062 20.738281 C 25.226562 20.738281 24.957031 20.957031 24.90625 21.261719 L 24.84375 21.558594 C 24.539062 21.648438 24.253906 21.765625 23.984375 21.917969 L 23.734375 21.75 C 23.476562 21.570312 23.132812 21.609375 22.914062 21.828125 L 22.3125 22.425781 C 22.09375 22.644531 22.054688 22.984375 22.226562 23.242188 L 22.410156 23.5 C 22.25 23.773438 22.132812 24.058594 22.046875 24.351562 L 21.757812 24.410156 C 21.535156 24.457031 21.363281 24.601562 21.285156 24.796875 C 20.738281 24.585938 20.148438 24.460938 19.535156 24.441406 L 17.683594 23.085938 L 17.683594 21.59375 L 18.753906 20.570312 C 19.625 19.734375 20.160156 18.605469 20.253906 17.414062 C 20.929688 17.246094 21.476562 16.800781 21.765625 16.195312 L 26.609375 16.195312 L 26.609375 19.105469 C 26.609375 19.539062 26.875 19.9375 27.273438 20.105469 C 27.652344 20.269531 28.132812 20.210938 28.457031 19.894531 L 32.371094 16.195312 L 33.816406 16.195312 C 35.503906 16.195312 36.882812 14.832031 36.882812 13.148438 L 36.882812 4.210938 C 36.882812 2.527344 35.503906 1.164062 33.816406 1.164062 Z M 35.757812 13.148438 C 35.757812 14.214844 34.886719 15.078125 33.816406 15.078125 L 32.148438 15.078125 C 32 15.078125 31.859375 15.132812 31.761719 15.234375 L 27.734375 19.105469 L 27.734375 15.636719 C 27.734375 15.328125 27.484375 15.078125 27.171875 15.078125 L 22.007812 15.078125 C 21.996094 14.597656 21.839844 14.160156 21.582031 13.796875 L 21.582031 9.3125 C 21.582031 7.671875 20.945312 6.140625 19.78125 4.984375 C 18.625 3.824219 17.078125 3.1875 15.433594 3.1875 C 13.050781 3.1875 10.976562 4.546875 9.953125 6.527344 C 9.851562 6.371094 9.734375 6.226562 9.59375 6.089844 C 9.097656 5.597656 8.441406 5.324219 7.738281 5.324219 C 6.285156 5.324219 5.109375 6.5 5.109375 7.941406 L 5.109375 13.796875 C 4.851562 14.160156 4.695312 14.597656 4.683594 15.078125 L 3.996094 15.078125 C 2.929688 15.078125 2.058594 14.214844 2.058594 13.148438 L 2.058594 4.210938 C 2.058594 3.148438 2.929688 2.28125 3.996094 2.28125 L 33.816406 2.28125 C 34.886719 2.28125 35.757812 3.148438 35.757812 4.210938 Z M 21.246094 25.996094 C 21.277344 26.261719 21.480469 26.488281 21.757812 26.53125 L 22.058594 26.585938 C 22.144531 26.878906 22.261719 27.167969 22.417969 27.4375 L 22.246094 27.6875 C 22.070312 27.945312 22.109375 28.289062 22.324219 28.503906 L 22.925781 29.105469 C 23.105469 29.289062 23.375 29.34375 23.613281 29.261719 C 23.644531 29.457031 23.65625 29.652344 23.65625 29.851562 L 23.65625 31.917969 L 20.394531 31.917969 C 20.074219 31.917969 19.820312 32.175781 19.820312 32.488281 L 19.820312 35.265625 L 13.691406 35.265625 L 13.691406 27.425781 L 15.519531 29.085938 C 15.769531 29.3125 16.128906 29.273438 16.328125 29.054688 L 19.601562 25.5625 C 20.1875 25.597656 20.742188 25.75 21.246094 25.996094 Z M 5.933594 31.917969 L 2.84375 31.917969 L 2.84375 29.851562 C 2.84375 27.566406 4.648438 25.691406 6.910156 25.558594 L 10.175781 29.054688 C 10.394531 29.292969 10.761719 29.296875 10.980469 29.085938 L 12.566406 27.648438 L 12.566406 35.265625 L 6.503906 35.265625 L 6.503906 32.488281 C 6.503906 32.175781 6.246094 31.917969 5.933594 31.917969 Z M 16.558594 23.074219 L 13.253906 25.457031 L 9.945312 23.074219 L 9.945312 22.488281 C 10.457031 22.964844 11.121094 23.226562 11.824219 23.226562 L 14.875 23.226562 C 15.484375 23.226562 16.070312 23.023438 16.558594 22.648438 Z M 16.578125 21.105469 C 16.160156 21.429688 15.792969 22.109375 14.875 22.109375 L 11.824219 22.109375 C 10.90625 22.109375 10.5 21.398438 10.121094 21.105469 C 10.0625 21.050781 8.625 19.675781 8.714844 19.765625 C 7.972656 19.046875 7.546875 18.054688 7.546875 17.023438 C 7.546875 16.960938 7.546875 12.894531 7.546875 12.953125 C 7.78125 12.980469 8.023438 12.996094 8.265625 12.996094 C 10.054688 12.996094 11.734375 12.179688 12.84375 10.820312 C 13.917969 12.484375 15.773438 13.511719 17.796875 13.511719 C 18.257812 13.511719 18.707031 13.457031 19.148438 13.355469 L 19.148438 17.023438 C 19.148438 18.054688 18.71875 19.046875 17.976562 19.765625 C 17.921875 19.820312 16.484375 21.195312 16.578125 21.105469 Z M 25.980469 23.632812 C 26.992188 23.632812 27.816406 24.457031 27.816406 25.457031 C 27.816406 26.46875 26.992188 27.285156 25.980469 27.285156 C 24.96875 27.285156 24.140625 26.46875 24.140625 25.457031 C 24.140625 24.457031 24.96875 23.632812 25.980469 23.632812 Z M 25.980469 23.632812 " fill-opacity="1" fill-rule="nonzero"/></g><path fill="#560216" d="M 10.542969 14.144531 C 9.976562 14.144531 9.542969 14.601562 9.542969 15.132812 C 9.542969 15.714844 10.015625 16.128906 10.542969 16.128906 C 11.046875 16.128906 11.539062 15.726562 11.539062 15.132812 C 11.539062 14.601562 11.097656 14.144531 10.542969 14.144531 Z M 10.542969 14.144531 " fill-opacity="1" fill-rule="nonzero"/><path fill="#560216" d="M 15.964844 14.144531 C 15.398438 14.144531 14.96875 14.605469 14.96875 15.132812 C 14.96875 15.65625 15.390625 16.128906 15.964844 16.128906 C 16.539062 16.128906 16.960938 15.652344 16.960938 15.132812 C 16.960938 14.601562 16.519531 14.144531 15.964844 14.144531 Z M 15.964844 14.144531 " fill-opacity="1" fill-rule="nonzero"/><path fill="#560216" d="M 13.253906 17.550781 C 13.5625 17.550781 13.816406 17.296875 13.816406 16.992188 C 13.816406 16.933594 13.816406 16.050781 13.816406 16.105469 C 13.816406 15.789062 13.550781 15.546875 13.253906 15.546875 C 12.949219 15.546875 12.691406 15.792969 12.691406 16.105469 C 12.691406 16.164062 12.691406 17.046875 12.691406 16.992188 C 12.691406 17.296875 12.9375 17.550781 13.253906 17.550781 Z M 13.253906 17.550781 " fill-opacity="1" fill-rule="nonzero"/><path fill="#560216" d="M 14.664062 18.859375 L 11.835938 18.859375 C 11.679688 18.859375 11.566406 19.019531 11.640625 19.160156 C 11.722656 19.316406 11.832031 19.460938 11.960938 19.589844 C 12.667969 20.296875 13.832031 20.296875 14.546875 19.585938 C 14.675781 19.457031 14.78125 19.3125 14.863281 19.160156 C 14.933594 19.019531 14.824219 18.859375 14.664062 18.859375 Z M 14.664062 18.859375 " fill-opacity="1" fill-rule="nonzero"/><path fill="#560216" d="M 33.042969 4.597656 L 24.21875 4.597656 C 23.910156 4.597656 23.65625 4.847656 23.65625 5.15625 C 23.65625 5.464844 23.910156 5.714844 24.21875 5.714844 L 33.042969 5.714844 C 33.351562 5.714844 33.605469 5.464844 33.605469 5.15625 C 33.605469 4.847656 33.351562 4.597656 33.042969 4.597656 Z M 33.042969 4.597656 " fill-opacity="1" fill-rule="nonzero"/><path fill="#560216" d="M 33.042969 7.769531 L 24.21875 7.769531 C 23.910156 7.769531 23.65625 8.019531 23.65625 8.328125 C 23.65625 8.636719 23.910156 8.886719 24.21875 8.886719 L 33.042969 8.886719 C 33.351562 8.886719 33.605469 8.636719 33.605469 8.328125 C 33.605469 8.019531 33.351562 7.769531 33.042969 7.769531 Z M 33.042969 7.769531 " fill-opacity="1" fill-rule="nonzero"/><path fill="#560216" d="M 33.042969 10.9375 L 24.21875 10.9375 C 23.910156 10.9375 23.65625 11.191406 23.65625 11.5 C 23.65625 11.804688 23.910156 12.058594 24.21875 12.058594 L 33.042969 12.058594 C 33.351562 12.058594 33.605469 11.804688 33.605469 11.5 C 33.605469 11.191406 33.351562 10.9375 33.042969 10.9375 Z M 33.042969 10.9375 " fill-opacity="1" fill-rule="nonzero"/><g clip-path="url(#id2)"><path fill="#560216" d="M 36.113281 29.65625 L 35.898438 29.613281 C 35.835938 29.40625 35.753906 29.203125 35.640625 29.007812 L 35.765625 28.828125 C 35.886719 28.644531 35.863281 28.398438 35.707031 28.246094 L 35.28125 27.828125 C 35.128906 27.671875 34.886719 27.644531 34.695312 27.765625 L 34.507812 27.890625 C 34.320312 27.785156 34.117188 27.699219 33.902344 27.636719 L 33.863281 27.4375 C 33.824219 27.222656 33.625 27.0625 33.414062 27.0625 L 32.804688 27.0625 C 32.582031 27.0625 32.390625 27.21875 32.351562 27.429688 L 32.3125 27.644531 C 32.089844 27.710938 31.890625 27.796875 31.699219 27.902344 L 31.523438 27.777344 C 31.339844 27.65625 31.089844 27.675781 30.9375 27.835938 L 30.511719 28.257812 C 30.355469 28.414062 30.324219 28.660156 30.449219 28.839844 L 30.578125 29.027344 C 30.472656 29.214844 30.386719 29.421875 30.324219 29.628906 L 30.117188 29.667969 C 29.898438 29.714844 29.746094 29.898438 29.746094 30.121094 L 29.746094 30.726562 C 29.746094 30.949219 29.902344 31.140625 30.117188 31.171875 L 30.332031 31.21875 C 30.394531 31.425781 30.476562 31.625 30.585938 31.820312 L 30.460938 32 C 30.34375 32.179688 30.367188 32.425781 30.523438 32.578125 L 30.949219 33 C 31.101562 33.160156 31.347656 33.1875 31.535156 33.0625 L 31.714844 32.941406 C 31.90625 33.046875 32.109375 33.125 32.328125 33.1875 L 32.367188 33.402344 C 32.414062 33.609375 32.597656 33.769531 32.824219 33.769531 L 33.425781 33.769531 C 33.648438 33.769531 33.839844 33.609375 33.878906 33.398438 L 33.925781 33.179688 C 34.132812 33.117188 34.335938 33.035156 34.527344 32.929688 L 34.710938 33.050781 C 34.898438 33.175781 35.140625 33.148438 35.292969 32.992188 L 35.71875 32.570312 C 35.875 32.421875 35.90625 32.175781 35.773438 31.988281 L 35.652344 31.804688 C 35.765625 31.613281 35.84375 31.40625 35.90625 31.199219 L 36.113281 31.15625 C 36.332031 31.117188 36.488281 30.925781 36.488281 30.703125 L 36.488281 30.105469 C 36.488281 29.886719 36.332031 29.695312 36.113281 29.65625 Z M 33.113281 31.710938 C 32.394531 31.710938 31.808594 31.128906 31.808594 30.414062 C 31.808594 29.703125 32.394531 29.113281 33.113281 29.113281 C 33.835938 29.113281 34.417969 29.703125 34.417969 30.414062 C 34.417969 31.128906 33.835938 31.710938 33.113281 31.710938 Z M 33.113281 31.710938 " fill-opacity="1" fill-rule="nonzero"/></g></svg>