<svg xmlns="http://www.w3.org/2000/svg" xmlns:xlink="http://www.w3.org/1999/xlink" width="50" zoomAndPan="magnify" viewBox="0 0 37.5 37.499999" height="50" preserveAspectRatio="xMidYMid meet" version="1.0"><defs><clipPath id="id1"><path d="M 0.496094 7.066406 L 37.007812 7.066406 L 37.007812 30.316406 L 0.496094 30.316406 Z M 0.496094 7.066406 " clip-rule="nonzero"/></clipPath></defs><g clip-path="url(#id1)"><path fill="#560216" d="M 35.503906 7.066406 L 2.242188 7.066406 C 1.292969 7.066406 0.519531 7.832031 0.519531 8.769531 L 0.519531 28.617188 C 0.519531 29.550781 1.292969 30.316406 2.242188 30.316406 L 35.503906 30.316406 C 36.449219 30.316406 37.222656 29.550781 37.222656 28.617188 L 37.222656 8.769531 C 37.222656 7.832031 36.449219 7.066406 35.503906 7.066406 Z M 2.242188 8.203125 L 35.503906 8.203125 C 35.820312 8.203125 36.078125 8.457031 36.078125 8.769531 L 36.078125 10.46875 L 1.667969 10.46875 L 1.667969 8.769531 C 1.667969 8.457031 1.925781 8.203125 2.242188 8.203125 Z M 35.503906 29.183594 L 2.242188 29.183594 C 1.925781 29.183594 1.667969 28.929688 1.667969 28.617188 L 1.667969 11.605469 L 36.078125 11.605469 L 36.078125 28.617188 C 36.078125 28.929688 35.820312 29.183594 35.503906 29.183594 Z M 35.503906 29.183594 " fill-opacity="1" fill-rule="nonzero"/></g><path fill="#560216" d="M 34.355469 13.304688 L 18.296875 13.304688 C 17.984375 13.304688 17.726562 13.5625 17.726562 13.875 C 17.726562 14.183594 17.984375 14.441406 18.296875 14.441406 L 34.355469 14.441406 C 34.671875 14.441406 34.929688 14.183594 34.929688 13.875 C 34.929688 13.5625 34.671875 13.304688 34.355469 13.304688 Z M 34.355469 13.304688 " fill-opacity="1" fill-rule="nonzero"/><path fill="#560216" d="M 34.355469 16.140625 L 18.296875 16.140625 C 17.984375 16.140625 17.726562 16.398438 17.726562 16.707031 C 17.726562 17.019531 17.984375 17.277344 18.296875 17.277344 L 34.355469 17.277344 C 34.671875 17.277344 34.929688 17.019531 34.929688 16.707031 C 34.929688 16.398438 34.671875 16.140625 34.355469 16.140625 Z M 34.355469 16.140625 " fill-opacity="1" fill-rule="nonzero"/><path fill="#560216" d="M 34.355469 18.976562 L 18.296875 18.976562 C 17.984375 18.976562 17.726562 19.230469 17.726562 19.542969 C 17.726562 19.855469 17.984375 20.109375 18.296875 20.109375 L 34.355469 20.109375 C 34.671875 20.109375 34.929688 19.855469 34.929688 19.542969 C 34.929688 19.230469 34.671875 18.976562 34.355469 18.976562 Z M 34.355469 18.976562 " fill-opacity="1" fill-rule="nonzero"/><path fill="#560216" d="M 34.355469 21.8125 L 18.296875 21.8125 C 17.984375 21.8125 17.726562 22.066406 17.726562 22.378906 C 17.726562 22.691406 17.984375 22.945312 18.296875 22.945312 L 34.355469 22.945312 C 34.671875 22.945312 34.929688 22.691406 34.929688 22.378906 C 34.929688 22.066406 34.671875 21.8125 34.355469 21.8125 Z M 34.355469 21.8125 " fill-opacity="1" fill-rule="nonzero"/><path fill="#560216" d="M 34.355469 26.347656 L 28.046875 26.347656 C 27.734375 26.347656 27.472656 26.605469 27.472656 26.914062 C 27.472656 27.226562 27.734375 27.484375 28.046875 27.484375 L 34.355469 27.484375 C 34.671875 27.484375 34.929688 27.226562 34.929688 26.914062 C 34.929688 26.605469 34.671875 26.347656 34.355469 26.347656 Z M 34.355469 26.347656 " fill-opacity="1" fill-rule="nonzero"/><path fill="#560216" d="M 6.859375 20.507812 C 5.824219 21.101562 5.109375 22.378906 5.109375 23.882812 L 5.109375 24.648438 C 5.109375 24.960938 5.367188 25.214844 5.683594 25.214844 C 5.996094 25.214844 6.253906 24.960938 6.253906 24.648438 L 6.253906 23.855469 C 6.253906 22.578125 6.914062 21.527344 7.804688 21.273438 C 7.429688 21.074219 7.117188 20.820312 6.859375 20.507812 Z M 6.859375 20.507812 " fill-opacity="1" fill-rule="nonzero"/><path fill="#560216" d="M 12.535156 20.507812 C 12.277344 20.820312 11.933594 21.101562 11.558594 21.300781 C 12.449219 21.558594 13.109375 22.605469 13.109375 23.882812 L 13.109375 24.648438 C 13.109375 24.960938 13.367188 25.214844 13.683594 25.214844 C 13.996094 25.214844 14.253906 24.960938 14.253906 24.648438 L 14.253906 23.855469 C 14.285156 22.378906 13.566406 21.101562 12.535156 20.507812 Z M 12.535156 20.507812 " fill-opacity="1" fill-rule="nonzero"/><path fill="#560216" d="M 9.695312 15.574219 C 8.261719 15.574219 7.117188 16.707031 7.117188 18.125 C 7.117188 19.542969 8.261719 20.679688 9.695312 20.679688 C 11.128906 20.679688 12.277344 19.542969 12.277344 18.125 C 12.277344 16.707031 11.128906 15.574219 9.695312 15.574219 Z M 9.695312 19.542969 C 8.894531 19.542969 8.261719 18.921875 8.261719 18.125 C 8.261719 17.332031 8.894531 16.707031 9.695312 16.707031 C 10.5 16.707031 11.128906 17.332031 11.128906 18.125 C 11.128906 18.921875 10.5 19.542969 9.695312 19.542969 Z M 9.695312 19.542969 " fill-opacity="1" fill-rule="nonzero"/><path fill="#560216" d="M 14.859375 12.738281 L 4.535156 12.738281 C 3.589844 12.738281 2.816406 13.503906 2.816406 14.441406 L 2.816406 26.347656 C 2.816406 27.285156 3.589844 28.050781 4.535156 28.050781 L 14.859375 28.050781 C 15.804688 28.050781 16.578125 27.285156 16.578125 26.347656 L 16.578125 14.441406 C 16.578125 13.503906 15.804688 12.738281 14.859375 12.738281 Z M 15.429688 26.347656 C 15.429688 26.660156 15.171875 26.914062 14.859375 26.914062 L 4.535156 26.914062 C 4.21875 26.914062 3.960938 26.660156 3.960938 26.347656 L 3.960938 14.441406 C 3.960938 14.128906 4.21875 13.875 4.535156 13.875 L 14.859375 13.875 C 15.171875 13.875 15.429688 14.128906 15.429688 14.441406 Z M 15.429688 26.347656 " fill-opacity="1" fill-rule="nonzero"/></svg>