<svg xmlns="http://www.w3.org/2000/svg" xmlns:xlink="http://www.w3.org/1999/xlink" width="50" zoomAndPan="magnify" viewBox="0 0 37.5 37.499999" height="50" preserveAspectRatio="xMidYMid meet" version="1.0"><defs><clipPath id="id1"><path d="M 0.519531 1.976562 L 37.007812 1.976562 L 37.007812 35.726562 L 0.519531 35.726562 Z M 0.519531 1.976562 " clip-rule="nonzero"/></clipPath></defs><g clip-path="url(#id1)"><path fill="#560216" d="M 36.785156 18.59375 C 36.445312 18.183594 35.941406 17.949219 35.410156 17.949219 L 33.949219 17.949219 L 33.902344 15.597656 C 33.882812 14.632812 33.082031 13.847656 32.117188 13.847656 L 30.425781 13.847656 L 30.425781 3.761719 C 30.425781 2.78125 29.625 1.980469 28.640625 1.980469 L 5.164062 1.980469 C 4.179688 1.980469 3.378906 2.78125 3.378906 3.761719 L 3.378906 11.6875 L 2.316406 11.6875 C 1.332031 11.6875 0.527344 12.488281 0.527344 13.46875 L 0.527344 33.726562 C 0.527344 34.832031 1.425781 35.726562 2.53125 35.726562 L 33.730469 35.726562 C 34.007812 35.726562 34.246094 35.53125 34.300781 35.257812 L 37.164062 20.0625 C 37.261719 19.539062 37.125 19.003906 36.785156 18.59375 Z M 32.117188 15 C 32.457031 15 32.742188 15.277344 32.75 15.617188 L 32.792969 17.949219 L 30.425781 17.949219 L 30.425781 15 Z M 4.53125 3.761719 C 4.53125 3.414062 4.816406 3.132812 5.164062 3.132812 L 28.640625 3.132812 C 28.988281 3.132812 29.273438 3.414062 29.273438 3.761719 L 29.273438 17.949219 L 7.851562 17.949219 C 6.992188 17.949219 6.253906 18.5625 6.09375 19.402344 L 4.53125 27.6875 Z M 2.53125 34.574219 C 2.0625 34.574219 1.683594 34.195312 1.683594 33.726562 L 1.683594 13.46875 C 1.683594 13.121094 1.96875 12.839844 2.316406 12.839844 L 3.378906 12.839844 L 3.378906 33.8125 L 3.363281 33.886719 C 3.289062 34.285156 2.9375 34.574219 2.53125 34.574219 Z M 36.03125 19.847656 L 33.253906 34.574219 L 4.34375 34.574219 C 4.414062 34.425781 4.46875 34.265625 4.5 34.097656 L 4.519531 33.980469 L 7.230469 19.617188 C 7.285156 19.320312 7.546875 19.101562 7.851562 19.101562 L 35.410156 19.101562 C 35.597656 19.101562 35.773438 19.1875 35.894531 19.332031 C 36.015625 19.476562 36.066406 19.664062 36.03125 19.847656 Z M 36.03125 19.847656 " fill-opacity="1" fill-rule="nonzero"/></g><path fill="#560216" d="M 8.789062 9.691406 L 25.109375 9.691406 C 25.429688 9.691406 25.6875 9.433594 25.6875 9.117188 C 25.6875 8.796875 25.429688 8.539062 25.109375 8.539062 L 8.789062 8.539062 C 8.46875 8.539062 8.210938 8.796875 8.210938 9.117188 C 8.210938 9.433594 8.46875 9.691406 8.789062 9.691406 Z M 8.789062 9.691406 " fill-opacity="1" fill-rule="nonzero"/><path fill="#560216" d="M 8.789062 12.839844 L 25.109375 12.839844 C 25.429688 12.839844 25.6875 12.582031 25.6875 12.261719 C 25.6875 11.945312 25.429688 11.6875 25.109375 11.6875 L 8.789062 11.6875 C 8.46875 11.6875 8.210938 11.945312 8.210938 12.261719 C 8.210938 12.582031 8.46875 12.839844 8.789062 12.839844 Z M 8.789062 12.839844 " fill-opacity="1" fill-rule="nonzero"/><path fill="#560216" d="M 8.789062 15.988281 L 25.109375 15.988281 C 25.429688 15.988281 25.6875 15.730469 25.6875 15.410156 C 25.6875 15.09375 25.429688 14.832031 25.109375 14.832031 L 8.789062 14.832031 C 8.46875 14.832031 8.210938 15.09375 8.210938 15.410156 C 8.210938 15.730469 8.46875 15.988281 8.789062 15.988281 Z M 8.789062 15.988281 " fill-opacity="1" fill-rule="nonzero"/></svg>