<svg xmlns="http://www.w3.org/2000/svg" xmlns:xlink="http://www.w3.org/1999/xlink" width="300" zoomAndPan="magnify" viewBox="0 0 224.87999 299.999988" height="400" preserveAspectRatio="xMidYMid meet" version="1.0"><defs><clipPath id="id1"><path d="M 76 38 L 221.433594 38 L 221.433594 222 L 76 222 Z M 76 38 " clip-rule="nonzero"/></clipPath><clipPath id="id2"><path d="M 197 80 L 221.433594 80 L 221.433594 98 L 197 98 Z M 197 80 " clip-rule="nonzero"/></clipPath><clipPath id="id3"><path d="M 111 241 L 152.511719 241 L 152.511719 262.042969 L 111 262.042969 Z M 111 241 " clip-rule="nonzero"/></clipPath><clipPath id="id4"><path d="M 3.300781 193 L 24 193 L 24 221 L 3.300781 221 Z M 3.300781 193 " clip-rule="nonzero"/></clipPath></defs><g clip-path="url(#id1)"><path fill="#e6edfc" d="M 213.699219 82.023438 L 213.707031 82.027344 L 139.863281 39.601562 C 139.847656 39.59375 139.835938 39.582031 139.824219 39.578125 L 139.804688 39.570312 C 138.160156 38.652344 136.125 38.230469 133.613281 38.199219 C 112.652344 37.9375 111.667969 60.71875 111.621094 62.863281 L 111.617188 62.863281 L 111.617188 154.464844 C 111.617188 154.464844 113.285156 168.214844 99.933594 176.265625 L 76.429688 162.652344 C 76.429688 162.652344 76.242188 174.285156 83.769531 178.101562 L 83.761719 178.101562 L 157.605469 220.527344 C 157.617188 220.535156 157.628906 220.542969 157.644531 220.550781 L 157.65625 220.5625 L 157.65625 220.558594 C 159.308594 221.476562 161.339844 221.898438 163.851562 221.929688 C 184.8125 222.191406 185.800781 199.410156 185.84375 197.265625 L 185.847656 197.265625 L 185.847656 105.664062 C 185.847656 105.664062 184.179688 91.910156 197.53125 83.863281 L 221.039062 97.476562 C 221.039062 97.476562 221.222656 85.84375 213.699219 82.023438 " fill-opacity="1" fill-rule="nonzero"/></g><g clip-path="url(#id2)"><path fill="#b8d3f4" d="M 197.53125 83.863281 C 200.285156 81.878906 204.371094 80.921875 207.839844 80.816406 C 221.3125 80.402344 221.039062 97.460938 221.039062 97.460938 L 197.53125 83.863281 " fill-opacity="1" fill-rule="nonzero"/></g><path fill="#cfe3f9" d="M 173.765625 219.882812 C 171.09375 221.195312 167.835938 221.976562 163.851562 221.929688 C 161.339844 221.898438 159.308594 221.476562 157.65625 220.558594 L 157.65625 220.5625 L 83.761719 178.101562 L 83.769531 178.101562 C 76.242188 174.285156 76.429688 162.652344 76.429688 162.652344 L 99.933594 176.265625 L 154.511719 208.507812 C 154.511719 208.507812 154.945312 224.503906 173.765625 219.882812 " fill-opacity="1" fill-rule="nonzero"/><path fill="#a2caf2" d="M 177.046875 114.972656 L 119.933594 81.976562 L 119.933594 79.777344 L 177.046875 112.769531 L 177.046875 114.972656 " fill-opacity="1" fill-rule="nonzero"/><path fill="#a2caf2" d="M 177.046875 134.042969 L 119.933594 101.050781 L 119.933594 98.851562 L 177.046875 131.84375 L 177.046875 134.042969 " fill-opacity="1" fill-rule="nonzero"/><path fill="#a2caf2" d="M 177.046875 153.117188 L 119.933594 120.125 L 119.933594 117.925781 L 177.046875 150.917969 L 177.046875 153.117188 " fill-opacity="1" fill-rule="nonzero"/><path fill="#a2caf2" d="M 150.25 156.714844 L 119.933594 139.199219 L 119.933594 136.996094 L 150.25 154.511719 L 150.25 156.714844 " fill-opacity="1" fill-rule="nonzero"/><path fill="#2a8efe" d="M 134.933594 167.597656 C 134.933594 172.59375 130.886719 174.304688 125.894531 171.421875 C 120.902344 168.539062 116.855469 162.148438 116.855469 157.15625 C 116.855469 152.160156 120.902344 150.449219 125.894531 153.332031 C 130.886719 156.21875 134.933594 162.605469 134.933594 167.597656 " fill-opacity="1" fill-rule="nonzero"/><path fill="#fffdfd" d="M 125.394531 167.078125 C 125.210938 166.976562 125.039062 166.800781 124.914062 166.597656 L 120.394531 159.1875 C 120.148438 158.78125 120.160156 158.375 120.421875 158.277344 C 120.6875 158.179688 121.101562 158.433594 121.347656 158.839844 L 125.339844 165.382812 L 130.5 161.617188 C 130.71875 161.453125 131.128906 161.640625 131.414062 162.023438 C 131.703125 162.410156 131.757812 162.851562 131.539062 163.015625 L 125.910156 167.121094 C 125.796875 167.207031 125.617188 167.199219 125.425781 167.097656 C 125.414062 167.089844 125.402344 167.085938 125.394531 167.078125 " fill-opacity="1" fill-rule="nonzero"/><path fill="#2a8efe" d="M 162.210938 170.507812 C 161.863281 170.535156 160.890625 171.003906 159.820312 172.257812 C 159.261719 172.914062 157.921875 174.714844 157.605469 177.164062 C 159.285156 176.035156 160.789062 174.550781 161.65625 172.59375 C 162.242188 171.277344 162.238281 170.695312 162.210938 170.507812 Z M 165.871094 181.859375 C 165.550781 181.859375 164.476562 182.5 163.773438 183.972656 C 163.371094 184.816406 163.242188 185.582031 163.285156 186.261719 C 163.304688 186.257812 163.320312 186.253906 163.339844 186.253906 C 164.851562 185.964844 165.992188 184.335938 165.992188 182.460938 C 165.992188 182.066406 165.917969 181.902344 165.890625 181.859375 C 165.886719 181.859375 165.878906 181.859375 165.871094 181.859375 Z M 171.558594 186.65625 C 171.398438 186.972656 171.207031 187.902344 171.316406 189.507812 C 171.636719 188.988281 171.832031 188.414062 171.894531 187.910156 C 171.976562 187.277344 171.835938 186.859375 171.675781 186.734375 C 171.628906 186.699219 171.59375 186.675781 171.558594 186.65625 Z M 172.1875 196.445312 C 171.960938 196.445312 171.730469 196.355469 171.5625 196.175781 C 170.945312 195.511719 170.414062 194.152344 170.054688 192.609375 C 168.753906 193.027344 166.761719 193.015625 164.230469 191.03125 C 163.078125 190.125 162.285156 189.050781 161.882812 187.886719 C 160.296875 187.515625 158.195312 186.128906 156.535156 181.859375 C 156.292969 181.238281 156.121094 180.625 156.007812 180.019531 C 155.191406 180.40625 154.320312 180.753906 153.398438 181.066406 C 149.765625 182.289062 146.613281 182.53125 146.480469 182.539062 C 146.003906 182.574219 145.601562 182.21875 145.570312 181.746094 C 145.535156 181.277344 145.886719 180.867188 146.359375 180.835938 C 146.386719 180.832031 149.457031 180.597656 152.886719 179.433594 C 153.8125 179.117188 154.828125 178.714844 155.839844 178.199219 C 155.847656 174.3125 158.160156 171.085938 160.074219 169.683594 C 161.371094 168.734375 162.550781 168.535156 163.304688 169.144531 C 164.160156 169.835938 164.132812 171.230469 163.21875 173.289062 C 162.179688 175.628906 160.269531 177.625 157.601562 179.183594 C 157.683594 179.839844 157.847656 180.527344 158.125 181.238281 C 159.066406 183.644531 160.28125 185.285156 161.566406 185.957031 C 161.578125 185.070312 161.792969 184.160156 162.222656 183.257812 C 163.058594 181.492188 164.808594 179.859375 166.289062 180.195312 C 166.714844 180.289062 167.703125 180.703125 167.703125 182.460938 C 167.703125 185.101562 166.019531 187.421875 163.765625 187.910156 C 164.210938 188.75 164.863281 189.351562 165.285156 189.683594 C 166.957031 190.992188 168.492188 191.417969 169.738281 190.90625 C 169.742188 190.90625 169.746094 190.902344 169.746094 190.902344 C 169.441406 188.613281 169.554688 186.308594 170.351562 185.417969 C 170.824219 184.894531 171.6875 184.605469 172.699219 185.367188 C 173.421875 185.910156 173.746094 186.917969 173.589844 188.128906 C 173.433594 189.351562 172.773438 190.785156 171.609375 191.746094 C 171.90625 193.261719 172.363281 194.523438 172.816406 195.007812 C 173.132812 195.355469 173.117188 195.894531 172.769531 196.21875 C 172.605469 196.371094 172.398438 196.445312 172.1875 196.445312 " fill-opacity="1" fill-rule="nonzero"/><path fill="#2747aa" d="M 201.339844 211.042969 C 201.339844 211.042969 201.652344 213.472656 202.1875 213.546875 C 202.71875 213.621094 202.957031 211.207031 202.957031 211.207031 L 201.339844 211.042969 " fill-opacity="1" fill-rule="nonzero"/><path fill="#2a8efe" d="M 198.25 195.417969 L 201.339844 211.042969 C 201.339844 211.042969 202.09375 211.941406 202.957031 211.207031 L 206.273438 195.847656 L 198.25 195.417969 " fill-opacity="1" fill-rule="nonzero"/><path fill="#e6edfc" d="M 205.160156 197.015625 C 203.542969 197.953125 200.960938 197.917969 199.390625 196.9375 C 198.707031 196.507812 198.324219 195.96875 198.25 195.417969 L 198.019531 103.800781 L 206.171875 103.789062 L 206.394531 195.207031 L 206.394531 195.210938 C 206.414062 195.867188 206.003906 196.523438 205.160156 197.015625 " fill-opacity="1" fill-rule="nonzero"/><path fill="#2a8efe" d="M 204.941406 105.652344 C 206.558594 104.714844 206.59375 103.15625 205.023438 102.175781 C 203.453125 101.191406 200.871094 101.15625 199.253906 102.09375 C 197.636719 103.035156 197.601562 104.59375 199.171875 105.574219 C 200.742188 106.558594 203.324219 106.59375 204.941406 105.652344 " fill-opacity="1" fill-rule="nonzero"/><g clip-path="url(#id3)"><path fill="#2747aa" d="M 111.042969 241.03125 L 111.042969 250.132812 C 111.042969 253.179688 113.054688 256.230469 117.082031 258.554688 C 125.136719 263.207031 138.1875 263.207031 146.242188 258.554688 C 150.269531 256.230469 152.28125 253.179688 152.28125 250.132812 L 152.28125 241.03125 L 111.042969 241.03125 " fill-opacity="1" fill-rule="nonzero"/></g><path fill="#cfe3f9" d="M 146.242188 232.609375 C 154.292969 237.261719 154.292969 244.800781 146.242188 249.453125 C 138.1875 254.105469 125.136719 254.105469 117.082031 249.453125 C 109.03125 244.800781 109.03125 237.261719 117.082031 232.609375 C 125.136719 227.957031 138.1875 227.957031 146.242188 232.609375 " fill-opacity="1" fill-rule="nonzero"/><path fill="#2747aa" d="M 117.988281 238.914062 L 117.988281 241 C 117.988281 243.023438 119.320312 245.042969 121.992188 246.585938 C 127.332031 249.671875 135.992188 249.671875 141.332031 246.585938 C 144.003906 245.042969 145.339844 243.023438 145.339844 241 L 145.339844 238.914062 L 117.988281 238.914062 " fill-opacity="1" fill-rule="nonzero"/><path fill="#cfe3f9" d="M 141.332031 233.328125 C 146.671875 236.410156 146.671875 241.414062 141.332031 244.5 C 135.992188 247.585938 127.332031 247.585938 121.992188 244.5 C 116.652344 241.414062 116.652344 236.410156 121.992188 233.328125 C 127.332031 230.242188 135.992188 230.242188 141.332031 233.328125 " fill-opacity="1" fill-rule="nonzero"/><path fill="#aacbf2" d="M 124.8125 215.136719 L 124.8125 239.171875 C 124.8125 240.179688 125.484375 241.195312 126.820312 241.964844 C 129.496094 243.511719 133.832031 243.511719 136.503906 241.964844 C 137.84375 241.195312 138.511719 240.179688 138.511719 239.171875 L 138.511719 215.136719 L 124.8125 215.136719 " fill-opacity="1" fill-rule="nonzero"/><path fill="#2747aa" d="M 146.632812 209.542969 C 146.632812 217.816406 139.929688 224.523438 131.660156 224.523438 C 123.394531 224.523438 116.691406 217.816406 116.691406 209.542969 C 116.691406 201.273438 123.394531 194.5625 131.660156 194.5625 C 139.929688 194.5625 146.632812 201.273438 146.632812 209.542969 " fill-opacity="1" fill-rule="nonzero"/><path fill="#e0e9fc" d="M 125.28125 199.621094 C 127.8125 198.71875 129.9375 200.167969 130.027344 202.855469 C 130.117188 205.542969 128.136719 208.449219 125.605469 209.351562 C 123.074219 210.25 120.945312 208.800781 120.859375 206.117188 C 120.769531 203.425781 122.75 200.519531 125.28125 199.621094 " fill-opacity="1" fill-rule="nonzero"/><path stroke-linecap="round" transform="matrix(0.0463021, 0, 0, -0.0463271, 3.417667, 262.043275)" fill="none" stroke-linejoin="round" d="M 212.689294 1586.383212 C 208.80853 1552.739954 207.796156 1514.880749 211.423828 1472.805596 " stroke="#fca7a7" stroke-width="105.193001" stroke-opacity="1" stroke-miterlimit="10"/><g clip-path="url(#id4)"><path fill="#c3d3fc" d="M 4.605469 220.253906 C 5.09375 220.507812 6.054688 220.835938 7.378906 220.050781 L 8.941406 218.6875 L 23.183594 202.519531 C 23.394531 202.300781 23.511719 202.011719 23.511719 201.707031 L 23.808594 196.195312 C 23.808594 194.03125 23.308594 193.941406 22.976562 193.730469 C 22.039062 193.132812 20.851562 193.105469 19.890625 193.660156 L 4.90625 202.292969 C 3.984375 202.824219 3.417969 203.808594 3.417969 204.875 L 3.417969 218.734375 C 3.417969 219.773438 4.175781 220.035156 4.605469 220.253906 " fill-opacity="1" fill-rule="nonzero"/></g><path fill="#191890" d="M 7.378906 220.050781 L 23.269531 210.894531 C 23.601562 210.703125 23.808594 210.347656 23.808594 209.964844 L 23.808594 196.222656 C 23.808594 195.394531 22.910156 194.878906 22.195312 195.292969 L 6.308594 204.449219 C 5.976562 204.640625 5.769531 204.996094 5.769531 205.378906 L 5.769531 219.117188 C 5.769531 219.945312 6.664062 220.460938 7.378906 220.050781 " fill-opacity="1" fill-rule="nonzero"/><path fill="#191890" d="M 12.019531 194.125 L 14.84375 192.492188 C 15.566406 192.074219 16.300781 192.015625 16.84375 192.332031 C 17.328125 192.609375 17.605469 193.152344 17.605469 193.816406 L 17.605469 196.699219 C 17.605469 197.0625 17.3125 197.359375 16.953125 197.359375 C 16.589844 197.359375 16.296875 197.0625 16.296875 196.699219 L 16.296875 193.816406 C 16.296875 193.636719 16.253906 193.503906 16.191406 193.46875 C 16.117188 193.425781 15.882812 193.40625 15.5 193.628906 L 12.675781 195.261719 C 11.898438 195.707031 11.21875 196.753906 11.21875 197.503906 L 11.21875 200.390625 C 11.21875 200.753906 10.925781 201.046875 10.566406 201.046875 C 10.203125 201.046875 9.910156 200.753906 9.910156 200.390625 L 9.910156 197.503906 C 9.910156 196.292969 10.835938 194.808594 12.019531 194.125 " fill-opacity="1" fill-rule="nonzero"/><path stroke-linecap="round" transform="matrix(0.0463021, 0, 0, -0.0463271, 3.417667, 262.043275)" fill="none" stroke-linejoin="round" d="M 357.374328 2287.74818 C 357.374328 2287.74818 182.149363 2123.494879 204.08412 1576.011982 " stroke="#ffb757" stroke-width="126.957001" stroke-opacity="1" stroke-miterlimit="10"/><path stroke-linecap="round" transform="matrix(0.0463021, 0, 0, -0.0463271, 3.417667, 262.043275)" fill="none" stroke-linejoin="round" d="M 225.175233 1494.306927 L 228.127989 1484.020016 " stroke="#fca7a7" stroke-width="39.901001" stroke-opacity="1" stroke-miterlimit="10"/><path stroke-linecap="round" transform="matrix(0.0463021, 0, 0, -0.0463271, 3.417667, 262.043275)" fill="none" stroke-linejoin="round" d="M 510.664535 2392.387988 L 510.664535 2261.019075 " stroke="#fca7a7" stroke-width="105.193001" stroke-opacity="1" stroke-miterlimit="10"/><path fill="#fca7a7" d="M 27.132812 141.101562 L 31.269531 141.101562 C 33.128906 141.101562 34.636719 142.609375 34.636719 144.472656 L 34.636719 151.605469 C 34.636719 155.410156 30.410156 157.683594 27.238281 155.589844 L 23.554688 153.109375 C 21.765625 151.679688 21.339844 150.636719 21.339844 148.664062 C 21.339844 142.203125 23.90625 141.101562 27.132812 141.101562 " fill-opacity="1" fill-rule="nonzero"/><path fill="#242884" d="M 30.277344 241.953125 C 31.121094 241.058594 32.109375 240.480469 33.121094 240.003906 C 34.132812 239.53125 35.203125 239.234375 36.273438 238.984375 C 37.347656 238.742188 38.4375 238.566406 39.542969 238.472656 C 40.097656 238.425781 40.65625 238.394531 41.222656 238.402344 C 41.789062 238.402344 42.355469 238.425781 42.957031 238.503906 C 43.960938 238.628906 44.675781 239.546875 44.550781 240.554688 C 44.492188 241.015625 44.273438 241.410156 43.953125 241.695312 L 43.914062 241.730469 C 43.078125 242.480469 42.183594 243.113281 41.292969 243.691406 C 40.398438 244.269531 39.492188 244.792969 38.585938 245.277344 C 37.679688 245.757812 36.777344 246.222656 35.835938 246.558594 C 34.898438 246.894531 33.957031 247.171875 32.90625 247.214844 L 32.675781 247.222656 C 30.953125 247.289062 29.5 245.945312 29.429688 244.21875 C 29.394531 243.351562 29.726562 242.542969 30.277344 241.953125 " fill-opacity="1" fill-rule="nonzero"/><path fill="#242884" d="M 16.421875 234.640625 C 17.292969 233.734375 18.304688 233.140625 19.335938 232.640625 C 20.371094 232.144531 21.460938 231.824219 22.5625 231.542969 C 23.664062 231.265625 24.777344 231.0625 25.914062 230.925781 C 26.484375 230.863281 27.058594 230.808594 27.644531 230.796875 C 28.226562 230.773438 28.808594 230.777344 29.425781 230.832031 C 30.433594 230.917969 31.179688 231.804688 31.097656 232.8125 C 31.054688 233.285156 30.835938 233.703125 30.511719 234.003906 L 30.488281 234.027344 C 29.628906 234.816406 28.707031 235.488281 27.789062 236.105469 C 26.867188 236.71875 25.929688 237.273438 24.984375 237.792969 C 24.042969 238.308594 23.101562 238.804688 22.117188 239.167969 C 21.136719 239.535156 20.144531 239.839844 19.050781 239.902344 L 18.859375 239.914062 C 17.140625 240.015625 15.664062 238.703125 15.5625 236.984375 C 15.511719 236.085938 15.847656 235.246094 16.421875 234.640625 " fill-opacity="1" fill-rule="nonzero"/><path stroke-linecap="round" transform="matrix(0.0463021, 0, 0, -0.0463271, 3.417667, 262.043275)" fill="none" stroke-linejoin="round" d="M 356.783777 1451.219947 C 356.783777 1451.219947 418.116733 1074.820185 335.945757 585.180083 " stroke="#4534dc" stroke-width="126.957001" stroke-opacity="1" stroke-miterlimit="10"/><path fill="#4534dc" d="M 33.941406 190.902344 L 20.019531 182.957031 C 18.582031 182.21875 16.871094 183.261719 16.867188 184.882812 C 16.867188 187.230469 16.867188 191.828125 16.875 193.300781 C 16.886719 195.910156 17.277344 198.089844 19.5 199.605469 C 21.292969 200.820312 29.199219 205.90625 32.222656 205.820312 C 35.246094 205.738281 37.050781 203.527344 37.050781 201.285156 L 37.050781 195.714844 C 37.050781 193.636719 35.835938 191.753906 33.941406 190.902344 " fill-opacity="1" fill-rule="nonzero"/><path fill="#fcc949" d="M 37.050781 195.664062 C 37.050781 195.664062 37.050781 171.011719 37.050781 168.84375 C 37.050781 166.675781 36.707031 161.777344 32.1875 159.164062 C 27.664062 156.550781 25.378906 155.234375 22.621094 153.636719 C 19.859375 152.042969 16.875 152.945312 16.875 157.589844 L 16.792969 185.144531 C 16.792969 187.117188 16.519531 188.84375 18.355469 190.328125 C 21.195312 192.625 25.277344 195.835938 30.082031 196.96875 C 35.992188 198.363281 37.050781 195.664062 37.050781 195.664062 " fill-opacity="1" fill-rule="nonzero"/><path stroke-linecap="round" transform="matrix(0.0463021, 0, 0, -0.0463271, 3.417667, 262.043275)" fill="none" stroke-linejoin="round" d="M 991.879364 1874.416722 C 1012.717384 1908.481575 1032.374301 1946.509418 1048.572275 1987.657062 " stroke="#fca7a7" stroke-width="105.193001" stroke-opacity="1" stroke-miterlimit="10"/><path stroke-linecap="round" transform="matrix(0.0463021, 0, 0, -0.0463271, 3.417667, 262.043275)" fill="none" stroke-linejoin="round" d="M 971.210074 1994.824172 C 971.210074 1994.824172 986.142582 1969.106895 997.700511 1943.389617 " stroke="#fca7a7" stroke-width="39.901001" stroke-opacity="1" stroke-miterlimit="10"/><path stroke-linecap="round" transform="matrix(0.0463021, 0, 0, -0.0463271, 3.417667, 262.043275)" fill="none" stroke-linejoin="round" d="M 660.242707 2057.979061 C 660.242707 2057.979061 774.893996 1568.338959 1007.90861 1907.301109 " stroke="#fcc949" stroke-width="126.957001" stroke-opacity="1" stroke-miterlimit="10"/><path stroke-linecap="round" transform="matrix(0.0463021, 0, 0, -0.0463271, 3.417667, 262.043275)" fill="none" stroke-linejoin="round" d="M 662.94237 1313.358475 C 662.94237 1313.358475 760.889497 957.110941 642.10435 443.692897 " stroke="#4534dc" stroke-width="126.957001" stroke-opacity="1" stroke-miterlimit="10"/><path fill="#191890" d="M 22.886719 152.753906 C 25.863281 154.03125 28.90625 150.21875 29.328125 146.734375 C 29.328125 146.734375 36.171875 145.664062 36.179688 141.535156 C 36.183594 137.542969 34.429688 135.535156 31.054688 135.527344 C 28.914062 135.523438 26.855469 137.753906 26.855469 137.753906 C 22.859375 139.121094 20.34375 141.738281 20.144531 144.410156 C 19.878906 147.9375 20.671875 151.804688 22.886719 152.753906 " fill-opacity="1" fill-rule="nonzero"/><path fill="#fca7a7" d="M 28.925781 148.238281 C 28.195312 147.601562 27.179688 147.777344 26.664062 148.636719 C 26.144531 149.5 26.316406 150.710938 27.050781 151.347656 C 27.78125 151.988281 28.796875 151.808594 29.316406 150.949219 C 29.835938 150.089844 29.660156 148.875 28.925781 148.238281 " fill-opacity="1" fill-rule="nonzero"/><path stroke-linecap="round" transform="matrix(0.0463021, 0, 0, -0.0463271, 3.417667, 262.043275)" fill="none" stroke-linejoin="round" d="M 1466.260673 2632.696976 C 1466.260673 2632.696976 1371.772487 2453.603541 1298.375415 2319.70506 " stroke="#3030d1" stroke-width="126.037003" stroke-opacity="1" stroke-miterlimit="10"/><path stroke-linecap="round" transform="matrix(0.0463021, 0, 0, -0.0463271, 3.417667, 262.043275)" fill="none" stroke-linejoin="round" d="M 1298.375415 2322.150309 C 1231.052583 2240.023658 1167.69488 2191.793223 1065.52953 2127.289232 " stroke="#fca7a7" stroke-width="104.431" stroke-opacity="1" stroke-miterlimit="10"/><path stroke-linecap="round" transform="matrix(0.0463021, 0, 0, -0.0463271, 3.417667, 262.043275)" fill="none" stroke-linejoin="round" d="M 1109.31468 2179.145382 C 1109.31468 2179.145382 1084.680261 2195.418938 1063.082961 2213.125916 " stroke="#fca7a7" stroke-width="39.612" stroke-opacity="1" stroke-miterlimit="10"/><path fill="#375acc" d="M 70.488281 215.089844 C 71.164062 215.089844 71.710938 215.640625 71.710938 216.3125 L 71.710938 220.488281 C 71.710938 221.070312 71.261719 221.578125 70.683594 221.597656 C 70.078125 221.613281 69.585938 221.132812 69.585938 220.53125 L 69.585938 215.089844 L 70.488281 215.089844 " fill-opacity="1" fill-rule="nonzero"/><path fill="#191890" d="M 77.488281 120.644531 C 83.230469 120.976562 85.628906 127.128906 87.28125 132.207031 C 89.324219 138.488281 89.949219 137.859375 94.027344 141.96875 C 99.425781 147.40625 96.828125 157.566406 91.511719 160.007812 C 86.253906 162.421875 82.429688 160.910156 78.441406 156.941406 C 76.683594 155.1875 76.609375 153.5625 77.441406 147.058594 C 78.277344 140.550781 74.773438 138.046875 72.175781 133.125 C 69.574219 128.207031 73.855469 120.433594 77.488281 120.644531 " fill-opacity="1" fill-rule="nonzero"/><path fill="#375acc" d="M 71.699219 215.359375 C 71.667969 216.792969 71.125 218.125 70.402344 219.234375 C 69.671875 220.332031 68.726562 221.210938 67.742188 221.9375 C 66.746094 222.652344 65.691406 223.21875 64.59375 223.644531 C 64.042969 223.851562 63.488281 224.035156 62.910156 224.160156 C 62.621094 224.222656 62.332031 224.289062 62.035156 224.328125 C 61.734375 224.375 61.457031 224.398438 61.101562 224.425781 C 60.140625 224.5 59.296875 223.78125 59.222656 222.820312 C 59.191406 222.421875 59.296875 222.042969 59.5 221.730469 L 59.730469 221.375 C 59.980469 220.988281 60.335938 220.582031 60.636719 220.210938 L 61.554688 219.101562 C 62.15625 218.382812 62.71875 217.695312 63.242188 217.035156 C 63.757812 216.367188 64.183594 215.71875 64.65625 215.164062 C 65.113281 214.59375 65.503906 214.09375 66.140625 213.589844 L 66.914062 212.976562 C 68.191406 211.960938 70.050781 212.175781 71.0625 213.453125 C 71.507812 214.019531 71.714844 214.695312 71.699219 215.359375 " fill-opacity="1" fill-rule="nonzero"/><path stroke-linecap="round" transform="matrix(0.0463021, 0, 0, -0.0463271, 3.417667, 262.043275)" fill="none" stroke-linejoin="round" d="M 1404.252801 1882.932935 L 1404.252801 1033.082309 " stroke="#fca7a7" stroke-width="108.031998" stroke-opacity="1" stroke-miterlimit="10"/><path fill="#375acc" d="M 85.175781 223.648438 L 85.175781 228.015625 C 85.175781 228.597656 84.726562 229.105469 84.144531 229.125 C 83.542969 229.144531 83.050781 228.660156 83.050781 228.058594 L 83.050781 222.617188 L 84.144531 222.617188 C 84.714844 222.617188 85.175781 223.082031 85.175781 223.648438 " fill-opacity="1" fill-rule="nonzero"/><path fill="#375acc" d="M 85.164062 222.886719 C 85.128906 224.320312 84.585938 225.652344 83.871094 226.761719 C 83.136719 227.863281 82.191406 228.742188 81.207031 229.464844 C 80.210938 230.179688 79.15625 230.746094 78.058594 231.171875 C 77.507812 231.382812 76.953125 231.5625 76.375 231.6875 C 76.085938 231.753906 75.800781 231.816406 75.503906 231.855469 C 75.199219 231.902344 74.921875 231.925781 74.566406 231.953125 C 73.601562 232.027344 72.761719 231.3125 72.6875 230.347656 C 72.65625 229.949219 72.761719 229.570312 72.964844 229.261719 L 73.195312 228.902344 C 73.445312 228.515625 73.796875 228.109375 74.101562 227.738281 L 75.019531 226.628906 C 75.621094 225.914062 76.183594 225.222656 76.707031 224.5625 C 77.21875 223.894531 77.648438 223.25 78.121094 222.691406 C 78.574219 222.121094 78.96875 221.621094 79.601562 221.117188 L 80.378906 220.503906 C 81.65625 219.488281 83.511719 219.707031 84.527344 220.984375 C 84.972656 221.546875 85.179688 222.222656 85.164062 222.886719 " fill-opacity="1" fill-rule="nonzero"/><path stroke-linecap="round" transform="matrix(0.0463021, 0, 0, -0.0463271, 3.417667, 262.043275)" fill="none" stroke-linejoin="round" d="M 1678.859089 1715.559833 L 1687.717357 867.479905 " stroke="#fca7a7" stroke-width="108.031998" stroke-opacity="1" stroke-miterlimit="10"/><path fill="#99b6ff" d="M 64.355469 169.035156 C 65.152344 162.914062 67.9375 158.984375 67.9375 158.984375 C 67.9375 158.984375 74.128906 156.847656 76.191406 157.28125 C 78.207031 157.699219 84.585938 161.878906 84.585938 161.878906 C 84.585938 161.878906 87.425781 165.601562 87.28125 174.027344 L 85.761719 198.914062 C 85.761719 198.914062 72.480469 205.863281 64.480469 193.601562 C 64.480469 193.601562 63.050781 179.023438 64.355469 169.035156 " fill-opacity="1" fill-rule="nonzero"/><path fill="#4941e5" d="M 84.585938 161.878906 C 84.585938 161.878906 74.691406 168.160156 67.9375 158.984375 C 67.9375 158.984375 66.367188 153.859375 65.933594 151.085938 C 65.503906 148.3125 67.011719 139.449219 69.523438 137.714844 C 72.035156 135.980469 83.4375 140.03125 84.5625 142.371094 C 85.691406 144.710938 85.863281 151.058594 85.347656 155.230469 C 85.007812 157.996094 84.585938 161.878906 84.585938 161.878906 " fill-opacity="1" fill-rule="nonzero"/><path stroke-linecap="round" transform="matrix(0.0463021, 0, 0, -0.0463271, 3.417667, 262.043275)" fill="none" stroke-linejoin="round" d="M 1583.274166 2767.522966 L 1583.274166 2637.16588 " stroke="#e88289" stroke-width="104.431" stroke-opacity="1" stroke-miterlimit="10"/><path fill="#fca7a7" d="M 76.65625 124.296875 L 72.546875 124.296875 C 70.699219 124.296875 69.203125 125.792969 69.203125 127.640625 L 69.203125 134.722656 C 69.203125 138.496094 73.269531 140.765625 76.550781 138.679688 L 79.210938 136.851562 C 81.25 135.492188 82.402344 133.761719 82.402344 131.804688 C 82.402344 125.386719 79.859375 124.296875 76.65625 124.296875 " fill-opacity="1" fill-rule="nonzero"/><path fill="#fca7a7" d="M 70.117188 134.644531 L 74.246094 135.960938 C 74.246094 135.960938 73.660156 138.269531 71.652344 137.640625 C 69.855469 137.078125 70.117188 134.644531 70.117188 134.644531 " fill-opacity="1" fill-rule="nonzero"/><path fill="#191890" d="M 82.402344 133.386719 C 82.402344 133.386719 77.519531 132.527344 75.054688 126.65625 C 75.054688 126.65625 72.527344 128.867188 69.222656 128.921875 C 69.222656 128.921875 68.167969 126.625 68.808594 124.542969 C 69.652344 121.789062 72.652344 120.007812 77.488281 120.644531 C 85.332031 121.675781 84.3125 134.132812 84.3125 134.132812 L 82.402344 133.386719 " fill-opacity="1" fill-rule="nonzero"/><path fill="#fca7a7" d="M 80.539062 130.339844 C 79.8125 129.707031 78.804688 129.886719 78.289062 130.738281 C 77.773438 131.589844 77.945312 132.796875 78.671875 133.429688 C 79.402344 134.0625 80.410156 133.882812 80.921875 133.03125 C 81.4375 132.179688 81.265625 130.972656 80.539062 130.339844 " fill-opacity="1" fill-rule="nonzero"/><path fill="#e6edfc" d="M 77.855469 172.859375 L 91.960938 164.753906 C 92.09375 164.675781 92.449219 164.863281 92.582031 164.9375 L 93.910156 165.660156 L 93.464844 169.144531 L 92.261719 178.429688 L 81.191406 186.675781 L 79.800781 187.410156 C 79.644531 187.46875 79.070312 187.472656 78.179688 187.097656 C 77.671875 186.878906 77.234375 186.632812 77.234375 185.875 L 77.234375 173.933594 C 77.234375 173.492188 77.46875 173.082031 77.855469 172.859375 " fill-opacity="1" fill-rule="nonzero"/><path fill="#2747aa" d="M 79.328125 173.898438 L 93.675781 165.652344 C 93.828125 165.566406 94.019531 165.675781 94.019531 165.851562 L 94.019531 178.75 C 94.019531 179.09375 93.832031 179.410156 93.535156 179.582031 L 80.085938 187.3125 C 79.597656 187.59375 78.988281 187.238281 78.988281 186.675781 L 78.988281 174.488281 C 78.988281 174.246094 79.117188 174.019531 79.328125 173.898438 " fill-opacity="1" fill-rule="nonzero"/><path stroke-linecap="round" transform="matrix(0.0463021, 0, 0, -0.0463271, 3.417667, 262.043275)" fill="none" stroke-linejoin="round" d="M 1856.108801 2191.793223 C 1856.108801 2191.793223 1876.778092 1981.839055 1798.487881 1792.037114 " stroke="#fca7a7" stroke-width="104.431" stroke-opacity="1" stroke-miterlimit="10"/><path stroke-linecap="round" transform="matrix(0.0463021, 0, 0, -0.0463271, 3.417667, 262.043275)" fill="none" stroke-linejoin="round" d="M 1785.58012 1854.180175 C 1785.58012 1854.180175 1758.752225 1841.86961 1732.346151 1832.847483 " stroke="#fca7a7" stroke-width="39.612" stroke-opacity="1" stroke-miterlimit="10"/><path stroke-linecap="round" transform="matrix(0.0463021, 0, 0, -0.0463271, 3.417667, 262.043275)" fill="none" stroke-linejoin="round" d="M 1707.543003 2542.644345 C 1707.543003 2542.644345 1856.108801 2360.009514 1856.108801 2167.003454 " stroke="#4941e5" stroke-width="126.037003" stroke-opacity="1" stroke-miterlimit="10"/><path fill="#e6edfc" d="M 41.332031 101.894531 L 48.835938 152.410156 L 53.863281 101.894531 Z M 41.332031 101.894531 " fill-opacity="1" fill-rule="nonzero"/><path fill="#e6edfc" d="M 78.6875 74.734375 C 78.6875 92.839844 64.085938 107.519531 46.074219 107.519531 C 28.058594 107.519531 13.457031 92.839844 13.457031 74.734375 C 13.457031 56.628906 28.058594 41.953125 46.074219 41.953125 C 64.085938 41.953125 78.6875 56.628906 78.6875 74.734375 " fill-opacity="1" fill-rule="nonzero"/><path stroke-linecap="round" transform="matrix(0.0463021, 0, 0, -0.0463271, 3.417667, 262.043275)" fill="none" stroke-linejoin="round" d="M 609.286579 4018.731761 L 874.359684 3743.852007 L 1248.178567 4249.765665 " stroke="#a2caf2" stroke-width="73.622002" stroke-opacity="1" stroke-miterlimit="10"/></svg>