<svg xmlns="http://www.w3.org/2000/svg" xmlns:xlink="http://www.w3.org/1999/xlink" width="50" zoomAndPan="magnify" viewBox="0 0 37.5 37.499999" height="50" preserveAspectRatio="xMidYMid meet" version="1.0"><defs><clipPath id="id1"><path d="M 1.710938 1.710938 L 35.460938 1.710938 L 35.460938 35.460938 L 1.710938 35.460938 Z M 1.710938 1.710938 " clip-rule="nonzero"/></clipPath><clipPath id="id2"><path d="M 12 4.5 L 25 4.5 L 25 25 L 12 25 Z M 12 4.5 " clip-rule="nonzero"/></clipPath><clipPath id="id3"><path d="M 6.011719 21 L 18 21 L 18 30 L 6.011719 30 Z M 6.011719 21 " clip-rule="nonzero"/></clipPath><clipPath id="id4"><path d="M 19 21 L 31.511719 21 L 31.511719 30 L 19 30 Z M 19 21 " clip-rule="nonzero"/></clipPath><clipPath id="id5"><path d="M 6.011719 20 L 7 20 L 7 22 L 6.011719 22 Z M 6.011719 20 " clip-rule="nonzero"/></clipPath><clipPath id="id6"><path d="M 30 19 L 31.511719 19 L 31.511719 21 L 30 21 Z M 30 19 " clip-rule="nonzero"/></clipPath></defs><g clip-path="url(#id1)"><path fill="#560216" d="M 35.460938 18.585938 C 35.460938 19.140625 35.433594 19.691406 35.378906 20.242188 C 35.324219 20.789062 35.246094 21.335938 35.136719 21.878906 C 35.027344 22.421875 34.894531 22.957031 34.734375 23.484375 C 34.574219 24.015625 34.386719 24.535156 34.175781 25.042969 C 33.964844 25.554688 33.730469 26.054688 33.46875 26.542969 C 33.207031 27.027344 32.925781 27.5 32.617188 27.960938 C 32.308594 28.421875 31.980469 28.863281 31.628906 29.292969 C 31.28125 29.71875 30.910156 30.128906 30.519531 30.519531 C 30.128906 30.910156 29.71875 31.28125 29.292969 31.628906 C 28.863281 31.980469 28.421875 32.308594 27.960938 32.617188 C 27.5 32.925781 27.027344 33.207031 26.542969 33.46875 C 26.054688 33.730469 25.554688 33.964844 25.042969 34.175781 C 24.535156 34.386719 24.011719 34.574219 23.484375 34.734375 C 22.957031 34.894531 22.421875 35.027344 21.878906 35.136719 C 21.335938 35.246094 20.789062 35.324219 20.242188 35.378906 C 19.691406 35.433594 19.140625 35.460938 18.585938 35.460938 C 18.035156 35.460938 17.480469 35.433594 16.933594 35.378906 C 16.382812 35.324219 15.835938 35.246094 15.292969 35.136719 C 14.753906 35.027344 14.214844 34.894531 13.6875 34.734375 C 13.160156 34.574219 12.640625 34.386719 12.128906 34.175781 C 11.617188 33.964844 11.117188 33.730469 10.632812 33.46875 C 10.144531 33.207031 9.671875 32.925781 9.210938 32.617188 C 8.75 32.308594 8.308594 31.980469 7.878906 31.628906 C 7.453125 31.28125 7.042969 30.910156 6.652344 30.519531 C 6.261719 30.128906 5.890625 29.71875 5.542969 29.292969 C 5.191406 28.863281 4.863281 28.421875 4.554688 27.960938 C 4.25 27.5 3.964844 27.027344 3.703125 26.542969 C 3.441406 26.054688 3.207031 25.554688 2.996094 25.042969 C 2.785156 24.535156 2.597656 24.011719 2.4375 23.484375 C 2.277344 22.957031 2.144531 22.421875 2.035156 21.878906 C 1.925781 21.335938 1.847656 20.789062 1.792969 20.242188 C 1.738281 19.691406 1.710938 19.140625 1.710938 18.585938 C 1.710938 18.035156 1.738281 17.480469 1.792969 16.933594 C 1.847656 16.382812 1.925781 15.835938 2.035156 15.292969 C 2.144531 14.753906 2.277344 14.214844 2.4375 13.6875 C 2.597656 13.160156 2.785156 12.640625 2.996094 12.128906 C 3.207031 11.617188 3.441406 11.117188 3.703125 10.632812 C 3.964844 10.144531 4.25 9.671875 4.554688 9.210938 C 4.863281 8.75 5.191406 8.308594 5.542969 7.878906 C 5.890625 7.453125 6.261719 7.042969 6.652344 6.652344 C 7.042969 6.261719 7.453125 5.890625 7.878906 5.542969 C 8.308594 5.191406 8.75 4.863281 9.210938 4.554688 C 9.671875 4.25 10.144531 3.964844 10.632812 3.703125 C 11.117188 3.441406 11.617188 3.207031 12.128906 2.996094 C 12.640625 2.785156 13.160156 2.597656 13.6875 2.4375 C 14.214844 2.277344 14.753906 2.144531 15.292969 2.035156 C 15.835938 1.925781 16.382812 1.847656 16.933594 1.792969 C 17.480469 1.738281 18.035156 1.710938 18.585938 1.710938 C 19.140625 1.710938 19.691406 1.738281 20.242188 1.792969 C 20.789062 1.847656 21.335938 1.925781 21.878906 2.035156 C 22.421875 2.144531 22.957031 2.277344 23.484375 2.4375 C 24.011719 2.597656 24.535156 2.785156 25.042969 2.996094 C 25.554688 3.207031 26.054688 3.441406 26.542969 3.703125 C 27.027344 3.964844 27.5 4.25 27.960938 4.554688 C 28.421875 4.863281 28.863281 5.191406 29.292969 5.542969 C 29.71875 5.890625 30.128906 6.261719 30.519531 6.652344 C 30.910156 7.042969 31.28125 7.453125 31.628906 7.878906 C 31.980469 8.308594 32.308594 8.75 32.617188 9.210938 C 32.925781 9.671875 33.207031 10.144531 33.46875 10.632812 C 33.730469 11.117188 33.964844 11.617188 34.175781 12.128906 C 34.386719 12.640625 34.574219 13.160156 34.734375 13.6875 C 34.894531 14.214844 35.027344 14.753906 35.136719 15.292969 C 35.246094 15.835938 35.324219 16.382812 35.378906 16.933594 C 35.433594 17.480469 35.460938 18.035156 35.460938 18.585938 Z M 35.460938 18.585938 " fill-opacity="1" fill-rule="nonzero"/></g><path fill="#ffffff" d="M 18.761719 11.332031 C 19.695312 11.332031 20.457031 12.09375 20.457031 13.027344 C 20.457031 13.964844 19.695312 14.726562 18.761719 14.726562 C 17.824219 14.726562 17.0625 13.964844 17.0625 13.027344 C 17.0625 12.09375 17.824219 11.332031 18.761719 11.332031 Z M 18.761719 15.574219 C 20.164062 15.574219 21.304688 14.433594 21.304688 13.027344 C 21.304688 11.625 20.164062 10.484375 18.761719 10.484375 C 17.355469 10.484375 16.214844 11.625 16.214844 13.027344 C 16.214844 14.433594 17.355469 15.574219 18.761719 15.574219 " fill-opacity="1" fill-rule="nonzero"/><g clip-path="url(#id2)"><path fill="#ffffff" d="M 13.492188 20.144531 C 13.585938 18.996094 14.105469 17.9375 14.933594 17.171875 L 16.054688 20.664062 L 15.675781 20.664062 C 15.046875 20.664062 14.503906 21.132812 14.417969 21.757812 L 14.234375 23.046875 C 13.671875 22.195312 13.40625 21.175781 13.492188 20.144531 Z M 15.824219 9.210938 L 21.695312 9.210938 C 22.628906 11.308594 22.804688 13.722656 22.0625 16.03125 L 21.96875 16.320312 L 20.570312 20.664062 L 16.949219 20.664062 L 15.550781 16.320312 L 15.457031 16.03125 C 14.714844 13.722656 14.890625 11.308594 15.824219 9.210938 Z M 18.761719 5.492188 C 19.804688 6.289062 20.644531 7.269531 21.265625 8.359375 L 16.253906 8.359375 C 16.875 7.269531 17.714844 6.289062 18.761719 5.492188 Z M 24.027344 20.144531 C 24.113281 21.175781 23.847656 22.195312 23.285156 23.046875 L 23.101562 21.757812 C 23.015625 21.132812 22.472656 20.664062 21.84375 20.664062 L 21.464844 20.664062 L 22.585938 17.171875 C 23.414062 17.9375 23.933594 18.996094 24.027344 20.144531 Z M 19.941406 22.785156 L 17.578125 22.785156 L 17.835938 21.515625 L 19.683594 21.515625 Z M 14.515625 24.484375 C 14.5625 24.484375 14.605469 24.476562 14.652344 24.460938 C 14.804688 24.410156 14.914062 24.277344 14.9375 24.121094 L 15.257812 21.878906 C 15.289062 21.671875 15.464844 21.515625 15.675781 21.515625 L 16.96875 21.515625 L 16.648438 23.128906 C 16.621094 23.253906 16.652344 23.382812 16.734375 23.480469 C 16.816406 23.578125 16.933594 23.636719 17.0625 23.636719 L 20.457031 23.636719 C 20.585938 23.636719 20.703125 23.578125 20.785156 23.480469 C 20.867188 23.382812 20.898438 23.253906 20.871094 23.128906 L 20.550781 21.515625 L 21.84375 21.515625 C 22.054688 21.515625 22.230469 21.671875 22.261719 21.878906 L 22.582031 24.121094 C 22.605469 24.277344 22.714844 24.410156 22.867188 24.460938 C 22.914062 24.476562 22.957031 24.484375 23.003906 24.484375 C 23.113281 24.484375 23.222656 24.441406 23.304688 24.359375 C 24.433594 23.226562 25.007812 21.667969 24.875 20.074219 C 24.746094 18.582031 24.019531 17.226562 22.867188 16.300781 L 22.871094 16.289062 C 24.261719 11.957031 22.710938 7.265625 19.007812 4.621094 C 18.859375 4.515625 18.660156 4.515625 18.511719 4.621094 C 14.808594 7.265625 13.257812 11.957031 14.648438 16.289062 L 14.652344 16.300781 C 13.5 17.226562 12.773438 18.582031 12.644531 20.074219 C 12.511719 21.667969 13.085938 23.226562 14.21875 24.359375 C 14.296875 24.441406 14.40625 24.484375 14.515625 24.484375 " fill-opacity="1" fill-rule="nonzero"/></g><g clip-path="url(#id3)"><path fill="#ffffff" d="M 9.425781 30 L 10.273438 30 C 10.273438 29.023438 9.9375 28.125 9.378906 27.40625 C 9.632812 26.988281 9.996094 26.652344 10.4375 26.4375 C 10.441406 26.433594 10.445312 26.433594 10.453125 26.433594 C 10.800781 26.265625 11.167969 26.179688 11.546875 26.179688 C 12.367188 26.179688 13.140625 26.589844 13.617188 27.253906 C 13.382812 27.691406 13.242188 28.210938 13.242188 28.726562 L 14.09375 28.726562 C 14.09375 28.292969 14.226562 27.832031 14.445312 27.5 C 14.449219 27.492188 14.457031 27.484375 14.464844 27.476562 C 14.859375 26.898438 15.515625 26.550781 16.214844 26.550781 C 16.507812 26.550781 16.796875 26.617188 17.0625 26.730469 L 17.0625 27.84375 L 17.910156 27.84375 L 17.910156 24.449219 L 17.0625 24.449219 L 17.0625 25.832031 C 16.789062 25.75 16.503906 25.703125 16.214844 25.703125 C 15.433594 25.703125 14.691406 26.011719 14.144531 26.546875 C 13.503906 25.785156 12.554688 25.332031 11.546875 25.332031 C 11.234375 25.332031 10.929688 25.375 10.632812 25.457031 C 10.292969 23.441406 8.558594 21.9375 6.457031 21.9375 L 6.03125 21.9375 L 6.03125 22.785156 L 6.457031 22.785156 C 8.207031 22.785156 9.640625 24.101562 9.824219 25.816406 C 9.414062 26.0625 9.050781 26.378906 8.773438 26.769531 C 8.03125 26.140625 7.078125 25.757812 6.03125 25.757812 L 6.03125 26.605469 C 7.902344 26.605469 9.425781 28.128906 9.425781 30 " fill-opacity="1" fill-rule="nonzero"/></g><g clip-path="url(#id4)"><path fill="#ffffff" d="M 26.886719 25.457031 C 26.589844 25.375 26.285156 25.332031 25.972656 25.332031 C 24.964844 25.332031 24.015625 25.785156 23.375 26.546875 C 22.828125 26.011719 22.085938 25.703125 21.304688 25.703125 C 21.015625 25.703125 20.730469 25.75 20.457031 25.832031 L 20.457031 24.449219 L 19.609375 24.449219 L 19.609375 27.84375 L 20.457031 27.84375 L 20.457031 26.730469 C 20.722656 26.617188 21.011719 26.550781 21.304688 26.550781 C 22.003906 26.550781 22.660156 26.898438 23.054688 27.476562 C 23.0625 27.484375 23.070312 27.492188 23.074219 27.5 C 23.292969 27.832031 23.425781 28.292969 23.425781 28.726562 L 24.277344 28.726562 C 24.277344 28.210938 24.136719 27.691406 23.90625 27.253906 C 24.378906 26.589844 25.152344 26.179688 25.972656 26.179688 C 26.351562 26.179688 26.71875 26.265625 27.066406 26.433594 C 27.074219 26.433594 27.078125 26.433594 27.082031 26.4375 C 27.523438 26.652344 27.886719 26.988281 28.140625 27.40625 C 27.582031 28.125 27.246094 29.023438 27.246094 30 L 28.09375 30 C 28.09375 28.128906 29.617188 26.605469 31.488281 26.605469 L 31.488281 25.757812 C 30.441406 25.757812 29.488281 26.140625 28.746094 26.769531 C 28.46875 26.378906 28.109375 26.0625 27.695312 25.816406 C 27.878906 24.101562 29.3125 22.785156 31.0625 22.785156 L 31.488281 22.785156 L 31.488281 21.9375 L 31.0625 21.9375 C 28.960938 21.9375 27.226562 23.441406 26.886719 25.457031 " fill-opacity="1" fill-rule="nonzero"/></g><path fill="#ffffff" d="M 16.636719 17.695312 L 17.488281 17.695312 L 17.488281 16.847656 L 16.636719 16.847656 L 16.636719 17.695312 " fill-opacity="1" fill-rule="nonzero"/><path fill="#ffffff" d="M 18.335938 17.695312 L 19.183594 17.695312 L 19.183594 16.847656 L 18.335938 16.847656 L 18.335938 17.695312 " fill-opacity="1" fill-rule="nonzero"/><path fill="#ffffff" d="M 20.03125 17.695312 L 20.882812 17.695312 L 20.882812 16.847656 L 20.03125 16.847656 L 20.03125 17.695312 " fill-opacity="1" fill-rule="nonzero"/><path fill="#ffffff" d="M 11.546875 27.878906 L 11.546875 27.03125 L 10.699219 27.03125 L 10.699219 27.878906 L 11.546875 27.878906 " fill-opacity="1" fill-rule="nonzero"/><g clip-path="url(#id5)"><path fill="#ffffff" d="M 6.878906 20.242188 L 6.03125 20.242188 L 6.03125 21.089844 L 6.878906 21.089844 L 6.878906 20.242188 " fill-opacity="1" fill-rule="nonzero"/></g><path fill="#ffffff" d="M 30.640625 24.910156 L 30.640625 24.058594 L 29.792969 24.058594 L 29.792969 24.910156 L 30.640625 24.910156 " fill-opacity="1" fill-rule="nonzero"/><path fill="#ffffff" d="M 27.246094 22.363281 L 26.398438 22.363281 L 26.398438 23.210938 L 27.246094 23.210938 L 27.246094 22.363281 " fill-opacity="1" fill-rule="nonzero"/><path fill="#ffffff" d="M 21.730469 29.152344 L 21.730469 30 L 22.578125 30 L 22.578125 29.152344 L 21.730469 29.152344 " fill-opacity="1" fill-rule="nonzero"/><g clip-path="url(#id6)"><path fill="#ffffff" d="M 30.640625 20.242188 L 31.488281 20.242188 L 31.488281 19.394531 L 30.640625 19.394531 L 30.640625 20.242188 " fill-opacity="1" fill-rule="nonzero"/></g></svg>