<svg xmlns="http://www.w3.org/2000/svg" xmlns:xlink="http://www.w3.org/1999/xlink" width="50" zoomAndPan="magnify" viewBox="0 0 37.5 37.499999" height="50" preserveAspectRatio="xMidYMid meet" version="1.0"><defs><clipPath id="id1"><path d="M 1.710938 1.710938 L 35.460938 1.710938 L 35.460938 35.460938 L 1.710938 35.460938 Z M 1.710938 1.710938 " clip-rule="nonzero"/></clipPath><clipPath id="id2"><path d="M 7.523438 10 L 30 10 L 30 30.675781 L 7.523438 30.675781 Z M 7.523438 10 " clip-rule="nonzero"/></clipPath><clipPath id="id3"><path d="M 25 6.675781 L 30 6.675781 L 30 11 L 25 11 Z M 25 6.675781 " clip-rule="nonzero"/></clipPath></defs><g clip-path="url(#id1)"><path fill="#560216" d="M 35.460938 18.585938 C 35.460938 19.140625 35.433594 19.691406 35.378906 20.242188 C 35.324219 20.789062 35.246094 21.335938 35.136719 21.878906 C 35.027344 22.421875 34.894531 22.957031 34.734375 23.484375 C 34.574219 24.011719 34.386719 24.535156 34.175781 25.042969 C 33.964844 25.554688 33.730469 26.054688 33.46875 26.542969 C 33.207031 27.027344 32.925781 27.5 32.617188 27.960938 C 32.308594 28.421875 31.980469 28.863281 31.628906 29.292969 C 31.28125 29.71875 30.910156 30.128906 30.519531 30.519531 C 30.128906 30.910156 29.71875 31.28125 29.292969 31.628906 C 28.863281 31.980469 28.421875 32.308594 27.960938 32.617188 C 27.5 32.925781 27.027344 33.207031 26.542969 33.46875 C 26.054688 33.730469 25.554688 33.964844 25.042969 34.175781 C 24.535156 34.386719 24.011719 34.574219 23.484375 34.734375 C 22.957031 34.894531 22.421875 35.027344 21.878906 35.136719 C 21.335938 35.246094 20.789062 35.324219 20.242188 35.378906 C 19.691406 35.433594 19.140625 35.460938 18.585938 35.460938 C 18.035156 35.460938 17.480469 35.433594 16.933594 35.378906 C 16.382812 35.324219 15.835938 35.246094 15.292969 35.136719 C 14.753906 35.027344 14.214844 34.894531 13.6875 34.734375 C 13.160156 34.574219 12.640625 34.386719 12.128906 34.175781 C 11.617188 33.964844 11.117188 33.730469 10.632812 33.46875 C 10.144531 33.207031 9.671875 32.925781 9.210938 32.617188 C 8.75 32.308594 8.308594 31.980469 7.878906 31.628906 C 7.453125 31.28125 7.042969 30.910156 6.652344 30.519531 C 6.261719 30.128906 5.890625 29.71875 5.542969 29.292969 C 5.191406 28.863281 4.863281 28.421875 4.554688 27.960938 C 4.25 27.5 3.964844 27.027344 3.703125 26.542969 C 3.441406 26.054688 3.207031 25.554688 2.996094 25.042969 C 2.785156 24.535156 2.597656 24.011719 2.4375 23.484375 C 2.277344 22.957031 2.144531 22.421875 2.035156 21.878906 C 1.925781 21.335938 1.847656 20.789062 1.792969 20.242188 C 1.738281 19.691406 1.710938 19.140625 1.710938 18.585938 C 1.710938 18.035156 1.738281 17.480469 1.792969 16.933594 C 1.847656 16.382812 1.925781 15.835938 2.035156 15.292969 C 2.144531 14.753906 2.277344 14.214844 2.4375 13.6875 C 2.597656 13.160156 2.785156 12.640625 2.996094 12.128906 C 3.207031 11.617188 3.441406 11.117188 3.703125 10.632812 C 3.964844 10.144531 4.25 9.671875 4.554688 9.210938 C 4.863281 8.75 5.191406 8.308594 5.542969 7.878906 C 5.890625 7.453125 6.261719 7.042969 6.652344 6.652344 C 7.042969 6.261719 7.453125 5.890625 7.878906 5.542969 C 8.308594 5.191406 8.75 4.863281 9.210938 4.554688 C 9.671875 4.25 10.144531 3.964844 10.632812 3.703125 C 11.117188 3.441406 11.617188 3.207031 12.128906 2.996094 C 12.640625 2.785156 13.160156 2.597656 13.6875 2.4375 C 14.214844 2.277344 14.753906 2.144531 15.292969 2.035156 C 15.835938 1.925781 16.382812 1.847656 16.933594 1.792969 C 17.480469 1.738281 18.035156 1.710938 18.585938 1.710938 C 19.140625 1.710938 19.691406 1.738281 20.242188 1.792969 C 20.789062 1.847656 21.335938 1.925781 21.878906 2.035156 C 22.421875 2.144531 22.957031 2.277344 23.484375 2.4375 C 24.011719 2.597656 24.535156 2.785156 25.042969 2.996094 C 25.554688 3.207031 26.054688 3.441406 26.542969 3.703125 C 27.027344 3.964844 27.5 4.25 27.960938 4.554688 C 28.421875 4.863281 28.863281 5.191406 29.292969 5.542969 C 29.71875 5.890625 30.128906 6.261719 30.519531 6.652344 C 30.910156 7.042969 31.28125 7.453125 31.628906 7.878906 C 31.980469 8.308594 32.308594 8.75 32.617188 9.210938 C 32.925781 9.671875 33.207031 10.144531 33.46875 10.632812 C 33.730469 11.117188 33.964844 11.617188 34.175781 12.128906 C 34.386719 12.640625 34.574219 13.160156 34.734375 13.6875 C 34.894531 14.214844 35.027344 14.753906 35.136719 15.292969 C 35.246094 15.835938 35.324219 16.382812 35.378906 16.933594 C 35.433594 17.480469 35.460938 18.035156 35.460938 18.585938 Z M 35.460938 18.585938 " fill-opacity="1" fill-rule="nonzero"/></g><g clip-path="url(#id2)"><path fill="#ffffff" d="M 28.878906 14.644531 L 27.738281 14.644531 C 27.53125 14.644531 27.363281 14.8125 27.363281 15.015625 C 27.363281 15.21875 27.53125 15.386719 27.738281 15.386719 L 28.878906 15.386719 L 28.878906 25.050781 L 28.128906 25.050781 L 28.128906 20.890625 C 28.128906 20.683594 27.960938 20.515625 27.753906 20.515625 C 27.550781 20.515625 27.382812 20.683594 27.382812 20.890625 L 27.382812 25.050781 L 17.882812 25.050781 C 17.976562 24.921875 18.050781 24.773438 18.105469 24.625 C 18.199219 24.289062 18.164062 23.957031 17.996094 23.660156 L 15.992188 20.144531 C 17.132812 19.457031 18.652344 18.824219 21.609375 18.824219 C 21.871094 18.957031 22.191406 19.050781 22.492188 18.9375 C 22.734375 18.84375 22.921875 18.601562 22.976562 18.34375 C 23.183594 17.507812 22.585938 15.777344 21.460938 13.9375 C 20.242188 11.96875 18.480469 10.089844 17.507812 10.648438 C 17.375 10.722656 17.207031 10.871094 17.132812 11.1875 C 17.09375 11.316406 17.09375 11.445312 17.09375 11.613281 C 15.183594 14.382812 13.574219 15.425781 12.132812 16.335938 C 12.09375 16.355469 11.363281 16.820312 11.121094 16.984375 C 9.996094 17.765625 9.976562 19.328125 10.59375 20.367188 C 11.027344 21.09375 12.09375 21.613281 12.972656 21.613281 C 13.199219 21.613281 13.40625 21.578125 13.574219 21.519531 C 13.628906 21.503906 13.6875 21.484375 13.742188 21.445312 C 13.742188 21.445312 15.804688 24.976562 15.839844 25.035156 L 9.769531 25.035156 L 9.769531 20.890625 C 9.769531 20.683594 9.601562 20.515625 9.394531 20.515625 C 9.191406 20.515625 9.019531 20.683594 9.019531 20.890625 L 9.019531 25.050781 L 8.273438 25.050781 L 8.273438 15.386719 L 9.378906 15.386719 C 9.582031 15.386719 9.75 15.21875 9.75 15.015625 C 9.75 14.8125 9.582031 14.644531 9.378906 14.644531 L 8.273438 14.644531 C 7.859375 14.644531 7.523438 14.980469 7.523438 15.386719 L 7.523438 28.027344 C 7.523438 28.433594 7.859375 28.769531 8.273438 28.769531 L 16.515625 28.769531 L 16.515625 29.886719 L 14.734375 29.886719 C 14.527344 29.886719 14.359375 30.050781 14.359375 30.257812 C 14.359375 30.460938 14.527344 30.628906 14.734375 30.628906 L 22.417969 30.628906 C 22.621094 30.628906 22.789062 30.460938 22.789062 30.257812 C 22.789062 30.050781 22.621094 29.886719 22.417969 29.886719 L 20.636719 29.886719 L 20.636719 28.769531 L 28.878906 28.769531 C 29.292969 28.769531 29.628906 28.433594 29.628906 28.027344 L 29.628906 15.386719 C 29.628906 14.980469 29.292969 14.644531 28.878906 14.644531 Z M 17.882812 11.296875 C 17.902344 11.296875 17.902344 11.296875 17.921875 11.296875 C 18.238281 11.296875 19.4375 12.136719 20.804688 14.347656 C 22.230469 16.632812 22.378906 18.082031 22.210938 18.25 C 22.042969 18.304688 21.421875 17.953125 20.582031 16.984375 C 21.03125 15.90625 20.75 14.679688 19.851562 13.902344 C 19.398438 13.511719 18.839844 13.289062 18.257812 13.230469 C 17.789062 12.097656 17.769531 11.410156 17.882812 11.296875 Z M 20 16.28125 C 19.773438 15.964844 19.53125 15.609375 19.269531 15.21875 C 19.007812 14.8125 18.800781 14.421875 18.613281 14.066406 C 18.875 14.140625 19.117188 14.289062 19.34375 14.457031 C 19.886719 14.921875 20.128906 15.609375 20 16.28125 Z M 17.265625 12.65625 C 17.507812 13.492188 17.976562 14.53125 18.652344 15.59375 C 19.230469 16.539062 19.941406 17.46875 20.636719 18.101562 C 20.148438 18.121094 19.71875 18.175781 19.304688 18.230469 C 18.761719 17.671875 18.199219 16.929688 17.695312 16.113281 C 17.152344 15.238281 16.738281 14.367188 16.496094 13.621094 C 16.738281 13.34375 17.003906 13.007812 17.265625 12.65625 Z M 15.933594 14.273438 C 16.195312 14.960938 16.589844 15.742188 17.058594 16.503906 C 17.488281 17.210938 17.957031 17.859375 18.425781 18.398438 C 16.722656 18.769531 15.710938 19.421875 14.847656 19.996094 C 14.734375 20.070312 14.621094 20.144531 14.511719 20.203125 L 12.65625 16.875 C 13.648438 16.242188 14.734375 15.535156 15.933594 14.273438 Z M 13.3125 20.832031 C 12.730469 21.054688 11.585938 20.589844 11.230469 19.996094 C 10.800781 19.253906 10.78125 18.121094 11.550781 17.597656 C 11.699219 17.488281 11.851562 17.394531 12.019531 17.285156 L 13.875 20.574219 C 13.703125 20.667969 13.515625 20.757812 13.3125 20.832031 Z M 14.417969 21.128906 C 14.699219 20.964844 14.980469 20.796875 15.257812 20.609375 C 15.296875 20.589844 15.316406 20.574219 15.351562 20.554688 C 15.351562 20.554688 17.339844 24.03125 17.339844 24.03125 C 17.488281 24.273438 17.375 24.605469 17.132812 24.738281 C 16.871094 24.886719 16.535156 24.792969 16.382812 24.53125 Z M 19.886719 29.886719 L 17.265625 29.886719 L 17.265625 28.769531 L 19.886719 28.769531 Z M 28.878906 28.027344 L 8.273438 28.027344 L 8.273438 25.796875 L 28.878906 25.796875 Z M 28.878906 28.027344 " fill-opacity="1" fill-rule="nonzero"/></g><path fill="#ffffff" d="M 27.007812 27.28125 L 27.753906 27.28125 C 27.960938 27.28125 28.128906 27.117188 28.128906 26.910156 C 28.128906 26.707031 27.960938 26.539062 27.753906 26.539062 L 27.007812 26.539062 C 26.800781 26.539062 26.632812 26.707031 26.632812 26.910156 C 26.632812 27.117188 26.800781 27.28125 27.007812 27.28125 Z M 27.007812 27.28125 " fill-opacity="1" fill-rule="nonzero"/><path fill="#ffffff" d="M 23.445312 15.183594 L 25.5625 16.207031 C 25.621094 16.222656 25.675781 16.242188 25.730469 16.242188 C 25.769531 16.242188 25.824219 16.242188 25.863281 16.222656 C 25.957031 16.1875 26.03125 16.113281 26.070312 16.039062 L 27.082031 13.863281 C 27.210938 13.585938 27.210938 13.269531 27.117188 12.972656 C 27.007812 12.675781 26.800781 12.433594 26.519531 12.300781 C 26.238281 12.171875 25.917969 12.152344 25.621094 12.246094 C 25.320312 12.339844 25.078125 12.5625 24.945312 12.859375 L 24.796875 13.195312 L 24.476562 13.046875 C 24.175781 12.914062 23.859375 12.898438 23.558594 12.988281 C 23.257812 13.101562 23.035156 13.304688 22.882812 13.601562 C 22.605469 14.179688 22.867188 14.886719 23.445312 15.183594 Z M 23.558594 13.902344 C 23.617188 13.789062 23.707031 13.695312 23.800781 13.660156 C 23.839844 13.640625 23.894531 13.640625 23.933594 13.640625 C 24.007812 13.640625 24.066406 13.660156 24.140625 13.675781 L 24.796875 13.992188 C 24.890625 14.03125 24.984375 14.050781 25.078125 14.011719 C 25.171875 13.976562 25.246094 13.902344 25.28125 13.828125 L 25.601562 13.15625 C 25.65625 13.046875 25.730469 12.972656 25.84375 12.933594 C 25.957031 12.898438 26.070312 12.898438 26.164062 12.953125 C 26.277344 13.007812 26.351562 13.101562 26.386719 13.214844 C 26.425781 13.324219 26.425781 13.453125 26.371094 13.546875 L 25.507812 15.367188 L 23.726562 14.515625 C 23.558594 14.402344 23.464844 14.125 23.558594 13.902344 Z M 23.558594 13.902344 " fill-opacity="1" fill-rule="nonzero"/><g clip-path="url(#id3)"><path fill="#ffffff" d="M 29.609375 7.46875 C 29.441406 6.988281 28.917969 6.726562 28.429688 6.894531 L 25.769531 7.75 C 25.527344 7.824219 25.339844 7.988281 25.226562 8.214844 C 25.113281 8.4375 25.09375 8.679688 25.171875 8.917969 L 25.527344 9.960938 C 25.65625 10.351562 26.011719 10.59375 26.40625 10.59375 C 26.5 10.59375 26.59375 10.574219 26.6875 10.554688 L 29.347656 9.699219 C 29.589844 9.625 29.777344 9.457031 29.890625 9.234375 C 30.003906 9.011719 30.023438 8.769531 29.949219 8.527344 Z M 29.234375 8.863281 C 29.21875 8.902344 29.179688 8.9375 29.125 8.957031 L 26.480469 9.8125 C 26.386719 9.847656 26.277344 9.792969 26.238281 9.699219 L 25.882812 8.660156 C 25.863281 8.601562 25.882812 8.566406 25.902344 8.527344 C 25.917969 8.492188 25.957031 8.453125 26.011719 8.4375 L 28.65625 7.582031 C 28.671875 7.582031 28.691406 7.582031 28.710938 7.582031 C 28.785156 7.582031 28.859375 7.636719 28.878906 7.710938 L 29.234375 8.753906 C 29.253906 8.789062 29.253906 8.84375 29.234375 8.863281 Z M 29.234375 8.863281 " fill-opacity="1" fill-rule="nonzero"/></g><path fill="#ffffff" d="M 27.230469 8.417969 L 27.34375 8.769531 L 27.472656 9.125 L 27.773438 8.828125 L 28.074219 8.527344 L 27.644531 8.472656 Z M 27.230469 8.417969 " fill-opacity="1" fill-rule="nonzero"/><path fill="#ffffff" d="M 20.128906 11.355469 C 20.28125 11.523438 20.503906 11.632812 20.75 11.632812 L 23.539062 11.632812 C 24.007812 11.632812 24.382812 11.261719 24.382812 10.796875 L 24.382812 8.417969 C 24.382812 7.953125 24.007812 7.582031 23.539062 7.582031 L 20.75 7.582031 C 20.28125 7.582031 19.90625 7.953125 19.90625 8.417969 L 19.90625 10.816406 C 19.90625 11 19.960938 11.148438 20.054688 11.296875 C 20.09375 11.316406 20.113281 11.335938 20.128906 11.355469 Z M 21.011719 10.890625 L 21.761719 9.867188 L 21.984375 10.292969 L 22.285156 10.890625 Z M 23.632812 10.816406 C 23.632812 10.871094 23.597656 10.90625 23.539062 10.90625 L 23.109375 10.90625 L 22.773438 10.257812 L 23.109375 9.996094 L 23.617188 10.609375 L 23.617188 10.816406 Z M 20.675781 8.417969 C 20.675781 8.363281 20.710938 8.324219 20.769531 8.324219 L 23.558594 8.324219 C 23.597656 8.324219 23.632812 8.363281 23.632812 8.417969 L 23.632812 9.421875 L 23.464844 9.21875 C 23.335938 9.066406 23.109375 9.03125 22.941406 9.160156 L 22.433594 9.570312 L 22.152344 9.011719 C 22.097656 8.902344 21.984375 8.828125 21.855469 8.808594 C 21.722656 8.789062 21.59375 8.863281 21.515625 8.957031 L 20.675781 10.109375 Z M 20.675781 8.417969 " fill-opacity="1" fill-rule="nonzero"/></svg>