<svg xmlns="http://www.w3.org/2000/svg" xmlns:xlink="http://www.w3.org/1999/xlink" width="90" zoomAndPan="magnify" viewBox="0 0 67.5 67.499996" height="90" preserveAspectRatio="xMidYMid meet" version="1.0"><defs><clipPath id="id1"><path d="M 2.308594 57 L 13 57 L 13 60.75 L 2.308594 60.75 Z M 2.308594 57 " clip-rule="nonzero"/></clipPath><clipPath id="id2"><path d="M 50 18 L 61 18 L 61 60.75 L 50 60.75 Z M 50 18 " clip-rule="nonzero"/></clipPath><clipPath id="id3"><path d="M 18 38 L 29 38 L 29 60.75 L 18 60.75 Z M 18 38 " clip-rule="nonzero"/></clipPath><clipPath id="id4"><path d="M 34 40 L 45 40 L 45 60.75 L 34 60.75 Z M 34 40 " clip-rule="nonzero"/></clipPath><clipPath id="id5"><path d="M 2.308594 6.75 L 65.308594 6.75 L 65.308594 57 L 2.308594 57 Z M 2.308594 6.75 " clip-rule="nonzero"/></clipPath></defs><g clip-path="url(#id1)"><path fill="#560216" d="M 2.578125 58.519531 L 2.578125 60.800781 L 12.457031 60.800781 L 12.457031 57.027344 C 9.953125 58.113281 7.363281 58.664062 4.753906 58.664062 C 4.007812 58.664062 3.28125 58.613281 2.578125 58.519531 " fill-opacity="1" fill-rule="nonzero"/></g><g clip-path="url(#id2)"><path fill="#560216" d="M 50.398438 60.800781 L 60.273438 60.800781 L 60.273438 18.953125 L 50.398438 32.222656 L 50.398438 60.800781 " fill-opacity="1" fill-rule="nonzero"/></g><g clip-path="url(#id3)"><path fill="#560216" d="M 19.777344 52.003906 C 19.367188 52.410156 18.945312 52.792969 18.515625 53.164062 L 18.515625 60.800781 L 28.398438 60.800781 L 28.398438 38.679688 L 28.371094 38.652344 C 25.996094 44.242188 23.109375 48.726562 19.777344 52.003906 " fill-opacity="1" fill-rule="nonzero"/></g><g clip-path="url(#id4)"><path fill="#560216" d="M 34.457031 45.785156 L 34.457031 60.800781 L 44.335938 60.800781 L 44.335938 40.363281 L 37.582031 49.441406 L 34.457031 45.785156 " fill-opacity="1" fill-rule="nonzero"/></g><g clip-path="url(#id5)"><path fill="#560216" d="M 64.863281 6.796875 L 60.273438 7.957031 L 54.871094 9.320312 L 58.253906 11.898438 L 55.265625 15.910156 L 50.398438 22.453125 L 44.335938 30.597656 L 37.269531 40.09375 L 34.457031 36.800781 L 31.382812 33.195312 L 28.398438 29.699219 L 26.226562 27.152344 L 25.125 30.617188 C 23.820312 34.714844 22.371094 38.066406 20.863281 40.808594 C 20.09375 42.203125 19.3125 43.4375 18.515625 44.53125 C 16.492188 47.335938 14.414062 49.222656 12.457031 50.480469 C 9.070312 52.652344 6.039062 52.945312 4.230469 52.847656 C 3.390625 52.804688 2.8125 52.683594 2.578125 52.621094 L 2.578125 56.71875 C 3.144531 56.800781 3.878906 56.871094 4.753906 56.871094 C 6.636719 56.871094 9.152344 56.542969 11.929688 55.308594 C 12.109375 55.226562 12.28125 55.136719 12.457031 55.054688 C 14.625 54.011719 16.648438 52.570312 18.515625 50.726562 C 22.066406 47.238281 25.074219 42.3125 27.511719 36 C 27.609375 35.742188 27.710938 35.492188 27.808594 35.230469 L 28.398438 35.914062 L 34.457031 43.019531 L 37.480469 46.5625 L 44.335938 37.363281 L 50.398438 29.21875 L 60.273438 15.949219 L 61.460938 14.351562 L 65.039062 17.085938 L 64.863281 6.796875 " fill-opacity="1" fill-rule="nonzero"/></g></svg>