<svg xmlns="http://www.w3.org/2000/svg" xmlns:xlink="http://www.w3.org/1999/xlink" width="50" zoomAndPan="magnify" viewBox="0 0 37.5 37.499999" height="50" preserveAspectRatio="xMidYMid meet" version="1.0"><defs><clipPath id="id1"><path d="M 1.710938 1.710938 L 35.460938 1.710938 L 35.460938 35.460938 L 1.710938 35.460938 Z M 1.710938 1.710938 " clip-rule="nonzero"/></clipPath><clipPath id="id2"><path d="M 18 5.207031 L 20 5.207031 L 20 8 L 18 8 Z M 18 5.207031 " clip-rule="nonzero"/></clipPath><clipPath id="id3"><path d="M 18 30 L 20 30 L 20 32.207031 L 18 32.207031 Z M 18 30 " clip-rule="nonzero"/></clipPath><clipPath id="id4"><path d="M 5.683594 14 L 8 14 L 8 16 L 5.683594 16 Z M 5.683594 14 " clip-rule="nonzero"/></clipPath><clipPath id="id5"><path d="M 29.761719 21.785156 L 31.820312 21.785156 L 31.820312 23.679688 L 29.761719 23.679688 Z M 29.761719 21.785156 " clip-rule="nonzero"/></clipPath><clipPath id="id6"><path d="M 5.683594 21 L 8 21 L 8 24 L 5.683594 24 Z M 5.683594 21 " clip-rule="nonzero"/></clipPath><clipPath id="id7"><path d="M 29.761719 14 L 31.820312 14 L 31.820312 15.628906 L 29.761719 15.628906 Z M 29.761719 14 " clip-rule="nonzero"/></clipPath></defs><g clip-path="url(#id1)"><path fill="#560216" d="M 35.460938 18.585938 C 35.460938 19.140625 35.433594 19.691406 35.378906 20.242188 C 35.324219 20.789062 35.246094 21.335938 35.136719 21.878906 C 35.027344 22.421875 34.894531 22.957031 34.734375 23.484375 C 34.574219 24.015625 34.386719 24.535156 34.175781 25.042969 C 33.964844 25.554688 33.730469 26.054688 33.46875 26.542969 C 33.207031 27.027344 32.925781 27.5 32.617188 27.960938 C 32.308594 28.421875 31.980469 28.863281 31.628906 29.292969 C 31.28125 29.71875 30.910156 30.128906 30.519531 30.519531 C 30.128906 30.910156 29.71875 31.28125 29.292969 31.628906 C 28.863281 31.980469 28.421875 32.308594 27.960938 32.617188 C 27.5 32.925781 27.027344 33.207031 26.542969 33.46875 C 26.054688 33.730469 25.554688 33.964844 25.042969 34.175781 C 24.535156 34.386719 24.011719 34.574219 23.484375 34.734375 C 22.957031 34.894531 22.421875 35.027344 21.878906 35.136719 C 21.335938 35.246094 20.789062 35.324219 20.242188 35.378906 C 19.691406 35.433594 19.140625 35.460938 18.585938 35.460938 C 18.035156 35.460938 17.480469 35.433594 16.933594 35.378906 C 16.382812 35.324219 15.835938 35.246094 15.292969 35.136719 C 14.753906 35.027344 14.214844 34.894531 13.6875 34.734375 C 13.160156 34.574219 12.640625 34.386719 12.128906 34.175781 C 11.617188 33.964844 11.117188 33.730469 10.632812 33.46875 C 10.144531 33.207031 9.671875 32.925781 9.210938 32.617188 C 8.75 32.308594 8.308594 31.980469 7.878906 31.628906 C 7.453125 31.28125 7.042969 30.910156 6.652344 30.519531 C 6.261719 30.128906 5.890625 29.71875 5.542969 29.292969 C 5.191406 28.863281 4.863281 28.421875 4.554688 27.960938 C 4.25 27.5 3.964844 27.027344 3.703125 26.542969 C 3.441406 26.054688 3.207031 25.554688 2.996094 25.042969 C 2.785156 24.535156 2.597656 24.011719 2.4375 23.484375 C 2.277344 22.957031 2.144531 22.421875 2.035156 21.878906 C 1.925781 21.335938 1.847656 20.789062 1.792969 20.242188 C 1.738281 19.691406 1.710938 19.140625 1.710938 18.585938 C 1.710938 18.035156 1.738281 17.480469 1.792969 16.933594 C 1.847656 16.382812 1.925781 15.835938 2.035156 15.292969 C 2.144531 14.753906 2.277344 14.214844 2.4375 13.6875 C 2.597656 13.160156 2.785156 12.640625 2.996094 12.128906 C 3.207031 11.617188 3.441406 11.117188 3.703125 10.632812 C 3.964844 10.144531 4.25 9.671875 4.554688 9.210938 C 4.863281 8.75 5.191406 8.308594 5.542969 7.878906 C 5.890625 7.453125 6.261719 7.042969 6.652344 6.652344 C 7.042969 6.261719 7.453125 5.890625 7.878906 5.542969 C 8.308594 5.191406 8.75 4.863281 9.210938 4.554688 C 9.671875 4.25 10.144531 3.964844 10.632812 3.703125 C 11.117188 3.441406 11.617188 3.207031 12.128906 2.996094 C 12.640625 2.785156 13.160156 2.597656 13.6875 2.4375 C 14.214844 2.277344 14.753906 2.144531 15.292969 2.035156 C 15.835938 1.925781 16.382812 1.847656 16.933594 1.792969 C 17.480469 1.738281 18.035156 1.710938 18.585938 1.710938 C 19.140625 1.710938 19.691406 1.738281 20.242188 1.792969 C 20.789062 1.847656 21.335938 1.925781 21.878906 2.035156 C 22.421875 2.144531 22.957031 2.277344 23.484375 2.4375 C 24.011719 2.597656 24.535156 2.785156 25.042969 2.996094 C 25.554688 3.207031 26.054688 3.441406 26.542969 3.703125 C 27.027344 3.964844 27.5 4.25 27.960938 4.554688 C 28.421875 4.863281 28.863281 5.191406 29.292969 5.542969 C 29.71875 5.890625 30.128906 6.261719 30.519531 6.652344 C 30.910156 7.042969 31.28125 7.453125 31.628906 7.878906 C 31.980469 8.308594 32.308594 8.75 32.617188 9.210938 C 32.925781 9.671875 33.207031 10.144531 33.46875 10.632812 C 33.730469 11.117188 33.964844 11.617188 34.175781 12.128906 C 34.386719 12.640625 34.574219 13.160156 34.734375 13.6875 C 34.894531 14.214844 35.027344 14.753906 35.136719 15.292969 C 35.246094 15.835938 35.324219 16.382812 35.378906 16.933594 C 35.433594 17.480469 35.460938 18.035156 35.460938 18.585938 Z M 35.460938 18.585938 " fill-opacity="1" fill-rule="nonzero"/></g><path fill="#ffffff" d="M 18.859375 13.972656 C 16.226562 13.972656 14.085938 16.09375 14.085938 18.707031 C 14.085938 21.320312 16.226562 23.445312 18.859375 23.445312 C 21.488281 23.445312 23.632812 21.320312 23.632812 18.707031 C 23.632812 16.09375 21.488281 13.972656 18.859375 13.972656 Z M 18.859375 24.390625 C 15.703125 24.390625 13.132812 21.84375 13.132812 18.707031 C 13.132812 15.574219 15.703125 13.023438 18.859375 13.023438 C 22.015625 13.023438 24.585938 15.574219 24.585938 18.707031 C 24.585938 21.84375 22.015625 24.390625 18.859375 24.390625 " fill-opacity="1" fill-rule="nonzero"/><path fill="#ffffff" d="M 18.859375 13.972656 C 17.566406 13.972656 16.472656 16.140625 16.472656 18.707031 C 16.472656 21.273438 17.566406 23.445312 18.859375 23.445312 C 20.152344 23.445312 21.246094 21.273438 21.246094 18.707031 C 21.246094 16.140625 20.152344 13.972656 18.859375 13.972656 Z M 18.859375 24.390625 C 16.984375 24.390625 15.519531 21.894531 15.519531 18.707031 C 15.519531 15.519531 16.984375 13.023438 18.859375 13.023438 C 20.734375 13.023438 22.199219 15.519531 22.199219 18.707031 C 22.199219 21.894531 20.734375 24.390625 18.859375 24.390625 " fill-opacity="1" fill-rule="nonzero"/><path fill="#ffffff" d="M 18.859375 24.390625 C 18.59375 24.390625 18.382812 24.179688 18.382812 23.917969 L 18.382812 13.496094 C 18.382812 13.234375 18.59375 13.023438 18.859375 13.023438 C 19.121094 13.023438 19.335938 13.234375 19.335938 13.496094 L 19.335938 23.917969 C 19.335938 24.179688 19.121094 24.390625 18.859375 24.390625 " fill-opacity="1" fill-rule="nonzero"/><path fill="#ffffff" d="M 24.109375 19.179688 L 13.609375 19.179688 C 13.34375 19.179688 13.132812 18.96875 13.132812 18.707031 C 13.132812 18.445312 13.34375 18.234375 13.609375 18.234375 L 24.109375 18.234375 C 24.371094 18.234375 24.585938 18.445312 24.585938 18.707031 C 24.585938 18.96875 24.371094 19.179688 24.109375 19.179688 " fill-opacity="1" fill-rule="nonzero"/><path fill="#ffffff" d="M 23.257812 16.339844 L 14.460938 16.339844 C 14.195312 16.339844 13.984375 16.125 13.984375 15.867188 C 13.984375 15.601562 14.195312 15.390625 14.460938 15.390625 L 23.257812 15.390625 C 23.523438 15.390625 23.734375 15.601562 23.734375 15.867188 C 23.734375 16.125 23.523438 16.339844 23.257812 16.339844 " fill-opacity="1" fill-rule="nonzero"/><path fill="#ffffff" d="M 23.257812 22.023438 L 14.460938 22.023438 C 14.195312 22.023438 13.984375 21.8125 13.984375 21.550781 C 13.984375 21.289062 14.195312 21.078125 14.460938 21.078125 L 23.257812 21.078125 C 23.523438 21.078125 23.734375 21.289062 23.734375 21.550781 C 23.734375 21.8125 23.523438 22.023438 23.257812 22.023438 " fill-opacity="1" fill-rule="nonzero"/><g clip-path="url(#id2)"><path fill="#ffffff" d="M 18.859375 7.101562 C 19.253906 7.101562 19.574219 6.675781 19.574219 6.15625 C 19.574219 5.632812 19.253906 5.207031 18.859375 5.207031 C 18.464844 5.207031 18.144531 5.632812 18.144531 6.15625 C 18.144531 6.675781 18.464844 7.101562 18.859375 7.101562 " fill-opacity="1" fill-rule="nonzero"/></g><path fill="#ffffff" d="M 19.8125 7.699219 L 19.8125 7.695312 L 19.808594 7.695312 L 19.804688 7.691406 C 19.457031 7.484375 19.121094 7.339844 18.859375 7.339844 C 18.597656 7.339844 18.265625 7.480469 17.921875 7.6875 L 17.90625 7.695312 L 17.90625 7.699219 C 17.273438 8.078125 16.601562 8.667969 16.246094 8.996094 C 16.179688 9.058594 16.140625 9.144531 16.140625 9.230469 C 16.136719 9.324219 16.171875 9.410156 16.238281 9.472656 L 16.253906 9.488281 C 16.378906 9.617188 16.578125 9.628906 16.722656 9.523438 L 17.90625 8.640625 L 17.90625 12.234375 C 17.90625 12.429688 18.066406 12.589844 18.261719 12.589844 C 18.460938 12.589844 18.621094 12.429688 18.621094 12.234375 L 18.621094 10.65625 L 19.097656 10.65625 L 19.097656 12.234375 C 19.097656 12.429688 19.257812 12.589844 19.457031 12.589844 C 19.652344 12.589844 19.8125 12.429688 19.8125 12.234375 L 19.8125 8.640625 L 21.011719 9.535156 C 21.148438 9.632812 21.332031 9.621094 21.449219 9.503906 L 21.480469 9.472656 C 21.546875 9.410156 21.578125 9.324219 21.578125 9.230469 C 21.578125 9.144531 21.539062 9.058594 21.472656 8.996094 C 21.117188 8.667969 20.445312 8.078125 19.8125 7.699219 " fill-opacity="1" fill-rule="nonzero"/><g clip-path="url(#id3)"><path fill="#ffffff" d="M 18.859375 30.3125 C 18.464844 30.3125 18.144531 30.738281 18.144531 31.261719 C 18.144531 31.785156 18.464844 32.207031 18.859375 32.207031 C 19.253906 32.207031 19.574219 31.785156 19.574219 31.261719 C 19.574219 30.738281 19.253906 30.3125 18.859375 30.3125 " fill-opacity="1" fill-rule="nonzero"/></g><path fill="#ffffff" d="M 21.472656 28.417969 C 21.539062 28.355469 21.578125 28.273438 21.578125 28.179688 C 21.582031 28.09375 21.546875 28.003906 21.480469 27.941406 L 21.449219 27.910156 C 21.332031 27.792969 21.148438 27.78125 21.011719 27.878906 L 19.8125 28.773438 L 19.8125 25.15625 C 19.8125 24.976562 19.664062 24.828125 19.480469 24.828125 L 19.433594 24.828125 C 19.246094 24.828125 19.097656 24.976562 19.097656 25.15625 L 19.097656 26.761719 L 18.621094 26.761719 L 18.621094 25.15625 C 18.621094 24.976562 18.472656 24.828125 18.285156 24.828125 L 18.238281 24.828125 C 18.054688 24.828125 17.90625 24.976562 17.90625 25.15625 L 17.90625 28.773438 L 16.707031 27.878906 C 16.570312 27.78125 16.386719 27.792969 16.269531 27.910156 L 16.238281 27.941406 C 16.171875 28.003906 16.140625 28.09375 16.140625 28.179688 C 16.140625 28.273438 16.179688 28.355469 16.246094 28.417969 C 16.601562 28.746094 17.273438 29.335938 17.90625 29.71875 L 17.90625 29.722656 L 17.921875 29.726562 C 18.265625 29.933594 18.597656 30.078125 18.859375 30.078125 C 19.121094 30.078125 19.457031 29.929688 19.804688 29.722656 L 19.8125 29.722656 L 19.8125 29.71875 C 20.445312 29.335938 21.117188 28.746094 21.472656 28.417969 " fill-opacity="1" fill-rule="nonzero"/><path fill="#ffffff" d="M 11.988281 9.320312 C 12.304688 9.089844 12.3125 8.558594 12.003906 8.136719 C 11.695312 7.710938 11.183594 7.554688 10.867188 7.785156 C 10.542969 8.015625 10.539062 8.546875 10.847656 8.96875 C 11.15625 9.394531 11.667969 9.546875 11.988281 9.320312 " fill-opacity="1" fill-rule="nonzero"/><path fill="#ffffff" d="M 13.113281 9.246094 L 13.109375 9.242188 L 13.105469 9.242188 L 13.101562 9.246094 C 12.695312 9.28125 12.339844 9.359375 12.128906 9.511719 C 11.917969 9.664062 11.730469 9.972656 11.574219 10.339844 L 11.566406 10.355469 C 11.28125 11.035156 11.085938 11.90625 10.992188 12.375 C 10.976562 12.464844 10.996094 12.554688 11.046875 12.628906 C 11.101562 12.703125 11.179688 12.75 11.269531 12.765625 L 11.292969 12.769531 C 11.46875 12.796875 11.640625 12.691406 11.691406 12.523438 L 12.125 11.121094 L 12.757812 11.984375 L 13.320312 12.75 L 14.253906 14.027344 C 14.308594 14.105469 14.390625 14.152344 14.488281 14.167969 C 14.582031 14.183594 14.679688 14.160156 14.753906 14.105469 C 14.914062 13.992188 14.949219 13.769531 14.832031 13.609375 L 13.898438 12.332031 L 14.285156 12.054688 L 15.21875 13.332031 C 15.335938 13.488281 15.558594 13.523438 15.71875 13.410156 C 15.796875 13.355469 15.847656 13.273438 15.863281 13.179688 C 15.875 13.085938 15.855469 12.992188 15.796875 12.914062 L 14.863281 11.636719 L 14.582031 11.253906 L 13.671875 10.007812 L 15.171875 10.03125 C 15.335938 10.035156 15.480469 9.914062 15.503906 9.75 L 15.511719 9.707031 C 15.527344 9.617188 15.503906 9.527344 15.449219 9.457031 C 15.394531 9.382812 15.3125 9.335938 15.222656 9.328125 C 14.742188 9.269531 13.851562 9.183594 13.113281 9.246094 " fill-opacity="1" fill-rule="nonzero"/><path fill="#ffffff" d="M 25.734375 28.097656 C 25.414062 28.328125 25.40625 28.855469 25.714844 29.28125 C 26.023438 29.703125 26.535156 29.859375 26.855469 29.628906 C 27.175781 29.398438 27.183594 28.871094 26.871094 28.445312 C 26.5625 28.023438 26.050781 27.867188 25.734375 28.097656 " fill-opacity="1" fill-rule="nonzero"/><path fill="#ffffff" d="M 26.726562 25.039062 C 26.742188 24.949219 26.722656 24.859375 26.671875 24.785156 C 26.617188 24.710938 26.539062 24.664062 26.449219 24.648438 L 26.40625 24.640625 C 26.242188 24.617188 26.082031 24.714844 26.035156 24.871094 L 25.59375 26.292969 L 24.679688 25.050781 L 24.402344 24.664062 L 23.449219 23.367188 C 23.398438 23.296875 23.320312 23.25 23.234375 23.238281 C 23.148438 23.222656 23.058594 23.246094 22.984375 23.296875 L 22.945312 23.324219 C 22.796875 23.433594 22.765625 23.640625 22.875 23.785156 L 23.820312 25.085938 L 23.4375 25.363281 L 22.484375 24.066406 C 22.378906 23.917969 22.167969 23.886719 22.019531 23.992188 L 21.980469 24.019531 C 21.910156 24.070312 21.859375 24.148438 21.847656 24.238281 C 21.832031 24.324219 21.855469 24.414062 21.90625 24.484375 L 22.855469 25.78125 L 23.136719 26.164062 L 24.046875 27.40625 L 22.546875 27.386719 C 22.382812 27.382812 22.238281 27.503906 22.214844 27.664062 L 22.207031 27.707031 C 22.191406 27.796875 22.214844 27.886719 22.269531 27.960938 C 22.324219 28.03125 22.40625 28.078125 22.496094 28.089844 C 22.976562 28.144531 23.871094 28.234375 24.605469 28.171875 L 24.609375 28.175781 L 24.628906 28.171875 C 25.027344 28.136719 25.378906 28.058594 25.59375 27.90625 C 25.804688 27.753906 25.988281 27.441406 26.148438 27.066406 L 26.152344 27.0625 L 26.152344 27.058594 C 26.4375 26.382812 26.632812 25.507812 26.726562 25.039062 " fill-opacity="1" fill-rule="nonzero"/><g clip-path="url(#id4)"><path fill="#ffffff" d="M 7.738281 15.121094 C 7.863281 14.75 7.554688 14.316406 7.054688 14.152344 C 6.550781 13.992188 6.046875 14.164062 5.921875 14.535156 C 5.800781 14.910156 6.109375 15.34375 6.609375 15.503906 C 7.109375 15.664062 7.617188 15.496094 7.738281 15.121094 " fill-opacity="1" fill-rule="nonzero"/></g><path fill="#ffffff" d="M 8.605469 14.402344 L 8.601562 14.402344 L 8.601562 14.40625 L 8.597656 14.410156 C 8.289062 14.675781 8.046875 14.945312 7.964844 15.195312 C 7.886719 15.441406 7.917969 15.800781 8.011719 16.1875 L 8.011719 16.207031 L 8.015625 16.207031 C 8.183594 16.921875 8.542969 17.738281 8.746094 18.171875 C 8.785156 18.253906 8.855469 18.316406 8.941406 18.347656 C 9.027344 18.375 9.121094 18.371094 9.203125 18.328125 L 9.222656 18.320312 C 9.382812 18.238281 9.457031 18.054688 9.398438 17.886719 L 8.917969 16.5 L 9.941406 16.828125 L 10.847656 17.121094 L 12.363281 17.609375 C 12.453125 17.636719 12.550781 17.628906 12.632812 17.585938 C 12.71875 17.542969 12.785156 17.46875 12.8125 17.382812 C 12.875 17.195312 12.769531 16.996094 12.582031 16.933594 L 11.070312 16.445312 L 11.21875 15.996094 L 12.730469 16.480469 C 12.917969 16.542969 13.121094 16.441406 13.179688 16.253906 C 13.210938 16.164062 13.203125 16.066406 13.160156 15.980469 C 13.117188 15.898438 13.042969 15.835938 12.953125 15.804688 L 11.441406 15.316406 L 10.984375 15.171875 L 9.511719 14.695312 L 10.738281 13.839844 C 10.871094 13.746094 10.917969 13.566406 10.839844 13.417969 L 10.824219 13.378906 C 10.78125 13.300781 10.707031 13.238281 10.621094 13.210938 C 10.535156 13.1875 10.441406 13.195312 10.363281 13.238281 C 9.941406 13.472656 9.164062 13.925781 8.605469 14.402344 " fill-opacity="1" fill-rule="nonzero"/><g clip-path="url(#id5)"><path fill="#ffffff" d="M 29.980469 22.292969 C 29.859375 22.667969 30.164062 23.101562 30.667969 23.261719 C 31.167969 23.425781 31.675781 23.253906 31.796875 22.878906 C 31.917969 22.507812 31.609375 22.074219 31.109375 21.910156 C 30.609375 21.75 30.101562 21.921875 29.980469 22.292969 " fill-opacity="1" fill-rule="nonzero"/></g><path fill="#ffffff" d="M 28.972656 19.242188 C 28.9375 19.160156 28.863281 19.097656 28.777344 19.070312 C 28.695312 19.039062 28.597656 19.046875 28.519531 19.085938 L 28.480469 19.105469 C 28.332031 19.179688 28.261719 19.355469 28.316406 19.507812 L 28.800781 20.917969 L 27.324219 20.441406 L 26.871094 20.296875 L 25.335938 19.800781 C 25.160156 19.742188 24.972656 19.839844 24.914062 20.011719 L 24.898438 20.058594 C 24.84375 20.234375 24.9375 20.417969 25.113281 20.476562 L 26.648438 20.972656 L 26.503906 21.421875 L 24.964844 20.925781 C 24.792969 20.867188 24.601562 20.964844 24.546875 21.140625 L 24.53125 21.183594 C 24.503906 21.269531 24.511719 21.359375 24.550781 21.4375 C 24.59375 21.515625 24.660156 21.574219 24.746094 21.601562 L 26.28125 22.097656 L 26.734375 22.242188 L 28.210938 22.71875 L 26.984375 23.574219 C 26.847656 23.671875 26.804688 23.851562 26.878906 23.996094 L 26.898438 24.035156 C 26.9375 24.117188 27.011719 24.175781 27.097656 24.203125 C 27.183594 24.230469 27.277344 24.21875 27.359375 24.175781 C 27.78125 23.941406 28.554688 23.492188 29.113281 23.011719 L 29.117188 23.011719 L 29.128906 22.996094 C 29.433594 22.734375 29.671875 22.46875 29.753906 22.222656 C 29.835938 21.972656 29.800781 21.609375 29.707031 21.21875 L 29.707031 21.210938 L 29.703125 21.210938 C 29.535156 20.496094 29.175781 19.675781 28.972656 19.242188 " fill-opacity="1" fill-rule="nonzero"/><g clip-path="url(#id6)"><path fill="#ffffff" d="M 7.738281 22.292969 C 7.617188 21.921875 7.109375 21.75 6.609375 21.910156 C 6.109375 22.070312 5.800781 22.507812 5.921875 22.878906 C 6.046875 23.253906 6.550781 23.425781 7.054688 23.261719 C 7.554688 23.101562 7.863281 22.667969 7.738281 22.292969 " fill-opacity="1" fill-rule="nonzero"/></g><path fill="#ffffff" d="M 8.015625 21.210938 L 8.011719 21.210938 L 8.011719 21.21875 C 7.921875 21.609375 7.882812 21.972656 7.964844 22.222656 C 8.046875 22.464844 8.285156 22.734375 8.589844 22.996094 L 8.601562 23.011719 L 8.605469 23.011719 C 9.164062 23.492188 9.9375 23.941406 10.363281 24.175781 C 10.441406 24.21875 10.535156 24.230469 10.621094 24.203125 C 10.707031 24.175781 10.78125 24.117188 10.824219 24.035156 L 10.832031 24.015625 C 10.914062 23.855469 10.867188 23.664062 10.71875 23.5625 L 9.511719 22.71875 L 10.53125 22.390625 L 11.4375 22.097656 L 12.953125 21.609375 C 13.042969 21.578125 13.117188 21.515625 13.160156 21.433594 C 13.203125 21.347656 13.210938 21.253906 13.179688 21.160156 C 13.121094 20.972656 12.917969 20.871094 12.730469 20.933594 L 11.21875 21.421875 L 11.070312 20.972656 L 12.582031 20.480469 C 12.769531 20.421875 12.875 20.222656 12.8125 20.035156 C 12.785156 19.945312 12.71875 19.871094 12.632812 19.828125 C 12.550781 19.785156 12.453125 19.777344 12.363281 19.808594 L 10.847656 20.296875 L 10.394531 20.441406 L 8.917969 20.917969 L 9.402344 19.507812 C 9.457031 19.351562 9.390625 19.179688 9.238281 19.105469 L 9.199219 19.085938 C 9.121094 19.046875 9.023438 19.039062 8.941406 19.070312 C 8.855469 19.097656 8.785156 19.160156 8.746094 19.242188 C 8.542969 19.675781 8.183594 20.492188 8.015625 21.210938 " fill-opacity="1" fill-rule="nonzero"/><g clip-path="url(#id7)"><path fill="#ffffff" d="M 29.980469 15.121094 C 30.101562 15.496094 30.609375 15.667969 31.109375 15.503906 C 31.609375 15.34375 31.917969 14.910156 31.796875 14.539062 C 31.675781 14.164062 31.167969 13.992188 30.667969 14.152344 C 30.167969 14.316406 29.859375 14.75 29.980469 15.121094 " fill-opacity="1" fill-rule="nonzero"/></g><path fill="#ffffff" d="M 27.359375 13.238281 C 27.277344 13.195312 27.183594 13.1875 27.097656 13.210938 C 27.011719 13.238281 26.9375 13.300781 26.898438 13.378906 L 26.878906 13.417969 C 26.804688 13.566406 26.847656 13.746094 26.984375 13.839844 L 28.210938 14.695312 L 26.734375 15.171875 L 26.28125 15.316406 L 24.746094 15.8125 C 24.660156 15.839844 24.59375 15.902344 24.550781 15.980469 C 24.511719 16.054688 24.503906 16.148438 24.53125 16.230469 L 24.546875 16.277344 C 24.601562 16.449219 24.792969 16.542969 24.964844 16.488281 L 26.503906 15.996094 L 26.648438 16.445312 L 25.113281 16.9375 C 24.9375 16.996094 24.84375 17.183594 24.898438 17.355469 L 24.914062 17.402344 C 24.941406 17.488281 25.003906 17.558594 25.082031 17.597656 C 25.160156 17.636719 25.253906 17.644531 25.335938 17.617188 L 26.871094 17.121094 L 27.324219 16.972656 L 28.800781 16.5 L 28.316406 17.90625 C 28.261719 18.0625 28.332031 18.234375 28.480469 18.308594 L 28.519531 18.332031 C 28.597656 18.371094 28.695312 18.375 28.777344 18.347656 C 28.863281 18.316406 28.9375 18.253906 28.972656 18.171875 C 29.175781 17.738281 29.535156 16.921875 29.703125 16.207031 L 29.710938 16.207031 L 29.710938 16.1875 C 29.800781 15.800781 29.835938 15.441406 29.753906 15.195312 C 29.671875 14.949219 29.429688 14.675781 29.125 14.410156 L 29.117188 14.402344 L 29.113281 14.40625 C 28.554688 13.925781 27.78125 13.472656 27.359375 13.238281 " fill-opacity="1" fill-rule="nonzero"/><path fill="#ffffff" d="M 11.988281 28.097656 C 11.667969 27.863281 11.15625 28.023438 10.847656 28.445312 C 10.539062 28.871094 10.542969 29.398438 10.867188 29.628906 C 11.183594 29.859375 11.695312 29.703125 12.003906 29.28125 C 12.316406 28.855469 12.304688 28.328125 11.988281 28.097656 " fill-opacity="1" fill-rule="nonzero"/><path fill="#ffffff" d="M 11.566406 27.058594 L 11.570312 27.0625 L 11.570312 27.066406 C 11.730469 27.4375 11.914062 27.753906 12.128906 27.90625 C 12.339844 28.058594 12.691406 28.136719 13.089844 28.171875 L 13.109375 28.175781 L 13.113281 28.171875 C 13.851562 28.230469 14.742188 28.144531 15.222656 28.089844 C 15.3125 28.078125 15.394531 28.03125 15.449219 27.960938 C 15.503906 27.886719 15.527344 27.796875 15.511719 27.707031 L 15.507812 27.6875 C 15.480469 27.511719 15.328125 27.382812 15.148438 27.386719 L 13.671875 27.40625 L 14.300781 26.546875 L 14.863281 25.78125 L 15.796875 24.5 C 15.855469 24.425781 15.875 24.332031 15.863281 24.238281 C 15.847656 24.144531 15.796875 24.0625 15.71875 24.003906 C 15.558594 23.890625 15.335938 23.925781 15.21875 24.085938 L 14.285156 25.363281 L 13.898438 25.085938 L 14.832031 23.804688 C 14.949219 23.644531 14.914062 23.425781 14.753906 23.308594 C 14.679688 23.253906 14.582031 23.230469 14.488281 23.246094 C 14.394531 23.257812 14.308594 23.3125 14.253906 23.386719 L 13.320312 24.664062 L 13.039062 25.050781 L 12.125 26.292969 L 11.6875 24.871094 C 11.636719 24.714844 11.476562 24.617188 11.3125 24.640625 L 11.269531 24.648438 C 11.179688 24.664062 11.101562 24.710938 11.046875 24.785156 C 10.996094 24.859375 10.976562 24.949219 10.992188 25.039062 C 11.085938 25.507812 11.28125 26.382812 11.566406 27.058594 " fill-opacity="1" fill-rule="nonzero"/><path fill="#ffffff" d="M 25.734375 9.320312 C 26.050781 9.546875 26.5625 9.394531 26.871094 8.972656 C 27.183594 8.546875 27.175781 8.015625 26.855469 7.785156 C 26.535156 7.554688 26.023438 7.710938 25.714844 8.136719 C 25.40625 8.558594 25.414062 9.089844 25.734375 9.320312 " fill-opacity="1" fill-rule="nonzero"/><path fill="#ffffff" d="M 22.496094 9.328125 C 22.40625 9.335938 22.324219 9.382812 22.269531 9.457031 C 22.21875 9.527344 22.195312 9.617188 22.207031 9.707031 L 22.214844 9.75 C 22.242188 9.914062 22.382812 10.035156 22.550781 10.03125 L 24.050781 10.007812 L 23.136719 11.253906 L 22.855469 11.636719 L 21.90625 12.933594 C 21.855469 13.003906 21.835938 13.09375 21.847656 13.179688 C 21.863281 13.265625 21.910156 13.34375 21.980469 13.394531 L 22.019531 13.421875 C 22.171875 13.53125 22.378906 13.5 22.488281 13.351562 L 23.4375 12.054688 L 23.820312 12.332031 L 22.875 13.628906 C 22.765625 13.777344 22.796875 13.984375 22.945312 14.089844 L 22.984375 14.121094 C 23.058594 14.171875 23.148438 14.191406 23.234375 14.179688 C 23.324219 14.164062 23.402344 14.117188 23.453125 14.046875 L 24.402344 12.75 L 24.679688 12.367188 L 25.59375 11.121094 L 26.035156 12.542969 C 26.082031 12.703125 26.242188 12.800781 26.40625 12.773438 L 26.449219 12.765625 C 26.539062 12.753906 26.617188 12.703125 26.671875 12.628906 C 26.722656 12.554688 26.742188 12.464844 26.726562 12.375 C 26.632812 11.90625 26.441406 11.035156 26.152344 10.359375 L 26.152344 10.355469 L 26.144531 10.339844 C 25.988281 9.972656 25.804688 9.664062 25.59375 9.511719 C 25.378906 9.359375 25.023438 9.28125 24.621094 9.246094 L 24.613281 9.242188 L 24.609375 9.242188 L 24.609375 9.246094 C 23.871094 9.183594 22.976562 9.269531 22.496094 9.328125 " fill-opacity="1" fill-rule="nonzero"/></svg>