<svg xmlns="http://www.w3.org/2000/svg" xmlns:xlink="http://www.w3.org/1999/xlink" width="90" zoomAndPan="magnify" viewBox="0 0 67.5 67.499996" height="90" preserveAspectRatio="xMidYMid meet" version="1.0"><defs><clipPath id="id1"><path d="M 5 35 L 63 35 L 63 53.847656 L 5 53.847656 Z M 5 35 " clip-rule="nonzero"/></clipPath><clipPath id="id2"><path d="M 1.492188 35 L 7 35 L 7 51 L 1.492188 51 Z M 1.492188 35 " clip-rule="nonzero"/></clipPath><clipPath id="id3"><path d="M 33 13.347656 L 52 13.347656 L 52 39 L 33 39 Z M 33 13.347656 " clip-rule="nonzero"/></clipPath></defs><g clip-path="url(#id1)"><path fill="#560216" d="M 5.175781 35.441406 L 5.175781 47.972656 C 5.175781 47.972656 14.101562 43.929688 16.882812 46.433594 C 19.664062 48.941406 30.617188 53.820312 35.386719 53.402344 C 40.152344 52.984375 56.851562 43.792969 59.234375 42.125 C 61.621094 40.453125 65.992188 35.859375 59.234375 38.367188 C 52.480469 40.871094 43.335938 44.230469 38.566406 44.433594 C 33.800781 44.628906 23.460938 40.871094 23.460938 40.871094 " fill-opacity="1" fill-rule="nonzero"/></g><path fill="#560216" d="M 4 35.078125 C 4 35.078125 12.773438 34.660156 15.65625 35.078125 C 22.875 36.125 36.710938 43.429688 36.710938 43.429688 C 36.710938 43.429688 40.621094 47.015625 34.453125 46.355469 C 28.613281 45.730469 18.28125 40.089844 18.28125 40.089844 " fill-opacity="1" fill-rule="nonzero"/><path fill="#ffffff" d="M 35.820312 46.851562 C 35.40625 46.851562 34.933594 46.824219 34.414062 46.765625 C 28.558594 46.140625 18.511719 40.683594 18.085938 40.453125 L 18.492188 39.722656 C 18.59375 39.78125 28.816406 45.332031 34.503906 45.941406 C 36.996094 46.210938 37.417969 45.730469 37.488281 45.574219 C 37.671875 45.171875 37.003906 44.273438 36.46875 43.777344 C 35.558594 43.300781 22.449219 36.488281 15.597656 35.496094 C 12.789062 35.085938 4.105469 35.496094 4.019531 35.5 L 3.980469 34.664062 C 4.339844 34.644531 12.824219 34.246094 15.71875 34.667969 C 18.75 35.109375 23.242188 36.65625 29.066406 39.273438 C 33.386719 41.210938 36.875 43.050781 36.910156 43.070312 L 36.957031 43.09375 L 36.996094 43.132812 C 37.015625 43.148438 37.421875 43.527344 37.785156 44.019531 C 38.328125 44.773438 38.484375 45.414062 38.253906 45.925781 C 37.96875 46.546875 37.179688 46.851562 35.820312 46.851562 Z M 35.820312 46.851562 " fill-opacity="1" fill-rule="nonzero"/><path fill="#ffffff" d="M 36.984375 45.585938 C 36.945312 45.800781 35.960938 45.8125 34.777344 45.609375 C 33.597656 45.402344 32.667969 45.0625 32.707031 44.847656 C 32.746094 44.628906 33.730469 44.621094 34.914062 44.820312 C 36.097656 45.027344 37.023438 45.371094 36.984375 45.585938 Z M 36.984375 45.585938 " fill-opacity="1" fill-rule="nonzero"/><path fill="#3b0a0a" d="M 36.261719 45.886719 C 35.84375 45.886719 35.308594 45.835938 34.75 45.738281 C 34.171875 45.636719 33.632812 45.503906 33.234375 45.355469 C 32.746094 45.171875 32.535156 45.007812 32.570312 44.820312 C 32.605469 44.628906 32.867188 44.542969 33.421875 44.542969 C 33.835938 44.542969 34.375 44.597656 34.929688 44.691406 C 35.511719 44.792969 36.046875 44.929688 36.449219 45.078125 C 36.9375 45.257812 37.144531 45.421875 37.113281 45.609375 C 37.078125 45.800781 36.816406 45.886719 36.261719 45.886719 Z M 32.855469 44.871094 C 32.988281 44.996094 33.628906 45.273438 34.800781 45.480469 C 35.339844 45.574219 35.859375 45.625 36.265625 45.625 C 36.632812 45.625 36.78125 45.582031 36.835938 45.558594 C 36.707031 45.433594 36.0625 45.152344 34.890625 44.945312 C 34.351562 44.851562 33.832031 44.804688 33.425781 44.804688 C 33.058594 44.808594 32.910156 44.847656 32.855469 44.871094 Z M 32.855469 44.871094 " fill-opacity="1" fill-rule="nonzero"/><path fill="#ffffff" d="M 62.375 38.527344 C 62.597656 38.777344 62.050781 39.625 61.148438 40.410156 C 60.25 41.199219 59.339844 41.632812 59.121094 41.386719 C 58.898438 41.136719 59.441406 40.289062 60.34375 39.503906 C 61.242188 38.714844 62.152344 38.277344 62.375 38.527344 Z M 62.375 38.527344 " fill-opacity="1" fill-rule="nonzero"/><path fill="#3b0a0a" d="M 59.316406 41.585938 C 59.1875 41.585938 59.089844 41.546875 59.023438 41.472656 C 58.867188 41.296875 58.925781 40.996094 59.203125 40.574219 C 59.4375 40.207031 59.816406 39.792969 60.253906 39.402344 C 61 38.75 61.753906 38.320312 62.175781 38.320312 C 62.304688 38.320312 62.402344 38.359375 62.46875 38.4375 C 62.625 38.609375 62.566406 38.914062 62.292969 39.335938 C 62.054688 39.699219 61.675781 40.117188 61.238281 40.507812 C 60.488281 41.164062 59.734375 41.585938 59.316406 41.585938 Z M 62.175781 38.589844 C 61.890625 38.589844 61.222656 38.90625 60.429688 39.605469 C 60.003906 39.976562 59.644531 40.371094 59.417969 40.71875 C 59.195312 41.0625 59.175781 41.253906 59.214844 41.296875 C 59.230469 41.316406 59.265625 41.328125 59.316406 41.328125 C 59.601562 41.328125 60.269531 41.011719 61.0625 40.316406 C 61.488281 39.941406 61.847656 39.546875 62.074219 39.199219 C 62.296875 38.855469 62.316406 38.664062 62.277344 38.621094 C 62.257812 38.601562 62.222656 38.589844 62.175781 38.589844 Z M 62.175781 38.589844 " fill-opacity="1" fill-rule="nonzero"/><g clip-path="url(#id2)"><path fill="#560216" d="M 1.675781 35.441406 L 6.273438 35.441406 L 6.273438 50.039062 L 1.675781 50.039062 Z M 1.675781 35.441406 " fill-opacity="1" fill-rule="nonzero"/><path fill="#ffffff" d="M 6.453125 50.222656 L 1.492188 50.222656 L 1.492188 35.257812 L 6.453125 35.257812 Z M 1.855469 49.863281 L 6.089844 49.863281 L 6.089844 35.621094 L 1.855469 35.621094 Z M 1.855469 49.863281 " fill-opacity="1" fill-rule="nonzero"/></g><path fill="#ffffff" d="M 4.90625 47.433594 C 4.90625 47.601562 4.871094 47.761719 4.808594 47.917969 C 4.742188 48.074219 4.652344 48.210938 4.53125 48.328125 C 4.410156 48.449219 4.273438 48.539062 4.117188 48.605469 C 3.960938 48.667969 3.796875 48.699219 3.628906 48.699219 C 3.457031 48.699219 3.296875 48.667969 3.140625 48.605469 C 2.984375 48.539062 2.84375 48.449219 2.726562 48.328125 C 2.605469 48.210938 2.511719 48.074219 2.449219 47.917969 C 2.382812 47.761719 2.351562 47.601562 2.351562 47.433594 C 2.351562 47.265625 2.382812 47.105469 2.449219 46.949219 C 2.511719 46.792969 2.605469 46.65625 2.726562 46.539062 C 2.84375 46.417969 2.984375 46.328125 3.140625 46.261719 C 3.296875 46.199219 3.457031 46.167969 3.628906 46.167969 C 3.796875 46.167969 3.960938 46.199219 4.117188 46.261719 C 4.273438 46.328125 4.410156 46.417969 4.53125 46.539062 C 4.652344 46.65625 4.742188 46.792969 4.808594 46.949219 C 4.871094 47.105469 4.90625 47.265625 4.90625 47.433594 Z M 4.90625 47.433594 " fill-opacity="1" fill-rule="nonzero"/><g clip-path="url(#id3)"><path fill="#3b0a0a" d="M 51.628906 13.375 L 33.734375 13.375 L 33.734375 17.121094 L 39.613281 17.121094 C 40.1875 17.699219 40.515625 18.46875 40.613281 19.4375 L 33.734375 19.4375 L 33.734375 23.1875 L 39.378906 23.1875 C 39.066406 23.488281 38.691406 23.757812 38.261719 23.988281 C 36.878906 24.738281 35.371094 25.171875 33.734375 25.292969 L 33.734375 27.824219 L 36.265625 27.382812 C 37.011719 28.265625 37.867188 29.605469 38.824219 31.410156 C 39.78125 33.214844 40.265625 34.515625 40.265625 35.3125 C 40.265625 35.628906 40.03125 35.941406 39.574219 36.238281 C 39.113281 36.535156 38.882812 36.863281 38.882812 37.207031 C 38.882812 37.6875 39.058594 37.996094 39.421875 38.128906 C 39.785156 38.261719 40.257812 38.328125 40.847656 38.328125 L 47.207031 38.328125 C 48.34375 38.328125 48.914062 37.992188 48.914062 37.320312 C 48.914062 37.046875 48.863281 36.863281 48.761719 36.765625 C 48.65625 36.671875 48.441406 36.523438 48.109375 36.324219 C 47.683594 36.050781 47.382812 35.792969 47.214844 35.546875 C 47.042969 35.300781 46.828125 34.871094 46.554688 34.25 C 45.183594 30.566406 43.671875 27.789062 42.019531 25.9375 C 43.617188 25.148438 44.824219 24.226562 45.652344 23.175781 L 51.625 23.175781 L 51.625 19.425781 L 46.984375 19.425781 C 46.984375 19.398438 46.984375 19.371094 46.984375 19.335938 C 46.984375 18.546875 46.835938 17.808594 46.535156 17.113281 L 51.628906 17.113281 Z M 51.628906 13.375 " fill-opacity="1" fill-rule="nonzero"/></g></svg>