<svg xmlns="http://www.w3.org/2000/svg" xmlns:xlink="http://www.w3.org/1999/xlink" width="90" zoomAndPan="magnify" viewBox="0 0 67.5 67.499996" height="90" preserveAspectRatio="xMidYMid meet" version="1.0"><defs><clipPath id="id1"><path d="M 40 54 L 52 54 L 52 62.035156 L 40 62.035156 Z M 40 54 " clip-rule="nonzero"/></clipPath><clipPath id="id2"><path d="M 2.804688 28 L 26 28 L 26 54 L 2.804688 54 Z M 2.804688 28 " clip-rule="nonzero"/></clipPath><clipPath id="id3"><path d="M 16 54 L 28 54 L 28 62.035156 L 16 62.035156 Z M 16 54 " clip-rule="nonzero"/></clipPath><clipPath id="id4"><path d="M 17 5.785156 L 52 5.785156 L 52 40 L 17 40 Z M 17 5.785156 " clip-rule="nonzero"/></clipPath></defs><g clip-path="url(#id1)"><path fill="#560216" d="M 51.058594 55.421875 C 50.746094 55.3125 50.390625 55.21875 50.089844 55.125 L 49.644531 55.011719 C 46.84375 54.328125 44.054688 54.347656 41.265625 55.078125 C 40.859375 55.179688 40.445312 55.300781 40.03125 55.433594 L 40.03125 62.046875 L 51.058594 62.046875 Z M 42.460938 59.574219 C 42.222656 59.578125 41.992188 59.53125 41.773438 59.441406 C 41.554688 59.351562 41.359375 59.222656 41.1875 59.054688 C 41.019531 58.886719 40.890625 58.691406 40.796875 58.472656 C 40.707031 58.25 40.660156 58.023438 40.660156 57.785156 C 40.65625 57.546875 40.703125 57.316406 40.792969 57.09375 C 40.882812 56.875 41.015625 56.679688 41.183594 56.511719 C 41.351562 56.339844 41.546875 56.210938 41.765625 56.121094 C 41.984375 56.027344 42.214844 55.980469 42.453125 55.980469 C 42.691406 55.980469 42.921875 56.027344 43.140625 56.117188 C 43.363281 56.210938 43.558594 56.339844 43.726562 56.507812 C 43.894531 56.675781 44.023438 56.871094 44.117188 57.089844 C 44.207031 57.3125 44.253906 57.539062 44.253906 57.777344 C 44.25 58.015625 44.207031 58.246094 44.113281 58.464844 C 44.023438 58.683594 43.894531 58.878906 43.726562 59.046875 C 43.558594 59.214844 43.367188 59.34375 43.148438 59.4375 C 42.929688 59.527344 42.699219 59.574219 42.460938 59.574219 Z M 42.460938 59.574219 " fill-opacity="1" fill-rule="nonzero"/></g><path fill="#560216" d="M 42.460938 57.324219 C 42.335938 57.324219 42.226562 57.367188 42.136719 57.457031 C 42.046875 57.542969 42 57.652344 42 57.777344 C 42 57.90625 42.046875 58.015625 42.136719 58.105469 C 42.226562 58.195312 42.335938 58.238281 42.460938 58.238281 C 42.578125 58.226562 42.675781 58.175781 42.75 58.089844 C 42.828125 58 42.867188 57.898438 42.867188 57.78125 C 42.867188 57.664062 42.828125 57.5625 42.75 57.476562 C 42.675781 57.390625 42.578125 57.339844 42.460938 57.324219 Z M 42.460938 57.324219 " fill-opacity="1" fill-rule="nonzero"/><path fill="#560216" d="M 60.621094 44.417969 L 63.785156 37.515625 C 64.367188 36.257812 64.699219 34.933594 64.78125 33.546875 L 64.96875 30.273438 C 64.992188 29.914062 64.878906 29.601562 64.628906 29.339844 C 64.515625 29.222656 64.386719 29.132812 64.242188 29.066406 C 64.09375 28.996094 63.941406 28.960938 63.78125 28.949219 C 63.621094 28.941406 63.460938 28.960938 63.308594 29.007812 C 63.15625 29.058594 63.015625 29.132812 62.890625 29.234375 C 62.652344 29.433594 62.511719 29.6875 62.46875 29.996094 L 61.800781 34.5625 C 61.675781 35.410156 61.367188 36.179688 60.878906 36.882812 L 58.507812 40.304688 C 57.957031 41.113281 57.195312 41.601562 56.230469 41.765625 L 52.742188 42.59375 C 52.550781 42.636719 52.367188 42.625 52.183594 42.550781 C 52 42.480469 51.855469 42.359375 51.746094 42.195312 C 51.636719 42.035156 51.585938 41.855469 51.589844 41.65625 C 51.59375 41.460938 51.652344 41.285156 51.769531 41.125 L 54.675781 37.289062 C 54.773438 37.15625 54.839844 37.011719 54.875 36.851562 C 54.914062 36.691406 54.914062 36.53125 54.886719 36.367188 C 54.855469 36.207031 54.792969 36.058594 54.699219 35.921875 C 54.609375 35.785156 54.492188 35.675781 54.355469 35.585938 C 54.109375 35.433594 53.847656 35.378906 53.5625 35.414062 C 53.277344 35.453125 53.039062 35.578125 52.84375 35.785156 C 51.855469 36.882812 50.5 38.320312 49.191406 39.714844 C 47.554688 41.453125 45.847656 43.25 44.960938 44.296875 C 43.550781 46.457031 42.46875 49.714844 41.894531 53.5625 L 42.046875 53.5625 L 42.355469 53.511719 C 42.628906 53.457031 42.902344 53.417969 43.171875 53.382812 L 43.511719 53.335938 C 43.796875 53.300781 44.082031 53.273438 44.371094 53.257812 L 44.613281 53.257812 C 44.960938 53.257812 45.28125 53.257812 45.640625 53.257812 L 45.921875 53.257812 C 46.214844 53.257812 46.503906 53.257812 46.792969 53.257812 L 47.160156 53.257812 C 47.40625 53.257812 47.65625 53.28125 47.898438 53.335938 L 48.289062 53.390625 C 48.535156 53.390625 48.78125 53.46875 49.023438 53.515625 L 49.382812 53.582031 L 49.570312 53.625 L 49.570312 52.113281 C 49.570312 51.820312 49.703125 51.617188 49.972656 51.5 L 55.84375 49 C 56.898438 48.5625 57.835938 47.945312 58.660156 47.15625 C 59.484375 46.363281 60.136719 45.453125 60.621094 44.417969 Z M 60.621094 44.417969 " fill-opacity="1" fill-rule="nonzero"/><g clip-path="url(#id2)"><path fill="#560216" d="M 4.082031 28.945312 C 3.71875 28.945312 3.414062 29.078125 3.167969 29.339844 C 2.917969 29.601562 2.804688 29.910156 2.828125 30.269531 L 3.011719 33.546875 C 3.09375 34.9375 3.425781 36.261719 4.007812 37.523438 L 7.210938 44.417969 C 7.683594 45.445312 8.328125 46.355469 9.140625 47.148438 C 9.957031 47.9375 10.882812 48.554688 11.925781 49 L 17.789062 51.5 C 18.0625 51.613281 18.199219 51.820312 18.199219 52.113281 L 18.199219 53.625 L 18.386719 53.589844 L 18.746094 53.515625 C 18.988281 53.46875 19.21875 53.421875 19.460938 53.390625 L 19.855469 53.328125 L 20.597656 53.28125 L 20.945312 53.28125 C 21.304688 53.28125 21.660156 53.242188 22.019531 53.242188 L 22.1875 53.242188 C 22.5 53.242188 22.808594 53.242188 23.117188 53.242188 L 23.496094 53.242188 L 24.230469 53.308594 L 24.644531 53.363281 L 25.378906 53.476562 L 25.765625 53.542969 L 25.902344 53.542969 C 25.320312 49.695312 24.246094 46.433594 22.835938 44.277344 C 21.933594 43.230469 20.242188 41.433594 18.605469 39.703125 C 17.269531 38.304688 15.933594 36.863281 14.953125 35.773438 C 14.757812 35.5625 14.519531 35.433594 14.234375 35.394531 C 13.949219 35.355469 13.683594 35.414062 13.441406 35.566406 C 13.304688 35.652344 13.1875 35.765625 13.09375 35.902344 C 13 36.039062 12.941406 36.1875 12.910156 36.347656 C 12.878906 36.507812 12.882812 36.671875 12.917969 36.832031 C 12.957031 36.992188 13.023438 37.136719 13.121094 37.269531 L 16.019531 41.097656 C 16.144531 41.257812 16.210938 41.4375 16.222656 41.636719 C 16.230469 41.839844 16.179688 42.023438 16.070312 42.191406 C 15.960938 42.359375 15.8125 42.484375 15.625 42.558594 C 15.4375 42.628906 15.246094 42.644531 15.050781 42.59375 L 11.542969 41.773438 C 10.59375 41.601562 9.847656 41.113281 9.308594 40.316406 L 6.933594 36.894531 C 6.449219 36.195312 6.140625 35.421875 6.011719 34.578125 L 5.34375 30.007812 C 5.304688 29.691406 5.160156 29.433594 4.910156 29.234375 C 4.671875 29.035156 4.394531 28.941406 4.082031 28.945312 Z M 4.082031 28.945312 " fill-opacity="1" fill-rule="nonzero"/></g><path fill="#560216" d="M 25.332031 57.324219 C 25.207031 57.324219 25.09375 57.367188 25.003906 57.457031 C 24.914062 57.546875 24.867188 57.65625 24.867188 57.785156 C 24.863281 57.910156 24.910156 58.019531 25 58.113281 C 25.089844 58.203125 25.199219 58.246094 25.328125 58.246094 C 25.457031 58.246094 25.566406 58.199219 25.65625 58.109375 C 25.746094 58.015625 25.789062 57.90625 25.789062 57.777344 C 25.789062 57.652344 25.746094 57.546875 25.65625 57.457031 C 25.566406 57.367188 25.460938 57.324219 25.332031 57.324219 Z M 25.332031 57.324219 " fill-opacity="1" fill-rule="nonzero"/><g clip-path="url(#id3)"><path fill="#560216" d="M 27.773438 55.433594 C 27.359375 55.300781 26.941406 55.179688 26.535156 55.078125 C 24.457031 54.535156 22.351562 54.382812 20.214844 54.617188 C 19.367188 54.714844 18.53125 54.878906 17.710938 55.105469 C 17.371094 55.199219 17.042969 55.292969 16.734375 55.402344 L 16.734375 62.027344 L 27.773438 62.027344 Z M 25.332031 59.574219 C 25.09375 59.578125 24.863281 59.53125 24.644531 59.441406 C 24.425781 59.351562 24.230469 59.222656 24.058594 59.054688 C 23.890625 58.886719 23.761719 58.691406 23.667969 58.472656 C 23.578125 58.25 23.53125 58.023438 23.53125 57.785156 C 23.527344 57.546875 23.574219 57.316406 23.664062 57.09375 C 23.753906 56.875 23.886719 56.679688 24.054688 56.511719 C 24.222656 56.339844 24.417969 56.210938 24.636719 56.121094 C 24.855469 56.027344 25.085938 55.980469 25.324219 55.980469 C 25.5625 55.980469 25.792969 56.027344 26.011719 56.117188 C 26.234375 56.210938 26.429688 56.339844 26.597656 56.507812 C 26.765625 56.675781 26.894531 56.871094 26.988281 57.089844 C 27.078125 57.3125 27.125 57.539062 27.125 57.777344 C 27.125 58.015625 27.078125 58.246094 26.988281 58.464844 C 26.898438 58.683594 26.765625 58.878906 26.601562 59.046875 C 26.433594 59.214844 26.238281 59.347656 26.019531 59.4375 C 25.800781 59.527344 25.570312 59.574219 25.332031 59.574219 Z M 25.332031 59.574219 " fill-opacity="1" fill-rule="nonzero"/></g><path fill="#560216" d="M 45.253906 22.867188 C 45.253906 22.179688 45.1875 21.503906 45.050781 20.832031 C 44.917969 20.160156 44.71875 19.507812 44.457031 18.875 C 44.195312 18.242188 43.875 17.640625 43.496094 17.070312 C 43.113281 16.5 42.683594 15.972656 42.199219 15.488281 C 41.714844 15.003906 41.1875 14.570312 40.617188 14.1875 C 40.050781 13.804688 39.449219 13.484375 38.816406 13.21875 C 38.183594 12.953125 37.53125 12.753906 36.859375 12.621094 C 36.191406 12.484375 35.511719 12.414062 34.828125 12.410156 C 33.902344 12.410156 32.992188 12.523438 32.101562 12.757812 C 31.734375 12.859375 31.378906 12.976562 31.023438 13.113281 C 30.28125 13.40625 29.582031 13.777344 28.921875 14.230469 C 28.214844 14.707031 27.582031 15.265625 27.011719 15.898438 C 26.445312 16.535156 25.960938 17.226562 25.5625 17.980469 C 25.164062 18.734375 24.863281 19.523438 24.660156 20.347656 C 24.453125 21.175781 24.351562 22.015625 24.351562 22.867188 C 24.351562 23.3125 24.382812 23.757812 24.445312 24.203125 C 24.441406 24.257812 24.441406 24.308594 24.445312 24.363281 C 24.441406 24.386719 24.441406 24.40625 24.445312 24.429688 C 24.730469 26.410156 25.53125 28.15625 26.84375 29.667969 C 27.535156 30.484375 28.335938 31.175781 29.242188 31.746094 C 30.148438 32.316406 31.121094 32.738281 32.15625 33.011719 C 33.191406 33.28125 34.246094 33.390625 35.316406 33.339844 C 36.386719 33.285156 37.421875 33.074219 38.425781 32.703125 C 39.429688 32.332031 40.355469 31.820312 41.203125 31.164062 C 42.050781 30.507812 42.777344 29.742188 43.390625 28.859375 C 44 27.980469 44.464844 27.03125 44.78125 26.007812 C 45.101562 24.984375 45.257812 23.9375 45.253906 22.867188 Z M 27.492188 23.535156 L 27.21875 23.535156 C 27.03125 23.535156 26.875 23.46875 26.746094 23.339844 C 26.613281 23.207031 26.550781 23.050781 26.550781 22.867188 C 26.550781 22.683594 26.613281 22.523438 26.746094 22.394531 C 26.875 22.265625 27.03125 22.199219 27.21875 22.199219 L 27.496094 22.199219 C 27.683594 22.199219 27.839844 22.265625 27.96875 22.394531 C 28.101562 22.523438 28.164062 22.683594 28.164062 22.867188 C 28.164062 23.050781 28.101562 23.207031 27.96875 23.339844 C 27.839844 23.46875 27.683594 23.535156 27.496094 23.535156 Z M 30.101562 28.511719 L 29.910156 28.707031 C 29.777344 28.835938 29.621094 28.902344 29.433594 28.902344 C 29.25 28.902344 29.089844 28.835938 28.960938 28.707031 C 28.832031 28.574219 28.765625 28.417969 28.765625 28.234375 C 28.765625 28.050781 28.832031 27.894531 28.960938 27.761719 L 29.160156 27.5625 C 29.292969 27.433594 29.449219 27.367188 29.632812 27.367188 C 29.816406 27.367188 29.972656 27.433594 30.101562 27.5625 C 30.234375 27.691406 30.304688 27.851562 30.304688 28.035156 C 30.304688 28.222656 30.242188 28.378906 30.109375 28.511719 Z M 30.101562 18.171875 C 29.972656 18.300781 29.816406 18.363281 29.632812 18.363281 C 29.449219 18.363281 29.292969 18.300781 29.160156 18.171875 L 28.960938 17.96875 C 28.832031 17.839844 28.765625 17.683594 28.765625 17.5 C 28.765625 17.316406 28.832031 17.15625 28.960938 17.027344 C 29.089844 16.894531 29.25 16.832031 29.433594 16.832031 C 29.621094 16.832031 29.777344 16.894531 29.910156 17.027344 L 30.101562 17.222656 C 30.234375 17.351562 30.304688 17.507812 30.304688 17.695312 C 30.304688 17.878906 30.242188 18.039062 30.109375 18.171875 Z M 42.128906 22.179688 L 42.410156 22.179688 C 42.59375 22.179688 42.75 22.242188 42.882812 22.375 C 43.011719 22.503906 43.078125 22.660156 43.078125 22.847656 C 43.078125 23.03125 43.011719 23.1875 42.882812 23.320312 C 42.75 23.449219 42.59375 23.515625 42.410156 23.515625 L 42.128906 23.515625 C 41.945312 23.515625 41.785156 23.449219 41.65625 23.320312 C 41.523438 23.1875 41.460938 23.03125 41.460938 22.847656 C 41.460938 22.660156 41.523438 22.503906 41.65625 22.375 C 41.785156 22.242188 41.945312 22.179688 42.128906 22.179688 Z M 39.507812 17.207031 L 39.703125 17.015625 C 39.832031 16.882812 39.992188 16.816406 40.175781 16.816406 C 40.363281 16.816406 40.519531 16.882812 40.652344 17.015625 C 40.78125 17.144531 40.847656 17.300781 40.847656 17.484375 C 40.847656 17.667969 40.78125 17.824219 40.652344 17.957031 L 40.453125 18.15625 C 40.320312 18.285156 40.164062 18.351562 39.976562 18.351562 C 39.792969 18.351562 39.636719 18.285156 39.507812 18.152344 C 39.375 18.023438 39.3125 17.863281 39.3125 17.679688 C 39.3125 17.496094 39.378906 17.339844 39.507812 17.207031 Z M 39.507812 27.550781 C 39.640625 27.421875 39.796875 27.355469 39.980469 27.355469 C 40.164062 27.355469 40.320312 27.421875 40.453125 27.550781 L 40.652344 27.75 C 40.859375 27.960938 40.90625 28.203125 40.792969 28.476562 C 40.675781 28.746094 40.472656 28.882812 40.175781 28.886719 C 39.992188 28.886719 39.835938 28.820312 39.703125 28.691406 L 39.507812 28.5 C 39.382812 28.367188 39.320312 28.210938 39.320312 28.03125 C 39.320312 27.847656 39.382812 27.691406 39.507812 27.5625 Z M 34.164062 15.265625 C 34.164062 15.078125 34.230469 14.921875 34.359375 14.792969 C 34.492188 14.660156 34.648438 14.597656 34.832031 14.597656 C 35.015625 14.597656 35.175781 14.660156 35.304688 14.792969 C 35.4375 14.921875 35.5 15.078125 35.5 15.265625 L 35.5 15.539062 C 35.5 15.722656 35.4375 15.878906 35.304688 16.011719 C 35.175781 16.140625 35.015625 16.207031 34.832031 16.207031 C 34.648438 16.207031 34.492188 16.140625 34.359375 16.011719 C 34.230469 15.878906 34.164062 15.722656 34.164062 15.539062 Z M 34.164062 18.890625 C 34.164062 18.707031 34.230469 18.550781 34.359375 18.417969 C 34.492188 18.289062 34.648438 18.222656 34.832031 18.222656 C 35.015625 18.222656 35.175781 18.289062 35.304688 18.417969 C 35.4375 18.550781 35.5 18.707031 35.5 18.890625 L 35.5 22.574219 L 37.773438 24.851562 C 37.902344 24.980469 37.964844 25.136719 37.964844 25.320312 C 37.964844 25.503906 37.902344 25.664062 37.773438 25.792969 C 37.640625 25.921875 37.484375 25.988281 37.300781 25.988281 C 37.117188 25.988281 36.960938 25.921875 36.832031 25.792969 L 34.359375 23.328125 C 34.230469 23.195312 34.167969 23.035156 34.164062 22.851562 Z M 34.164062 30.441406 L 34.164062 30.167969 C 34.164062 29.984375 34.230469 29.828125 34.359375 29.695312 C 34.492188 29.566406 34.648438 29.5 34.832031 29.5 C 35.015625 29.5 35.175781 29.566406 35.304688 29.695312 C 35.4375 29.828125 35.5 29.984375 35.5 30.167969 L 35.5 30.441406 C 35.5 30.625 35.4375 30.785156 35.304688 30.914062 C 35.175781 31.046875 35.015625 31.109375 34.832031 31.109375 C 34.648438 31.109375 34.492188 31.046875 34.359375 30.914062 C 34.230469 30.785156 34.164062 30.625 34.164062 30.441406 Z M 34.164062 30.441406 " fill-opacity="1" fill-rule="nonzero"/><g clip-path="url(#id4)"><path fill="#560216" d="M 31.566406 37.136719 L 32.074219 39.960938 L 37.546875 39.960938 L 38.054688 37.128906 C 38.101562 36.828125 38.273438 36.644531 38.574219 36.582031 C 39.746094 36.285156 40.859375 35.839844 41.914062 35.246094 C 42.136719 35.117188 42.359375 35.117188 42.582031 35.246094 L 44.949219 36.894531 L 48.820312 33.015625 L 47.191406 30.664062 C 47.042969 30.425781 47.042969 30.1875 47.191406 29.949219 C 47.800781 28.894531 48.261719 27.78125 48.574219 26.609375 C 48.644531 26.328125 48.820312 26.164062 49.101562 26.113281 L 51.933594 25.605469 L 51.933594 20.121094 L 49.101562 19.621094 C 48.824219 19.570312 48.648438 19.40625 48.574219 19.132812 C 48.261719 17.957031 47.800781 16.84375 47.191406 15.792969 C 47.042969 15.554688 47.042969 15.316406 47.191406 15.078125 L 48.835938 12.710938 L 44.96875 8.84375 L 42.582031 10.488281 C 42.367188 10.628906 42.144531 10.644531 41.914062 10.527344 C 41.859375 10.496094 41.804688 10.464844 41.746094 10.441406 C 40.738281 9.875 39.675781 9.441406 38.5625 9.144531 C 38.289062 9.070312 38.128906 8.894531 38.078125 8.617188 L 37.578125 5.792969 L 32.074219 5.792969 L 31.566406 8.617188 C 31.515625 8.898438 31.351562 9.074219 31.078125 9.144531 C 30.59375 9.273438 30.121094 9.425781 29.65625 9.613281 C 28.992188 9.867188 28.347656 10.171875 27.730469 10.527344 C 27.492188 10.679688 27.253906 10.679688 27.015625 10.527344 L 24.652344 8.878906 L 20.785156 12.746094 L 22.433594 15.109375 C 22.585938 15.347656 22.585938 15.585938 22.433594 15.824219 C 21.820312 16.875 21.355469 17.988281 21.039062 19.164062 C 20.964844 19.4375 20.789062 19.597656 20.511719 19.648438 L 17.683594 20.148438 L 17.683594 25.632812 L 20.523438 26.125 C 20.804688 26.179688 20.980469 26.34375 21.050781 26.621094 C 21.359375 27.796875 21.820312 28.910156 22.433594 29.960938 C 22.589844 30.203125 22.589844 30.441406 22.433594 30.683594 L 20.785156 33.042969 L 24.660156 36.914062 L 27.015625 35.246094 C 27.253906 35.09375 27.492188 35.09375 27.730469 35.246094 C 28.785156 35.851562 29.898438 36.316406 31.070312 36.636719 C 31.339844 36.699219 31.503906 36.867188 31.566406 37.136719 Z M 25.882812 30.570312 C 24.421875 28.863281 23.53125 26.902344 23.207031 24.683594 C 23.1875 24.589844 23.175781 24.496094 23.167969 24.402344 C 23.09375 23.898438 23.058594 23.390625 23.0625 22.878906 C 23.0625 21.917969 23.179688 20.972656 23.414062 20.039062 C 23.644531 19.109375 23.984375 18.21875 24.4375 17.367188 C 24.886719 16.519531 25.429688 15.738281 26.070312 15.019531 C 26.710938 14.304688 27.425781 13.675781 28.21875 13.132812 C 28.953125 12.625 29.730469 12.203125 30.558594 11.863281 C 30.9375 11.71875 31.339844 11.582031 31.773438 11.464844 C 32.773438 11.199219 33.792969 11.070312 34.828125 11.070312 C 35.316406 11.070312 35.808594 11.101562 36.296875 11.164062 C 36.78125 11.226562 37.265625 11.316406 37.742188 11.441406 C 38.21875 11.5625 38.683594 11.714844 39.140625 11.894531 C 39.597656 12.078125 40.042969 12.285156 40.472656 12.523438 C 40.90625 12.757812 41.320312 13.019531 41.71875 13.308594 C 42.117188 13.597656 42.496094 13.910156 42.855469 14.246094 C 43.214844 14.582031 43.550781 14.9375 43.863281 15.316406 C 44.179688 15.691406 44.46875 16.089844 44.734375 16.503906 C 45 16.917969 45.238281 17.347656 45.449219 17.789062 C 45.660156 18.234375 45.84375 18.691406 45.996094 19.15625 C 46.152344 19.625 46.277344 20.097656 46.371094 20.582031 C 46.464844 21.0625 46.53125 21.550781 46.566406 22.039062 C 46.597656 22.53125 46.601562 23.019531 46.574219 23.511719 C 46.546875 24.003906 46.492188 24.488281 46.402344 24.972656 C 46.316406 25.457031 46.195312 25.933594 46.050781 26.402344 C 45.902344 26.871094 45.726562 27.328125 45.519531 27.777344 C 45.316406 28.222656 45.082031 28.65625 44.824219 29.074219 C 44.566406 29.492188 44.28125 29.890625 43.972656 30.273438 C 43.664062 30.65625 43.332031 31.015625 42.976562 31.359375 C 42.621094 31.699219 42.246094 32.015625 41.855469 32.308594 C 41.460938 32.605469 41.050781 32.871094 40.621094 33.117188 C 40.195312 33.359375 39.753906 33.574219 39.296875 33.761719 C 38.84375 33.949219 38.378906 34.105469 37.90625 34.234375 C 37.429688 34.363281 36.949219 34.464844 36.464844 34.535156 C 35.976562 34.601562 35.488281 34.640625 34.996094 34.648438 C 34.503906 34.65625 34.015625 34.636719 33.523438 34.582031 C 33.035156 34.527344 32.550781 34.445312 32.074219 34.332031 C 31.597656 34.21875 31.125 34.074219 30.667969 33.902344 C 30.207031 33.730469 29.757812 33.527344 29.324219 33.300781 C 28.886719 33.070312 28.46875 32.816406 28.0625 32.535156 C 27.660156 32.253906 27.277344 31.949219 26.910156 31.621094 C 26.546875 31.292969 26.203125 30.941406 25.882812 30.570312 Z M 25.882812 30.570312 " fill-opacity="1" fill-rule="nonzero"/></g></svg>