<svg xmlns="http://www.w3.org/2000/svg" xmlns:xlink="http://www.w3.org/1999/xlink" width="50" zoomAndPan="magnify" viewBox="0 0 37.5 37.499999" height="50" preserveAspectRatio="xMidYMid meet" version="1.0"><defs><clipPath id="id1"><path d="M 1.710938 1.710938 L 35.460938 1.710938 L 35.460938 35.460938 L 1.710938 35.460938 Z M 1.710938 1.710938 " clip-rule="nonzero"/></clipPath><clipPath id="id2"><path d="M 7.648438 7.648438 L 30.148438 7.648438 L 30.148438 30.148438 L 7.648438 30.148438 Z M 7.648438 7.648438 " clip-rule="nonzero"/></clipPath></defs><g clip-path="url(#id1)"><path fill="#560216" d="M 35.460938 18.585938 C 35.460938 19.140625 35.433594 19.691406 35.378906 20.242188 C 35.324219 20.789062 35.246094 21.335938 35.136719 21.878906 C 35.027344 22.421875 34.894531 22.957031 34.734375 23.484375 C 34.574219 24.015625 34.386719 24.535156 34.175781 25.042969 C 33.964844 25.554688 33.730469 26.054688 33.46875 26.542969 C 33.207031 27.027344 32.925781 27.503906 32.617188 27.960938 C 32.308594 28.421875 31.980469 28.863281 31.628906 29.292969 C 31.28125 29.71875 30.910156 30.128906 30.519531 30.519531 C 30.128906 30.910156 29.71875 31.28125 29.292969 31.628906 C 28.863281 31.980469 28.421875 32.308594 27.960938 32.617188 C 27.5 32.925781 27.027344 33.207031 26.542969 33.46875 C 26.054688 33.730469 25.554688 33.964844 25.042969 34.175781 C 24.535156 34.386719 24.011719 34.574219 23.484375 34.734375 C 22.957031 34.894531 22.421875 35.027344 21.878906 35.136719 C 21.335938 35.246094 20.789062 35.324219 20.242188 35.378906 C 19.691406 35.433594 19.140625 35.460938 18.585938 35.460938 C 18.035156 35.460938 17.480469 35.433594 16.933594 35.378906 C 16.382812 35.324219 15.835938 35.246094 15.292969 35.136719 C 14.753906 35.027344 14.214844 34.894531 13.6875 34.734375 C 13.160156 34.574219 12.640625 34.386719 12.128906 34.175781 C 11.617188 33.964844 11.117188 33.730469 10.632812 33.46875 C 10.144531 33.207031 9.671875 32.925781 9.210938 32.617188 C 8.75 32.308594 8.308594 31.980469 7.878906 31.628906 C 7.453125 31.28125 7.042969 30.910156 6.652344 30.519531 C 6.261719 30.128906 5.890625 29.71875 5.542969 29.292969 C 5.191406 28.863281 4.863281 28.421875 4.554688 27.960938 C 4.25 27.503906 3.964844 27.027344 3.703125 26.542969 C 3.441406 26.054688 3.207031 25.554688 2.996094 25.042969 C 2.785156 24.535156 2.597656 24.015625 2.4375 23.484375 C 2.277344 22.957031 2.144531 22.421875 2.035156 21.878906 C 1.925781 21.335938 1.847656 20.789062 1.792969 20.242188 C 1.738281 19.691406 1.710938 19.140625 1.710938 18.585938 C 1.710938 18.035156 1.738281 17.480469 1.792969 16.933594 C 1.847656 16.382812 1.925781 15.835938 2.035156 15.292969 C 2.144531 14.753906 2.277344 14.214844 2.4375 13.6875 C 2.597656 13.160156 2.785156 12.640625 2.996094 12.128906 C 3.207031 11.617188 3.441406 11.117188 3.703125 10.632812 C 3.964844 10.144531 4.25 9.671875 4.554688 9.210938 C 4.863281 8.75 5.191406 8.308594 5.542969 7.882812 C 5.890625 7.453125 6.261719 7.042969 6.652344 6.652344 C 7.042969 6.261719 7.453125 5.890625 7.878906 5.542969 C 8.308594 5.191406 8.75 4.863281 9.210938 4.554688 C 9.671875 4.25 10.144531 3.964844 10.632812 3.703125 C 11.117188 3.441406 11.617188 3.207031 12.128906 2.996094 C 12.640625 2.785156 13.160156 2.597656 13.6875 2.4375 C 14.214844 2.277344 14.753906 2.144531 15.292969 2.035156 C 15.835938 1.925781 16.382812 1.847656 16.933594 1.792969 C 17.480469 1.738281 18.035156 1.710938 18.585938 1.710938 C 19.140625 1.710938 19.691406 1.738281 20.242188 1.792969 C 20.789062 1.847656 21.335938 1.925781 21.878906 2.035156 C 22.421875 2.144531 22.957031 2.277344 23.484375 2.4375 C 24.011719 2.597656 24.535156 2.785156 25.042969 2.996094 C 25.554688 3.207031 26.054688 3.441406 26.542969 3.703125 C 27.027344 3.964844 27.5 4.25 27.960938 4.554688 C 28.421875 4.863281 28.863281 5.191406 29.292969 5.542969 C 29.71875 5.890625 30.128906 6.261719 30.519531 6.652344 C 30.910156 7.042969 31.28125 7.453125 31.628906 7.882812 C 31.980469 8.308594 32.308594 8.75 32.617188 9.210938 C 32.925781 9.671875 33.207031 10.144531 33.46875 10.632812 C 33.730469 11.117188 33.964844 11.617188 34.175781 12.128906 C 34.386719 12.640625 34.574219 13.160156 34.734375 13.6875 C 34.894531 14.214844 35.027344 14.753906 35.136719 15.292969 C 35.246094 15.835938 35.324219 16.382812 35.378906 16.933594 C 35.433594 17.480469 35.460938 18.035156 35.460938 18.585938 Z M 35.460938 18.585938 " fill-opacity="1" fill-rule="nonzero"/></g><path fill="#ffffff" d="M 12.148438 20.398438 L 9.898438 20.398438 L 9.898438 18.898438 L 12.148438 18.898438 Z M 12.523438 18.148438 L 9.523438 18.148438 C 9.316406 18.148438 9.148438 18.316406 9.148438 18.523438 L 9.148438 20.773438 C 9.148438 20.980469 9.316406 21.148438 9.523438 21.148438 L 12.523438 21.148438 C 12.730469 21.148438 12.898438 20.980469 12.898438 20.773438 L 12.898438 18.523438 C 12.898438 18.316406 12.730469 18.148438 12.523438 18.148438 " fill-opacity="1" fill-rule="nonzero"/><path fill="#ffffff" d="M 13.648438 20.773438 L 14.398438 20.773438 L 14.398438 20.023438 L 13.648438 20.023438 L 13.648438 20.773438 " fill-opacity="1" fill-rule="nonzero"/><path fill="#ffffff" d="M 18.148438 18.898438 L 18.898438 18.898438 L 18.898438 18.148438 L 18.148438 18.148438 L 18.148438 18.898438 " fill-opacity="1" fill-rule="nonzero"/><path fill="#ffffff" d="M 21.898438 18.148438 L 19.648438 18.148438 L 19.648438 18.898438 L 21.898438 18.898438 L 21.898438 18.148438 " fill-opacity="1" fill-rule="nonzero"/><path fill="#ffffff" d="M 18.148438 20.773438 L 18.898438 20.773438 L 18.898438 20.023438 L 18.148438 20.023438 L 18.148438 20.773438 " fill-opacity="1" fill-rule="nonzero"/><path fill="#ffffff" d="M 21.523438 14.023438 L 20.773438 14.023438 L 20.773438 14.773438 L 21.523438 14.773438 L 21.523438 14.023438 " fill-opacity="1" fill-rule="nonzero"/><path fill="#ffffff" d="M 24.523438 14.023438 L 22.273438 14.023438 L 22.273438 14.773438 L 24.523438 14.773438 L 24.523438 14.023438 " fill-opacity="1" fill-rule="nonzero"/><path fill="#ffffff" d="M 23.023438 16.273438 L 24.523438 16.273438 L 24.523438 15.523438 L 23.023438 15.523438 L 23.023438 16.273438 " fill-opacity="1" fill-rule="nonzero"/><path fill="#ffffff" d="M 22.273438 15.523438 L 20.773438 15.523438 L 20.773438 16.273438 L 22.273438 16.273438 L 22.273438 15.523438 " fill-opacity="1" fill-rule="nonzero"/><path fill="#ffffff" d="M 20.773438 23.398438 L 21.898438 23.398438 L 21.898438 22.648438 L 20.773438 22.648438 L 20.773438 23.398438 " fill-opacity="1" fill-rule="nonzero"/><g clip-path="url(#id2)"><path fill="#ffffff" d="M 29.398438 29.398438 L 22.648438 29.398438 L 22.648438 27.148438 L 29.398438 27.148438 Z M 24.746094 21.824219 C 24.359375 21.304688 24.148438 20.667969 24.148438 20.023438 C 24.148438 18.988281 24.988281 18.148438 26.023438 18.148438 C 27.054688 18.148438 27.898438 18.988281 27.898438 20.023438 C 27.898438 20.667969 27.683594 21.304688 27.296875 21.824219 C 26.957031 22.273438 26.773438 22.832031 26.773438 23.398438 L 26.773438 26.398438 L 25.273438 26.398438 L 25.273438 23.398438 C 25.273438 22.832031 25.085938 22.273438 24.746094 21.824219 Z M 17.398438 24.523438 C 17.191406 24.523438 17.023438 24.355469 17.023438 24.148438 L 17.023438 16.207031 C 17.023438 16.109375 17.0625 16.011719 17.132812 15.941406 L 19.273438 13.800781 L 19.273438 15.148438 C 19.273438 15.355469 19.105469 15.523438 18.898438 15.523438 L 18.148438 15.523438 L 18.148438 16.273438 L 18.898438 16.273438 C 19.515625 16.273438 20.023438 15.765625 20.023438 15.148438 L 20.023438 13.273438 L 26.023438 13.273438 C 26.230469 13.273438 26.398438 13.441406 26.398438 13.648438 L 26.398438 17.425781 C 26.273438 17.40625 26.148438 17.398438 26.023438 17.398438 C 25.308594 17.398438 24.660156 17.683594 24.1875 18.148438 L 22.648438 18.148438 L 22.648438 18.898438 L 23.652344 18.898438 C 23.488281 19.238281 23.398438 19.621094 23.398438 20.023438 L 19.648438 20.023438 L 19.648438 20.773438 L 23.472656 20.773438 C 23.585938 21.3125 23.816406 21.828125 24.148438 22.273438 C 24.234375 22.386719 24.308594 22.515625 24.363281 22.648438 L 22.648438 22.648438 L 22.648438 23.398438 L 24.523438 23.398438 L 24.523438 24.523438 Z M 8.398438 21.898438 L 8.398438 9.261719 L 9.960938 11.605469 C 10.03125 11.710938 10.148438 11.773438 10.273438 11.773438 L 12.898438 11.773438 L 12.898438 14.25 C 12.417969 14.808594 12.265625 15.566406 12.503906 16.273438 L 12.542969 16.390625 L 13.253906 16.152344 L 13.214844 16.035156 C 13.117188 15.75 13.121094 15.449219 13.214844 15.179688 C 13.421875 15.390625 13.707031 15.523438 14.023438 15.523438 C 14.640625 15.523438 15.148438 15.015625 15.148438 14.398438 L 15.148438 11.773438 L 17.773438 11.773438 C 17.898438 11.773438 18.015625 11.710938 18.085938 11.605469 L 19.648438 9.261719 L 19.648438 12.566406 C 19.464844 12.617188 19.300781 12.714844 19.164062 12.851562 L 16.601562 15.414062 C 16.390625 15.625 16.273438 15.90625 16.273438 16.207031 L 16.273438 18.523438 L 13.648438 18.523438 L 13.648438 19.273438 L 16.273438 19.273438 L 16.273438 20.023438 L 15.148438 20.023438 L 15.148438 20.773438 L 16.273438 20.773438 L 16.273438 21.898438 Z M 15.148438 10.648438 C 15.148438 10.027344 14.640625 9.523438 14.023438 9.523438 C 13.402344 9.523438 12.898438 10.027344 12.898438 10.648438 L 12.898438 11.023438 L 10.472656 11.023438 L 8.722656 8.398438 L 19.320312 8.398438 L 17.570312 11.023438 L 15.148438 11.023438 Z M 14.023438 14.023438 C 14.230469 14.023438 14.398438 14.191406 14.398438 14.398438 C 14.398438 14.605469 14.230469 14.773438 14.023438 14.773438 C 13.816406 14.773438 13.648438 14.605469 13.648438 14.398438 C 13.648438 14.191406 13.816406 14.023438 14.023438 14.023438 Z M 14.398438 11.773438 L 14.398438 13.335938 C 14.28125 13.296875 14.152344 13.273438 14.023438 13.273438 C 13.890625 13.273438 13.765625 13.296875 13.648438 13.335938 L 13.648438 11.773438 Z M 14.023438 11.023438 C 13.816406 11.023438 13.648438 10.855469 13.648438 10.648438 C 13.648438 10.441406 13.816406 10.273438 14.023438 10.273438 C 14.230469 10.273438 14.398438 10.441406 14.398438 10.648438 C 14.398438 10.855469 14.230469 11.023438 14.023438 11.023438 Z M 29.773438 26.398438 L 27.523438 26.398438 L 27.523438 23.398438 C 27.523438 22.996094 27.65625 22.59375 27.898438 22.273438 C 28.382812 21.628906 28.648438 20.828125 28.648438 20.023438 C 28.648438 18.976562 28.035156 18.074219 27.148438 17.652344 L 27.148438 13.648438 C 27.148438 13.027344 26.640625 12.523438 26.023438 12.523438 L 20.398438 12.523438 L 20.398438 8.023438 C 20.398438 7.816406 20.230469 7.648438 20.023438 7.648438 L 8.023438 7.648438 C 7.816406 7.648438 7.648438 7.816406 7.648438 8.023438 L 7.648438 22.273438 C 7.648438 22.480469 7.816406 22.648438 8.023438 22.648438 L 16.273438 22.648438 L 16.273438 24.148438 C 16.273438 24.765625 16.777344 25.273438 17.398438 25.273438 L 24.523438 25.273438 L 24.523438 26.398438 L 22.273438 26.398438 C 22.066406 26.398438 21.898438 26.566406 21.898438 26.773438 L 21.898438 29.773438 C 21.898438 29.980469 22.066406 30.148438 22.273438 30.148438 L 29.773438 30.148438 C 29.980469 30.148438 30.148438 29.980469 30.148438 29.773438 L 30.148438 26.773438 C 30.148438 26.566406 29.980469 26.398438 29.773438 26.398438 " fill-opacity="1" fill-rule="nonzero"/></g></svg>