<svg xmlns="http://www.w3.org/2000/svg" xmlns:xlink="http://www.w3.org/1999/xlink" width="90" zoomAndPan="magnify" viewBox="0 0 67.5 67.499996" height="90" preserveAspectRatio="xMidYMid meet" version="1.0"><defs><clipPath id="id1"><path d="M 1.003906 5.753906 L 66.253906 5.753906 L 66.253906 62 L 1.003906 62 Z M 1.003906 5.753906 " clip-rule="nonzero"/></clipPath></defs><path fill="#560216" d="M 41.101562 26.90625 C 40.414062 29.253906 39.335938 31.316406 37.875 33.070312 C 37.417969 33.621094 36.921875 34.144531 36.390625 34.632812 C 35.75 35.226562 35.050781 35.777344 34.300781 36.28125 C 33.8125 36.605469 33.484375 36.625 33.003906 36.355469 C 32.085938 35.84375 31.257812 35.269531 30.507812 34.632812 C 29.941406 34.148438 29.421875 33.628906 28.945312 33.070312 C 27.035156 30.828125 25.875 27.972656 25.433594 24.445312 C 25.265625 23.121094 25.210938 21.757812 25.265625 20.285156 C 25.269531 20.117188 25.398438 19.976562 25.5625 19.953125 C 27.164062 19.734375 28.867188 19.460938 30.484375 18.746094 C 31.492188 18.296875 32.457031 17.757812 33.351562 17.128906 C 33.527344 17.007812 33.628906 16.953125 33.710938 16.953125 C 33.769531 16.953125 33.824219 16.980469 33.890625 17.03125 C 35.046875 17.910156 36.324219 18.605469 37.6875 19.09375 C 38.964844 19.550781 40.363281 19.84375 41.855469 19.96875 C 41.957031 19.976562 42.03125 20.058594 42.03125 20.164062 C 42.066406 22.414062 41.753906 24.683594 41.101562 26.90625 Z M 43.914062 20.046875 C 43.902344 19.664062 43.878906 19.265625 43.703125 18.910156 C 43.492188 18.496094 43.140625 18.21875 42.613281 18.050781 C 42.191406 17.917969 41.726562 17.882812 41.3125 17.847656 L 41.308594 17.847656 C 39.304688 17.6875 37.359375 16.984375 35.671875 15.824219 C 35.617188 15.785156 35.570312 15.75 35.515625 15.710938 C 35 15.351562 34.460938 14.976562 33.816406 14.945312 C 33.082031 14.910156 32.441406 15.328125 31.871094 15.703125 C 31.824219 15.730469 31.777344 15.761719 31.730469 15.792969 C 30.421875 16.644531 28.988281 17.261719 27.476562 17.617188 C 26.8125 17.777344 26.097656 17.886719 25.234375 17.957031 C 24.414062 18.019531 23.835938 18.394531 23.570312 19.039062 C 23.382812 19.488281 23.355469 19.96875 23.34375 20.460938 C 23.335938 20.839844 23.335938 21.21875 23.339844 21.585938 C 23.390625 25.839844 24.277344 29.429688 25.96875 32.257812 C 26.136719 32.535156 26.308594 32.804688 26.492188 33.070312 C 26.867188 33.613281 27.273438 34.132812 27.722656 34.632812 C 27.957031 34.894531 28.195312 35.148438 28.449219 35.398438 C 29.359375 36.300781 30.398438 37.125 31.53125 37.851562 C 32.160156 38.253906 32.84375 38.621094 33.582031 38.621094 C 33.628906 38.621094 33.671875 38.621094 33.710938 38.621094 C 34.363281 38.578125 34.941406 38.25 35.472656 37.90625 C 36.8125 37.023438 38.042969 35.925781 39.132812 34.632812 C 39.160156 34.601562 39.183594 34.570312 39.210938 34.542969 C 39.601562 34.070312 39.96875 33.582031 40.3125 33.070312 C 40.929688 32.171875 41.472656 31.207031 41.929688 30.195312 C 43.328125 27.144531 44.011719 23.628906 43.914062 20.046875 " fill-opacity="1" fill-rule="nonzero"/><path fill="#560216" d="M 38.0625 24.738281 C 38.042969 24.851562 37.957031 24.941406 37.878906 25.023438 C 36.210938 26.699219 34.550781 28.382812 32.890625 30.0625 C 32.746094 30.203125 32.566406 30.359375 32.371094 30.316406 C 32.265625 30.289062 32.179688 30.207031 32.101562 30.128906 C 31.207031 29.222656 30.308594 28.316406 29.410156 27.410156 C 29.308594 27.304688 29.195312 27.183594 29.195312 27.035156 C 29.195312 26.890625 29.304688 26.773438 29.40625 26.667969 C 29.675781 26.390625 29.949219 26.117188 30.21875 25.839844 C 30.328125 25.726562 30.449219 25.609375 30.605469 25.605469 C 30.777344 25.59375 30.917969 25.726562 31.039062 25.847656 C 31.515625 26.328125 31.988281 26.808594 32.464844 27.289062 C 33.722656 26.015625 34.980469 24.746094 36.238281 23.476562 C 36.347656 23.363281 36.46875 23.25 36.621094 23.246094 C 36.789062 23.238281 36.925781 23.367188 37.042969 23.484375 C 37.308594 23.753906 37.574219 24.023438 37.835938 24.289062 C 37.957031 24.414062 38.089844 24.566406 38.0625 24.738281 Z M 40.175781 21.183594 C 40.175781 21.183594 40.175781 21.183594 40.171875 21.183594 C 37.917969 20.992188 35.820312 20.3125 33.960938 18.890625 C 33.699219 18.691406 33.503906 18.808594 33.28125 18.964844 C 32.570312 19.460938 31.824219 19.878906 31.039062 20.226562 C 29.785156 20.78125 28.460938 20.996094 27.085938 21.1875 C 26.910156 21.210938 26.773438 21.359375 26.765625 21.539062 C 26.714844 22.734375 26.753906 23.859375 26.894531 24.984375 C 27.320312 28.332031 28.585938 31.066406 30.851562 33.070312 C 31.492188 33.640625 32.210938 34.152344 33.019531 34.605469 C 33.035156 34.617188 33.054688 34.621094 33.070312 34.632812 C 33.445312 34.828125 33.753906 34.828125 34.117188 34.632812 C 34.167969 34.605469 34.21875 34.570312 34.273438 34.535156 C 34.9375 34.09375 35.546875 33.601562 36.113281 33.070312 C 37.824219 31.449219 39.046875 29.417969 39.765625 26.972656 C 40.28125 25.210938 40.539062 23.402344 40.515625 21.546875 C 40.511719 21.359375 40.363281 21.199219 40.175781 21.183594 " fill-opacity="1" fill-rule="nonzero"/><path fill="#560216" d="M 21.550781 21.703125 C 21.570312 22.21875 21.601562 22.71875 21.644531 23.210938 L 21.550781 21.703125 " fill-opacity="1" fill-rule="nonzero"/><path fill="#560216" d="M 21.550781 21.703125 C 21.570312 22.21875 21.601562 22.71875 21.644531 23.210938 L 21.550781 21.703125 " fill-opacity="1" fill-rule="nonzero"/><path fill="#560216" d="M 11.742188 14.730469 L 6.867188 14.730469 C 6.40625 14.730469 6.027344 14.347656 6.027344 13.882812 C 6.027344 13.414062 6.40625 13.035156 6.867188 13.035156 L 11.742188 13.035156 C 12.203125 13.035156 12.582031 13.414062 12.582031 13.882812 C 12.582031 14.347656 12.203125 14.730469 11.742188 14.730469 " fill-opacity="1" fill-rule="nonzero"/><path fill="#560216" d="M 20.171875 15.222656 L 17.386719 15.21875 L 17.386719 12.539062 L 20.171875 12.539062 Z M 20.988281 10.976562 L 16.578125 10.976562 C 16.351562 10.976562 16.148438 11.066406 16.003906 11.207031 C 15.851562 11.351562 15.765625 11.546875 15.765625 11.757812 L 15.765625 15.949219 C 15.761719 15.964844 15.761719 15.980469 15.761719 16 C 15.761719 16.058594 15.769531 16.117188 15.78125 16.175781 C 15.796875 16.230469 15.820312 16.285156 15.84375 16.339844 C 15.972656 16.601562 16.25 16.785156 16.578125 16.785156 C 16.601562 16.785156 16.628906 16.78125 16.652344 16.78125 L 20.980469 16.785156 C 21.429688 16.785156 21.792969 16.433594 21.792969 16.003906 L 21.796875 11.757812 C 21.796875 11.328125 21.433594 10.980469 20.988281 10.976562 " fill-opacity="1" fill-rule="nonzero"/><path fill="#560216" d="M 31.523438 13.769531 C 31.480469 13.796875 31.441406 13.824219 31.398438 13.851562 C 30.902344 14.171875 30.390625 14.46875 29.867188 14.730469 L 25.816406 14.730469 C 25.351562 14.730469 24.972656 14.347656 24.972656 13.882812 C 24.972656 13.644531 25.066406 13.4375 25.222656 13.28125 C 25.375 13.128906 25.585938 13.035156 25.816406 13.035156 L 30.6875 13.035156 C 31.113281 13.035156 31.46875 13.355469 31.523438 13.769531 " fill-opacity="1" fill-rule="nonzero"/><path fill="#560216" d="M 49.636719 14.730469 L 44.765625 14.730469 C 44.296875 14.730469 43.921875 14.347656 43.921875 13.882812 C 43.921875 13.414062 44.296875 13.035156 44.765625 13.035156 L 49.636719 13.035156 C 50.101562 13.035156 50.480469 13.414062 50.480469 13.882812 C 50.480469 14.347656 50.101562 14.730469 49.636719 14.730469 " fill-opacity="1" fill-rule="nonzero"/><path fill="#560216" d="M 10.4375 23.824219 L 7.648438 23.820312 L 7.648438 21.140625 L 10.4375 21.140625 Z M 11.25 19.578125 L 6.839844 19.578125 C 6.617188 19.578125 6.410156 19.667969 6.265625 19.808594 C 6.121094 19.953125 6.027344 20.144531 6.027344 20.359375 L 6.027344 24.550781 C 6.027344 24.566406 6.027344 24.582031 6.027344 24.601562 C 6.027344 24.660156 6.03125 24.71875 6.046875 24.777344 C 6.0625 24.835938 6.082031 24.886719 6.109375 24.9375 C 6.238281 25.203125 6.515625 25.382812 6.839844 25.382812 C 6.863281 25.382812 6.890625 25.382812 6.914062 25.378906 L 11.246094 25.382812 C 11.695312 25.382812 12.054688 25.035156 12.054688 24.605469 L 12.0625 20.359375 C 12.0625 19.929688 11.695312 19.578125 11.25 19.578125 " fill-opacity="1" fill-rule="nonzero"/><path fill="#560216" d="M 48.851562 23.824219 L 46.070312 23.820312 L 46.070312 21.140625 L 48.855469 21.140625 Z M 49.667969 19.578125 L 45.742188 19.578125 C 45.746094 21.554688 45.550781 23.5 45.160156 25.378906 C 45.195312 25.382812 45.222656 25.382812 45.257812 25.382812 C 45.285156 25.382812 45.308594 25.382812 45.335938 25.378906 L 49.660156 25.382812 L 49.664062 25.382812 C 50.109375 25.382812 50.472656 25.035156 50.476562 24.605469 L 50.480469 20.359375 C 50.480469 19.929688 50.117188 19.578125 49.667969 19.578125 " fill-opacity="1" fill-rule="nonzero"/><path fill="#560216" d="M 21.644531 23.210938 C 21.515625 23.289062 21.371094 23.328125 21.214844 23.328125 L 16.34375 23.328125 C 15.878906 23.328125 15.5 22.949219 15.5 22.480469 C 15.5 22.246094 15.59375 22.035156 15.75 21.882812 C 15.898438 21.730469 16.109375 21.636719 16.34375 21.636719 L 21.214844 21.636719 C 21.332031 21.636719 21.445312 21.660156 21.550781 21.703125 L 21.644531 23.210938 " fill-opacity="1" fill-rule="nonzero"/><path fill="#560216" d="M 11.742188 31.929688 L 6.867188 31.929688 C 6.40625 31.929688 6.027344 31.550781 6.027344 31.082031 C 6.027344 30.617188 6.40625 30.234375 6.867188 30.234375 L 11.742188 30.234375 C 12.203125 30.234375 12.582031 30.617188 12.582031 31.082031 C 12.582031 31.550781 12.203125 31.929688 11.742188 31.929688 " fill-opacity="1" fill-rule="nonzero"/><path fill="#560216" d="M 20.171875 32.421875 L 17.386719 32.421875 L 17.386719 29.742188 L 20.171875 29.742188 Z M 20.988281 28.179688 L 16.578125 28.179688 C 16.351562 28.179688 16.148438 28.269531 16.003906 28.410156 C 15.851562 28.550781 15.765625 28.746094 15.765625 28.960938 L 15.765625 33.152344 C 15.761719 33.164062 15.761719 33.183594 15.761719 33.199219 C 15.761719 33.261719 15.769531 33.320312 15.78125 33.378906 C 15.796875 33.4375 15.820312 33.488281 15.84375 33.539062 C 15.972656 33.804688 16.25 33.984375 16.578125 33.984375 C 16.601562 33.984375 16.628906 33.984375 16.652344 33.980469 L 20.980469 33.984375 C 21.425781 33.984375 21.792969 33.636719 21.792969 33.207031 L 21.796875 28.960938 C 21.796875 28.53125 21.433594 28.179688 20.988281 28.179688 " fill-opacity="1" fill-rule="nonzero"/><path fill="#560216" d="M 49.636719 31.929688 L 44.765625 31.929688 C 44.296875 31.929688 43.921875 31.550781 43.921875 31.082031 C 43.921875 30.617188 44.296875 30.234375 44.765625 30.234375 L 49.636719 30.234375 C 50.101562 30.234375 50.480469 30.617188 50.480469 31.082031 C 50.480469 31.550781 50.101562 31.929688 49.636719 31.929688 " fill-opacity="1" fill-rule="nonzero"/><path fill="#560216" d="M 10.4375 41.023438 L 7.648438 41.019531 L 7.648438 38.34375 L 10.4375 38.34375 Z M 11.25 36.785156 L 6.839844 36.785156 C 6.617188 36.785156 6.410156 36.871094 6.265625 37.011719 C 6.121094 37.152344 6.027344 37.347656 6.027344 37.5625 L 6.027344 41.75 C 6.027344 41.765625 6.027344 41.785156 6.027344 41.800781 C 6.027344 41.863281 6.03125 41.921875 6.046875 41.976562 C 6.0625 42.035156 6.082031 42.09375 6.109375 42.144531 C 6.238281 42.40625 6.515625 42.585938 6.839844 42.585938 C 6.863281 42.585938 6.890625 42.585938 6.914062 42.582031 L 11.246094 42.585938 C 11.695312 42.585938 12.054688 42.238281 12.054688 41.804688 L 12.0625 37.566406 C 12.0625 37.132812 11.695312 36.785156 11.25 36.785156 " fill-opacity="1" fill-rule="nonzero"/><path fill="#560216" d="M 48.851562 41.023438 L 46.070312 41.019531 L 46.070312 38.34375 L 48.855469 38.34375 Z M 49.667969 36.785156 L 45.257812 36.785156 C 45.03125 36.785156 44.832031 36.871094 44.683594 37.011719 C 44.535156 37.152344 44.445312 37.347656 44.445312 37.5625 L 44.445312 41.75 C 44.445312 41.765625 44.445312 41.785156 44.445312 41.800781 C 44.445312 41.863281 44.453125 41.921875 44.464844 41.976562 C 44.480469 42.035156 44.5 42.09375 44.527344 42.144531 C 44.65625 42.40625 44.9375 42.585938 45.257812 42.585938 C 45.285156 42.585938 45.308594 42.585938 45.335938 42.582031 L 49.660156 42.585938 L 49.664062 42.585938 C 50.109375 42.585938 50.472656 42.238281 50.476562 41.804688 L 50.480469 37.566406 C 50.480469 37.132812 50.117188 36.785156 49.667969 36.785156 " fill-opacity="1" fill-rule="nonzero"/><path fill="#560216" d="M 31.160156 39.804688 C 30.640625 39.472656 30.132812 39.121094 29.644531 38.75 L 29.644531 41.023438 L 26.859375 41.019531 L 26.859375 38.34375 L 29.125 38.34375 C 28.566406 37.890625 28.03125 37.414062 27.535156 36.917969 C 27.488281 36.875 27.4375 36.828125 27.394531 36.785156 L 26.046875 36.785156 C 25.824219 36.785156 25.621094 36.871094 25.472656 37.011719 C 25.328125 37.152344 25.234375 37.347656 25.234375 37.5625 L 25.234375 41.75 C 25.234375 41.765625 25.234375 41.785156 25.234375 41.800781 C 25.234375 41.863281 25.242188 41.921875 25.257812 41.976562 C 25.273438 42.035156 25.289062 42.09375 25.316406 42.144531 C 25.449219 42.40625 25.726562 42.585938 26.046875 42.585938 C 26.074219 42.585938 26.097656 42.585938 26.125 42.582031 L 30.453125 42.585938 C 30.902344 42.585938 31.265625 42.238281 31.265625 41.804688 L 31.265625 39.875 C 31.234375 39.851562 31.195312 39.828125 31.160156 39.804688 " fill-opacity="1" fill-rule="nonzero"/><path fill="#560216" d="M 21.214844 40.535156 L 16.34375 40.535156 C 15.878906 40.535156 15.5 40.152344 15.5 39.683594 C 15.5 39.214844 15.878906 38.835938 16.34375 38.835938 L 21.214844 38.835938 C 21.679688 38.835938 22.058594 39.214844 22.058594 39.683594 C 22.058594 40.152344 21.679688 40.535156 21.214844 40.535156 " fill-opacity="1" fill-rule="nonzero"/><path fill="#560216" d="M 39.933594 10.976562 L 35.523438 10.976562 C 35.300781 10.976562 35.097656 11.066406 34.949219 11.207031 C 34.800781 11.351562 34.714844 11.546875 34.714844 11.757812 L 34.714844 13.066406 C 35.113281 13.242188 35.484375 13.503906 35.847656 13.757812 C 35.910156 13.800781 35.972656 13.839844 36.03125 13.886719 C 36.132812 13.953125 36.234375 14.019531 36.332031 14.089844 L 36.332031 12.539062 L 39.121094 12.539062 L 39.121094 15.222656 L 38.449219 15.222656 C 39.191406 15.539062 39.957031 15.789062 40.742188 15.96875 L 40.742188 11.757812 C 40.742188 11.328125 40.382812 10.980469 39.933594 10.976562 " fill-opacity="1" fill-rule="nonzero"/><path fill="#560216" d="M 41.003906 39.683594 C 41.003906 39.917969 40.910156 40.132812 40.757812 40.28125 C 40.605469 40.4375 40.394531 40.535156 40.164062 40.535156 L 35.289062 40.535156 C 35.128906 40.535156 34.980469 40.484375 34.851562 40.410156 C 35.183594 40.257812 35.5 40.066406 35.800781 39.867188 C 36.285156 39.550781 36.761719 39.203125 37.222656 38.835938 L 40.164062 38.835938 C 40.628906 38.835938 41.003906 39.214844 41.003906 39.683594 " fill-opacity="1" fill-rule="nonzero"/><path fill="#560216" d="M 59.351562 15.222656 L 56.5625 15.21875 L 56.5625 12.539062 L 59.351562 12.539062 Z M 60.160156 10.976562 L 55.75 10.976562 C 55.53125 10.976562 55.324219 11.066406 55.179688 11.207031 C 55.03125 11.351562 54.941406 11.546875 54.941406 11.757812 L 54.941406 15.949219 C 54.941406 15.964844 54.941406 15.980469 54.941406 16 C 54.941406 16.058594 54.945312 16.117188 54.960938 16.175781 C 54.972656 16.230469 54.992188 16.285156 55.019531 16.339844 C 55.152344 16.601562 55.429688 16.785156 55.75 16.785156 C 55.777344 16.785156 55.800781 16.78125 55.828125 16.78125 L 60.160156 16.785156 C 60.605469 16.785156 60.96875 16.433594 60.96875 16.003906 L 60.972656 11.757812 C 60.972656 11.328125 60.609375 10.980469 60.160156 10.976562 " fill-opacity="1" fill-rule="nonzero"/><path fill="#560216" d="M 60.394531 23.328125 L 55.519531 23.328125 C 55.058594 23.328125 54.679688 22.949219 54.679688 22.480469 C 54.679688 22.015625 55.058594 21.632812 55.519531 21.632812 L 60.394531 21.632812 C 60.855469 21.632812 61.234375 22.015625 61.234375 22.480469 C 61.234375 22.949219 60.855469 23.328125 60.394531 23.328125 " fill-opacity="1" fill-rule="nonzero"/><path fill="#560216" d="M 59.351562 32.421875 L 56.5625 32.421875 L 56.5625 29.742188 L 59.351562 29.742188 Z M 60.160156 28.179688 L 55.75 28.179688 C 55.53125 28.179688 55.324219 28.269531 55.179688 28.410156 C 55.03125 28.550781 54.941406 28.746094 54.941406 28.960938 L 54.941406 33.152344 C 54.941406 33.164062 54.941406 33.183594 54.941406 33.199219 C 54.941406 33.261719 54.945312 33.320312 54.960938 33.378906 C 54.972656 33.4375 54.992188 33.488281 55.019531 33.539062 C 55.152344 33.804688 55.429688 33.984375 55.75 33.984375 C 55.777344 33.984375 55.800781 33.984375 55.828125 33.980469 L 60.160156 33.984375 C 60.605469 33.984375 60.96875 33.636719 60.96875 33.207031 L 60.972656 28.960938 C 60.972656 28.53125 60.609375 28.179688 60.160156 28.179688 " fill-opacity="1" fill-rule="nonzero"/><path fill="#560216" d="M 60.394531 40.535156 L 55.519531 40.535156 C 55.058594 40.535156 54.679688 40.152344 54.679688 39.683594 C 54.679688 39.214844 55.058594 38.835938 55.519531 38.835938 L 60.394531 38.835938 C 60.855469 38.835938 61.234375 39.214844 61.234375 39.683594 C 61.234375 40.152344 60.855469 40.535156 60.394531 40.535156 " fill-opacity="1" fill-rule="nonzero"/><g clip-path="url(#id1)"><path fill="#560216" d="M 64.085938 44.132812 C 64.085938 44.277344 64.070312 44.417969 64.050781 44.628906 C 42.785156 44.628906 24.480469 44.628906 3.304688 44.628906 C 3.105469 44.4375 3.1875 44.207031 3.1875 44 C 3.183594 33.839844 3.179688 20.828125 3.179688 10.667969 C 3.179688 8.925781 3.988281 8.117188 5.753906 8.117188 C 14.585938 8.109375 21.976562 8.113281 30.804688 8.113281 C 41.582031 8.117188 50.914062 8.117188 61.6875 8.125 C 63.324219 8.125 64.082031 8.882812 64.082031 10.511719 C 64.089844 20.769531 64.085938 33.878906 64.085938 44.132812 Z M 33.390625 51.480469 C 32.226562 51.503906 31.214844 50.523438 31.195312 49.355469 C 31.175781 48.121094 32.121094 47.152344 33.355469 47.140625 C 34.546875 47.132812 35.5 48.082031 35.503906 49.285156 C 35.515625 50.472656 34.566406 51.453125 33.390625 51.480469 Z M 66.234375 10.410156 C 66.234375 7.714844 64.496094 5.96875 61.820312 5.941406 C 59.925781 5.925781 6.75 5.929688 5.695312 5.941406 C 2.765625 5.980469 1.027344 7.710938 1.027344 10.640625 C 1.011719 22.539062 1.015625 37.289062 1.015625 49.191406 C 1.015625 49.722656 1.027344 50.253906 1.171875 50.773438 C 1.753906 52.863281 3.457031 54.078125 5.839844 54.078125 C 14.777344 54.078125 23.117188 54.078125 31.402344 54.078125 L 31.402344 57.886719 C 31.402344 58.59375 30.835938 59.164062 30.136719 59.164062 L 25.492188 59.164062 C 24.800781 59.164062 24.238281 59.722656 24.230469 60.417969 L 24.230469 60.445312 C 24.222656 61.160156 24.792969 61.742188 25.496094 61.742188 L 41.765625 61.742188 C 42.464844 61.742188 43.03125 61.167969 43.03125 60.464844 L 43.03125 60.410156 C 43.03125 59.707031 42.464844 59.136719 41.765625 59.136719 L 37.011719 59.136719 C 36.308594 59.136719 35.746094 58.566406 35.746094 57.863281 L 35.746094 54.078125 C 44.183594 54.078125 52.667969 54.078125 61.769531 54.078125 C 64.378906 54.078125 66.234375 52.214844 66.238281 49.542969 C 66.25 37.445312 66.25 22.503906 66.234375 10.410156 " fill-opacity="1" fill-rule="nonzero"/></g></svg>