<svg xmlns="http://www.w3.org/2000/svg" xmlns:xlink="http://www.w3.org/1999/xlink" width="90" zoomAndPan="magnify" viewBox="0 0 67.5 67.499996" height="90" preserveAspectRatio="xMidYMid meet" version="1.0"><defs><clipPath id="id1"><path d="M 6 2.082031 L 61 2.082031 L 61 23 L 6 23 Z M 6 2.082031 " clip-rule="nonzero"/></clipPath><clipPath id="id2"><path d="M 2.082031 36 L 21 36 L 21 65.082031 L 2.082031 65.082031 Z M 2.082031 36 " clip-rule="nonzero"/></clipPath><clipPath id="id3"><path d="M 25 43 L 45 43 L 45 65.082031 L 25 65.082031 Z M 25 43 " clip-rule="nonzero"/></clipPath><clipPath id="id4"><path d="M 46 36 L 65.082031 36 L 65.082031 65.082031 L 46 65.082031 Z M 46 36 " clip-rule="nonzero"/></clipPath></defs><g clip-path="url(#id1)"><path fill="#560216" d="M 9.015625 16.78125 L 29.539062 16.78125 C 30.015625 16.78125 30.441406 17.046875 30.652344 17.472656 L 32.644531 21.453125 C 32.820312 21.808594 33.183594 22.03125 33.582031 22.03125 C 33.980469 22.03125 34.34375 21.808594 34.523438 21.453125 L 36.511719 17.472656 C 36.726562 17.046875 37.152344 16.78125 37.625 16.78125 L 58.152344 16.78125 C 59.65625 16.78125 60.882812 15.558594 60.882812 14.050781 L 60.882812 4.8125 C 60.882812 3.308594 59.65625 2.082031 58.152344 2.082031 L 9.015625 2.082031 C 7.507812 2.082031 6.28125 3.308594 6.28125 4.8125 L 6.28125 14.050781 C 6.28125 15.558594 7.507812 16.78125 9.015625 16.78125 Z M 8.382812 4.8125 C 8.382812 4.464844 8.667969 4.183594 9.015625 4.183594 L 58.152344 4.183594 C 58.5 4.183594 58.78125 4.464844 58.78125 4.8125 L 58.78125 14.050781 C 58.78125 14.398438 58.5 14.683594 58.152344 14.683594 L 37.625 14.683594 C 36.351562 14.683594 35.203125 15.390625 34.632812 16.53125 L 33.582031 18.636719 L 32.53125 16.53125 C 31.960938 15.390625 30.816406 14.683594 29.539062 14.683594 L 9.015625 14.683594 C 8.667969 14.683594 8.382812 14.398438 8.382812 14.050781 Z M 8.382812 4.8125 " fill-opacity="1" fill-rule="nonzero"/></g><path fill="#560216" d="M 30.632812 10.742188 L 30.585938 12.554688 C 30.578125 12.90625 30.742188 13.234375 31.027344 13.4375 C 31.308594 13.640625 31.675781 13.6875 32.003906 13.566406 L 33.582031 12.976562 L 35.160156 13.566406 C 35.28125 13.609375 35.40625 13.632812 35.53125 13.632812 C 35.746094 13.632812 35.960938 13.566406 36.140625 13.4375 C 36.421875 13.234375 36.589844 12.90625 36.578125 12.554688 L 36.53125 10.742188 L 37.582031 9.308594 C 37.78125 9.035156 37.835938 8.683594 37.730469 8.359375 C 37.625 8.039062 37.367188 7.785156 37.042969 7.6875 L 35.421875 7.183594 L 34.460938 5.710938 C 34.269531 5.414062 33.9375 5.234375 33.582031 5.234375 C 33.226562 5.234375 32.898438 5.414062 32.703125 5.710938 L 31.742188 7.183594 L 30.121094 7.6875 C 29.796875 7.785156 29.542969 8.039062 29.4375 8.359375 C 29.328125 8.683594 29.386719 9.035156 29.585938 9.308594 Z M 32.726562 9.078125 C 32.960938 9.003906 33.160156 8.855469 33.292969 8.648438 L 33.582031 8.207031 L 33.871094 8.648438 C 34.003906 8.855469 34.207031 9.003906 34.441406 9.078125 L 35.015625 9.257812 L 34.625 9.792969 C 34.488281 9.980469 34.417969 10.207031 34.421875 10.4375 L 34.441406 11.054688 L 33.949219 10.871094 C 33.832031 10.828125 33.707031 10.804688 33.582031 10.804688 C 33.457031 10.804688 33.332031 10.828125 33.214844 10.871094 L 32.726562 11.054688 L 32.742188 10.4375 C 32.75 10.207031 32.675781 9.980469 32.539062 9.792969 L 32.148438 9.257812 Z M 32.726562 9.078125 " fill-opacity="1" fill-rule="nonzero"/><path fill="#560216" d="M 40.082031 10.742188 L 40.035156 12.554688 C 40.027344 12.90625 40.191406 13.234375 40.476562 13.4375 C 40.761719 13.640625 41.128906 13.6875 41.453125 13.566406 L 43.03125 12.976562 L 44.613281 13.566406 C 44.730469 13.609375 44.855469 13.632812 44.980469 13.632812 C 45.195312 13.632812 45.410156 13.566406 45.589844 13.4375 C 45.875 13.234375 46.039062 12.90625 46.03125 12.554688 L 45.980469 10.742188 L 47.03125 9.308594 C 47.230469 9.035156 47.285156 8.683594 47.179688 8.359375 C 47.074219 8.039062 46.816406 7.785156 46.492188 7.6875 L 44.875 7.183594 L 43.914062 5.710938 C 43.71875 5.414062 43.386719 5.234375 43.03125 5.234375 C 42.679688 5.234375 42.347656 5.414062 42.152344 5.710938 L 41.191406 7.183594 L 39.570312 7.6875 C 39.246094 7.785156 38.992188 8.039062 38.886719 8.359375 C 38.78125 8.683594 38.835938 9.035156 39.035156 9.308594 Z M 42.175781 9.078125 C 42.410156 9.003906 42.609375 8.855469 42.746094 8.648438 L 43.03125 8.207031 L 43.320312 8.648438 C 43.457031 8.855469 43.65625 9.003906 43.890625 9.078125 L 44.464844 9.257812 L 44.074219 9.792969 C 43.9375 9.980469 43.867188 10.207031 43.875 10.4375 L 43.890625 11.054688 L 43.402344 10.871094 C 43.28125 10.828125 43.15625 10.804688 43.03125 10.804688 C 42.910156 10.804688 42.785156 10.828125 42.664062 10.871094 L 42.175781 11.054688 L 42.191406 10.4375 C 42.199219 10.207031 42.128906 9.980469 41.988281 9.792969 L 41.597656 9.257812 Z M 42.175781 9.078125 " fill-opacity="1" fill-rule="nonzero"/><path fill="#560216" d="M 49.535156 10.742188 L 49.488281 12.554688 C 49.476562 12.90625 49.640625 13.234375 49.925781 13.4375 C 50.210938 13.640625 50.578125 13.6875 50.902344 13.566406 L 52.484375 12.976562 L 54.0625 13.566406 C 54.179688 13.609375 54.304688 13.632812 54.429688 13.632812 C 54.644531 13.632812 54.859375 13.566406 55.039062 13.4375 C 55.324219 13.234375 55.488281 12.90625 55.480469 12.554688 L 55.433594 10.742188 L 56.480469 9.308594 C 56.679688 9.035156 56.738281 8.683594 56.628906 8.359375 C 56.523438 8.039062 56.269531 7.785156 55.945312 7.6875 L 54.324219 7.183594 L 53.363281 5.710938 C 53.167969 5.414062 52.839844 5.234375 52.484375 5.234375 C 52.128906 5.234375 51.796875 5.414062 51.601562 5.710938 L 50.640625 7.183594 L 49.023438 7.6875 C 48.699219 7.785156 48.441406 8.039062 48.335938 8.359375 C 48.230469 8.683594 48.285156 9.035156 48.484375 9.308594 Z M 51.625 9.078125 C 51.859375 9.003906 52.0625 8.855469 52.195312 8.648438 L 52.484375 8.207031 L 52.769531 8.648438 C 52.90625 8.855469 53.105469 9.003906 53.339844 9.078125 L 53.917969 9.257812 L 53.527344 9.792969 C 53.386719 9.980469 53.316406 10.207031 53.324219 10.4375 L 53.339844 11.054688 L 52.851562 10.871094 C 52.730469 10.828125 52.609375 10.804688 52.484375 10.804688 C 52.359375 10.804688 52.234375 10.828125 52.117188 10.871094 L 51.625 11.054688 L 51.640625 10.4375 C 51.648438 10.207031 51.578125 9.980469 51.441406 9.792969 L 51.050781 9.257812 Z M 51.625 9.078125 " fill-opacity="1" fill-rule="nonzero"/><path fill="#560216" d="M 21.183594 10.742188 L 21.136719 12.554688 C 21.128906 12.90625 21.292969 13.234375 21.578125 13.4375 C 21.859375 13.640625 22.226562 13.6875 22.554688 13.566406 L 24.132812 12.976562 L 25.710938 13.566406 C 25.832031 13.609375 25.957031 13.632812 26.078125 13.632812 C 26.296875 13.632812 26.507812 13.566406 26.691406 13.4375 C 26.972656 13.234375 27.136719 12.90625 27.128906 12.554688 L 27.082031 10.742188 L 28.128906 9.308594 C 28.332031 9.035156 28.386719 8.683594 28.28125 8.359375 C 28.171875 8.039062 27.917969 7.785156 27.59375 7.6875 L 25.972656 7.183594 L 25.011719 5.710938 C 24.820312 5.414062 24.488281 5.234375 24.132812 5.234375 C 23.777344 5.234375 23.445312 5.414062 23.253906 5.710938 L 22.292969 7.183594 L 20.671875 7.6875 C 20.347656 7.785156 20.09375 8.039062 19.984375 8.359375 C 19.878906 8.683594 19.933594 9.035156 20.136719 9.308594 Z M 23.277344 9.078125 C 23.507812 9.003906 23.710938 8.855469 23.84375 8.648438 L 24.132812 8.207031 L 24.421875 8.648438 C 24.554688 8.855469 24.757812 9.003906 24.988281 9.078125 L 25.566406 9.257812 L 25.175781 9.792969 C 25.039062 9.980469 24.96875 10.207031 24.972656 10.4375 L 24.988281 11.054688 L 24.5 10.871094 C 24.382812 10.828125 24.257812 10.804688 24.132812 10.804688 C 24.007812 10.804688 23.882812 10.828125 23.765625 10.871094 L 23.277344 11.054688 L 23.292969 10.4375 C 23.296875 10.207031 23.226562 9.980469 23.089844 9.792969 L 22.699219 9.257812 Z M 23.277344 9.078125 " fill-opacity="1" fill-rule="nonzero"/><path fill="#560216" d="M 11.734375 10.742188 L 11.6875 12.554688 C 11.675781 12.90625 11.84375 13.234375 12.125 13.4375 C 12.410156 13.640625 12.777344 13.6875 13.105469 13.566406 L 14.683594 12.976562 L 16.261719 13.566406 C 16.382812 13.609375 16.503906 13.632812 16.628906 13.632812 C 16.84375 13.632812 17.058594 13.566406 17.238281 13.4375 C 17.523438 13.234375 17.6875 12.90625 17.679688 12.554688 L 17.632812 10.742188 L 18.679688 9.308594 C 18.878906 9.035156 18.9375 8.683594 18.828125 8.359375 C 18.722656 8.039062 18.46875 7.785156 18.144531 7.6875 L 16.523438 7.183594 L 15.5625 5.710938 C 15.367188 5.414062 15.039062 5.234375 14.683594 5.234375 C 14.328125 5.234375 13.996094 5.414062 13.804688 5.710938 L 12.84375 7.183594 L 11.222656 7.6875 C 10.898438 7.785156 10.644531 8.039062 10.535156 8.359375 C 10.429688 8.683594 10.484375 9.035156 10.6875 9.308594 Z M 13.824219 9.078125 C 14.058594 9.003906 14.261719 8.855469 14.394531 8.648438 L 14.683594 8.207031 L 14.972656 8.648438 C 15.105469 8.855469 15.304688 9.003906 15.539062 9.078125 L 16.117188 9.257812 L 15.726562 9.792969 C 15.589844 9.980469 15.515625 10.207031 15.523438 10.4375 L 15.539062 11.054688 L 15.050781 10.871094 C 14.933594 10.828125 14.808594 10.804688 14.683594 10.804688 C 14.558594 10.804688 14.433594 10.828125 14.316406 10.871094 L 13.828125 11.054688 L 13.84375 10.4375 C 13.847656 10.207031 13.777344 9.980469 13.640625 9.792969 L 13.25 9.257812 Z M 13.824219 9.078125 " fill-opacity="1" fill-rule="nonzero"/><path fill="#560216" d="M 28.332031 40.933594 L 39.304688 40.933594 C 40.753906 40.933594 41.957031 39.777344 41.984375 38.355469 C 41.988281 38.011719 41.929688 37.671875 41.808594 37.359375 C 42.53125 36.898438 43.015625 36.105469 43.03125 35.207031 C 43.042969 34.613281 42.859375 34.046875 42.507812 33.582031 C 42.835938 33.144531 43.03125 32.597656 43.03125 32.007812 C 43.03125 31.417969 42.835938 30.875 42.507812 30.433594 C 42.859375 29.96875 43.042969 29.402344 43.03125 28.808594 C 43.007812 27.386719 41.804688 26.234375 40.355469 26.234375 L 36.5625 26.234375 L 36.753906 25.539062 C 36.992188 24.667969 36.84375 23.792969 36.34375 23.140625 C 35.84375 22.484375 35.042969 22.109375 34.140625 22.109375 C 32.46875 22.109375 30.8125 23.371094 30.371094 24.980469 C 30.167969 25.71875 29.492188 26.234375 28.726562 26.234375 L 28.332031 26.234375 C 28.332031 25.652344 27.863281 25.183594 27.28125 25.183594 L 23.082031 25.183594 C 22.503906 25.183594 22.03125 25.652344 22.03125 26.234375 L 19.519531 26.234375 C 18.589844 26.234375 17.832031 26.988281 17.832031 27.917969 L 17.832031 39.246094 C 17.832031 40.175781 18.589844 40.933594 19.519531 40.933594 L 22.03125 40.933594 C 22.03125 41.511719 22.503906 41.984375 23.082031 41.984375 L 27.28125 41.984375 C 27.863281 41.984375 28.332031 41.511719 28.332031 40.933594 Z M 28.726562 28.332031 C 30.433594 28.332031 31.941406 27.183594 32.394531 25.539062 C 32.585938 24.84375 33.417969 24.207031 34.140625 24.207031 C 34.382812 24.207031 34.574219 24.28125 34.671875 24.410156 C 34.773438 24.542969 34.792969 24.746094 34.726562 24.980469 L 34.425781 26.074219 C 34.277344 26.617188 34.386719 27.183594 34.726562 27.628906 C 35.066406 28.078125 35.585938 28.332031 36.148438 28.332031 L 40.355469 28.332031 C 40.664062 28.332031 40.925781 28.570312 40.933594 28.847656 C 40.9375 29.039062 40.839844 29.167969 40.78125 29.226562 C 40.726562 29.285156 40.601562 29.382812 40.40625 29.382812 C 39.828125 29.382812 39.359375 29.851562 39.359375 30.433594 C 39.359375 31.011719 39.828125 31.484375 40.40625 31.484375 C 40.699219 31.484375 40.933594 31.71875 40.933594 32.007812 C 40.933594 32.296875 40.699219 32.53125 40.40625 32.53125 C 39.828125 32.53125 39.359375 33.003906 39.359375 33.582031 C 39.359375 34.164062 39.828125 34.632812 40.40625 34.632812 C 40.601562 34.632812 40.726562 34.730469 40.78125 34.789062 C 40.839844 34.847656 40.9375 34.976562 40.933594 35.167969 C 40.929688 35.445312 40.664062 35.683594 40.355469 35.683594 L 39.359375 35.683594 C 38.777344 35.683594 38.308594 36.152344 38.308594 36.734375 C 38.308594 37.3125 38.777344 37.78125 39.359375 37.78125 C 39.550781 37.78125 39.675781 37.882812 39.734375 37.941406 C 39.789062 38 39.886719 38.125 39.882812 38.316406 C 39.878906 38.597656 39.613281 38.832031 39.304688 38.832031 L 28.332031 38.832031 L 28.332031 28.332031 Z M 19.933594 38.832031 L 19.933594 28.332031 L 22.03125 28.332031 L 22.03125 38.832031 Z M 26.234375 39.882812 L 24.132812 39.882812 L 24.132812 27.28125 L 26.234375 27.28125 Z M 26.234375 39.882812 " fill-opacity="1" fill-rule="nonzero"/><g clip-path="url(#id2)"><path fill="#560216" d="M 16.78125 51.375 L 14.808594 50.71875 C 16.058594 49.414062 16.78125 47.660156 16.78125 45.777344 L 16.78125 45.132812 C 17.363281 45.132812 17.832031 44.664062 17.832031 44.082031 C 17.832031 40.03125 14.535156 36.734375 10.484375 36.734375 L 6.28125 36.734375 C 5.703125 36.734375 5.234375 37.203125 5.234375 37.78125 L 5.234375 40.691406 C 5.234375 41.78125 5.628906 42.78125 6.28125 43.554688 L 6.28125 45.777344 C 6.28125 47.660156 7.003906 49.414062 8.257812 50.71875 L 6.285156 51.375 C 3.773438 52.214844 2.082031 54.554688 2.082031 57.207031 L 2.082031 64.03125 C 2.082031 64.613281 2.554688 65.082031 3.132812 65.082031 L 19.933594 65.082031 C 20.511719 65.082031 20.984375 64.613281 20.984375 64.03125 L 20.984375 57.207031 C 20.984375 54.554688 19.292969 52.214844 16.78125 51.375 Z M 10.484375 52.285156 C 10.820312 52.414062 11.175781 52.480469 11.53125 52.480469 C 11.890625 52.480469 12.246094 52.414062 12.582031 52.285156 L 12.582031 52.484375 C 12.582031 53.0625 12.113281 53.53125 11.53125 53.53125 C 10.953125 53.53125 10.484375 53.0625 10.484375 52.484375 Z M 14.683594 45.777344 C 14.683594 47.703125 13.613281 49.4375 11.886719 50.300781 C 11.664062 50.410156 11.398438 50.410156 11.175781 50.300781 C 9.453125 49.4375 8.382812 47.703125 8.382812 45.777344 L 8.382812 44.941406 C 8.792969 45.066406 9.226562 45.132812 9.675781 45.132812 L 14.683594 45.132812 Z M 7.332031 38.832031 L 10.484375 38.832031 C 13.019531 38.832031 15.140625 40.640625 15.628906 43.03125 L 9.675781 43.03125 C 8.382812 43.03125 7.332031 41.984375 7.332031 40.691406 Z M 18.882812 62.984375 L 4.183594 62.984375 L 4.183594 57.207031 C 4.183594 55.460938 5.292969 53.917969 6.949219 53.367188 L 8.410156 52.882812 C 8.605469 54.429688 9.929688 55.632812 11.53125 55.632812 C 13.136719 55.632812 14.460938 54.429688 14.65625 52.882812 L 16.117188 53.367188 C 17.769531 53.917969 18.882812 55.460938 18.882812 57.207031 Z M 18.882812 62.984375 " fill-opacity="1" fill-rule="nonzero"/></g><g clip-path="url(#id3)"><path fill="#560216" d="M 39.882812 57.675781 L 37.910156 57.019531 C 39.160156 55.710938 39.882812 53.960938 39.882812 52.078125 L 39.882812 51.433594 C 40.460938 51.433594 40.933594 50.960938 40.933594 50.382812 C 40.933594 46.332031 37.636719 43.03125 33.582031 43.03125 L 29.382812 43.03125 C 28.804688 43.03125 28.332031 43.503906 28.332031 44.082031 L 28.332031 46.992188 C 28.332031 48.082031 28.730469 49.082031 29.382812 49.855469 L 29.382812 52.078125 C 29.382812 53.960938 30.105469 55.710938 31.355469 57.019531 L 29.386719 57.675781 C 26.871094 58.511719 25.183594 60.855469 25.183594 63.503906 L 25.183594 64.03125 C 25.183594 64.613281 25.652344 65.082031 26.234375 65.082031 L 43.03125 65.082031 C 43.613281 65.082031 44.082031 64.613281 44.082031 64.03125 L 44.082031 63.503906 C 44.082031 60.855469 42.394531 58.511719 39.882812 57.675781 Z M 33.582031 58.585938 C 33.917969 58.714844 34.277344 58.78125 34.632812 58.78125 C 34.988281 58.78125 35.347656 58.714844 35.683594 58.585938 L 35.683594 58.78125 C 35.683594 59.363281 35.210938 59.832031 34.632812 59.832031 C 34.054688 59.832031 33.582031 59.363281 33.582031 58.78125 Z M 37.78125 52.078125 C 37.78125 54.003906 36.710938 55.738281 34.988281 56.597656 C 34.765625 56.710938 34.5 56.710938 34.277344 56.597656 C 32.554688 55.738281 31.484375 54.003906 31.484375 52.078125 L 31.484375 51.242188 C 31.890625 51.367188 32.324219 51.433594 32.773438 51.433594 L 37.78125 51.433594 Z M 30.433594 45.132812 L 33.582031 45.132812 C 36.117188 45.132812 38.238281 46.941406 38.726562 49.332031 L 32.773438 49.332031 C 31.484375 49.332031 30.433594 48.28125 30.433594 46.992188 Z M 27.316406 62.984375 C 27.511719 61.460938 28.5625 60.164062 30.050781 59.667969 L 31.507812 59.179688 C 31.707031 60.730469 33.03125 61.933594 34.632812 61.933594 C 36.234375 61.933594 37.558594 60.730469 37.757812 59.179688 L 39.21875 59.667969 C 40.703125 60.164062 41.753906 61.460938 41.949219 62.984375 Z M 27.316406 62.984375 " fill-opacity="1" fill-rule="nonzero"/></g><g clip-path="url(#id4)"><path fill="#560216" d="M 60.882812 51.375 L 58.910156 50.71875 C 60.160156 49.414062 60.882812 47.660156 60.882812 45.777344 L 60.882812 45.132812 C 61.460938 45.132812 61.933594 44.664062 61.933594 44.082031 C 61.933594 40.03125 58.636719 36.734375 54.582031 36.734375 L 50.382812 36.734375 C 49.804688 36.734375 49.332031 37.203125 49.332031 37.78125 L 49.332031 40.691406 C 49.332031 41.78125 49.730469 42.78125 50.382812 43.554688 L 50.382812 45.777344 C 50.382812 47.660156 51.105469 49.414062 52.355469 50.71875 L 50.386719 51.375 C 47.871094 52.214844 46.183594 54.554688 46.183594 57.207031 L 46.183594 64.03125 C 46.183594 64.613281 46.652344 65.082031 47.234375 65.082031 L 64.03125 65.082031 C 64.613281 65.082031 65.082031 64.613281 65.082031 64.03125 L 65.082031 57.207031 C 65.082031 54.554688 63.394531 52.214844 60.882812 51.375 Z M 54.582031 52.285156 C 54.917969 52.414062 55.277344 52.480469 55.632812 52.480469 C 55.988281 52.480469 56.347656 52.414062 56.683594 52.285156 L 56.683594 52.484375 C 56.683594 53.0625 56.210938 53.53125 55.632812 53.53125 C 55.054688 53.53125 54.582031 53.0625 54.582031 52.484375 Z M 58.78125 45.777344 C 58.78125 47.703125 57.710938 49.4375 55.988281 50.300781 C 55.765625 50.410156 55.5 50.410156 55.277344 50.300781 C 53.554688 49.4375 52.484375 47.703125 52.484375 45.777344 L 52.484375 44.941406 C 52.890625 45.066406 53.324219 45.132812 53.773438 45.132812 L 58.78125 45.132812 Z M 51.433594 38.832031 L 54.582031 38.832031 C 57.117188 38.832031 59.238281 40.640625 59.726562 43.03125 L 53.773438 43.03125 C 52.484375 43.03125 51.433594 41.984375 51.433594 40.691406 Z M 62.984375 62.984375 L 48.28125 62.984375 L 48.28125 57.207031 C 48.28125 55.460938 49.394531 53.917969 51.050781 53.367188 L 52.507812 52.882812 C 52.707031 54.429688 54.03125 55.632812 55.632812 55.632812 C 57.234375 55.632812 58.558594 54.429688 58.757812 52.882812 L 60.21875 53.367188 C 61.871094 53.917969 62.984375 55.460938 62.984375 57.207031 Z M 62.984375 62.984375 " fill-opacity="1" fill-rule="nonzero"/></g></svg>