<svg xmlns="http://www.w3.org/2000/svg" xmlns:xlink="http://www.w3.org/1999/xlink" width="90" zoomAndPan="magnify" viewBox="0 0 67.5 67.499996" height="90" preserveAspectRatio="xMidYMid meet" version="1.0"><defs><clipPath id="id1"><path d="M 32 43 L 65.945312 43 L 65.945312 61.734375 L 32 61.734375 Z M 32 43 " clip-rule="nonzero"/></clipPath><clipPath id="id2"><path d="M 38 55 L 41 55 L 41 61.734375 L 38 61.734375 Z M 38 55 " clip-rule="nonzero"/></clipPath><clipPath id="id3"><path d="M 57 55 L 60 55 L 60 61.734375 L 57 61.734375 Z M 57 55 " clip-rule="nonzero"/></clipPath><clipPath id="id4"><path d="M 1.445312 5.484375 L 65.945312 5.484375 L 65.945312 51 L 1.445312 51 Z M 1.445312 5.484375 " clip-rule="nonzero"/></clipPath></defs><path fill="#560216" d="M 28.65625 38.128906 C 29.210938 38.128906 29.664062 37.675781 29.664062 37.125 L 29.664062 30.898438 C 29.664062 27.382812 26.996094 24.21875 23.617188 23.363281 C 23.011719 24.066406 22.257812 24.667969 21.453125 25.121094 L 21.703125 25.121094 C 24.828125 25.070312 27.648438 27.832031 27.648438 30.898438 L 27.648438 37.125 C 27.648438 37.675781 28.101562 38.128906 28.65625 38.128906 Z M 28.65625 38.128906 " fill-opacity="1" fill-rule="nonzero"/><path fill="#560216" d="M 11.523438 23.3125 C 8.148438 24.21875 5.476562 27.332031 5.476562 30.847656 L 5.476562 37.125 C 5.476562 37.675781 5.929688 38.128906 6.484375 38.128906 C 7.039062 38.128906 7.492188 37.675781 7.492188 37.125 L 7.492188 30.898438 C 7.492188 27.832031 10.316406 25.070312 13.4375 25.070312 L 13.691406 25.070312 C 12.835938 24.621094 12.128906 24.015625 11.523438 23.3125 Z M 11.523438 23.3125 " fill-opacity="1" fill-rule="nonzero"/><path fill="#560216" d="M 23.617188 18.039062 C 23.617188 18.4375 23.578125 18.828125 23.503906 19.214844 C 23.425781 19.605469 23.308594 19.980469 23.15625 20.347656 C 23.007812 20.710938 22.820312 21.058594 22.597656 21.390625 C 22.378906 21.71875 22.128906 22.023438 21.847656 22.300781 C 21.566406 22.582031 21.261719 22.832031 20.929688 23.050781 C 20.601562 23.269531 20.253906 23.457031 19.886719 23.609375 C 19.519531 23.761719 19.140625 23.875 18.75 23.953125 C 18.363281 24.027344 17.96875 24.066406 17.570312 24.066406 C 17.175781 24.066406 16.78125 24.027344 16.390625 23.953125 C 16.003906 23.875 15.625 23.761719 15.257812 23.609375 C 14.890625 23.457031 14.542969 23.269531 14.210938 23.050781 C 13.882812 22.832031 13.578125 22.582031 13.296875 22.300781 C 13.015625 22.023438 12.765625 21.71875 12.542969 21.390625 C 12.324219 21.058594 12.136719 20.710938 11.984375 20.347656 C 11.832031 19.980469 11.71875 19.605469 11.640625 19.214844 C 11.5625 18.828125 11.523438 18.4375 11.523438 18.039062 C 11.523438 17.644531 11.5625 17.253906 11.640625 16.863281 C 11.71875 16.476562 11.832031 16.101562 11.984375 15.734375 C 12.136719 15.367188 12.324219 15.019531 12.542969 14.691406 C 12.765625 14.363281 13.015625 14.058594 13.296875 13.777344 C 13.578125 13.5 13.882812 13.25 14.210938 13.03125 C 14.542969 12.808594 14.890625 12.625 15.257812 12.472656 C 15.625 12.320312 16.003906 12.207031 16.390625 12.128906 C 16.78125 12.050781 17.175781 12.015625 17.570312 12.015625 C 17.96875 12.015625 18.363281 12.050781 18.75 12.128906 C 19.140625 12.207031 19.519531 12.320312 19.886719 12.472656 C 20.253906 12.625 20.601562 12.808594 20.929688 13.03125 C 21.261719 13.25 21.566406 13.5 21.847656 13.777344 C 22.128906 14.058594 22.378906 14.363281 22.597656 14.691406 C 22.820312 15.019531 23.007812 15.367188 23.15625 15.734375 C 23.308594 16.101562 23.425781 16.476562 23.503906 16.863281 C 23.578125 17.253906 23.617188 17.644531 23.617188 18.039062 Z M 23.617188 18.039062 " fill-opacity="1" fill-rule="nonzero"/><g clip-path="url(#id1)"><path fill="#560216" d="M 56.269531 43.652344 L 42.363281 43.652344 C 36.667969 43.652344 32.6875 47.671875 32.6875 53.398438 L 32.6875 60.730469 C 32.6875 61.28125 33.140625 61.734375 33.695312 61.734375 C 34.25 61.734375 34.703125 61.28125 34.703125 60.730469 L 34.703125 53.398438 C 34.703125 48.675781 37.726562 45.664062 42.363281 45.664062 L 56.222656 45.664062 C 60.90625 45.664062 63.878906 48.675781 63.878906 53.398438 L 63.878906 60.730469 C 63.878906 61.28125 64.332031 61.734375 64.886719 61.734375 C 65.441406 61.734375 65.894531 61.28125 65.894531 60.730469 L 65.894531 53.398438 C 65.945312 47.671875 61.964844 43.652344 56.269531 43.652344 Z M 56.269531 43.652344 " fill-opacity="1" fill-rule="nonzero"/></g><path fill="#560216" d="M 57.882812 33.105469 C 57.882812 33.667969 57.828125 34.222656 57.71875 34.773438 C 57.609375 35.324219 57.445312 35.855469 57.230469 36.375 C 57.015625 36.890625 56.753906 37.382812 56.441406 37.851562 C 56.128906 38.316406 55.773438 38.746094 55.375 39.144531 C 54.976562 39.539062 54.542969 39.894531 54.078125 40.207031 C 53.609375 40.515625 53.117188 40.78125 52.597656 40.996094 C 52.074219 41.210938 51.539062 41.371094 50.988281 41.480469 C 50.4375 41.589844 49.878906 41.644531 49.316406 41.644531 C 48.753906 41.644531 48.199219 41.589844 47.644531 41.480469 C 47.09375 41.371094 46.558594 41.210938 46.039062 40.996094 C 45.519531 40.78125 45.027344 40.515625 44.558594 40.207031 C 44.089844 39.894531 43.65625 39.539062 43.261719 39.144531 C 42.863281 38.746094 42.507812 38.316406 42.195312 37.851562 C 41.882812 37.382812 41.617188 36.890625 41.402344 36.375 C 41.1875 35.855469 41.027344 35.324219 40.914062 34.773438 C 40.804688 34.222656 40.75 33.667969 40.75 33.105469 C 40.75 32.546875 40.804688 31.992188 40.914062 31.441406 C 41.027344 30.890625 41.1875 30.359375 41.402344 29.839844 C 41.617188 29.320312 41.882812 28.828125 42.195312 28.363281 C 42.507812 27.898438 42.863281 27.464844 43.261719 27.070312 C 43.65625 26.671875 44.089844 26.320312 44.558594 26.007812 C 45.027344 25.695312 45.519531 25.433594 46.039062 25.21875 C 46.558594 25.003906 47.09375 24.84375 47.644531 24.734375 C 48.199219 24.625 48.753906 24.570312 49.316406 24.570312 C 49.878906 24.570312 50.4375 24.625 50.988281 24.734375 C 51.539062 24.84375 52.074219 25.003906 52.597656 25.21875 C 53.117188 25.433594 53.609375 25.695312 54.078125 26.007812 C 54.542969 26.320312 54.976562 26.671875 55.375 27.070312 C 55.773438 27.464844 56.128906 27.898438 56.441406 28.363281 C 56.753906 28.828125 57.015625 29.320312 57.230469 29.839844 C 57.445312 30.359375 57.609375 30.890625 57.71875 31.441406 C 57.828125 31.992188 57.882812 32.546875 57.882812 33.105469 Z M 57.882812 33.105469 " fill-opacity="1" fill-rule="nonzero"/><g clip-path="url(#id2)"><path fill="#560216" d="M 39.742188 55.707031 C 39.1875 55.707031 38.734375 56.160156 38.734375 56.710938 L 38.734375 60.730469 C 38.734375 61.28125 39.1875 61.734375 39.742188 61.734375 C 40.296875 61.734375 40.75 61.28125 40.75 60.730469 L 40.75 56.710938 C 40.75 56.160156 40.296875 55.707031 39.742188 55.707031 Z M 39.742188 55.707031 " fill-opacity="1" fill-rule="nonzero"/></g><g clip-path="url(#id3)"><path fill="#560216" d="M 59.898438 60.730469 L 59.898438 56.710938 C 59.898438 56.160156 59.445312 55.707031 58.890625 55.707031 C 58.335938 55.707031 57.882812 56.160156 57.882812 56.710938 L 57.882812 60.730469 C 57.882812 61.28125 58.335938 61.734375 58.890625 61.734375 C 59.445312 61.734375 59.898438 61.28125 59.898438 60.730469 Z M 59.898438 60.730469 " fill-opacity="1" fill-rule="nonzero"/></g><path fill="#560216" d="M 33.496094 25.324219 C 33.695312 25.472656 33.898438 25.574219 34.148438 25.574219 C 34.300781 25.574219 34.503906 25.523438 34.601562 25.472656 L 39.996094 22.558594 L 44.78125 22.558594 C 46.09375 22.558594 46.796875 21.859375 46.796875 20.550781 L 46.796875 12.867188 C 46.796875 11.5625 45.738281 10.507812 44.480469 10.507812 L 32.992188 10.507812 C 31.679688 10.507812 30.671875 11.5625 30.671875 12.867188 L 30.671875 20.050781 C 30.671875 21.554688 31.480469 22.558594 32.6875 22.558594 L 33.796875 22.558594 L 33.191406 24.21875 C 33.042969 24.621094 33.140625 25.070312 33.496094 25.324219 Z M 33.496094 25.324219 " fill-opacity="1" fill-rule="nonzero"/><g clip-path="url(#id4)"><path fill="#560216" d="M 62.921875 5.484375 L 4.46875 5.484375 C 2.808594 5.484375 1.445312 6.839844 1.445312 8.449219 L 1.445312 43.152344 C 1.445312 44.808594 2.808594 46.164062 4.46875 46.164062 L 28.65625 46.164062 L 28.65625 48.171875 L 24.121094 48.171875 C 23.566406 48.171875 23.113281 48.625 23.113281 49.179688 C 23.113281 49.730469 23.566406 50.183594 24.121094 50.183594 L 31.074219 50.183594 C 31.175781 49.832031 31.277344 49.480469 31.378906 49.179688 C 31.480469 48.828125 31.628906 48.523438 31.78125 48.222656 L 30.671875 48.222656 L 30.671875 46.214844 L 32.890625 46.214844 C 33.140625 45.863281 33.394531 45.5625 33.695312 45.261719 C 33.746094 45.210938 33.746094 45.160156 33.796875 45.160156 C 33.898438 45.058594 34 44.960938 34.148438 44.808594 C 34.300781 44.65625 34.453125 44.507812 34.652344 44.355469 C 36.667969 42.648438 39.339844 41.695312 42.414062 41.695312 L 43.167969 41.695312 C 42.96875 41.542969 42.816406 41.445312 42.664062 41.292969 C 42.464844 41.144531 42.3125 40.992188 42.113281 40.839844 C 42.0625 40.792969 42.0625 40.792969 42.011719 40.742188 C 41.859375 40.589844 41.707031 40.441406 41.558594 40.238281 C 41.558594 40.238281 41.558594 40.238281 41.507812 40.1875 L 3.460938 40.1875 L 3.460938 8.449219 C 3.460938 7.945312 3.914062 7.492188 4.46875 7.492188 L 62.921875 7.492188 C 63.476562 7.492188 63.929688 7.945312 63.929688 8.449219 L 63.929688 40.136719 L 57.179688 40.136719 C 57.179688 40.136719 57.179688 40.136719 57.128906 40.1875 C 56.976562 40.339844 56.824219 40.488281 56.675781 40.691406 C 56.625 40.742188 56.625 40.742188 56.574219 40.792969 C 56.421875 40.941406 56.222656 41.09375 56.019531 41.242188 C 55.867188 41.394531 55.667969 41.542969 55.515625 41.644531 L 56.269531 41.644531 C 59.949219 41.644531 62.972656 43 65.039062 45.3125 C 65.59375 44.757812 65.945312 44.003906 65.945312 43.203125 L 65.945312 8.449219 C 65.945312 6.839844 64.585938 5.484375 62.921875 5.484375 Z M 62.921875 5.484375 " fill-opacity="1" fill-rule="nonzero"/></g></svg>