<svg xmlns="http://www.w3.org/2000/svg" xmlns:xlink="http://www.w3.org/1999/xlink" width="100" zoomAndPan="magnify" viewBox="0 0 75 74.999997" height="100" preserveAspectRatio="xMidYMid meet" version="1.0"><defs><clipPath id="id1"><path d="M 20 0.816406 L 55 0.816406 L 55 50 L 20 50 Z M 20 0.816406 " clip-rule="nonzero"/></clipPath><clipPath id="id2"><path d="M 7 32 L 68 32 L 68 74.316406 L 7 74.316406 Z M 7 32 " clip-rule="nonzero"/></clipPath></defs><g clip-path="url(#id1)"><path fill="#560216" d="M 37.582031 0.828125 C 28.207031 0.828125 20.605469 8.425781 20.605469 17.796875 C 20.605469 24.417969 29.078125 39.292969 34.050781 47.460938 C 35.664062 50.105469 39.503906 50.105469 41.113281 47.460938 C 46.089844 39.292969 54.558594 24.417969 54.558594 17.796875 C 54.558594 8.425781 46.957031 0.828125 37.582031 0.828125 Z M 37.582031 28.289062 C 31.996094 28.289062 27.46875 23.761719 27.46875 18.175781 C 27.46875 12.59375 31.996094 8.066406 37.582031 8.066406 C 43.167969 8.066406 47.695312 12.59375 47.695312 18.175781 C 47.695312 23.761719 43.167969 28.289062 37.582031 28.289062 Z M 37.582031 28.289062 " fill-opacity="1" fill-rule="nonzero"/></g><path fill="#560216" d="M 43.15625 18.175781 C 43.15625 18.542969 43.121094 18.90625 43.050781 19.265625 C 42.976562 19.625 42.871094 19.972656 42.734375 20.308594 C 42.59375 20.648438 42.421875 20.96875 42.21875 21.273438 C 42.015625 21.578125 41.78125 21.859375 41.523438 22.117188 C 41.265625 22.375 40.984375 22.605469 40.679688 22.8125 C 40.375 23.015625 40.054688 23.1875 39.714844 23.324219 C 39.378906 23.464844 39.027344 23.570312 38.671875 23.644531 C 38.3125 23.714844 37.949219 23.75 37.582031 23.75 C 37.214844 23.75 36.855469 23.714844 36.496094 23.644531 C 36.136719 23.570312 35.789062 23.464844 35.449219 23.324219 C 35.109375 23.1875 34.789062 23.015625 34.484375 22.8125 C 34.179688 22.605469 33.898438 22.375 33.640625 22.117188 C 33.382812 21.859375 33.152344 21.578125 32.949219 21.273438 C 32.746094 20.96875 32.574219 20.648438 32.433594 20.308594 C 32.292969 19.972656 32.1875 19.625 32.117188 19.265625 C 32.042969 18.90625 32.007812 18.542969 32.007812 18.175781 C 32.007812 17.8125 32.042969 17.449219 32.117188 17.089844 C 32.1875 16.730469 32.292969 16.382812 32.433594 16.046875 C 32.574219 15.707031 32.746094 15.386719 32.949219 15.082031 C 33.152344 14.777344 33.382812 14.496094 33.640625 14.238281 C 33.898438 13.980469 34.179688 13.746094 34.484375 13.542969 C 34.789062 13.339844 35.109375 13.167969 35.449219 13.03125 C 35.789062 12.890625 36.136719 12.785156 36.496094 12.710938 C 36.855469 12.640625 37.214844 12.605469 37.582031 12.605469 C 37.949219 12.605469 38.3125 12.640625 38.671875 12.710938 C 39.027344 12.785156 39.378906 12.890625 39.714844 13.03125 C 40.054688 13.167969 40.375 13.339844 40.679688 13.542969 C 40.984375 13.746094 41.265625 13.980469 41.523438 14.238281 C 41.78125 14.496094 42.015625 14.777344 42.21875 15.082031 C 42.421875 15.386719 42.59375 15.707031 42.734375 16.046875 C 42.871094 16.382812 42.976562 16.730469 43.050781 17.089844 C 43.121094 17.449219 43.15625 17.8125 43.15625 18.175781 Z M 43.15625 18.175781 " fill-opacity="1" fill-rule="nonzero"/><g clip-path="url(#id2)"><path fill="#560216" d="M 67.773438 68.355469 L 62.703125 36.519531 C 62.304688 34.011719 60.140625 32.164062 57.601562 32.164062 L 51.980469 32.164062 C 51.355469 33.476562 50.691406 34.800781 50.007812 36.128906 L 53.839844 36.128906 C 55.902344 36.128906 57.660156 37.625 57.984375 39.664062 L 59.191406 47.242188 L 57.328125 47.242188 C 53.183594 47.242188 49.234375 45.988281 45.90625 43.667969 C 45.253906 44.816406 44.605469 45.933594 43.980469 47 C 44.339844 47.242188 44.707031 47.476562 45.078125 47.703125 L 36.730469 57.390625 L 35.738281 55.863281 C 33.890625 53.027344 30.761719 51.335938 27.378906 51.335938 L 22.421875 51.335938 L 30.128906 45.183594 C 29.5 44.09375 28.859375 42.964844 28.210938 41.8125 L 16.28125 51.335938 L 15.324219 51.335938 L 17.183594 39.664062 C 17.511719 37.625 19.265625 36.128906 21.328125 36.128906 L 25.160156 36.128906 C 24.476562 34.800781 23.8125 33.476562 23.1875 32.164062 L 17.566406 32.164062 C 15.027344 32.164062 12.863281 34.011719 12.464844 36.519531 L 7.394531 68.355469 C 6.894531 71.492188 9.320312 74.332031 12.496094 74.332031 L 62.671875 74.332031 C 65.847656 74.332031 68.273438 71.492188 67.773438 68.355469 Z M 48.628906 49.441406 C 51.363281 50.511719 54.304688 51.070312 57.324219 51.070312 L 59.800781 51.070312 L 61.058594 58.976562 L 40.417969 58.976562 Z M 17.210938 70.371094 C 14.628906 70.371094 12.660156 68.0625 13.066406 65.515625 L 14.714844 55.164062 L 27.375 55.164062 C 29.464844 55.164062 31.386719 56.207031 32.527344 57.953125 L 40.625 70.371094 Z M 57.953125 70.371094 L 45.191406 70.371094 L 40.261719 62.804688 L 61.667969 62.804688 L 62.097656 65.515625 C 62.503906 68.0625 60.539062 70.371094 57.953125 70.371094 Z M 57.953125 70.371094 " fill-opacity="1" fill-rule="nonzero"/></g></svg>