<svg xmlns="http://www.w3.org/2000/svg" xmlns:xlink="http://www.w3.org/1999/xlink" width="100" zoomAndPan="magnify" viewBox="0 0 75 74.999997" height="100" preserveAspectRatio="xMidYMid meet" version="1.0"><defs><clipPath id="id1"><path d="M 11.65625 61 L 63 61 L 63 74.34375 L 11.65625 74.34375 Z M 11.65625 61 " clip-rule="nonzero"/></clipPath></defs><g clip-path="url(#id1)"><path fill="#560216" d="M 13.230469 69.648438 C 14.488281 70.5625 15.921875 71.132812 17.367188 71.597656 C 21.003906 72.761719 24.777344 73.3125 28.542969 73.660156 C 36.703125 74.414062 44.957031 74.230469 53.015625 72.632812 C 55.765625 72.089844 58.53125 71.363281 60.957031 69.8125 C 62.125 69.058594 63.242188 67.546875 62.140625 66.183594 C 61.105469 64.902344 59.5625 64.214844 58.125 63.691406 C 54.863281 62.5 51.453125 61.890625 48.042969 61.480469 C 47.382812 61.402344 46.722656 61.328125 46.066406 61.265625 L 43.03125 65.644531 C 43.441406 65.738281 43.851562 65.84375 44.257812 65.964844 C 45.480469 66.324219 47.316406 67.574219 45.296875 68.515625 C 43.996094 69.121094 42.589844 69.398438 41.191406 69.574219 C 40.433594 69.667969 39.679688 69.738281 38.917969 69.773438 C 37.800781 69.835938 36.671875 69.828125 35.554688 69.769531 C 34.476562 69.714844 33.410156 69.601562 32.347656 69.4375 C 31.15625 69.25 29.960938 68.984375 28.890625 68.382812 C 28.5625 68.195312 28.210938 67.921875 28.183594 67.507812 C 28.179688 67.492188 28.179688 67.46875 28.179688 67.445312 C 28.179688 66.953125 28.648438 66.609375 29.070312 66.414062 C 29.824219 66.058594 30.613281 65.808594 31.417969 65.625 L 28.328125 61.253906 C 28.078125 61.277344 27.832031 61.300781 27.582031 61.328125 C 23.96875 61.710938 20.359375 62.3125 16.890625 63.492188 C 15.496094 63.960938 14.113281 64.539062 12.945312 65.496094 C 12.402344 65.945312 11.878906 66.539062 11.8125 67.289062 C 11.734375 68.277344 12.480469 69.105469 13.230469 69.648438 " fill-opacity="1" fill-rule="nonzero"/></g><path fill="#560216" d="M 26.105469 25.910156 C 26.105469 19.777344 31.074219 14.800781 37.207031 14.800781 C 43.332031 14.800781 48.296875 19.777344 48.296875 25.910156 C 48.296875 32.050781 43.332031 37.027344 37.207031 37.027344 C 31.074219 37.027344 26.105469 32.050781 26.105469 25.910156 Z M 15.441406 33.621094 C 15.699219 34.226562 15.972656 34.820312 16.246094 35.414062 C 16.785156 36.574219 17.347656 37.722656 17.933594 38.859375 C 20.3125 43.46875 23.082031 47.886719 26.035156 52.195312 C 28.109375 55.21875 30.253906 58.195312 32.417969 61.160156 C 33.433594 62.5625 34.457031 63.957031 35.46875 65.363281 C 35.851562 65.886719 36.230469 66.40625 36.605469 66.933594 C 36.757812 67.144531 36.933594 67.335938 37.207031 67.667969 C 37.796875 66.878906 38.375 66.105469 38.953125 65.335938 C 40 63.9375 41.027344 62.558594 42.035156 61.171875 C 42.3125 60.796875 42.585938 60.425781 42.859375 60.046875 C 43.3125 59.417969 43.765625 58.785156 44.214844 58.148438 C 44.582031 57.640625 44.949219 57.125 45.3125 56.609375 C 48.074219 52.679688 50.726562 48.691406 53.167969 44.578125 C 53.453125 44.09375 53.738281 43.605469 54.015625 43.113281 C 54.84375 41.675781 55.640625 40.222656 56.402344 38.753906 C 57.738281 36.179688 58.882812 33.507812 59.9375 30.824219 C 62.035156 25.5 61.472656 20.238281 58.859375 15.238281 C 55 7.847656 48.640625 3.492188 39.945312 2.417969 C 27.511719 0.882812 15.640625 9.308594 13.484375 20.914062 C 12.644531 25.40625 13.667969 29.542969 15.441406 33.621094 " fill-opacity="1" fill-rule="nonzero"/></svg>