<svg xmlns="http://www.w3.org/2000/svg" xmlns:xlink="http://www.w3.org/1999/xlink" width="100" zoomAndPan="magnify" viewBox="0 0 75 74.999997" height="100" preserveAspectRatio="xMidYMid meet" version="1.0"><defs><clipPath id="id1"><path d="M 1.324219 11.765625 L 51.386719 11.765625 L 51.386719 66.214844 L 1.324219 66.214844 Z M 1.324219 11.765625 " clip-rule="nonzero"/></clipPath><clipPath id="id2"><path d="M 34 8.472656 L 74 8.472656 L 74 54 L 34 54 Z M 34 8.472656 " clip-rule="nonzero"/></clipPath></defs><g clip-path="url(#id1)"><path fill="#560216" d="M 34.25 63.613281 C 26.832031 63.613281 20.515625 60.574219 19.90625 56.851562 C 22.910156 59.589844 28.15625 61.371094 34.25 61.371094 C 40.34375 61.371094 45.59375 59.589844 48.59375 56.851562 C 47.988281 60.574219 41.667969 63.613281 34.25 63.613281 Z M 4.003906 41.730469 C 6.816406 44.300781 11.613281 46.027344 17.230469 46.230469 C 17.230469 46.234375 17.230469 46.234375 17.230469 46.238281 L 17.230469 48.464844 C 10.304688 48.179688 4.578125 45.261719 4.003906 41.730469 Z M 18.347656 14.433594 C 26.148438 14.433594 32.742188 17.796875 32.742188 21.777344 C 32.742188 25.761719 26.148438 29.125 18.347656 29.125 C 10.542969 29.125 3.949219 25.761719 3.949219 21.777344 C 3.949219 17.796875 10.542969 14.433594 18.347656 14.433594 Z M 48.59375 52.011719 C 47.988281 55.730469 41.667969 58.769531 34.25 58.769531 C 26.832031 58.769531 20.515625 55.730469 19.90625 52.011719 C 22.910156 54.75 28.15625 56.53125 34.25 56.53125 C 40.34375 56.53125 45.59375 54.75 48.59375 52.011719 Z M 48.648438 46.585938 C 48.648438 50.566406 42.054688 53.929688 34.25 53.929688 C 26.449219 53.929688 19.855469 50.566406 19.855469 46.585938 C 19.855469 46.195312 19.917969 45.8125 20.039062 45.441406 C 20.050781 45.414062 20.0625 45.382812 20.070312 45.355469 C 21.253906 41.933594 27.265625 39.238281 34.25 39.238281 C 42.054688 39.238281 48.648438 42.601562 48.648438 46.585938 Z M 18.347656 41.410156 C 18.792969 41.410156 19.234375 41.398438 19.667969 41.378906 C 18.949219 42.082031 18.371094 42.839844 17.957031 43.644531 C 10.710938 43.539062 4.597656 40.542969 4.003906 36.890625 C 7.003906 39.628906 12.253906 41.410156 18.347656 41.410156 Z M 18.347656 33.964844 C 10.929688 33.964844 4.609375 30.925781 4.003906 27.207031 C 7.003906 29.945312 12.253906 31.726562 18.347656 31.726562 C 24.4375 31.726562 29.6875 29.945312 32.691406 27.207031 C 32.082031 30.925781 25.765625 33.964844 18.347656 33.964844 Z M 18.347656 38.808594 C 10.929688 38.808594 4.609375 35.765625 4.003906 32.046875 C 7.003906 34.785156 12.253906 36.566406 18.347656 36.566406 C 24.4375 36.566406 29.6875 34.785156 32.691406 32.046875 C 32.082031 35.765625 25.765625 38.808594 18.347656 38.808594 Z M 35.367188 36.65625 L 35.367188 21.433594 C 35.367188 21.332031 35.355469 21.234375 35.332031 21.140625 C 34.789062 15.871094 27.523438 11.832031 18.347656 11.832031 C 9.167969 11.832031 1.902344 15.871094 1.359375 21.140625 C 1.335938 21.234375 1.324219 21.332031 1.324219 21.433594 L 1.324219 41.144531 C 1.324219 46.503906 8.222656 50.746094 17.230469 51.070312 L 17.230469 56.265625 C 17.230469 61.84375 24.707031 66.214844 34.25 66.214844 C 43.796875 66.214844 51.273438 61.84375 51.273438 56.265625 L 51.273438 46.238281 C 51.273438 46.136719 51.261719 46.039062 51.238281 45.949219 C 50.714844 40.894531 44.011719 36.96875 35.367188 36.65625 " fill-opacity="1" fill-rule="nonzero"/></g><path fill="#560216" d="M 38.578125 48.203125 C 38.445312 48.355469 38.113281 48.628906 37.472656 48.878906 L 36.554688 47.683594 C 37.441406 47.664062 38.175781 47.789062 38.578125 48.203125 Z M 29.65625 45.089844 C 29.789062 44.9375 30.121094 44.664062 30.757812 44.417969 L 31.644531 45.574219 C 30.410156 45.570312 29.878906 45.296875 29.65625 45.089844 Z M 31.796875 41.472656 L 31.457031 41.027344 C 31.019531 40.453125 30.195312 40.34375 29.617188 40.777344 C 29.144531 41.132812 28.984375 41.742188 29.179688 42.269531 C 28.132812 42.792969 27.402344 43.5 27.113281 44.320312 C 26.835938 45.085938 26.96875 45.90625 27.480469 46.570312 C 28.820312 48.320312 31.421875 48.324219 33.539062 48.046875 L 34.527344 49.335938 C 33.789062 49.304688 33.171875 49.160156 32.78125 48.976562 C 32.128906 48.664062 31.34375 48.933594 31.027344 49.582031 C 30.714844 50.230469 30.988281 51.007812 31.640625 51.320312 C 32.515625 51.734375 33.636719 51.949219 34.832031 51.949219 C 35.359375 51.949219 35.894531 51.902344 36.429688 51.820312 L 36.773438 52.269531 C 37.03125 52.605469 37.421875 52.785156 37.820312 52.785156 C 38.097656 52.785156 38.375 52.699219 38.613281 52.519531 C 39.085938 52.164062 39.246094 51.550781 39.046875 51.027344 C 40.097656 50.503906 40.824219 49.796875 41.117188 48.976562 C 41.390625 48.207031 41.257812 47.386719 40.75 46.722656 C 39.355469 44.902344 36.964844 44.925781 34.6875 45.246094 L 33.699219 43.957031 C 34.398438 43.988281 34.992188 44.117188 35.390625 44.292969 C 36.050781 44.585938 36.828125 44.292969 37.125 43.636719 C 37.417969 42.980469 37.125 42.210938 36.460938 41.917969 C 35.21875 41.367188 33.492188 41.210938 31.796875 41.472656 " fill-opacity="1" fill-rule="nonzero"/><path fill="#560216" d="M 22.8125 23.300781 C 22.683594 23.453125 22.347656 23.726562 21.710938 23.976562 L 20.792969 22.78125 C 21.679688 22.761719 22.410156 22.886719 22.8125 23.300781 Z M 13.890625 20.1875 C 14.023438 20.035156 14.359375 19.761719 14.992188 19.515625 L 15.878906 20.671875 C 14.648438 20.667969 14.117188 20.394531 13.890625 20.1875 Z M 17.773438 23.144531 L 18.761719 24.433594 C 18.027344 24.402344 17.410156 24.257812 17.019531 24.074219 C 16.367188 23.761719 15.582031 24.03125 15.265625 24.679688 C 14.949219 25.328125 15.222656 26.105469 15.878906 26.417969 C 16.75 26.832031 17.875 27.046875 19.070312 27.046875 C 19.59375 27.046875 20.132812 27 20.667969 26.917969 L 21.007812 27.367188 C 21.269531 27.703125 21.660156 27.882812 22.054688 27.882812 C 22.332031 27.882812 22.613281 27.792969 22.847656 27.617188 C 23.320312 27.261719 23.484375 26.648438 23.285156 26.125 C 24.335938 25.601562 25.0625 24.894531 25.355469 24.074219 C 25.628906 23.304688 25.496094 22.484375 24.988281 21.820312 C 23.589844 20 21.203125 20.023438 18.925781 20.339844 L 17.9375 19.054688 C 18.636719 19.085938 19.226562 19.214844 19.625 19.390625 C 20.289062 19.683594 21.0625 19.390625 21.359375 18.734375 C 21.65625 18.078125 21.359375 17.308594 20.699219 17.015625 C 19.453125 16.464844 17.726562 16.308594 16.035156 16.570312 L 15.691406 16.125 C 15.253906 15.550781 14.429688 15.441406 13.851562 15.875 C 13.378906 16.230469 13.21875 16.84375 13.417969 17.367188 C 12.367188 17.890625 11.640625 18.597656 11.347656 19.417969 C 11.074219 20.183594 11.207031 21.003906 11.714844 21.667969 C 13.058594 23.417969 15.660156 23.417969 17.773438 23.144531 " fill-opacity="1" fill-rule="nonzero"/><g clip-path="url(#id2)"><path fill="#560216" d="M 51.109375 8.472656 C 44.824219 8.472656 38.964844 10.949219 34.613281 15.445312 C 34.109375 15.960938 34.128906 16.785156 34.652344 17.28125 C 35.175781 17.78125 36.003906 17.761719 36.507812 17.246094 C 40.359375 13.265625 45.546875 11.074219 51.109375 11.074219 C 62.265625 11.074219 71.34375 20.066406 71.34375 31.117188 C 71.34375 41.566406 63.433594 50.148438 52.945312 51.082031 C 52.222656 51.144531 51.691406 51.777344 51.757812 52.492188 C 51.816406 53.167969 52.390625 53.675781 53.0625 53.675781 C 53.101562 53.675781 53.140625 53.675781 53.179688 53.671875 C 58.839844 53.167969 64.085938 50.597656 67.945312 46.4375 C 71.828125 42.25 73.96875 36.808594 73.96875 31.117188 C 73.96875 18.632812 63.714844 8.472656 51.109375 8.472656 " fill-opacity="1" fill-rule="nonzero"/></g><path fill="#560216" d="M 52.421875 20.808594 L 59.707031 20.808594 C 60.738281 23.488281 61.355469 26.570312 61.488281 29.816406 L 52.421875 29.816406 Z M 40.734375 29.816406 C 40.863281 26.570312 41.480469 23.488281 42.515625 20.808594 L 49.796875 20.808594 L 49.796875 29.816406 Z M 52.785156 41.425781 C 52.0625 41.425781 51.472656 42.007812 51.472656 42.726562 C 51.472656 43.445312 52.0625 44.027344 52.785156 44.027344 L 58.5 44.027344 C 58.050781 44.84375 57.550781 45.601562 57.007812 46.289062 C 56.5625 46.855469 56.667969 47.675781 57.238281 48.113281 C 57.476562 48.300781 57.761719 48.390625 58.042969 48.390625 C 58.433594 48.390625 58.820312 48.21875 59.082031 47.886719 C 59.976562 46.746094 60.765625 45.449219 61.441406 44.027344 L 64.488281 44.027344 C 65.214844 44.027344 65.800781 43.445312 65.800781 42.726562 C 65.800781 42.007812 65.214844 41.425781 64.488281 41.425781 L 62.496094 41.425781 C 63.4375 38.683594 63.996094 35.617188 64.117188 32.417969 L 68.851562 32.417969 C 69.578125 32.417969 70.164062 31.835938 70.164062 31.117188 C 70.164062 30.398438 69.578125 29.816406 68.851562 29.816406 L 64.113281 29.816406 C 63.996094 26.621094 63.433594 23.554688 62.492188 20.808594 L 64.488281 20.808594 C 65.214844 20.808594 65.800781 20.226562 65.800781 19.507812 C 65.800781 18.789062 65.214844 18.210938 64.488281 18.210938 L 61.4375 18.210938 C 60.8125 16.882812 60.082031 15.664062 59.261719 14.582031 C 58.828125 14.007812 58.003906 13.890625 57.425781 14.324219 C 56.84375 14.753906 56.726562 15.570312 57.164062 16.144531 C 57.644531 16.78125 58.089844 17.472656 58.5 18.210938 L 52.421875 18.210938 L 52.421875 13.539062 C 52.421875 12.820312 51.835938 12.238281 51.109375 12.238281 C 50.386719 12.238281 49.796875 12.820312 49.796875 13.539062 L 49.796875 18.210938 L 43.722656 18.210938 C 44.132812 17.472656 44.574219 16.78125 45.058594 16.144531 C 45.492188 15.570312 45.375 14.753906 44.796875 14.324219 C 44.21875 13.890625 43.394531 14.007812 42.957031 14.582031 C 42.136719 15.664062 41.410156 16.882812 40.785156 18.210938 L 37.730469 18.210938 C 37.007812 18.210938 36.417969 18.789062 36.417969 19.507812 C 36.417969 20.226562 37.007812 20.808594 37.730469 20.808594 L 39.730469 20.808594 C 38.785156 23.554688 38.226562 26.621094 38.105469 29.816406 L 37.996094 29.816406 C 37.269531 29.816406 36.683594 30.398438 36.683594 31.117188 C 36.683594 31.835938 37.269531 32.417969 37.996094 32.417969 L 38.109375 32.417969 C 38.136719 33.214844 38.191406 34.003906 38.277344 34.78125 C 38.347656 35.449219 38.917969 35.945312 39.578125 35.945312 C 39.625 35.945312 39.671875 35.941406 39.71875 35.9375 C 40.441406 35.859375 40.964844 35.21875 40.886719 34.503906 C 40.8125 33.820312 40.765625 33.121094 40.734375 32.417969 L 49.796875 32.417969 L 49.796875 40.023438 C 49.796875 40.742188 50.386719 41.324219 51.109375 41.324219 C 51.835938 41.324219 52.421875 40.742188 52.421875 40.023438 L 52.421875 32.417969 L 61.488281 32.417969 C 61.359375 35.671875 60.742188 38.753906 59.710938 41.425781 L 52.785156 41.425781 " fill-opacity="1" fill-rule="nonzero"/></svg>