<svg xmlns="http://www.w3.org/2000/svg" xmlns:xlink="http://www.w3.org/1999/xlink" width="100" zoomAndPan="magnify" viewBox="0 0 75 74.999997" height="100" preserveAspectRatio="xMidYMid meet" version="1.0"><defs><clipPath id="id1"><path d="M 1.25 3 L 74 3 L 74 71.925781 L 1.25 71.925781 Z M 1.25 3 " clip-rule="nonzero"/></clipPath></defs><g clip-path="url(#id1)"><path fill="#560216" d="M 72.839844 48.449219 C 71.925781 45.875 69.140625 44.402344 66.457031 45.179688 L 66.457031 30.105469 C 68.226562 29.835938 69.585938 28.300781 69.585938 26.484375 L 69.585938 21.734375 C 69.585938 19.726562 67.929688 18.089844 65.898438 18.089844 L 57.308594 18.089844 C 58.09375 17.113281 58.550781 15.875 58.550781 14.535156 C 58.550781 11.34375 55.9375 8.753906 52.738281 8.753906 L 49.609375 8.753906 C 47.691406 8.753906 45.988281 9.671875 44.9375 11.105469 C 43.886719 9.671875 42.171875 8.753906 40.265625 8.753906 L 37.136719 8.753906 C 33.925781 8.753906 31.320312 11.34375 31.320312 14.535156 C 31.320312 15.875 31.777344 17.113281 32.554688 18.089844 L 25.097656 18.089844 L 26.421875 16.785156 C 27.507812 15.703125 27.507812 13.957031 26.421875 12.875 L 24.800781 11.261719 C 24.707031 11.171875 24.664062 11.046875 24.664062 10.921875 L 24.664062 8.652344 C 24.664062 7.117188 23.417969 5.878906 21.875 5.878906 L 19.59375 5.878906 C 19.464844 5.878906 19.339844 5.835938 19.25 5.742188 L 17.628906 4.128906 C 16.542969 3.050781 14.785156 3.050781 13.699219 4.128906 L 12.085938 5.742188 C 11.984375 5.835938 11.859375 5.878906 11.734375 5.878906 L 9.449219 5.878906 C 7.917969 5.878906 6.671875 7.117188 6.671875 8.652344 L 6.671875 10.921875 C 6.671875 11.046875 6.617188 11.171875 6.523438 11.261719 L 4.902344 12.875 C 3.828125 13.957031 3.828125 15.703125 4.902344 16.785156 L 6.523438 18.386719 C 6.617188 18.488281 6.671875 18.601562 6.671875 18.738281 L 6.671875 21.007812 C 6.671875 22.53125 7.917969 23.769531 9.449219 23.769531 L 11.734375 23.769531 C 11.871094 23.769531 11.984375 23.824219 12.085938 23.917969 L 13.699219 25.53125 C 14.246094 26.0625 14.953125 26.335938 15.664062 26.335938 C 16.371094 26.335938 17.089844 26.0625 17.628906 25.53125 L 19.25 23.917969 C 19.339844 23.824219 19.464844 23.769531 19.59375 23.769531 L 20.289062 23.769531 L 20.289062 26.484375 C 20.289062 28.3125 21.648438 29.84375 23.417969 30.105469 L 23.417969 39.261719 L 17.421875 39.261719 C 16.894531 38.011719 15.652344 37.136719 14.210938 37.136719 L 2.289062 37.136719 C 1.714844 37.136719 1.25 37.59375 1.25 38.171875 L 1.25 67.5 C 1.25 68.066406 1.714844 68.53125 2.289062 68.53125 L 14.210938 68.53125 C 16.003906 68.53125 17.488281 67.179688 17.671875 65.441406 L 31.183594 70.691406 C 33.992188 71.765625 36.964844 71.625 39.582031 70.417969 L 69.359375 56.628906 C 72.464844 55.1875 73.960938 51.675781 72.839844 48.449219 Z M 9.472656 62.796875 C 8.214844 62.796875 7.1875 61.785156 7.1875 60.523438 C 7.1875 59.273438 8.214844 58.253906 9.472656 58.253906 C 10.726562 58.253906 11.757812 59.273438 11.757812 60.523438 C 11.757812 61.785156 10.726562 62.796875 9.472656 62.796875 Z M 32.007812 68.578125 L 17.789062 63.058594 L 17.789062 41.535156 L 23.417969 41.535156 C 24.394531 41.542969 24.90625 41.5 25.703125 41.601562 C 27.894531 41.851562 29.964844 42.863281 31.515625 44.453125 L 33.777344 46.804688 C 33.996094 47.019531 34.292969 47.144531 34.601562 47.144531 C 34.789062 47.144531 44.046875 47.144531 43.542969 47.144531 C 45.65625 47.144531 47.382812 48.859375 47.382812 50.960938 C 47.382812 53.136719 45.585938 54.777344 43.542969 54.777344 L 32.671875 54.777344 C 32.042969 54.777344 31.527344 55.289062 31.527344 55.914062 C 31.527344 56.539062 32.042969 57.046875 32.671875 57.046875 L 43.542969 57.046875 C 45.050781 57.046875 46.433594 56.503906 47.496094 55.605469 C 47.613281 55.558594 67.3125 47.246094 66.765625 47.472656 C 68.363281 46.796875 70.125 47.628906 70.683594 49.199219 C 71.414062 51.3125 70.429688 53.617188 68.386719 54.574219 L 38.609375 68.363281 C 36.542969 69.328125 34.144531 69.394531 32.007812 68.578125 Z M 15.308594 23.917969 L 13.699219 22.316406 C 13.171875 21.792969 12.476562 21.496094 11.734375 21.496094 L 9.449219 21.496094 C 9.175781 21.496094 8.957031 21.28125 8.957031 21.007812 L 8.957031 18.738281 C 8.957031 18 8.660156 17.304688 8.136719 16.785156 L 6.523438 15.171875 C 6.332031 14.988281 6.332031 14.671875 6.523438 14.476562 L 8.136719 12.875 C 8.660156 12.363281 8.957031 11.648438 8.957031 10.921875 L 8.957031 8.652344 C 8.957031 8.378906 9.175781 8.152344 9.449219 8.152344 L 11.734375 8.152344 C 12.476562 8.152344 13.171875 7.867188 13.699219 7.34375 L 15.308594 5.742188 C 15.503906 5.550781 15.824219 5.550781 16.015625 5.742188 L 17.628906 7.34375 C 18.152344 7.867188 18.847656 8.152344 19.59375 8.152344 L 21.875 8.152344 C 22.148438 8.152344 22.378906 8.378906 22.378906 8.652344 L 22.378906 10.921875 C 22.378906 11.648438 22.675781 12.363281 23.191406 12.875 L 24.800781 14.476562 C 24.996094 14.671875 24.996094 14.988281 24.800781 15.171875 L 23.191406 16.785156 C 22.734375 17.238281 22.457031 17.816406 22.390625 18.441406 L 22.390625 18.453125 C 22.378906 18.542969 22.378906 18.636719 22.378906 18.738281 L 22.378906 21.007812 C 22.378906 21.28125 22.148438 21.496094 21.875 21.496094 L 19.59375 21.496094 C 18.847656 21.496094 18.152344 21.792969 17.628906 22.316406 L 16.015625 23.917969 C 15.824219 24.109375 15.503906 24.109375 15.308594 23.917969 Z M 37.136719 11.023438 L 40.265625 11.023438 C 41.851562 11.023438 43.210938 12.082031 43.648438 13.523438 C 41.40625 14.023438 39.648438 15.804688 39.179688 18.042969 L 37.136719 18.042969 C 35.183594 18.042969 33.605469 16.464844 33.605469 14.535156 C 33.605469 12.59375 35.183594 11.023438 37.136719 11.023438 Z M 49.609375 11.023438 L 52.738281 11.023438 C 54.679688 11.023438 56.269531 12.59375 56.269531 14.535156 C 56.269531 16.464844 54.679688 18.042969 52.738281 18.042969 L 50.683594 18.042969 C 50.226562 15.804688 48.464844 14.023438 46.226562 13.523438 C 46.660156 12.082031 48.011719 11.023438 49.609375 11.023438 Z M 64.171875 30.175781 L 64.171875 46.097656 L 50.886719 51.699219 L 50.203125 51.699219 L 50.203125 30.175781 Z M 39.660156 44.871094 L 35.089844 44.871094 L 33.160156 42.875 C 31.183594 40.839844 28.511719 39.566406 25.703125 39.308594 L 25.703125 30.175781 L 39.660156 30.175781 Z M 39.660156 44.871094 " fill-opacity="1" fill-rule="nonzero"/></g><path fill="#560216" d="M 18.484375 18.417969 C 18.839844 18.15625 19.019531 17.714844 18.953125 17.273438 L 18.644531 15.535156 L 19.910156 14.296875 C 20.242188 13.976562 20.355469 13.523438 20.21875 13.101562 C 20.082031 12.671875 19.707031 12.375 19.273438 12.308594 L 17.511719 12.046875 L 16.726562 10.46875 C 16.324219 9.652344 15.011719 9.652344 14.613281 10.46875 L 13.824219 12.046875 L 12.054688 12.308594 C 11.621094 12.375 11.253906 12.671875 11.105469 13.101562 C 10.96875 13.523438 11.09375 13.976562 11.414062 14.296875 L 12.679688 15.535156 L 12.375 17.273438 C 12.304688 17.714844 12.488281 18.15625 12.863281 18.429688 C 13.21875 18.691406 13.6875 18.714844 14.085938 18.511719 L 15.664062 17.679688 L 17.238281 18.511719 C 17.675781 18.726562 18.128906 18.675781 18.484375 18.417969 Z M 18.484375 18.417969 " fill-opacity="1" fill-rule="nonzero"/></svg>