<svg xmlns="http://www.w3.org/2000/svg" xmlns:xlink="http://www.w3.org/1999/xlink" width="100" zoomAndPan="magnify" viewBox="0 0 75 74.999997" height="100" preserveAspectRatio="xMidYMid meet" version="1.0"><defs><clipPath id="id1"><path d="M 6.867188 0.757812 L 68.367188 0.757812 L 68.367188 74.257812 L 6.867188 74.257812 Z M 6.867188 0.757812 " clip-rule="nonzero"/></clipPath></defs><path fill="#560216" d="M 22.867188 55.882812 L 25.324219 55.882812 C 26 55.882812 26.554688 55.332031 26.554688 54.660156 C 26.554688 53.984375 26 53.433594 25.324219 53.433594 L 22.867188 53.433594 C 22.1875 53.433594 21.636719 53.984375 21.636719 54.660156 C 21.636719 55.332031 22.1875 55.882812 22.867188 55.882812 " fill-opacity="1" fill-rule="nonzero"/><path fill="#560216" d="M 59.746094 53.433594 L 30.242188 53.433594 C 29.5625 53.433594 29.011719 53.984375 29.011719 54.660156 C 29.011719 55.332031 29.5625 55.882812 30.242188 55.882812 L 59.746094 55.882812 C 60.421875 55.882812 60.972656 55.332031 60.972656 54.660156 C 60.972656 53.984375 60.421875 53.433594 59.746094 53.433594 " fill-opacity="1" fill-rule="nonzero"/><path fill="#560216" d="M 22.867188 48.535156 L 25.324219 48.535156 C 26 48.535156 26.554688 47.984375 26.554688 47.308594 C 26.554688 46.632812 26 46.085938 25.324219 46.085938 L 22.867188 46.085938 C 22.1875 46.085938 21.636719 46.632812 21.636719 47.308594 C 21.636719 47.984375 22.1875 48.535156 22.867188 48.535156 " fill-opacity="1" fill-rule="nonzero"/><path fill="#560216" d="M 59.746094 46.085938 L 30.242188 46.085938 C 29.5625 46.085938 29.011719 46.632812 29.011719 47.308594 C 29.011719 47.984375 29.5625 48.535156 30.242188 48.535156 L 59.746094 48.535156 C 60.421875 48.535156 60.972656 47.984375 60.972656 47.308594 C 60.972656 46.632812 60.421875 46.085938 59.746094 46.085938 " fill-opacity="1" fill-rule="nonzero"/><path fill="#560216" d="M 22.867188 41.183594 L 25.324219 41.183594 C 26 41.183594 26.554688 40.632812 26.554688 39.960938 C 26.554688 39.285156 26 38.734375 25.324219 38.734375 L 22.867188 38.734375 C 22.1875 38.734375 21.636719 39.285156 21.636719 39.960938 C 21.636719 40.632812 22.1875 41.183594 22.867188 41.183594 " fill-opacity="1" fill-rule="nonzero"/><path fill="#560216" d="M 59.746094 38.734375 L 30.242188 38.734375 C 29.5625 38.734375 29.011719 39.285156 29.011719 39.960938 C 29.011719 40.632812 29.5625 41.183594 30.242188 41.183594 L 59.746094 41.183594 C 60.421875 41.183594 60.972656 40.632812 60.972656 39.960938 C 60.972656 39.285156 60.421875 38.734375 59.746094 38.734375 " fill-opacity="1" fill-rule="nonzero"/><path fill="#560216" d="M 22.867188 33.835938 L 25.324219 33.835938 C 26 33.835938 26.554688 33.285156 26.554688 32.609375 C 26.554688 31.933594 26 31.382812 25.324219 31.382812 L 22.867188 31.382812 C 22.1875 31.382812 21.636719 31.933594 21.636719 32.609375 C 21.636719 33.285156 22.1875 33.835938 22.867188 33.835938 " fill-opacity="1" fill-rule="nonzero"/><path fill="#560216" d="M 59.746094 31.382812 L 30.242188 31.382812 C 29.5625 31.382812 29.011719 31.933594 29.011719 32.609375 C 29.011719 33.285156 29.5625 33.835938 30.242188 33.835938 L 59.746094 33.835938 C 60.421875 33.835938 60.972656 33.285156 60.972656 32.609375 C 60.972656 31.933594 60.421875 31.382812 59.746094 31.382812 " fill-opacity="1" fill-rule="nonzero"/><path fill="#560216" d="M 22.867188 26.484375 L 25.324219 26.484375 C 26 26.484375 26.554688 25.933594 26.554688 25.257812 C 26.554688 24.585938 26 24.035156 25.324219 24.035156 L 22.867188 24.035156 C 22.1875 24.035156 21.636719 24.585938 21.636719 25.257812 C 21.636719 25.933594 22.1875 26.484375 22.867188 26.484375 " fill-opacity="1" fill-rule="nonzero"/><path fill="#560216" d="M 29.011719 25.257812 C 29.011719 25.933594 29.5625 26.484375 30.242188 26.484375 L 59.746094 26.484375 C 60.421875 26.484375 60.972656 25.933594 60.972656 25.257812 C 60.972656 24.585938 60.421875 24.035156 59.746094 24.035156 L 30.242188 24.035156 C 29.5625 24.035156 29.011719 24.585938 29.011719 25.257812 " fill-opacity="1" fill-rule="nonzero"/><g clip-path="url(#id1)"><path fill="#560216" d="M 9.34375 8.109375 L 14.261719 8.109375 L 14.261719 65.683594 C 14.261719 66.359375 14.8125 66.910156 15.488281 66.910156 L 58.515625 66.910156 L 58.515625 71.808594 L 9.34375 71.808594 Z M 16.71875 3.210938 L 48.679688 3.210938 L 48.679688 19.132812 C 48.679688 19.808594 49.234375 20.359375 49.910156 20.359375 L 65.890625 20.359375 L 65.890625 64.460938 L 16.71875 64.460938 Z M 64.152344 17.910156 L 51.140625 17.910156 L 51.140625 4.941406 Z M 8.113281 74.257812 L 59.746094 74.257812 C 60.421875 74.257812 60.972656 73.707031 60.972656 73.035156 L 60.972656 66.910156 L 67.121094 66.910156 C 67.796875 66.910156 68.347656 66.359375 68.347656 65.683594 L 68.347656 19.132812 C 68.347656 19.105469 68.335938 19.082031 68.335938 19.058594 C 68.324219 18.949219 68.304688 18.847656 68.273438 18.742188 C 68.257812 18.703125 68.25 18.664062 68.230469 18.625 C 68.171875 18.496094 68.09375 18.375 67.988281 18.269531 L 50.777344 1.117188 C 50.671875 1.011719 50.546875 0.9375 50.417969 0.878906 C 50.378906 0.859375 50.34375 0.851562 50.304688 0.835938 C 50.199219 0.800781 50.097656 0.78125 49.988281 0.773438 C 49.957031 0.773438 49.9375 0.757812 49.910156 0.757812 L 15.488281 0.757812 C 14.8125 0.757812 14.261719 1.308594 14.261719 1.984375 L 14.261719 5.660156 L 8.113281 5.660156 C 7.4375 5.660156 6.886719 6.210938 6.886719 6.882812 L 6.886719 73.035156 C 6.886719 73.707031 7.4375 74.257812 8.113281 74.257812 " fill-opacity="1" fill-rule="nonzero"/></g><path fill="#560216" d="M 24.09375 14.234375 L 29.011719 14.234375 L 29.011719 19.132812 L 24.09375 19.132812 Z M 22.867188 21.585938 L 30.242188 21.585938 C 30.917969 21.585938 31.472656 21.035156 31.472656 20.359375 L 31.472656 13.007812 C 31.472656 12.335938 30.917969 11.785156 30.242188 11.785156 L 22.867188 11.785156 C 22.1875 11.785156 21.636719 12.335938 21.636719 13.007812 L 21.636719 20.359375 C 21.636719 21.035156 22.1875 21.585938 22.867188 21.585938 " fill-opacity="1" fill-rule="nonzero"/></svg>