<svg xmlns="http://www.w3.org/2000/svg" xmlns:xlink="http://www.w3.org/1999/xlink" width="100" zoomAndPan="magnify" viewBox="0 0 75 74.999997" height="100" preserveAspectRatio="xMidYMid meet" version="1.0"><defs><clipPath id="id1"><path d="M 1.113281 16 L 69 16 L 69 62 L 1.113281 62 Z M 1.113281 16 " clip-rule="nonzero"/></clipPath><clipPath id="id2"><path d="M 1.113281 24 L 69 24 L 69 26 L 1.113281 26 Z M 1.113281 24 " clip-rule="nonzero"/></clipPath><clipPath id="id3"><path d="M 45 36 L 73.863281 36 L 73.863281 65.074219 L 45 65.074219 Z M 45 36 " clip-rule="nonzero"/></clipPath></defs><g clip-path="url(#id1)"><path fill="#560216" d="M 19.242188 16.9375 C 18.769531 16.9375 18.386719 17.316406 18.386719 17.785156 C 18.386719 18.253906 18.769531 18.632812 19.242188 18.632812 L 30.515625 18.632812 C 30.984375 18.632812 31.367188 18.253906 31.367188 17.785156 C 31.367188 17.316406 30.984375 16.9375 30.515625 16.9375 Z M 39.273438 16.9375 C 38.800781 16.9375 38.421875 17.316406 38.421875 17.785156 C 38.421875 18.253906 38.800781 18.632812 39.273438 18.632812 L 53.710938 18.632812 C 54.179688 18.632812 54.5625 18.253906 54.5625 17.785156 C 54.5625 17.316406 54.179688 16.9375 53.710938 16.9375 Z M 63.277344 16.9375 C 62.808594 16.9375 62.425781 17.316406 62.425781 17.785156 C 62.425781 18.253906 62.808594 18.632812 63.277344 18.632812 C 64.292969 18.632812 65.214844 19.042969 65.882812 19.710938 C 66.554688 20.375 66.96875 21.289062 66.96875 22.296875 L 66.96875 37.492188 C 66.96875 37.960938 67.351562 38.339844 67.820312 38.339844 C 68.292969 38.339844 68.671875 37.960938 68.671875 37.492188 L 68.671875 22.296875 C 68.671875 20.824219 68.066406 19.480469 67.089844 18.511719 C 66.113281 17.539062 64.761719 16.9375 63.277344 16.9375 Z M 46.027344 61.835938 C 46.5 61.835938 46.882812 61.457031 46.882812 60.988281 C 46.882812 60.519531 46.5 60.140625 46.027344 60.140625 L 6.507812 60.140625 C 5.496094 60.140625 4.570312 59.726562 3.902344 59.0625 C 3.234375 58.398438 2.820312 57.480469 2.820312 56.472656 L 2.820312 22.296875 C 2.820312 21.289062 3.234375 20.375 3.902344 19.710938 C 4.570312 19.042969 5.496094 18.632812 6.507812 18.632812 L 10.644531 18.632812 C 11.113281 18.632812 11.496094 18.253906 11.496094 17.785156 C 11.496094 17.316406 11.113281 16.9375 10.644531 16.9375 L 6.507812 16.9375 C 5.023438 16.9375 3.675781 17.539062 2.699219 18.511719 C 1.71875 19.480469 1.113281 20.824219 1.113281 22.296875 L 1.113281 56.472656 C 1.113281 57.949219 1.71875 59.289062 2.699219 60.261719 C 3.675781 61.234375 5.023438 61.835938 6.507812 61.835938 Z M 46.027344 61.835938 " fill-opacity="1" fill-rule="nonzero"/></g><g clip-path="url(#id2)"><path fill="#560216" d="M 1.964844 24.191406 C 1.496094 24.191406 1.113281 24.570312 1.113281 25.039062 C 1.113281 25.507812 1.496094 25.886719 1.964844 25.886719 L 67.820312 25.886719 C 68.292969 25.886719 68.671875 25.507812 68.671875 25.039062 C 68.671875 24.570312 68.292969 24.191406 67.820312 24.191406 Z M 1.964844 24.191406 " fill-opacity="1" fill-rule="nonzero"/></g><path fill="#560216" d="M 34.792969 10.535156 C 35.589844 10.535156 36.316406 10.859375 36.839844 11.378906 C 37.367188 11.902344 37.691406 12.621094 37.691406 13.414062 L 37.691406 17.960938 C 37.691406 18.753906 37.367188 19.476562 36.839844 19.996094 C 36.316406 20.519531 35.589844 20.84375 34.792969 20.84375 C 33.996094 20.84375 33.269531 20.519531 32.746094 19.996094 C 32.21875 19.476562 31.894531 18.753906 31.894531 17.960938 L 31.894531 13.414062 C 31.894531 12.621094 32.21875 11.902344 32.746094 11.378906 C 33.269531 10.859375 33.996094 10.535156 34.792969 10.535156 Z M 34.792969 12.226562 C 34.464844 12.226562 34.167969 12.363281 33.949219 12.578125 C 33.734375 12.792969 33.597656 13.089844 33.597656 13.414062 L 33.597656 17.960938 C 33.597656 18.289062 33.734375 18.582031 33.949219 18.800781 C 34.167969 19.015625 34.464844 19.148438 34.792969 19.148438 C 35.121094 19.148438 35.417969 19.015625 35.636719 18.800781 C 35.851562 18.582031 35.988281 18.289062 35.988281 17.960938 L 35.988281 13.414062 C 35.988281 13.089844 35.851562 12.792969 35.636719 12.578125 C 35.417969 12.363281 35.121094 12.226562 34.792969 12.226562 Z M 34.792969 12.226562 " fill-opacity="1" fill-rule="nonzero"/><path fill="#560216" d="M 11.78125 28.746094 C 11.78125 28.277344 11.398438 27.898438 10.925781 27.898438 C 10.457031 27.898438 10.074219 28.277344 10.074219 28.746094 L 10.074219 55.183594 C 10.074219 55.652344 10.457031 56.03125 10.925781 56.03125 C 11.398438 56.03125 11.78125 55.652344 11.78125 55.183594 Z M 11.78125 28.746094 " fill-opacity="1" fill-rule="nonzero"/><path fill="#560216" d="M 19.726562 28.746094 C 19.726562 28.277344 19.347656 27.898438 18.875 27.898438 C 18.40625 27.898438 18.023438 28.277344 18.023438 28.746094 L 18.023438 55.183594 C 18.023438 55.652344 18.40625 56.03125 18.875 56.03125 C 19.347656 56.03125 19.726562 55.652344 19.726562 55.183594 Z M 19.726562 28.746094 " fill-opacity="1" fill-rule="nonzero"/><path fill="#560216" d="M 27.675781 28.746094 C 27.675781 28.277344 27.292969 27.898438 26.824219 27.898438 C 26.351562 27.898438 25.972656 28.277344 25.972656 28.746094 L 25.972656 55.183594 C 25.972656 55.652344 26.351562 56.03125 26.824219 56.03125 C 27.292969 56.03125 27.675781 55.652344 27.675781 55.183594 Z M 27.675781 28.746094 " fill-opacity="1" fill-rule="nonzero"/><path fill="#560216" d="M 35.625 28.746094 C 35.625 28.277344 35.242188 27.898438 34.773438 27.898438 C 34.300781 27.898438 33.917969 28.277344 33.917969 28.746094 L 33.917969 55.183594 C 33.917969 55.652344 34.300781 56.03125 34.773438 56.03125 C 35.242188 56.03125 35.625 55.652344 35.625 55.183594 Z M 35.625 28.746094 " fill-opacity="1" fill-rule="nonzero"/><path fill="#560216" d="M 43.574219 28.746094 C 43.574219 28.277344 43.191406 27.898438 42.71875 27.898438 C 42.25 27.898438 41.867188 28.277344 41.867188 28.746094 L 41.867188 55.183594 C 41.867188 55.652344 42.25 56.03125 42.71875 56.03125 C 43.191406 56.03125 43.574219 55.652344 43.574219 55.183594 Z M 43.574219 28.746094 " fill-opacity="1" fill-rule="nonzero"/><path fill="#560216" d="M 51.519531 28.746094 C 51.519531 28.277344 51.140625 27.898438 50.667969 27.898438 C 50.195312 27.898438 49.816406 28.277344 49.816406 28.746094 L 49.816406 37.128906 C 49.816406 37.597656 50.195312 37.976562 50.667969 37.976562 C 51.140625 37.976562 51.519531 37.597656 51.519531 37.128906 Z M 51.519531 28.746094 " fill-opacity="1" fill-rule="nonzero"/><path fill="#560216" d="M 59.46875 28.746094 C 59.46875 28.277344 59.085938 27.898438 58.617188 27.898438 C 58.144531 27.898438 57.761719 28.277344 57.761719 28.746094 L 57.761719 34.871094 C 57.761719 35.339844 58.144531 35.71875 58.617188 35.71875 C 59.085938 35.71875 59.46875 35.339844 59.46875 34.871094 Z M 59.46875 28.746094 " fill-opacity="1" fill-rule="nonzero"/><path fill="#560216" d="M 6.222656 32.089844 C 5.753906 32.089844 5.371094 32.46875 5.371094 32.9375 C 5.371094 33.40625 5.753906 33.785156 6.222656 33.785156 L 62.832031 33.785156 C 63.304688 33.785156 63.683594 33.40625 63.683594 32.9375 C 63.683594 32.46875 63.304688 32.089844 62.832031 32.089844 Z M 6.222656 32.089844 " fill-opacity="1" fill-rule="nonzero"/><path fill="#560216" d="M 6.46875 37.894531 C 5.996094 37.894531 5.613281 38.273438 5.613281 38.742188 C 5.613281 39.210938 5.996094 39.589844 6.46875 39.589844 L 48.800781 39.589844 C 49.273438 39.589844 49.65625 39.210938 49.65625 38.742188 C 49.65625 38.273438 49.273438 37.894531 48.800781 37.894531 Z M 6.46875 37.894531 " fill-opacity="1" fill-rule="nonzero"/><path fill="#560216" d="M 6.710938 43.699219 C 6.238281 43.699219 5.859375 44.078125 5.859375 44.542969 C 5.859375 45.011719 6.238281 45.390625 6.710938 45.390625 L 44.667969 45.390625 C 45.136719 45.390625 45.519531 45.011719 45.519531 44.542969 C 45.519531 44.078125 45.136719 43.699219 44.667969 43.699219 Z M 6.710938 43.699219 " fill-opacity="1" fill-rule="nonzero"/><path fill="#560216" d="M 6.953125 49.5 C 6.484375 49.5 6.101562 49.878906 6.101562 50.347656 C 6.101562 50.816406 6.484375 51.195312 6.953125 51.195312 L 42.71875 51.195312 C 43.191406 51.195312 43.574219 50.816406 43.574219 50.347656 C 43.574219 49.878906 43.191406 49.5 42.71875 49.5 Z M 6.953125 49.5 " fill-opacity="1" fill-rule="nonzero"/><g clip-path="url(#id3)"><path fill="#560216" d="M 59.628906 36.765625 C 63.558594 36.765625 67.117188 38.347656 69.695312 40.910156 C 72.269531 43.46875 73.863281 47.007812 73.863281 50.914062 C 73.863281 54.820312 72.269531 58.355469 69.695312 60.914062 C 67.117188 63.476562 63.558594 65.058594 59.628906 65.058594 C 51.769531 65.058594 45.394531 58.726562 45.394531 50.914062 C 45.394531 43.097656 51.769531 36.765625 59.628906 36.765625 Z M 68.488281 42.105469 C 66.222656 39.855469 63.089844 38.460938 59.628906 38.460938 C 52.710938 38.460938 47.101562 44.035156 47.101562 50.914062 C 47.101562 57.789062 52.710938 63.363281 59.628906 63.363281 C 63.089844 63.363281 66.222656 61.972656 68.488281 59.71875 C 70.757812 57.464844 72.160156 54.351562 72.160156 50.914062 C 72.160156 47.472656 70.757812 44.359375 68.488281 42.105469 Z M 68.488281 42.105469 " fill-opacity="1" fill-rule="nonzero"/></g><path fill="#560216" d="M 55.148438 44.78125 C 54.832031 44.4375 54.292969 44.410156 53.949219 44.726562 C 53.601562 45.039062 53.574219 45.574219 53.890625 45.917969 L 59 51.480469 L 59 51.484375 C 59.238281 51.742188 59.597656 51.820312 59.914062 51.710938 L 66.410156 50.039062 C 66.867188 49.921875 67.140625 49.460938 67.019531 49.007812 C 66.902344 48.554688 66.441406 48.285156 65.984375 48.402344 L 59.914062 49.96875 Z M 55.148438 44.78125 " fill-opacity="1" fill-rule="nonzero"/><path fill="#560216" d="M 18.167969 13.414062 L 18.167969 17.960938 C 18.167969 21.644531 12.367188 21.839844 12.367188 17.960938 L 12.367188 13.414062 C 12.367188 9.679688 18.167969 9.582031 18.167969 13.414062 Z M 14.074219 13.414062 L 14.074219 17.960938 C 14.074219 19.554688 16.460938 19.492188 16.460938 17.960938 L 16.460938 13.414062 C 16.460938 11.835938 14.074219 11.875 14.074219 13.414062 Z M 14.074219 13.414062 " fill-opacity="1" fill-rule="nonzero"/><path fill="#560216" d="M 57.601562 10.535156 C 58.402344 10.535156 59.125 10.859375 59.648438 11.378906 C 60.175781 11.902344 60.5 12.621094 60.5 13.414062 L 60.5 17.960938 C 60.5 18.753906 60.175781 19.476562 59.648438 19.996094 C 59.125 20.519531 58.402344 20.84375 57.601562 20.84375 C 56.804688 20.84375 56.078125 20.519531 55.554688 19.996094 C 55.027344 19.476562 54.703125 18.753906 54.703125 17.960938 L 54.703125 13.414062 C 54.703125 12.621094 55.027344 11.902344 55.554688 11.378906 C 56.078125 10.859375 56.804688 10.535156 57.601562 10.535156 Z M 57.601562 12.226562 C 57.273438 12.226562 56.976562 12.363281 56.757812 12.578125 C 56.542969 12.792969 56.40625 13.089844 56.40625 13.414062 L 56.40625 17.960938 C 56.40625 18.289062 56.542969 18.582031 56.757812 18.800781 C 56.976562 19.015625 57.273438 19.148438 57.601562 19.148438 C 57.929688 19.148438 58.226562 19.015625 58.445312 18.800781 C 58.660156 18.582031 58.796875 18.289062 58.796875 17.960938 L 58.796875 13.414062 C 58.796875 13.089844 58.660156 12.792969 58.445312 12.578125 C 58.226562 12.363281 57.929688 12.226562 57.601562 12.226562 Z M 57.601562 12.226562 " fill-opacity="1" fill-rule="nonzero"/></svg>