<svg xmlns="http://www.w3.org/2000/svg" xmlns:xlink="http://www.w3.org/1999/xlink" width="300" zoomAndPan="magnify" viewBox="0 0 224.87999 299.999988" height="400" preserveAspectRatio="xMidYMid meet" version="1.0"><defs><clipPath id="id1"><path d="M 7.3125 45 L 109 45 L 109 147 L 7.3125 147 Z M 7.3125 45 " clip-rule="nonzero"/></clipPath><clipPath id="id2"><path d="M 115 45 L 217 45 L 217 254.761719 L 115 254.761719 Z M 115 45 " clip-rule="nonzero"/></clipPath><clipPath id="id3"><path d="M 7.3125 153 L 109 153 L 109 254.761719 L 7.3125 254.761719 Z M 7.3125 153 " clip-rule="nonzero"/></clipPath></defs><path fill="#560216" d="M 75.78125 95.679688 C 68.90625 95.679688 62.753906 99.515625 59.710938 105.378906 C 54.71875 102.628906 50.59375 98.574219 47.625 93.726562 C 53.632812 90.6875 57.6875 84.460938 57.6875 77.515625 C 57.6875 67.527344 49.582031 59.421875 39.59375 59.421875 C 29.605469 59.421875 21.5 67.527344 21.5 77.515625 C 21.5 107.476562 45.816406 131.796875 75.78125 131.796875 C 85.769531 131.796875 93.875 123.691406 93.875 113.703125 C 93.875 103.714844 85.769531 95.609375 75.78125 95.609375 Z M 75.78125 95.679688 " fill-opacity="1" fill-rule="evenodd"/><g clip-path="url(#id1)"><path fill="#560216" d="M 10.640625 146.34375 L 104.730469 146.34375 C 106.757812 146.34375 108.347656 144.75 108.347656 142.722656 L 108.347656 48.636719 C 108.347656 46.609375 106.757812 45.019531 104.730469 45.019531 L 10.640625 45.019531 C 8.617188 45.019531 7.023438 46.609375 7.023438 48.636719 L 7.023438 142.722656 C 7.023438 144.75 8.617188 146.34375 10.640625 146.34375 M 14.261719 52.253906 L 101.113281 52.253906 L 101.113281 139.105469 L 14.261719 139.105469 Z M 14.261719 52.253906 " fill-opacity="1" fill-rule="nonzero"/></g><g clip-path="url(#id2)"><path fill="#560216" d="M 166.25 106.609375 C 168.277344 106.609375 169.867188 105.015625 169.867188 102.992188 L 169.867188 77.515625 C 169.867188 75.488281 168.277344 73.894531 166.25 73.894531 C 164.222656 73.894531 162.628906 75.488281 162.628906 77.515625 L 162.628906 102.992188 C 162.628906 105.015625 164.222656 106.609375 166.25 106.609375 Z M 166.25 117.320312 C 168.277344 117.320312 169.867188 115.726562 169.867188 113.703125 C 169.867188 111.675781 168.277344 110.082031 166.25 110.082031 C 164.222656 110.082031 162.628906 111.675781 162.628906 113.703125 C 162.628906 115.726562 164.222656 117.320312 166.25 117.320312 Z M 166.25 66.65625 C 182.242188 66.65625 195.199219 79.613281 195.199219 95.609375 C 195.199219 111.601562 182.242188 124.558594 166.25 124.558594 C 150.253906 124.558594 137.300781 111.601562 137.300781 95.609375 C 137.300781 79.613281 150.253906 66.65625 166.25 66.65625 Z M 166.25 131.796875 C 186.222656 131.796875 202.4375 115.582031 202.4375 95.609375 C 202.4375 75.632812 186.222656 59.421875 166.25 59.421875 C 146.273438 59.421875 130.0625 75.632812 130.0625 95.609375 C 130.0625 115.582031 146.273438 131.796875 166.25 131.796875 Z M 167.335938 176.304688 C 168.710938 174.929688 171.097656 174.929688 172.472656 176.304688 C 173.125 176.957031 173.558594 177.898438 173.558594 178.839844 L 173.558594 200.550781 C 173.558594 202.578125 175.152344 204.171875 177.175781 204.171875 C 179.203125 204.171875 180.796875 202.578125 180.796875 200.550781 L 180.796875 186.078125 C 180.796875 184.050781 182.460938 182.457031 184.414062 182.457031 C 186.371094 182.457031 188.035156 184.050781 188.035156 186.078125 L 188.035156 200.550781 C 188.035156 202.578125 189.625 204.171875 191.652344 204.171875 C 193.679688 204.171875 195.269531 202.578125 195.269531 200.550781 L 195.269531 193.316406 C 195.269531 191.289062 196.9375 189.695312 198.890625 189.695312 C 200.84375 189.695312 202.507812 191.289062 202.507812 193.316406 L 202.507812 233.121094 L 144.609375 233.121094 L 144.609375 213.871094 C 144.609375 212.929688 144.246094 211.988281 143.523438 211.335938 L 124.777344 192.589844 C 128.832031 190.710938 133.824219 191.359375 137.152344 194.691406 L 145.621094 203.15625 C 146.636719 204.171875 148.226562 204.53125 149.53125 203.953125 C 150.90625 203.375 151.773438 202.070312 151.773438 200.625 L 151.773438 142.722656 C 151.773438 140.699219 153.4375 139.105469 155.394531 139.105469 C 157.347656 139.105469 159.011719 140.699219 159.011719 142.722656 L 159.011719 200.625 C 159.011719 202.652344 160.605469 204.242188 162.628906 204.242188 C 164.65625 204.242188 166.25 202.652344 166.25 200.625 L 166.25 178.910156 C 166.25 177.972656 166.609375 177.03125 167.335938 176.378906 Z M 213.292969 45.019531 L 119.207031 45.019531 C 117.179688 45.019531 115.585938 46.609375 115.585938 48.636719 L 115.585938 142.722656 C 115.585938 144.75 117.179688 146.34375 119.207031 146.34375 L 144.535156 146.34375 L 144.535156 192.011719 L 142.21875 189.695312 C 135.34375 182.894531 123.476562 182.894531 116.601562 189.695312 C 115.152344 191.144531 115.152344 193.386719 116.601562 194.835938 L 137.226562 215.460938 L 137.226562 247.667969 L 133.609375 247.667969 C 131.582031 247.667969 129.988281 249.261719 129.988281 251.289062 C 129.988281 253.3125 131.582031 254.90625 133.609375 254.90625 L 213.21875 254.90625 C 215.246094 254.90625 216.839844 253.3125 216.839844 251.289062 C 216.839844 249.261719 215.246094 247.667969 213.21875 247.667969 L 209.601562 247.667969 L 209.601562 193.386719 C 209.601562 187.378906 204.753906 182.53125 198.746094 182.53125 C 197.296875 182.53125 195.996094 182.820312 194.765625 183.328125 C 193.535156 178.695312 189.265625 175.292969 184.269531 175.292969 C 182.824219 175.292969 181.519531 175.582031 180.289062 176.089844 C 179.78125 174.28125 178.84375 172.617188 177.539062 171.242188 C 174.644531 168.34375 170.085938 167.332031 166.25 168.707031 L 166.25 146.34375 L 213.292969 146.34375 C 215.320312 146.34375 216.910156 144.75 216.910156 142.722656 L 216.910156 48.636719 C 216.910156 46.609375 215.320312 45.019531 213.292969 45.019531 Z M 213.292969 45.019531 " fill-opacity="1" fill-rule="evenodd"/></g><g clip-path="url(#id3)"><path fill="#560216" d="M 57.6875 206.632812 C 56.382812 206.632812 55.296875 205.546875 55.296875 204.242188 C 55.296875 202.941406 56.382812 201.855469 57.6875 201.855469 C 58.988281 201.855469 60.074219 202.941406 60.074219 204.242188 C 60.074219 205.546875 58.988281 206.632812 57.6875 206.632812 Z M 57.6875 225.957031 L 69.773438 225.957031 C 71.800781 225.957031 73.390625 224.363281 73.390625 222.335938 C 73.390625 220.3125 71.800781 218.71875 69.773438 218.71875 L 57.6875 218.71875 C 49.726562 218.71875 43.210938 212.203125 43.210938 204.242188 C 43.210938 200.335938 44.730469 196.714844 47.480469 194.039062 C 52.910156 188.609375 62.535156 188.609375 67.964844 194.039062 C 70.640625 196.714844 72.234375 200.480469 72.234375 204.242188 L 72.234375 206.632812 L 69.84375 206.632812 C 68.542969 206.632812 67.457031 205.546875 67.457031 204.242188 L 67.457031 195.992188 C 67.457031 193.964844 65.863281 192.375 63.839844 192.375 C 62.101562 192.375 60.796875 193.605469 60.363281 195.125 C 59.496094 194.90625 58.699219 194.617188 57.757812 194.617188 C 52.402344 194.617188 48.132812 198.960938 48.132812 204.242188 C 48.132812 209.527344 52.476562 213.871094 57.757812 213.871094 C 60.074219 213.871094 62.101562 212.929688 63.765625 211.554688 C 65.429688 212.929688 67.457031 213.871094 69.773438 213.871094 L 75.78125 213.871094 C 77.804688 213.871094 79.398438 212.277344 79.398438 210.25 L 79.398438 204.242188 C 79.398438 198.527344 77.082031 192.953125 73.03125 188.898438 C 64.851562 180.722656 50.519531 180.722656 42.34375 188.898438 C 38.21875 193.023438 35.972656 198.453125 35.972656 204.242188 C 35.972656 216.183594 45.746094 225.957031 57.6875 225.957031 Z M 57.6875 175.292969 C 73.679688 175.292969 86.636719 188.25 86.636719 204.242188 C 86.636719 220.238281 73.679688 233.195312 57.6875 233.195312 C 41.691406 233.195312 28.734375 220.238281 28.734375 204.242188 C 28.734375 188.25 41.691406 175.292969 57.6875 175.292969 Z M 57.6875 240.429688 C 77.660156 240.429688 93.875 224.21875 93.875 204.242188 C 93.875 184.269531 77.660156 168.054688 57.6875 168.054688 C 37.710938 168.054688 21.5 184.269531 21.5 204.242188 C 21.5 224.21875 37.710938 240.429688 57.6875 240.429688 Z M 108.347656 251.289062 L 108.347656 157.199219 C 108.347656 155.171875 106.757812 153.582031 104.730469 153.582031 L 10.640625 153.582031 C 8.617188 153.582031 7.023438 155.171875 7.023438 157.199219 L 7.023438 251.289062 C 7.023438 253.3125 8.617188 254.90625 10.640625 254.90625 L 104.730469 254.90625 C 106.757812 254.90625 108.347656 253.3125 108.347656 251.289062 Z M 108.347656 251.289062 " fill-opacity="1" fill-rule="evenodd"/></g></svg>