<svg xmlns="http://www.w3.org/2000/svg" xmlns:xlink="http://www.w3.org/1999/xlink" width="100" zoomAndPan="magnify" viewBox="0 0 75 74.999997" height="100" preserveAspectRatio="xMidYMid meet" version="1.0"><defs><clipPath id="id1"><path d="M 1.492188 6.203125 L 59 6.203125 L 59 67 L 1.492188 67 Z M 1.492188 6.203125 " clip-rule="nonzero"/></clipPath><clipPath id="id2"><path d="M 22 6.203125 L 73.492188 6.203125 L 73.492188 51 L 22 51 Z M 22 6.203125 " clip-rule="nonzero"/></clipPath><clipPath id="id3"><path d="M 34 62 L 41 62 L 41 68.453125 L 34 68.453125 Z M 34 62 " clip-rule="nonzero"/></clipPath></defs><path fill="#560216" d="M 25.027344 54.394531 C 23.058594 54.394531 21.574219 56.121094 21.574219 58.40625 C 21.574219 59.082031 21.6875 61.355469 23.164062 62.339844 C 24.152344 63.003906 25.605469 62.980469 27.46875 62.292969 C 27.460938 62.195312 27.457031 62.09375 27.457031 62 C 27.460938 60.777344 27.839844 59.695312 28.476562 58.875 C 28.417969 55.988281 27.203125 54.394531 25.027344 54.394531 Z M 25.027344 54.394531 " fill-opacity="1" fill-rule="nonzero"/><path fill="#560216" d="M 34.0625 59.53125 C 33.382812 58.863281 32.492188 58.480469 31.613281 58.480469 C 31.605469 58.480469 31.601562 58.480469 31.59375 58.480469 C 30.753906 58.484375 30.019531 58.867188 29.488281 59.496094 C 28.960938 60.128906 28.640625 61.003906 28.636719 62.003906 C 28.632812 63.511719 29.511719 65.910156 31.886719 65.917969 C 31.894531 65.917969 31.898438 65.917969 31.90625 65.917969 C 32.820312 65.917969 33.554688 65.652344 34.085938 65.125 C 34.757812 64.457031 35.128906 63.347656 35.128906 62 C 35.128906 61.089844 34.75 60.214844 34.0625 59.53125 Z M 34.0625 59.53125 " fill-opacity="1" fill-rule="nonzero"/><path fill="#560216" d="M 23.875 53.382812 C 23.863281 51.609375 22.597656 50.003906 20.941406 49.773438 C 20.070312 49.652344 19.199219 49.910156 18.480469 50.503906 C 17.75 51.105469 17.269531 51.980469 17.132812 52.964844 C 16.949219 54.261719 17.246094 55.429688 17.941406 56.160156 C 18.535156 56.789062 19.410156 57.097656 20.546875 57.085938 C 20.960938 55.25 22.230469 53.839844 23.875 53.382812 Z M 23.875 53.382812 " fill-opacity="1" fill-rule="nonzero"/><g clip-path="url(#id1)"><path fill="#560216" d="M 39.421875 34.40625 C 38.917969 34.140625 38.3125 34.136719 37.792969 34.402344 C 34.117188 36.265625 30.085938 37.671875 30.042969 37.683594 C 30.023438 37.691406 30.003906 37.695312 29.980469 37.703125 C 25.976562 38.613281 23.070312 37.03125 22.0625 35.179688 C 21.464844 34.074219 21.671875 32.675781 22.574219 31.78125 C 27.378906 27.019531 36.546875 22.359375 40.730469 23.722656 C 47.621094 25.894531 51.210938 24.929688 53.007812 23.734375 C 55.074219 22.359375 55.34375 20.394531 55.375 20.011719 C 55.410156 19.605469 55.382812 19.015625 55.054688 18.503906 C 54.078125 17 51.582031 16.890625 48.9375 16.777344 C 47.40625 16.710938 45.820312 16.640625 44.472656 16.277344 C 43.082031 15.898438 41.910156 15.746094 40.554688 15.761719 C 27.703125 15.921875 20.757812 20.1875 20.691406 20.230469 C 20.488281 20.359375 20.222656 20.347656 20.027344 20.207031 L 1.492188 6.796875 L 1.492188 36.410156 L 7.675781 39.765625 C 7.773438 39.816406 7.851562 39.898438 7.90625 39.992188 C 7.949219 40.070312 12.09375 47.351562 16.929688 50.441406 C 17.164062 50.132812 17.425781 49.847656 17.726562 49.597656 C 18.703125 48.796875 19.902344 48.441406 21.105469 48.609375 C 23.320312 48.917969 24.972656 50.914062 25.046875 53.222656 C 27.601562 53.230469 29.242188 54.945312 29.589844 57.867188 C 30.175781 57.511719 30.851562 57.308594 31.585938 57.304688 C 31.59375 57.304688 31.605469 57.304688 31.613281 57.304688 C 32.800781 57.304688 33.992188 57.8125 34.890625 58.699219 C 35.679688 59.480469 36.164062 60.457031 36.28125 61.5 C 38.15625 60.773438 40.015625 61.371094 41.023438 62.492188 C 42.007812 63.585938 42.144531 65.042969 41.476562 66.40625 C 43.917969 66.878906 44.921875 65.402344 45.25 64.691406 C 45.835938 63.441406 45.613281 62.097656 45.023438 61.730469 C 45.019531 61.726562 45.019531 61.722656 45.015625 61.722656 C 45.003906 61.710938 44.988281 61.703125 44.972656 61.695312 C 42.507812 59.769531 36.390625 54.898438 32.894531 51.203125 C 32.671875 50.96875 32.683594 50.59375 32.921875 50.371094 C 33.15625 50.152344 33.53125 50.164062 33.753906 50.398438 C 37.195312 54.035156 43.257812 58.863281 45.703125 60.769531 C 46.460938 61.359375 47.410156 61.625 48.300781 61.492188 C 49.902344 61.257812 51.214844 60.488281 52.203125 59.207031 C 53.085938 58.0625 52.953125 56.421875 51.894531 55.390625 C 47.320312 50.953125 39.445312 44.875 39.363281 44.8125 C 39.105469 44.613281 39.058594 44.246094 39.257812 43.988281 C 39.457031 43.730469 39.828125 43.6875 40.085938 43.882812 C 40.167969 43.945312 48.097656 50.066406 52.71875 54.550781 C 53.042969 54.867188 53.292969 55.226562 53.492188 55.609375 C 56.328125 55.253906 58.058594 52.875 58.644531 51.464844 C 59.007812 50.589844 58.425781 49.597656 57.816406 49.011719 C 53.234375 44.617188 40.304688 35.058594 39.421875 34.40625 Z M 39.421875 34.40625 " fill-opacity="1" fill-rule="nonzero"/></g><g clip-path="url(#id2)"><path fill="#560216" d="M 56.441406 18.785156 C 56.550781 19.199219 56.59375 19.644531 56.554688 20.113281 C 56.433594 21.488281 55.613281 23.414062 53.664062 24.710938 C 50.738281 26.652344 46.265625 26.699219 40.367188 24.839844 C 37.03125 23.753906 28.316406 27.75 23.410156 32.613281 C 22.875 33.144531 22.75 33.96875 23.101562 34.621094 C 23.769531 35.847656 26.070312 37.371094 29.6875 36.566406 C 30.0625 36.433594 33.824219 35.097656 37.257812 33.355469 C 38.128906 32.910156 39.160156 32.921875 40.007812 33.382812 C 42.472656 34.722656 49.082031 37.226562 57.175781 31.59375 C 57.445312 31.40625 57.8125 31.472656 58 31.738281 C 58.1875 32.003906 58.121094 32.367188 57.855469 32.554688 C 52.035156 36.605469 46.910156 36.695312 43.371094 35.882812 C 47.742188 39.171875 55.277344 44.945312 58.636719 48.167969 C 59.152344 48.664062 59.636719 49.382812 59.835938 50.179688 C 61.523438 48.953125 65.644531 45.542969 70.386719 38.613281 C 70.441406 38.53125 70.519531 38.464844 70.609375 38.417969 L 73.492188 36.984375 L 73.492188 6.246094 Z M 56.441406 18.785156 " fill-opacity="1" fill-rule="nonzero"/></g><g clip-path="url(#id3)"><path fill="#560216" d="M 36.261719 62.8125 C 36.128906 64.117188 35.664062 65.21875 34.917969 65.957031 C 34.804688 66.070312 34.683594 66.171875 34.554688 66.269531 C 34.949219 67.339844 35.609375 67.992188 36.484375 68.160156 C 37.648438 68.390625 39.082031 67.746094 39.972656 66.605469 C 40.910156 65.441406 40.972656 64.199219 40.144531 63.277344 C 39.351562 62.394531 37.792969 61.992188 36.261719 62.8125 Z M 36.261719 62.8125 " fill-opacity="1" fill-rule="nonzero"/></g></svg>