<svg xmlns="http://www.w3.org/2000/svg" xmlns:xlink="http://www.w3.org/1999/xlink" width="100" zoomAndPan="magnify" viewBox="0 0 75 74.999997" height="100" preserveAspectRatio="xMidYMid meet" version="1.0"><defs><clipPath id="id1"><path d="M 1.507812 1.507812 L 73.507812 1.507812 L 73.507812 73.507812 L 1.507812 73.507812 Z M 1.507812 1.507812 " clip-rule="nonzero"/></clipPath></defs><path fill="#560216" d="M 52.546875 24.507812 C 52.429688 24.089844 52.148438 23.746094 51.75 23.539062 C 51.835938 22.597656 51.707031 21.441406 51.492188 20.488281 C 51.300781 19.710938 51.007812 18.835938 50.554688 17.921875 C 50.085938 17.023438 49.5 16.0625 48.679688 15.183594 C 47.898438 14.269531 46.894531 13.4375 45.757812 12.703125 C 35.863281 6.429688 22.203125 13.851562 23.265625 23.542969 C 22.867188 23.746094 22.585938 24.09375 22.472656 24.507812 C 20.128906 24.550781 18.246094 26.289062 18.246094 28.4375 C 18.246094 30.585938 20.128906 32.332031 22.472656 32.371094 C 22.65625 33.050781 23.296875 33.566406 24.097656 33.566406 C 25.046875 33.566406 25.808594 32.863281 25.808594 31.996094 L 25.808594 24.882812 C 25.808594 24.390625 25.546875 23.96875 25.160156 23.679688 C 25.589844 21.230469 26.859375 18.644531 28.644531 17.039062 C 31.265625 14.484375 35.816406 13.007812 40.8125 14.121094 C 42.734375 14.695312 44.628906 15.660156 46.207031 17.199219 C 47.960938 18.777344 49.386719 21.144531 49.851562 23.683594 C 48.839844 24.433594 49.203125 25.082031 49.203125 31.996094 C 49.203125 32.539062 49.523438 32.996094 49.980469 33.277344 L 49.980469 33.875 C 49.980469 34.257812 49.871094 34.632812 49.664062 34.957031 C 47.425781 38.441406 47.277344 38.796875 43.898438 39.875 C 42.839844 40.21875 41.640625 40.363281 40.425781 40.660156 C 39.308594 39.554688 37.335938 40.28125 37.335938 41.761719 C 37.335938 43.625 40.246094 44.054688 40.8125 42.1875 C 41.632812 41.988281 42.476562 41.871094 43.269531 41.628906 C 47.628906 40.304688 49.054688 39.515625 51.359375 35.113281 C 51.578125 34.699219 51.691406 34.238281 51.691406 33.765625 L 51.691406 33.375 C 52.121094 33.171875 52.429688 32.8125 52.546875 32.371094 C 54.882812 32.328125 56.765625 30.585938 56.765625 28.4375 C 56.765625 26.292969 54.882812 24.554688 52.546875 24.507812 " fill-opacity="1" fill-rule="nonzero"/><path fill="#560216" d="M 37.515625 49.941406 C 38.914062 47.976562 40.128906 46.289062 41.324219 44.582031 C 42.722656 42.585938 44.132812 41.941406 46.339844 42.6875 C 49.148438 43.636719 51.933594 44.695312 54.648438 45.875 C 56.984375 46.898438 58.296875 48.710938 58.148438 51.402344 C 58.074219 52.730469 58.148438 54.0625 58.132812 55.390625 C 58.082031 59.050781 56.417969 60.753906 52.792969 60.773438 C 48.113281 60.796875 43.429688 60.777344 38.75 60.777344 C 33.308594 60.777344 27.871094 60.792969 22.429688 60.773438 C 18.542969 60.757812 16.902344 59.09375 16.882812 55.226562 C 16.875 53.960938 16.945312 52.691406 16.867188 51.429688 C 16.695312 48.628906 18.136719 46.824219 20.519531 45.796875 C 23.238281 44.625 26.035156 43.601562 28.847656 42.671875 C 31.246094 41.871094 31.992188 42.226562 33.476562 44.308594 C 34.753906 46.101562 36.039062 47.890625 37.515625 49.941406 " fill-opacity="1" fill-rule="nonzero"/><path fill="#560216" d="M 47.425781 26.582031 C 47.171875 29.882812 46.128906 34.105469 42.667969 37.351562 C 39.730469 40.105469 35.253906 40.175781 32.367188 37.355469 C 28.359375 33.445312 27.101562 28.476562 27.71875 23.113281 C 28.046875 20.304688 29.753906 18.097656 32.632812 17.15625 C 36.902344 15.757812 41.039062 15.621094 44.804688 18.605469 C 47 20.351562 47.503906 22.742188 47.425781 26.582031 " fill-opacity="1" fill-rule="nonzero"/><g clip-path="url(#id1)"><path fill="#560216" d="M 37.507812 70.6875 C 19.179688 70.6875 4.328125 55.832031 4.328125 37.507812 C 4.328125 19.179688 19.179688 4.328125 37.507812 4.328125 C 55.832031 4.328125 70.6875 19.179688 70.6875 37.507812 C 70.6875 55.832031 55.832031 70.6875 37.507812 70.6875 Z M 37.507812 1.507812 C 17.625 1.507812 1.507812 17.625 1.507812 37.507812 C 1.507812 57.390625 17.625 73.507812 37.507812 73.507812 C 57.390625 73.507812 73.507812 57.390625 73.507812 37.507812 C 73.507812 17.625 57.390625 1.507812 37.507812 1.507812 " fill-opacity="1" fill-rule="nonzero"/></g></svg>