<svg xmlns="http://www.w3.org/2000/svg" xmlns:xlink="http://www.w3.org/1999/xlink" width="100" zoomAndPan="magnify" viewBox="0 0 75 74.999997" height="100" preserveAspectRatio="xMidYMid meet" version="1.0"><defs><clipPath id="id1"><path d="M 1.34375 1.261719 L 73.976562 1.261719 L 73.976562 74.011719 L 1.34375 74.011719 Z M 1.34375 1.261719 " clip-rule="nonzero"/></clipPath></defs><path fill="#560216" d="M 25.445312 32.191406 C 21.707031 32.191406 18.621094 29.214844 18.621094 25.472656 C 18.621094 21.734375 21.707031 18.765625 25.445312 18.765625 C 29.1875 18.765625 32.273438 21.734375 32.273438 25.472656 C 32.273438 29.214844 29.296875 32.191406 25.445312 32.191406 Z M 25.445312 16.453125 C 20.492188 16.453125 16.425781 20.410156 16.425781 25.363281 C 16.425781 30.316406 20.492188 34.277344 25.445312 34.277344 C 30.402344 34.277344 34.46875 30.316406 34.46875 25.363281 C 34.46875 20.410156 30.511719 16.453125 25.445312 16.453125 " fill-opacity="1" fill-rule="nonzero"/><path fill="#560216" d="M 66.9375 52.550781 L 64.300781 52.878906 C 63.636719 52.988281 63.199219 53.425781 63.089844 54.09375 C 62.757812 55.410156 62.203125 56.726562 61.542969 57.941406 C 61.214844 58.492188 61.214844 59.148438 61.652344 59.703125 L 63.308594 61.796875 L 61.875 62.894531 L 59.679688 61.242188 C 59.238281 60.914062 58.464844 60.804688 57.914062 61.132812 C 56.699219 61.902344 55.492188 62.457031 54.066406 62.675781 C 53.398438 62.785156 52.960938 63.335938 52.851562 63.882812 L 52.523438 66.523438 L 50.875 66.523438 L 50.539062 63.992188 C 50.429688 63.335938 49.988281 62.894531 49.332031 62.785156 C 47.898438 62.457031 46.691406 62.011719 45.480469 61.242188 C 44.925781 60.914062 44.269531 60.914062 43.71875 61.351562 L 41.625 62.894531 L 40.417969 61.679688 L 42.175781 59.371094 L 42.730469 58.71875 L 42.285156 58.050781 C 41.515625 56.835938 40.859375 55.519531 40.636719 54.09375 C 40.527344 53.425781 39.972656 52.988281 39.421875 52.878906 L 36.5625 52.550781 L 36.5625 50.792969 L 39.203125 50.457031 C 39.863281 50.347656 40.308594 49.90625 40.417969 49.25 C 40.746094 47.925781 41.296875 46.605469 41.957031 45.398438 C 42.285156 44.84375 42.285156 44.183594 41.84375 43.636719 L 40.191406 41.542969 L 41.40625 40.335938 L 43.382812 41.871094 L 44.046875 42.3125 L 44.816406 42.3125 L 45.144531 42.09375 C 46.359375 41.324219 47.679688 40.664062 49.222656 40.445312 C 49.878906 40.335938 50.320312 39.78125 50.429688 39.230469 L 50.765625 36.589844 L 52.523438 36.589844 L 52.851562 39.230469 C 52.960938 39.890625 53.398438 40.335938 54.066406 40.445312 C 55.492188 40.773438 56.699219 41.214844 57.914062 41.984375 C 58.464844 42.3125 59.128906 42.3125 59.679688 41.871094 L 61.765625 40.226562 L 62.976562 41.433594 L 61.324219 43.527344 C 60.886719 44.074219 60.886719 44.734375 61.214844 45.289062 C 61.984375 46.496094 62.539062 47.703125 62.757812 49.140625 C 62.867188 49.796875 63.417969 50.238281 63.964844 50.347656 L 66.609375 50.683594 L 66.609375 52.550781 Z M 67.820312 48.699219 L 65.0625 48.363281 C 64.742188 47.046875 64.191406 45.839844 63.527344 44.734375 L 66.058594 41.542969 L 62.976562 38.460938 C 62.429688 37.914062 61.542969 37.914062 60.996094 38.351562 L 58.792969 40 C 57.695312 39.339844 56.371094 38.792969 55.164062 38.460938 L 54.832031 35.710938 C 54.722656 34.9375 54.066406 34.386719 53.398438 34.386719 L 50.429688 34.386719 C 49.660156 34.386719 49 34.9375 49 35.710938 L 48.664062 38.460938 C 47.347656 38.792969 46.140625 39.339844 45.035156 40 L 42.832031 38.351562 C 42.285156 37.914062 41.40625 38.023438 40.859375 38.460938 L 38.765625 40.554688 C 38.214844 41.105469 38.214844 41.871094 38.65625 42.53125 L 40.308594 44.734375 C 39.644531 45.839844 39.09375 47.046875 38.765625 48.363281 L 36.011719 48.699219 C 35.246094 48.808594 34.691406 49.46875 34.691406 50.125 L 34.691406 53.097656 C 34.691406 53.871094 35.246094 54.53125 36.011719 54.53125 L 38.765625 54.859375 C 39.09375 56.183594 39.644531 57.394531 40.308594 58.492188 L 38.65625 60.691406 C 38.214844 61.242188 38.214844 62.128906 38.765625 62.675781 L 40.859375 64.761719 C 41.40625 65.316406 42.175781 65.316406 42.832031 64.878906 L 45.035156 63.226562 C 46.140625 63.882812 47.457031 64.433594 48.664062 64.761719 L 49 67.519531 C 49.113281 68.289062 49.769531 68.835938 50.429688 68.835938 L 53.398438 68.835938 C 54.175781 68.835938 54.832031 68.289062 54.832031 67.519531 L 55.164062 64.761719 C 56.480469 64.433594 57.695312 63.882812 58.792969 63.226562 L 60.996094 64.878906 C 61.214844 65.097656 61.542969 65.207031 61.984375 65.207031 C 62.429688 65.207031 62.757812 65.097656 63.089844 64.761719 L 65.179688 62.675781 C 65.730469 62.128906 65.730469 61.351562 65.289062 60.691406 L 63.636719 58.492188 C 64.300781 57.394531 64.84375 56.183594 65.179688 54.859375 L 67.933594 54.53125 C 68.699219 54.421875 69.25 53.761719 69.25 53.097656 L 69.25 50.125 C 69.140625 49.46875 68.589844 48.808594 67.820312 48.699219 " fill-opacity="1" fill-rule="nonzero"/><path fill="#560216" d="M 51.753906 57.722656 C 48.335938 57.722656 45.589844 54.972656 45.589844 51.671875 C 45.589844 48.253906 48.335938 45.617188 51.753906 45.617188 C 55.164062 45.617188 57.914062 48.363281 57.914062 51.671875 C 57.914062 54.972656 55.164062 57.722656 51.753906 57.722656 Z M 51.753906 43.410156 C 47.128906 43.410156 43.382812 47.15625 43.382812 51.671875 C 43.382812 56.289062 47.128906 59.925781 51.753906 59.925781 C 56.371094 59.925781 60.117188 56.183594 60.117188 51.671875 C 60.117188 47.046875 56.371094 43.410156 51.753906 43.410156 " fill-opacity="1" fill-rule="nonzero"/><g clip-path="url(#id1)"><path fill="#560216" d="M 51.753906 71.699219 C 40.746094 71.699219 31.71875 62.675781 31.71875 51.671875 C 31.71875 40.664062 40.746094 31.636719 51.753906 31.636719 C 62.757812 31.636719 71.78125 40.554688 71.78125 51.671875 C 71.78125 62.785156 62.757812 71.699219 51.753906 71.699219 Z M 35.246094 36.808594 L 34.140625 35.929688 C 33.589844 35.492188 32.933594 35.492188 32.382812 35.820312 C 31.058594 36.699219 29.625 37.25 28.199219 37.585938 C 27.539062 37.6875 27.101562 38.242188 26.992188 38.902344 L 26.546875 41.871094 L 24.460938 41.871094 L 24.011719 38.902344 C 23.902344 38.242188 23.464844 37.6875 22.804688 37.585938 C 21.261719 37.25 19.835938 36.699219 18.621094 35.820312 C 18.070312 35.492188 17.414062 35.492188 16.863281 35.929688 L 14.441406 37.796875 L 13.007812 36.371094 C 13.671875 35.492188 14.769531 34.167969 14.992188 33.839844 L 15.648438 33.070312 L 14.992188 32.410156 C 14.113281 31.085938 13.558594 29.652344 13.117188 28.117188 C 13.007812 27.457031 12.457031 27.019531 11.800781 26.90625 L 8.828125 26.460938 L 8.828125 24.375 C 9.488281 24.261719 10.476562 24.148438 11.140625 24.046875 L 11.800781 23.929688 C 12.457031 23.820312 12.898438 23.382812 13.117188 22.722656 C 13.453125 21.289062 14.003906 19.863281 14.882812 18.539062 C 15.210938 17.988281 15.210938 17.21875 14.769531 16.78125 L 13.007812 14.46875 L 14.441406 13.035156 C 15.320312 13.699219 16.753906 14.796875 17.082031 15.019531 L 17.960938 15.457031 L 18.511719 14.90625 C 19.835938 14.03125 21.261719 13.480469 22.914062 13.144531 C 23.574219 13.035156 24.011719 12.484375 24.128906 11.828125 L 24.460938 8.964844 L 26.546875 8.964844 L 26.992188 11.9375 C 27.101562 12.597656 27.539062 13.035156 28.199219 13.261719 C 29.734375 13.589844 31.167969 14.140625 32.382812 15.019531 C 32.933594 15.347656 33.589844 15.347656 34.140625 14.90625 L 36.5625 13.035156 L 37.996094 14.46875 L 36.125 16.890625 C 35.792969 17.441406 35.792969 18.097656 36.125 18.652344 C 37 19.972656 37.558594 21.289062 37.886719 22.832031 C 37.996094 23.492188 38.546875 23.929688 39.203125 24.046875 L 42.175781 24.484375 L 42.175781 26.574219 C 41.1875 26.6875 39.753906 26.90625 39.203125 27.019531 C 38.546875 27.128906 38.105469 27.566406 37.886719 28.226562 C 37.558594 29.769531 37 31.085938 36.125 32.410156 C 35.792969 32.960938 35.792969 33.617188 36.125 34.167969 L 37 35.273438 C 36.34375 35.601562 35.792969 36.261719 35.246094 36.808594 Z M 25.445312 47.375 C 13.34375 47.375 3.546875 37.585938 3.546875 25.472656 C 3.546875 13.371094 13.34375 3.464844 25.445312 3.464844 C 37.558594 3.464844 47.347656 13.371094 47.347656 25.472656 C 47.347656 27.019531 47.128906 28.554688 46.910156 29.988281 C 43.828125 30.648438 41.078125 31.964844 38.65625 33.726562 L 38.105469 33.070312 C 38.875 31.746094 39.421875 30.429688 39.753906 28.996094 C 40.636719 28.882812 42.175781 28.664062 42.832031 28.554688 C 43.609375 28.445312 44.15625 27.785156 44.15625 27.019531 L 44.15625 23.820312 C 44.15625 23.050781 43.609375 22.394531 42.832031 22.285156 L 39.863281 21.84375 C 39.535156 20.410156 38.984375 19.09375 38.214844 17.769531 L 40.96875 14.25 L 37.667969 10.949219 C 37.113281 10.394531 36.234375 10.394531 35.683594 10.832031 L 33.152344 12.707031 C 31.828125 11.9375 30.511719 11.386719 29.078125 11.058594 L 28.636719 7.972656 C 28.527344 7.3125 27.871094 6.761719 27.101562 6.761719 L 23.792969 6.761719 C 23.023438 6.761719 22.367188 7.3125 22.257812 8.085938 L 21.925781 11.167969 C 20.492188 11.496094 19.066406 12.046875 17.851562 12.816406 C 17.082031 12.265625 15.867188 11.386719 15.320312 10.949219 C 14.769531 10.507812 13.894531 10.507812 13.34375 11.058594 L 11.03125 13.371094 C 10.476562 13.917969 10.476562 14.6875 10.921875 15.347656 L 12.789062 17.769531 C 12.019531 19.09375 11.472656 20.410156 11.140625 21.84375 L 10.921875 21.84375 C 9.925781 22.0625 8.609375 22.175781 7.945312 22.285156 C 7.175781 22.394531 6.625 23.050781 6.625 23.820312 L 6.625 27.019531 C 6.625 27.785156 7.175781 28.445312 7.945312 28.554688 L 11.03125 28.996094 C 11.359375 30.429688 11.910156 31.746094 12.679688 33.070312 C 12.128906 33.839844 11.25 34.9375 10.8125 35.492188 C 10.367188 36.039062 10.367188 36.917969 10.921875 37.472656 L 13.226562 39.78125 C 13.78125 40.335938 14.550781 40.335938 15.210938 39.890625 L 17.742188 38.023438 C 19.066406 38.792969 20.382812 39.339844 21.816406 39.671875 L 22.257812 42.75 C 22.367188 43.527344 23.023438 44.074219 23.792969 44.074219 L 27.101562 44.074219 C 27.871094 44.074219 28.527344 43.527344 28.636719 42.75 L 29.078125 39.671875 C 30.511719 39.339844 31.9375 38.792969 33.152344 38.023438 L 33.8125 38.574219 C 32.046875 40.996094 30.730469 43.855469 29.960938 46.9375 C 28.527344 47.265625 27.101562 47.375 25.445312 47.375 Z M 51.753906 29.433594 C 50.875 29.433594 50.101562 29.542969 49.332031 29.542969 C 49.550781 28.226562 49.660156 26.796875 49.660156 25.472656 C 49.660156 12.15625 38.875 1.261719 25.558594 1.261719 C 12.128906 1.261719 1.34375 12.15625 1.34375 25.472656 C 1.34375 38.792969 12.128906 49.6875 25.445312 49.6875 C 26.882812 49.6875 28.308594 49.578125 29.625 49.359375 C 29.515625 50.125 29.515625 51.011719 29.515625 51.78125 C 29.515625 63.992188 39.535156 74.011719 51.753906 74.011719 C 63.964844 73.902344 73.984375 63.882812 73.984375 51.671875 C 73.984375 39.339844 63.964844 29.433594 51.753906 29.433594 " fill-opacity="1" fill-rule="nonzero"/></g><path fill="#560216" d="M 50.429688 10.0625 C 50.429688 10.0625 50.429688 10.171875 50.429688 10.0625 L 55.933594 15.128906 C 56.371094 15.566406 57.035156 15.566406 57.476562 15.019531 C 57.914062 14.578125 57.914062 13.917969 57.367188 13.480469 L 53.957031 10.285156 L 68.152344 10.285156 L 68.152344 29.214844 C 68.152344 29.878906 68.589844 30.316406 69.25 30.316406 C 69.910156 30.316406 70.347656 29.878906 70.347656 29.214844 L 70.347656 9.296875 C 70.347656 8.636719 69.910156 8.199219 69.25 8.199219 L 54.066406 8.199219 L 57.367188 5.226562 C 57.804688 4.78125 57.804688 4.121094 57.476562 3.683594 C 57.035156 3.242188 56.371094 3.242188 55.933594 3.574219 L 50.429688 8.527344 C 50.210938 8.746094 50.101562 8.964844 50.101562 9.296875 C 50.101562 9.625 50.210938 9.953125 50.429688 10.0625 " fill-opacity="1" fill-rule="nonzero"/><path fill="#560216" d="M 27.757812 66.085938 C 27.757812 65.757812 27.648438 65.539062 27.429688 65.316406 L 21.925781 60.253906 C 21.480469 59.816406 20.824219 59.816406 20.382812 60.363281 C 19.945312 60.804688 19.945312 61.46875 20.492188 61.902344 L 23.902344 65.097656 L 9.597656 65.097656 L 9.597656 51.890625 C 9.597656 51.226562 9.160156 50.792969 8.5 50.792969 C 7.835938 50.792969 7.394531 51.226562 7.394531 51.890625 L 7.394531 66.195312 C 7.394531 66.859375 7.835938 67.292969 8.5 67.292969 L 23.792969 67.292969 L 20.492188 70.269531 C 20.054688 70.710938 20.054688 71.371094 20.382812 71.808594 C 20.824219 72.253906 21.480469 72.253906 21.925781 71.917969 L 27.429688 66.964844 C 27.871094 66.523438 27.757812 65.757812 27.757812 66.085938 " fill-opacity="1" fill-rule="nonzero"/></svg>